%TF.GenerationSoftware,KiCad,Pcbnew,8.0.1-8.0.1-0~ubuntu20.04.1*%
%TF.CreationDate,2024-04-11T23:30:55+02:00*%
%TF.ProjectId,reaktor51_led,7265616b-746f-4723-9531-5f6c65642e6b,rev?*%
%TF.SameCoordinates,Original*%
%TF.FileFunction,Legend,Top*%
%TF.FilePolarity,Positive*%
%FSLAX46Y46*%
G04 Gerber Fmt 4.6, Leading zero omitted, Abs format (unit mm)*
G04 Created by KiCad (PCBNEW 8.0.1-8.0.1-0~ubuntu20.04.1) date 2024-04-11 23:30:55*
%MOMM*%
%LPD*%
G01*
G04 APERTURE LIST*
%ADD10C,0.500000*%
%ADD11C,0.200000*%
%ADD12C,0.220000*%
%ADD13C,0.150000*%
%ADD14C,0.120000*%
%ADD15C,0.000000*%
G04 APERTURE END LIST*
D10*
X183250000Y-108500000D02*
X174999856Y-91000068D01*
X161000000Y-46500000D02*
G75*
G02*
X175049828Y-91071182I0J-24500000D01*
G01*
X131500000Y-108500000D02*
X183250000Y-108500000D01*
X131500000Y-46500000D02*
X161000000Y-46500000D01*
X131500000Y-108500000D02*
X131500000Y-46500000D01*
D11*
X157271980Y-83058898D02*
X157319600Y-83106517D01*
X157319600Y-83106517D02*
X157367219Y-83249374D01*
X157367219Y-83249374D02*
X157367219Y-83344612D01*
X157367219Y-83344612D02*
X157319600Y-83487469D01*
X157319600Y-83487469D02*
X157224361Y-83582707D01*
X157224361Y-83582707D02*
X157129123Y-83630326D01*
X157129123Y-83630326D02*
X156938647Y-83677945D01*
X156938647Y-83677945D02*
X156795790Y-83677945D01*
X156795790Y-83677945D02*
X156605314Y-83630326D01*
X156605314Y-83630326D02*
X156510076Y-83582707D01*
X156510076Y-83582707D02*
X156414838Y-83487469D01*
X156414838Y-83487469D02*
X156367219Y-83344612D01*
X156367219Y-83344612D02*
X156367219Y-83249374D01*
X156367219Y-83249374D02*
X156414838Y-83106517D01*
X156414838Y-83106517D02*
X156462457Y-83058898D01*
X157367219Y-82058898D02*
X156891028Y-82392231D01*
X157367219Y-82630326D02*
X156367219Y-82630326D01*
X156367219Y-82630326D02*
X156367219Y-82249374D01*
X156367219Y-82249374D02*
X156414838Y-82154136D01*
X156414838Y-82154136D02*
X156462457Y-82106517D01*
X156462457Y-82106517D02*
X156557695Y-82058898D01*
X156557695Y-82058898D02*
X156700552Y-82058898D01*
X156700552Y-82058898D02*
X156795790Y-82106517D01*
X156795790Y-82106517D02*
X156843409Y-82154136D01*
X156843409Y-82154136D02*
X156891028Y-82249374D01*
X156891028Y-82249374D02*
X156891028Y-82630326D01*
X156462457Y-81677945D02*
X156414838Y-81630326D01*
X156414838Y-81630326D02*
X156367219Y-81535088D01*
X156367219Y-81535088D02*
X156367219Y-81296993D01*
X156367219Y-81296993D02*
X156414838Y-81201755D01*
X156414838Y-81201755D02*
X156462457Y-81154136D01*
X156462457Y-81154136D02*
X156557695Y-81106517D01*
X156557695Y-81106517D02*
X156652933Y-81106517D01*
X156652933Y-81106517D02*
X156795790Y-81154136D01*
X156795790Y-81154136D02*
X157367219Y-81725564D01*
X157367219Y-81725564D02*
X157367219Y-81106517D01*
X156367219Y-80487469D02*
X156367219Y-80392231D01*
X156367219Y-80392231D02*
X156414838Y-80296993D01*
X156414838Y-80296993D02*
X156462457Y-80249374D01*
X156462457Y-80249374D02*
X156557695Y-80201755D01*
X156557695Y-80201755D02*
X156748171Y-80154136D01*
X156748171Y-80154136D02*
X156986266Y-80154136D01*
X156986266Y-80154136D02*
X157176742Y-80201755D01*
X157176742Y-80201755D02*
X157271980Y-80249374D01*
X157271980Y-80249374D02*
X157319600Y-80296993D01*
X157319600Y-80296993D02*
X157367219Y-80392231D01*
X157367219Y-80392231D02*
X157367219Y-80487469D01*
X157367219Y-80487469D02*
X157319600Y-80582707D01*
X157319600Y-80582707D02*
X157271980Y-80630326D01*
X157271980Y-80630326D02*
X157176742Y-80677945D01*
X157176742Y-80677945D02*
X156986266Y-80725564D01*
X156986266Y-80725564D02*
X156748171Y-80725564D01*
X156748171Y-80725564D02*
X156557695Y-80677945D01*
X156557695Y-80677945D02*
X156462457Y-80630326D01*
X156462457Y-80630326D02*
X156414838Y-80582707D01*
X156414838Y-80582707D02*
X156367219Y-80487469D01*
X156367219Y-79820802D02*
X156367219Y-79201755D01*
X156367219Y-79201755D02*
X156748171Y-79535088D01*
X156748171Y-79535088D02*
X156748171Y-79392231D01*
X156748171Y-79392231D02*
X156795790Y-79296993D01*
X156795790Y-79296993D02*
X156843409Y-79249374D01*
X156843409Y-79249374D02*
X156938647Y-79201755D01*
X156938647Y-79201755D02*
X157176742Y-79201755D01*
X157176742Y-79201755D02*
X157271980Y-79249374D01*
X157271980Y-79249374D02*
X157319600Y-79296993D01*
X157319600Y-79296993D02*
X157367219Y-79392231D01*
X157367219Y-79392231D02*
X157367219Y-79677945D01*
X157367219Y-79677945D02*
X157319600Y-79773183D01*
X157319600Y-79773183D02*
X157271980Y-79820802D01*
X156462457Y-78820802D02*
X156414838Y-78773183D01*
X156414838Y-78773183D02*
X156367219Y-78677945D01*
X156367219Y-78677945D02*
X156367219Y-78439850D01*
X156367219Y-78439850D02*
X156414838Y-78344612D01*
X156414838Y-78344612D02*
X156462457Y-78296993D01*
X156462457Y-78296993D02*
X156557695Y-78249374D01*
X156557695Y-78249374D02*
X156652933Y-78249374D01*
X156652933Y-78249374D02*
X156795790Y-78296993D01*
X156795790Y-78296993D02*
X157367219Y-78868421D01*
X157367219Y-78868421D02*
X157367219Y-78249374D01*
D12*
X143584560Y-100712406D02*
X145127417Y-101740978D01*
X143584560Y-99455263D02*
X145127417Y-100483835D01*
X144841702Y-97455263D02*
X144270274Y-97855263D01*
X144841702Y-98140977D02*
X143641702Y-98140977D01*
X143641702Y-98140977D02*
X143641702Y-97683834D01*
X143641702Y-97683834D02*
X143698845Y-97569549D01*
X143698845Y-97569549D02*
X143755988Y-97512406D01*
X143755988Y-97512406D02*
X143870274Y-97455263D01*
X143870274Y-97455263D02*
X144041702Y-97455263D01*
X144041702Y-97455263D02*
X144155988Y-97512406D01*
X144155988Y-97512406D02*
X144213131Y-97569549D01*
X144213131Y-97569549D02*
X144270274Y-97683834D01*
X144270274Y-97683834D02*
X144270274Y-98140977D01*
X144213131Y-96940977D02*
X144213131Y-96540977D01*
X144841702Y-96369549D02*
X144841702Y-96940977D01*
X144841702Y-96940977D02*
X143641702Y-96940977D01*
X143641702Y-96940977D02*
X143641702Y-96369549D01*
X144498845Y-95912406D02*
X144498845Y-95340978D01*
X144841702Y-96026692D02*
X143641702Y-95626692D01*
X143641702Y-95626692D02*
X144841702Y-95226692D01*
X144841702Y-94826692D02*
X143641702Y-94826692D01*
X144841702Y-94140978D02*
X144155988Y-94655264D01*
X143641702Y-94140978D02*
X144327417Y-94826692D01*
X143641702Y-93798121D02*
X143641702Y-93112407D01*
X144841702Y-93455264D02*
X143641702Y-93455264D01*
X143641702Y-92483835D02*
X143641702Y-92255263D01*
X143641702Y-92255263D02*
X143698845Y-92140978D01*
X143698845Y-92140978D02*
X143813131Y-92026692D01*
X143813131Y-92026692D02*
X144041702Y-91969549D01*
X144041702Y-91969549D02*
X144441702Y-91969549D01*
X144441702Y-91969549D02*
X144670274Y-92026692D01*
X144670274Y-92026692D02*
X144784560Y-92140978D01*
X144784560Y-92140978D02*
X144841702Y-92255263D01*
X144841702Y-92255263D02*
X144841702Y-92483835D01*
X144841702Y-92483835D02*
X144784560Y-92598121D01*
X144784560Y-92598121D02*
X144670274Y-92712406D01*
X144670274Y-92712406D02*
X144441702Y-92769549D01*
X144441702Y-92769549D02*
X144041702Y-92769549D01*
X144041702Y-92769549D02*
X143813131Y-92712406D01*
X143813131Y-92712406D02*
X143698845Y-92598121D01*
X143698845Y-92598121D02*
X143641702Y-92483835D01*
X144841702Y-90769549D02*
X144270274Y-91169549D01*
X144841702Y-91455263D02*
X143641702Y-91455263D01*
X143641702Y-91455263D02*
X143641702Y-90998120D01*
X143641702Y-90998120D02*
X143698845Y-90883835D01*
X143698845Y-90883835D02*
X143755988Y-90826692D01*
X143755988Y-90826692D02*
X143870274Y-90769549D01*
X143870274Y-90769549D02*
X144041702Y-90769549D01*
X144041702Y-90769549D02*
X144155988Y-90826692D01*
X144155988Y-90826692D02*
X144213131Y-90883835D01*
X144213131Y-90883835D02*
X144270274Y-90998120D01*
X144270274Y-90998120D02*
X144270274Y-91455263D01*
X143641702Y-89683835D02*
X143641702Y-90255263D01*
X143641702Y-90255263D02*
X144213131Y-90312406D01*
X144213131Y-90312406D02*
X144155988Y-90255263D01*
X144155988Y-90255263D02*
X144098845Y-90140978D01*
X144098845Y-90140978D02*
X144098845Y-89855263D01*
X144098845Y-89855263D02*
X144155988Y-89740978D01*
X144155988Y-89740978D02*
X144213131Y-89683835D01*
X144213131Y-89683835D02*
X144327417Y-89626692D01*
X144327417Y-89626692D02*
X144613131Y-89626692D01*
X144613131Y-89626692D02*
X144727417Y-89683835D01*
X144727417Y-89683835D02*
X144784560Y-89740978D01*
X144784560Y-89740978D02*
X144841702Y-89855263D01*
X144841702Y-89855263D02*
X144841702Y-90140978D01*
X144841702Y-90140978D02*
X144784560Y-90255263D01*
X144784560Y-90255263D02*
X144727417Y-90312406D01*
X144841702Y-88483835D02*
X144841702Y-89169549D01*
X144841702Y-88826692D02*
X143641702Y-88826692D01*
X143641702Y-88826692D02*
X143813131Y-88940978D01*
X143813131Y-88940978D02*
X143927417Y-89055263D01*
X143927417Y-89055263D02*
X143984560Y-89169549D01*
X144727417Y-87969549D02*
X144784560Y-87912406D01*
X144784560Y-87912406D02*
X144841702Y-87969549D01*
X144841702Y-87969549D02*
X144784560Y-88026692D01*
X144784560Y-88026692D02*
X144727417Y-87969549D01*
X144727417Y-87969549D02*
X144841702Y-87969549D01*
X144841702Y-87398120D02*
X143641702Y-87398120D01*
X143641702Y-87398120D02*
X144841702Y-86712406D01*
X144841702Y-86712406D02*
X143641702Y-86712406D01*
X143641702Y-85912406D02*
X143641702Y-85683834D01*
X143641702Y-85683834D02*
X143698845Y-85569549D01*
X143698845Y-85569549D02*
X143813131Y-85455263D01*
X143813131Y-85455263D02*
X144041702Y-85398120D01*
X144041702Y-85398120D02*
X144441702Y-85398120D01*
X144441702Y-85398120D02*
X144670274Y-85455263D01*
X144670274Y-85455263D02*
X144784560Y-85569549D01*
X144784560Y-85569549D02*
X144841702Y-85683834D01*
X144841702Y-85683834D02*
X144841702Y-85912406D01*
X144841702Y-85912406D02*
X144784560Y-86026692D01*
X144784560Y-86026692D02*
X144670274Y-86140977D01*
X144670274Y-86140977D02*
X144441702Y-86198120D01*
X144441702Y-86198120D02*
X144041702Y-86198120D01*
X144041702Y-86198120D02*
X143813131Y-86140977D01*
X143813131Y-86140977D02*
X143698845Y-86026692D01*
X143698845Y-86026692D02*
X143641702Y-85912406D01*
X143584560Y-83112405D02*
X145127417Y-84140977D01*
X144784560Y-81855262D02*
X144841702Y-81683834D01*
X144841702Y-81683834D02*
X144841702Y-81398119D01*
X144841702Y-81398119D02*
X144784560Y-81283834D01*
X144784560Y-81283834D02*
X144727417Y-81226691D01*
X144727417Y-81226691D02*
X144613131Y-81169548D01*
X144613131Y-81169548D02*
X144498845Y-81169548D01*
X144498845Y-81169548D02*
X144384560Y-81226691D01*
X144384560Y-81226691D02*
X144327417Y-81283834D01*
X144327417Y-81283834D02*
X144270274Y-81398119D01*
X144270274Y-81398119D02*
X144213131Y-81626691D01*
X144213131Y-81626691D02*
X144155988Y-81740976D01*
X144155988Y-81740976D02*
X144098845Y-81798119D01*
X144098845Y-81798119D02*
X143984560Y-81855262D01*
X143984560Y-81855262D02*
X143870274Y-81855262D01*
X143870274Y-81855262D02*
X143755988Y-81798119D01*
X143755988Y-81798119D02*
X143698845Y-81740976D01*
X143698845Y-81740976D02*
X143641702Y-81626691D01*
X143641702Y-81626691D02*
X143641702Y-81340976D01*
X143641702Y-81340976D02*
X143698845Y-81169548D01*
X144841702Y-80655262D02*
X143641702Y-80655262D01*
X144841702Y-79969548D02*
X144155988Y-80483834D01*
X143641702Y-79969548D02*
X144327417Y-80655262D01*
X144498845Y-79512405D02*
X144498845Y-78940977D01*
X144841702Y-79626691D02*
X143641702Y-79226691D01*
X143641702Y-79226691D02*
X144841702Y-78826691D01*
X144841702Y-78426691D02*
X143641702Y-78426691D01*
X143641702Y-78426691D02*
X143641702Y-77969548D01*
X143641702Y-77969548D02*
X143698845Y-77855263D01*
X143698845Y-77855263D02*
X143755988Y-77798120D01*
X143755988Y-77798120D02*
X143870274Y-77740977D01*
X143870274Y-77740977D02*
X144041702Y-77740977D01*
X144041702Y-77740977D02*
X144155988Y-77798120D01*
X144155988Y-77798120D02*
X144213131Y-77855263D01*
X144213131Y-77855263D02*
X144270274Y-77969548D01*
X144270274Y-77969548D02*
X144270274Y-78426691D01*
X144213131Y-77226691D02*
X144213131Y-76826691D01*
X144841702Y-76655263D02*
X144841702Y-77226691D01*
X144841702Y-77226691D02*
X143641702Y-77226691D01*
X143641702Y-77226691D02*
X143641702Y-76655263D01*
X144841702Y-75455263D02*
X144270274Y-75855263D01*
X144841702Y-76140977D02*
X143641702Y-76140977D01*
X143641702Y-76140977D02*
X143641702Y-75683834D01*
X143641702Y-75683834D02*
X143698845Y-75569549D01*
X143698845Y-75569549D02*
X143755988Y-75512406D01*
X143755988Y-75512406D02*
X143870274Y-75455263D01*
X143870274Y-75455263D02*
X144041702Y-75455263D01*
X144041702Y-75455263D02*
X144155988Y-75512406D01*
X144155988Y-75512406D02*
X144213131Y-75569549D01*
X144213131Y-75569549D02*
X144270274Y-75683834D01*
X144270274Y-75683834D02*
X144270274Y-76140977D01*
X143641702Y-75112406D02*
X144841702Y-74712406D01*
X144841702Y-74712406D02*
X143641702Y-74312406D01*
X144213131Y-73912406D02*
X144213131Y-73512406D01*
X144841702Y-73340978D02*
X144841702Y-73912406D01*
X144841702Y-73912406D02*
X143641702Y-73912406D01*
X143641702Y-73912406D02*
X143641702Y-73340978D01*
X144841702Y-72140978D02*
X144270274Y-72540978D01*
X144841702Y-72826692D02*
X143641702Y-72826692D01*
X143641702Y-72826692D02*
X143641702Y-72369549D01*
X143641702Y-72369549D02*
X143698845Y-72255264D01*
X143698845Y-72255264D02*
X143755988Y-72198121D01*
X143755988Y-72198121D02*
X143870274Y-72140978D01*
X143870274Y-72140978D02*
X144041702Y-72140978D01*
X144041702Y-72140978D02*
X144155988Y-72198121D01*
X144155988Y-72198121D02*
X144213131Y-72255264D01*
X144213131Y-72255264D02*
X144270274Y-72369549D01*
X144270274Y-72369549D02*
X144270274Y-72826692D01*
X144841702Y-71626692D02*
X143641702Y-71626692D01*
X144841702Y-70940978D02*
X144155988Y-71455264D01*
X143641702Y-70940978D02*
X144327417Y-71626692D01*
X144784560Y-70483835D02*
X144841702Y-70312407D01*
X144841702Y-70312407D02*
X144841702Y-70026692D01*
X144841702Y-70026692D02*
X144784560Y-69912407D01*
X144784560Y-69912407D02*
X144727417Y-69855264D01*
X144727417Y-69855264D02*
X144613131Y-69798121D01*
X144613131Y-69798121D02*
X144498845Y-69798121D01*
X144498845Y-69798121D02*
X144384560Y-69855264D01*
X144384560Y-69855264D02*
X144327417Y-69912407D01*
X144327417Y-69912407D02*
X144270274Y-70026692D01*
X144270274Y-70026692D02*
X144213131Y-70255264D01*
X144213131Y-70255264D02*
X144155988Y-70369549D01*
X144155988Y-70369549D02*
X144098845Y-70426692D01*
X144098845Y-70426692D02*
X143984560Y-70483835D01*
X143984560Y-70483835D02*
X143870274Y-70483835D01*
X143870274Y-70483835D02*
X143755988Y-70426692D01*
X143755988Y-70426692D02*
X143698845Y-70369549D01*
X143698845Y-70369549D02*
X143641702Y-70255264D01*
X143641702Y-70255264D02*
X143641702Y-69969549D01*
X143641702Y-69969549D02*
X143698845Y-69798121D01*
X143641702Y-69455264D02*
X143641702Y-68769550D01*
X144841702Y-69112407D02*
X143641702Y-69112407D01*
X144213131Y-68369549D02*
X144213131Y-67969549D01*
X144841702Y-67798121D02*
X144841702Y-68369549D01*
X144841702Y-68369549D02*
X143641702Y-68369549D01*
X143641702Y-68369549D02*
X143641702Y-67798121D01*
X144841702Y-67283835D02*
X143641702Y-67283835D01*
X143641702Y-67283835D02*
X143641702Y-66998121D01*
X143641702Y-66998121D02*
X143698845Y-66826692D01*
X143698845Y-66826692D02*
X143813131Y-66712407D01*
X143813131Y-66712407D02*
X143927417Y-66655264D01*
X143927417Y-66655264D02*
X144155988Y-66598121D01*
X144155988Y-66598121D02*
X144327417Y-66598121D01*
X144327417Y-66598121D02*
X144555988Y-66655264D01*
X144555988Y-66655264D02*
X144670274Y-66712407D01*
X144670274Y-66712407D02*
X144784560Y-66826692D01*
X144784560Y-66826692D02*
X144841702Y-66998121D01*
X144841702Y-66998121D02*
X144841702Y-67283835D01*
X144213131Y-64769549D02*
X144213131Y-65169549D01*
X144841702Y-65169549D02*
X143641702Y-65169549D01*
X143641702Y-65169549D02*
X143641702Y-64598121D01*
X143641702Y-63912407D02*
X143641702Y-63683835D01*
X143641702Y-63683835D02*
X143698845Y-63569550D01*
X143698845Y-63569550D02*
X143813131Y-63455264D01*
X143813131Y-63455264D02*
X144041702Y-63398121D01*
X144041702Y-63398121D02*
X144441702Y-63398121D01*
X144441702Y-63398121D02*
X144670274Y-63455264D01*
X144670274Y-63455264D02*
X144784560Y-63569550D01*
X144784560Y-63569550D02*
X144841702Y-63683835D01*
X144841702Y-63683835D02*
X144841702Y-63912407D01*
X144841702Y-63912407D02*
X144784560Y-64026693D01*
X144784560Y-64026693D02*
X144670274Y-64140978D01*
X144670274Y-64140978D02*
X144441702Y-64198121D01*
X144441702Y-64198121D02*
X144041702Y-64198121D01*
X144041702Y-64198121D02*
X143813131Y-64140978D01*
X143813131Y-64140978D02*
X143698845Y-64026693D01*
X143698845Y-64026693D02*
X143641702Y-63912407D01*
X144841702Y-62198121D02*
X144270274Y-62598121D01*
X144841702Y-62883835D02*
X143641702Y-62883835D01*
X143641702Y-62883835D02*
X143641702Y-62426692D01*
X143641702Y-62426692D02*
X143698845Y-62312407D01*
X143698845Y-62312407D02*
X143755988Y-62255264D01*
X143755988Y-62255264D02*
X143870274Y-62198121D01*
X143870274Y-62198121D02*
X144041702Y-62198121D01*
X144041702Y-62198121D02*
X144155988Y-62255264D01*
X144155988Y-62255264D02*
X144213131Y-62312407D01*
X144213131Y-62312407D02*
X144270274Y-62426692D01*
X144270274Y-62426692D02*
X144270274Y-62883835D01*
X144498845Y-60826692D02*
X144498845Y-60255264D01*
X144841702Y-60940978D02*
X143641702Y-60540978D01*
X143641702Y-60540978D02*
X144841702Y-60140978D01*
X144841702Y-59169550D02*
X144841702Y-59740978D01*
X144841702Y-59740978D02*
X143641702Y-59740978D01*
X144841702Y-58198121D02*
X144841702Y-58769549D01*
X144841702Y-58769549D02*
X143641702Y-58769549D01*
X144213131Y-57798120D02*
X144213131Y-57398120D01*
X144841702Y-57226692D02*
X144841702Y-57798120D01*
X144841702Y-57798120D02*
X143641702Y-57798120D01*
X143641702Y-57798120D02*
X143641702Y-57226692D01*
X143584560Y-54940977D02*
X145127417Y-55969549D01*
X143584560Y-53683834D02*
X145127417Y-54712406D01*
D13*
X161083333Y-57584819D02*
X160750000Y-57108628D01*
X160511905Y-57584819D02*
X160511905Y-56584819D01*
X160511905Y-56584819D02*
X160892857Y-56584819D01*
X160892857Y-56584819D02*
X160988095Y-56632438D01*
X160988095Y-56632438D02*
X161035714Y-56680057D01*
X161035714Y-56680057D02*
X161083333Y-56775295D01*
X161083333Y-56775295D02*
X161083333Y-56918152D01*
X161083333Y-56918152D02*
X161035714Y-57013390D01*
X161035714Y-57013390D02*
X160988095Y-57061009D01*
X160988095Y-57061009D02*
X160892857Y-57108628D01*
X160892857Y-57108628D02*
X160511905Y-57108628D01*
X162035714Y-57584819D02*
X161464286Y-57584819D01*
X161750000Y-57584819D02*
X161750000Y-56584819D01*
X161750000Y-56584819D02*
X161654762Y-56727676D01*
X161654762Y-56727676D02*
X161559524Y-56822914D01*
X161559524Y-56822914D02*
X161464286Y-56870533D01*
X171657200Y-69583332D02*
X171704819Y-69440475D01*
X171704819Y-69440475D02*
X171704819Y-69202380D01*
X171704819Y-69202380D02*
X171657200Y-69107142D01*
X171657200Y-69107142D02*
X171609580Y-69059523D01*
X171609580Y-69059523D02*
X171514342Y-69011904D01*
X171514342Y-69011904D02*
X171419104Y-69011904D01*
X171419104Y-69011904D02*
X171323866Y-69059523D01*
X171323866Y-69059523D02*
X171276247Y-69107142D01*
X171276247Y-69107142D02*
X171228628Y-69202380D01*
X171228628Y-69202380D02*
X171181009Y-69392856D01*
X171181009Y-69392856D02*
X171133390Y-69488094D01*
X171133390Y-69488094D02*
X171085771Y-69535713D01*
X171085771Y-69535713D02*
X170990533Y-69583332D01*
X170990533Y-69583332D02*
X170895295Y-69583332D01*
X170895295Y-69583332D02*
X170800057Y-69535713D01*
X170800057Y-69535713D02*
X170752438Y-69488094D01*
X170752438Y-69488094D02*
X170704819Y-69392856D01*
X170704819Y-69392856D02*
X170704819Y-69154761D01*
X170704819Y-69154761D02*
X170752438Y-69011904D01*
X170704819Y-68678570D02*
X171704819Y-68440475D01*
X171704819Y-68440475D02*
X170990533Y-68249999D01*
X170990533Y-68249999D02*
X171704819Y-68059523D01*
X171704819Y-68059523D02*
X170704819Y-67821428D01*
X171704819Y-66916666D02*
X171704819Y-67488094D01*
X171704819Y-67202380D02*
X170704819Y-67202380D01*
X170704819Y-67202380D02*
X170847676Y-67297618D01*
X170847676Y-67297618D02*
X170942914Y-67392856D01*
X170942914Y-67392856D02*
X170990533Y-67488094D01*
X165954819Y-51988094D02*
X164954819Y-51988094D01*
X164954819Y-51988094D02*
X164954819Y-51749999D01*
X164954819Y-51749999D02*
X165002438Y-51607142D01*
X165002438Y-51607142D02*
X165097676Y-51511904D01*
X165097676Y-51511904D02*
X165192914Y-51464285D01*
X165192914Y-51464285D02*
X165383390Y-51416666D01*
X165383390Y-51416666D02*
X165526247Y-51416666D01*
X165526247Y-51416666D02*
X165716723Y-51464285D01*
X165716723Y-51464285D02*
X165811961Y-51511904D01*
X165811961Y-51511904D02*
X165907200Y-51607142D01*
X165907200Y-51607142D02*
X165954819Y-51749999D01*
X165954819Y-51749999D02*
X165954819Y-51988094D01*
X165954819Y-50464285D02*
X165954819Y-51035713D01*
X165954819Y-50749999D02*
X164954819Y-50749999D01*
X164954819Y-50749999D02*
X165097676Y-50845237D01*
X165097676Y-50845237D02*
X165192914Y-50940475D01*
X165192914Y-50940475D02*
X165240533Y-51035713D01*
X165931009Y-83285714D02*
X165978628Y-83142857D01*
X165978628Y-83142857D02*
X166026247Y-83095238D01*
X166026247Y-83095238D02*
X166121485Y-83047619D01*
X166121485Y-83047619D02*
X166264342Y-83047619D01*
X166264342Y-83047619D02*
X166359580Y-83095238D01*
X166359580Y-83095238D02*
X166407200Y-83142857D01*
X166407200Y-83142857D02*
X166454819Y-83238095D01*
X166454819Y-83238095D02*
X166454819Y-83619047D01*
X166454819Y-83619047D02*
X165454819Y-83619047D01*
X165454819Y-83619047D02*
X165454819Y-83285714D01*
X165454819Y-83285714D02*
X165502438Y-83190476D01*
X165502438Y-83190476D02*
X165550057Y-83142857D01*
X165550057Y-83142857D02*
X165645295Y-83095238D01*
X165645295Y-83095238D02*
X165740533Y-83095238D01*
X165740533Y-83095238D02*
X165835771Y-83142857D01*
X165835771Y-83142857D02*
X165883390Y-83190476D01*
X165883390Y-83190476D02*
X165931009Y-83285714D01*
X165931009Y-83285714D02*
X165931009Y-83619047D01*
X165454819Y-82761904D02*
X165454819Y-82190476D01*
X166454819Y-82476190D02*
X165454819Y-82476190D01*
X166454819Y-81333333D02*
X166454819Y-81904761D01*
X166454819Y-81619047D02*
X165454819Y-81619047D01*
X165454819Y-81619047D02*
X165597676Y-81714285D01*
X165597676Y-81714285D02*
X165692914Y-81809523D01*
X165692914Y-81809523D02*
X165740533Y-81904761D01*
X161364700Y-83821428D02*
X161364700Y-82678571D01*
X161936128Y-83249999D02*
X160793271Y-83249999D01*
D14*
%TO.C,R1*%
X164520000Y-58130000D02*
X157980000Y-58130000D01*
X157980000Y-60870000D02*
X164520000Y-60870000D01*
X164520000Y-60870000D02*
X164520000Y-58130000D01*
X157980000Y-58130000D02*
X157980000Y-60870000D01*
X157210000Y-59500000D02*
X157980000Y-59500000D01*
X165290000Y-59500000D02*
X164520000Y-59500000D01*
%TO.C,SW1*%
X177000000Y-65000000D02*
X175500000Y-65000000D01*
X173000000Y-66250000D02*
X173000000Y-70750000D01*
X175500000Y-72000000D02*
X177000000Y-72000000D01*
X179500000Y-70750000D02*
X179500000Y-66250000D01*
%TO.C,D1*%
X163750000Y-51495000D02*
G75*
G02*
X158750000Y-51495000I-2500000J0D01*
G01*
X158750000Y-51495000D02*
G75*
G02*
X163750000Y-51495000I2500000J0D01*
G01*
X162794830Y-48935001D02*
G75*
G02*
X161249538Y-54484999I-1544830J-2559999D01*
G01*
X161250462Y-54485000D02*
G75*
G02*
X159705170Y-48935000I-462J2990000D01*
G01*
X162795000Y-48935000D02*
X159705000Y-48935000D01*
%TO.C,BT1*%
X158250000Y-78300000D02*
X158250000Y-84000000D01*
X158250000Y-78300000D02*
X164250000Y-78300000D01*
X164250000Y-78300000D02*
X164250000Y-84000000D01*
X164750000Y-84750001D02*
G75*
G02*
X161250000Y-107195670I-3499989J-10949955D01*
G01*
X161250000Y-107195671D02*
G75*
G02*
X157750000Y-84750000I-11J11495715D01*
G01*
X164750000Y-84750000D02*
G75*
G02*
X164250000Y-84000000I312500J750000D01*
G01*
X158250000Y-84000000D02*
G75*
G02*
X157750000Y-84750000I-812500J0D01*
G01*
D15*
%TO.C,G\u002A\u002A\u002A*%
G36*
X137324934Y-59921111D02*
G01*
X137586677Y-59983838D01*
X137877778Y-60095653D01*
X138188677Y-60268416D01*
X138494644Y-60486409D01*
X138770949Y-60733917D01*
X138777653Y-60740746D01*
X138893029Y-60852108D01*
X138988636Y-60932533D01*
X139044745Y-60965511D01*
X139046377Y-60965620D01*
X139087239Y-60956989D01*
X139159322Y-60927445D01*
X139273761Y-60871510D01*
X139441693Y-60783706D01*
X139674251Y-60658554D01*
X139710209Y-60639040D01*
X140099426Y-60429026D01*
X140414930Y-60261860D01*
X140659755Y-60136011D01*
X140836936Y-60049948D01*
X140949508Y-60002138D01*
X140995370Y-59990402D01*
X141008993Y-59996403D01*
X141020690Y-60018386D01*
X141030570Y-60062320D01*
X141038743Y-60134174D01*
X141045317Y-60239919D01*
X141050404Y-60385524D01*
X141054111Y-60576957D01*
X141056549Y-60820189D01*
X141057828Y-61121189D01*
X141058056Y-61485927D01*
X141057344Y-61920372D01*
X141055802Y-62430492D01*
X141053538Y-63022259D01*
X141053078Y-63134029D01*
X141050518Y-63654059D01*
X141047298Y-64148046D01*
X141043515Y-64608855D01*
X141039265Y-65029349D01*
X141034643Y-65402393D01*
X141029746Y-65720851D01*
X141024669Y-65977586D01*
X141019508Y-66165463D01*
X141014359Y-66277346D01*
X141010440Y-66307242D01*
X140958511Y-66316561D01*
X140832846Y-66324054D01*
X140648355Y-66329275D01*
X140419948Y-66331774D01*
X140204593Y-66331441D01*
X139870663Y-66330897D01*
X139615980Y-66335146D01*
X139431217Y-66345165D01*
X139307047Y-66361933D01*
X139234144Y-66386426D01*
X139203179Y-66419625D01*
X139200436Y-66436735D01*
X139236753Y-66489432D01*
X139326027Y-66549652D01*
X139344721Y-66559017D01*
X139445538Y-66618784D01*
X139588108Y-66717904D01*
X139746725Y-66838205D01*
X139799084Y-66880169D01*
X140224583Y-67280100D01*
X140582476Y-67728359D01*
X140869478Y-68216340D01*
X141082305Y-68735439D01*
X141217672Y-69277048D01*
X141272296Y-69832562D01*
X141242891Y-70393376D01*
X141212970Y-70584817D01*
X141063009Y-71170978D01*
X140839026Y-71712328D01*
X140545749Y-72204156D01*
X140187904Y-72641747D01*
X139770216Y-73020389D01*
X139297414Y-73335369D01*
X138774222Y-73581973D01*
X138205368Y-73755490D01*
X138174437Y-73761767D01*
X137989300Y-73799335D01*
X137799526Y-73829920D01*
X137625436Y-73852813D01*
X137499437Y-73863857D01*
X137482722Y-73864280D01*
X137338656Y-73865096D01*
X137338656Y-74174907D01*
X137338656Y-74484717D01*
X139189354Y-74496285D01*
X141040052Y-74507854D01*
X141051640Y-76266224D01*
X141054258Y-76712490D01*
X141055487Y-77078369D01*
X141055064Y-77372123D01*
X141052723Y-77602013D01*
X141048200Y-77776303D01*
X141041230Y-77903254D01*
X141031548Y-77991128D01*
X141018890Y-78048187D01*
X141002990Y-78082693D01*
X140993063Y-78094758D01*
X140966980Y-78112424D01*
X140922020Y-78126903D01*
X140850028Y-78138502D01*
X140742851Y-78147528D01*
X140592335Y-78154288D01*
X140390325Y-78159091D01*
X140128668Y-78162244D01*
X139799209Y-78164053D01*
X139393794Y-78164826D01*
X139131850Y-78164922D01*
X137340800Y-78164922D01*
X137328646Y-78907417D01*
X137316492Y-79649913D01*
X136333750Y-79668513D01*
X136145454Y-79672077D01*
X135755576Y-79680818D01*
X135449244Y-79690848D01*
X135221353Y-79702484D01*
X135066799Y-79716043D01*
X134980476Y-79731842D01*
X134957240Y-79745882D01*
X134984637Y-79789464D01*
X135071580Y-79874620D01*
X135206006Y-79990652D01*
X135375853Y-80126863D01*
X135457025Y-80189163D01*
X135651633Y-80337336D01*
X135830118Y-80474588D01*
X135976029Y-80588173D01*
X136072915Y-80665344D01*
X136091138Y-80680487D01*
X136180587Y-80747820D01*
X136243376Y-80779809D01*
X136247418Y-80780225D01*
X136304604Y-80809850D01*
X136358238Y-80859549D01*
X136431307Y-80926654D01*
X136552770Y-81024246D01*
X136705876Y-81140327D01*
X136873872Y-81262895D01*
X137040005Y-81379952D01*
X137187523Y-81479497D01*
X137299672Y-81549531D01*
X137359701Y-81578053D01*
X137361515Y-81578185D01*
X137409673Y-81553048D01*
X137514945Y-81484192D01*
X137663793Y-81381450D01*
X137842677Y-81254656D01*
X138038056Y-81113644D01*
X138236392Y-80968247D01*
X138424145Y-80828298D01*
X138587774Y-80703632D01*
X138713741Y-80604080D01*
X138777876Y-80549519D01*
X138854578Y-80487031D01*
X138963963Y-80406008D01*
X138987230Y-80389582D01*
X139097038Y-80311079D01*
X139261180Y-80191546D01*
X139464666Y-80042106D01*
X139692510Y-79873882D01*
X139929720Y-79697996D01*
X140161310Y-79525571D01*
X140372289Y-79367729D01*
X140547670Y-79235594D01*
X140672464Y-79140288D01*
X140704689Y-79115105D01*
X140824514Y-79031611D01*
X140925676Y-78980819D01*
X140970657Y-78972842D01*
X140977312Y-78979833D01*
X140983543Y-79000066D01*
X140989370Y-79036396D01*
X140994807Y-79091679D01*
X140999873Y-79168772D01*
X141004584Y-79270530D01*
X141008958Y-79399811D01*
X141013010Y-79559469D01*
X141016758Y-79752362D01*
X141020220Y-79981346D01*
X141023411Y-80249277D01*
X141026349Y-80559010D01*
X141029050Y-80913403D01*
X141031532Y-81315311D01*
X141033812Y-81767591D01*
X141035906Y-82273099D01*
X141037831Y-82834691D01*
X141039605Y-83455223D01*
X141041244Y-84137552D01*
X141042764Y-84884533D01*
X141044184Y-85699023D01*
X141045520Y-86583878D01*
X141046789Y-87541955D01*
X141048008Y-88576109D01*
X141049193Y-89689197D01*
X141050362Y-90884075D01*
X141051531Y-92163599D01*
X141052007Y-92705145D01*
X141052888Y-93803363D01*
X141053599Y-94879089D01*
X141054143Y-95928916D01*
X141054525Y-96949438D01*
X141054746Y-97937249D01*
X141054809Y-98888942D01*
X141054718Y-99801111D01*
X141054476Y-100670350D01*
X141054085Y-101493251D01*
X141053549Y-102266410D01*
X141052869Y-102986420D01*
X141052051Y-103649873D01*
X141051095Y-104253365D01*
X141050006Y-104793489D01*
X141048786Y-105266837D01*
X141047438Y-105670005D01*
X141045965Y-105999585D01*
X141044370Y-106252172D01*
X141042656Y-106424359D01*
X141040826Y-106512739D01*
X141040016Y-106524080D01*
X141016070Y-106624075D01*
X139073568Y-106618032D01*
X137370993Y-106612736D01*
X136416431Y-106609766D01*
X133725916Y-106601396D01*
X133728209Y-104584468D01*
X133729871Y-104022811D01*
X133733532Y-103546689D01*
X133739268Y-103153003D01*
X133742504Y-103024043D01*
X135748056Y-103024043D01*
X135751670Y-103187879D01*
X135765009Y-103496067D01*
X136090720Y-103680787D01*
X136416431Y-103865507D01*
X136682325Y-103715214D01*
X136820620Y-103639837D01*
X136929000Y-103585901D01*
X136984295Y-103564927D01*
X136984596Y-103564922D01*
X137021007Y-103547262D01*
X137045508Y-103485610D01*
X137060340Y-103366953D01*
X137067743Y-103178282D01*
X137069188Y-103073721D01*
X137069599Y-102889230D01*
X137063041Y-102772922D01*
X137044048Y-102704339D01*
X137007155Y-102663021D01*
X136950785Y-102630511D01*
X136857922Y-102579459D01*
X136806685Y-102545446D01*
X136735568Y-102497069D01*
X136623386Y-102439626D01*
X136508210Y-102390784D01*
X136428113Y-102368206D01*
X136424374Y-102368063D01*
X136336453Y-102392138D01*
X136208095Y-102454366D01*
X136062909Y-102539747D01*
X135924505Y-102633284D01*
X135816492Y-102719979D01*
X135762479Y-102784834D01*
X135760969Y-102789492D01*
X135751318Y-102878572D01*
X135748056Y-103024043D01*
X133742504Y-103024043D01*
X133747155Y-102838651D01*
X133757269Y-102600534D01*
X133769686Y-102435552D01*
X133783162Y-102345899D01*
X133852052Y-102132985D01*
X133961269Y-101881572D01*
X134095434Y-101622129D01*
X134239168Y-101385127D01*
X134336175Y-101250240D01*
X134500952Y-101067595D01*
X134709955Y-100872949D01*
X134936185Y-100688800D01*
X135152644Y-100537645D01*
X135275116Y-100467843D01*
X135390713Y-100398599D01*
X135463710Y-100332737D01*
X135476821Y-100303819D01*
X137826265Y-100303819D01*
X137863337Y-100366000D01*
X137920431Y-100397211D01*
X138042909Y-100455523D01*
X138208062Y-100560462D01*
X138395107Y-100696744D01*
X138583262Y-100849083D01*
X138751746Y-101002194D01*
X138776868Y-101027131D01*
X138910169Y-101154402D01*
X139003654Y-101223313D01*
X139073568Y-101244187D01*
X139109407Y-101238450D01*
X139183228Y-101206378D01*
X139312442Y-101142531D01*
X139475116Y-101058504D01*
X139649320Y-100965893D01*
X139813121Y-100876294D01*
X139944589Y-100801302D01*
X139998342Y-100768453D01*
X140077324Y-100724223D01*
X140199407Y-100662253D01*
X140257152Y-100634354D01*
X140504782Y-100508362D01*
X140667385Y-100406074D01*
X140744821Y-100327586D01*
X140751920Y-100302428D01*
X140739863Y-100285161D01*
X140698204Y-100271308D01*
X140618711Y-100260521D01*
X140493152Y-100252450D01*
X140313295Y-100246744D01*
X140070908Y-100243055D01*
X139757758Y-100241033D01*
X139365615Y-100240328D01*
X139289092Y-100240314D01*
X138883693Y-100240796D01*
X138558600Y-100242482D01*
X138305469Y-100245735D01*
X138115955Y-100250917D01*
X137981713Y-100258390D01*
X137894398Y-100268517D01*
X137845664Y-100281660D01*
X137827166Y-100298181D01*
X137826265Y-100303819D01*
X135476821Y-100303819D01*
X135476876Y-100303697D01*
X135463773Y-100281038D01*
X135417252Y-100264286D01*
X135326493Y-100252608D01*
X135180678Y-100245169D01*
X134968986Y-100241135D01*
X134680600Y-100239674D01*
X134645724Y-100239636D01*
X134380569Y-100237606D01*
X134144336Y-100232369D01*
X133951981Y-100224535D01*
X133818461Y-100214711D01*
X133758848Y-100203579D01*
X133747509Y-100179370D01*
X133737875Y-100118708D01*
X133729867Y-100016275D01*
X133723408Y-99866750D01*
X133718419Y-99664815D01*
X133714823Y-99405149D01*
X133712542Y-99082434D01*
X133711497Y-98691351D01*
X133711611Y-98226579D01*
X133712806Y-97682799D01*
X133714519Y-97178865D01*
X133725916Y-94189529D01*
X134900611Y-94189529D01*
X136075305Y-94189529D01*
X136087214Y-95195991D01*
X136090685Y-95520356D01*
X136091892Y-95767297D01*
X136090051Y-95948033D01*
X136084377Y-96073784D01*
X136074085Y-96155770D01*
X136058390Y-96205210D01*
X136036507Y-96233324D01*
X136013602Y-96248223D01*
X135906289Y-96343751D01*
X135812783Y-96490727D01*
X135753501Y-96652187D01*
X135742845Y-96738395D01*
X135782020Y-96933465D01*
X135887158Y-97100126D01*
X136039673Y-97225351D01*
X136220980Y-97296115D01*
X136412493Y-97299391D01*
X136504618Y-97272334D01*
X136700370Y-97152763D01*
X136820760Y-96986741D01*
X136850931Y-96894058D01*
X136872062Y-96678100D01*
X136821913Y-96496225D01*
X136693154Y-96324773D01*
X136666397Y-96298289D01*
X136494650Y-96133260D01*
X136506618Y-95161394D01*
X136518586Y-94189529D01*
X137272164Y-94176888D01*
X137528233Y-94174028D01*
X137758673Y-94174136D01*
X137946563Y-94176995D01*
X138074983Y-94182389D01*
X138121236Y-94187749D01*
X138152503Y-94198033D01*
X138176155Y-94218924D01*
X138193345Y-94261659D01*
X138205222Y-94337477D01*
X138212939Y-94457615D01*
X138217646Y-94633313D01*
X138220495Y-94875808D01*
X138222518Y-95176498D01*
X138228307Y-96141744D01*
X138071181Y-96294037D01*
X137922029Y-96486336D01*
X137855899Y-96685951D01*
X137872410Y-96881721D01*
X137971183Y-97062482D01*
X138101393Y-97183215D01*
X138299003Y-97288550D01*
X138487845Y-97308222D01*
X138659723Y-97252706D01*
X138816768Y-97149391D01*
X138908825Y-97024095D01*
X138949603Y-96852661D01*
X138955128Y-96732091D01*
X138951970Y-96578931D01*
X138931268Y-96479900D01*
X138879431Y-96400558D01*
X138789557Y-96312597D01*
X138622482Y-96159389D01*
X138634409Y-95174459D01*
X138646335Y-94189529D01*
X139398813Y-94177330D01*
X139649407Y-94171143D01*
X139869244Y-94161694D01*
X140042926Y-94149968D01*
X140155053Y-94136949D01*
X140189628Y-94126795D01*
X140173826Y-94088134D01*
X140107208Y-94019297D01*
X140012829Y-93939126D01*
X139913745Y-93866465D01*
X139833011Y-93820157D01*
X139805370Y-93812740D01*
X139761941Y-93790878D01*
X139656371Y-93730545D01*
X139502092Y-93639621D01*
X139312539Y-93525986D01*
X139192763Y-93453404D01*
X138975386Y-93321819D01*
X138772458Y-93200140D01*
X138601670Y-93098893D01*
X138491758Y-93035020D01*
X138480716Y-93028603D01*
X138446858Y-93009659D01*
X138321416Y-92939638D01*
X138215496Y-92877657D01*
X138203551Y-92870304D01*
X138123506Y-92820425D01*
X137994593Y-92740104D01*
X137843195Y-92645780D01*
X137826762Y-92635542D01*
X137677654Y-92544929D01*
X137550553Y-92471764D01*
X137470154Y-92430200D01*
X137464199Y-92427772D01*
X137403124Y-92396478D01*
X137280332Y-92327329D01*
X137109899Y-92228468D01*
X136905898Y-92108040D01*
X136732786Y-92004528D01*
X136462962Y-91842843D01*
X136168565Y-91667325D01*
X135879306Y-91495634D01*
X135624892Y-91345427D01*
X135543368Y-91297560D01*
X135334291Y-91174879D01*
X135139156Y-91060061D01*
X134977585Y-90964675D01*
X134869203Y-90900287D01*
X134856283Y-90892536D01*
X134740307Y-90824809D01*
X134648500Y-90774646D01*
X134634642Y-90767800D01*
X134548000Y-90716141D01*
X134523822Y-90697202D01*
X134481236Y-90666253D01*
X134398602Y-90615076D01*
X134267343Y-90538718D01*
X134078880Y-90432232D01*
X133824636Y-90290667D01*
X133694513Y-90218640D01*
X133537780Y-90126497D01*
X133412661Y-90042653D01*
X133338796Y-89980692D01*
X133328042Y-89965186D01*
X133330798Y-89919778D01*
X137187673Y-89919778D01*
X137194234Y-89959879D01*
X137264546Y-90011980D01*
X137301556Y-90034889D01*
X137432826Y-90112631D01*
X137611788Y-90213709D01*
X137850411Y-90344815D01*
X138025742Y-90439888D01*
X138156998Y-90516369D01*
X138268327Y-90588595D01*
X138395408Y-90653402D01*
X138491758Y-90655278D01*
X138541997Y-90594263D01*
X138543346Y-90587871D01*
X138547825Y-90519010D01*
X138550928Y-90382239D01*
X138552675Y-90198294D01*
X138553086Y-89987909D01*
X138552180Y-89771821D01*
X138549976Y-89570764D01*
X138546494Y-89405475D01*
X138542147Y-89302356D01*
X138505809Y-89221679D01*
X138415026Y-89207028D01*
X138274461Y-89258352D01*
X138191091Y-89306147D01*
X138074378Y-89375578D01*
X137909374Y-89469192D01*
X137726276Y-89569945D01*
X137671117Y-89599666D01*
X137502326Y-89693736D01*
X137356336Y-89781670D01*
X137256563Y-89849115D01*
X137235064Y-89866928D01*
X137187673Y-89919778D01*
X133330798Y-89919778D01*
X133333043Y-89882787D01*
X133383722Y-89806096D01*
X133442017Y-89778883D01*
X133494909Y-89757348D01*
X133603136Y-89699955D01*
X133746661Y-89617528D01*
X133802296Y-89584302D01*
X134052926Y-89433455D01*
X134321206Y-89272564D01*
X134595219Y-89108720D01*
X134863043Y-88949011D01*
X135112759Y-88800527D01*
X135332448Y-88670357D01*
X135510191Y-88565589D01*
X135634066Y-88493313D01*
X135688322Y-88462604D01*
X135810311Y-88394410D01*
X135975159Y-88298146D01*
X136154458Y-88190854D01*
X136319799Y-88089575D01*
X136442773Y-88011350D01*
X136461381Y-87998885D01*
X136551201Y-87942627D01*
X136605973Y-87917225D01*
X136607577Y-87917103D01*
X136655599Y-87894951D01*
X136755483Y-87837077D01*
X136876201Y-87761955D01*
X137003765Y-87682393D01*
X137099582Y-87626431D01*
X137141127Y-87606807D01*
X137187008Y-87585102D01*
X137287304Y-87527846D01*
X137421468Y-87446822D01*
X137439481Y-87435682D01*
X137606258Y-87333471D01*
X137817679Y-87205723D01*
X138059834Y-87060655D01*
X138318817Y-86906487D01*
X138580720Y-86751436D01*
X138831635Y-86603721D01*
X139057655Y-86471561D01*
X139244873Y-86363174D01*
X139379380Y-86286779D01*
X139433159Y-86257546D01*
X139547732Y-86178835D01*
X139598465Y-86100597D01*
X139599389Y-86090253D01*
X139571095Y-86013480D01*
X139499373Y-85909378D01*
X139403961Y-85799263D01*
X139304599Y-85704454D01*
X139221027Y-85646269D01*
X139181605Y-85639061D01*
X139129612Y-85682886D01*
X139042323Y-85779725D01*
X138936413Y-85910765D01*
X138908930Y-85946730D01*
X138766838Y-86118162D01*
X138658180Y-86212545D01*
X138603159Y-86231681D01*
X138523740Y-86194446D01*
X138408107Y-86089569D01*
X138280251Y-85943548D01*
X138165839Y-85811284D01*
X138065835Y-85711202D01*
X137997237Y-85659826D01*
X137984785Y-85656370D01*
X137934628Y-85687726D01*
X137843159Y-85771023D01*
X137725835Y-85890108D01*
X137598116Y-86028826D01*
X137475457Y-86171021D01*
X137390954Y-86276964D01*
X137356854Y-86256717D01*
X137281333Y-86186674D01*
X137180679Y-86084343D01*
X137071180Y-85967229D01*
X136969124Y-85852840D01*
X136890797Y-85758683D01*
X136852487Y-85702266D01*
X136851047Y-85696628D01*
X136814381Y-85662562D01*
X136765131Y-85644243D01*
X136700638Y-85651602D01*
X136620350Y-85712639D01*
X136511101Y-85837952D01*
X136488081Y-85867205D01*
X136345424Y-86047107D01*
X136244031Y-86165197D01*
X136173357Y-86231608D01*
X136122858Y-86256474D01*
X136087393Y-86252302D01*
X136036060Y-86208804D01*
X135947371Y-86112087D01*
X135837177Y-85979847D01*
X135790532Y-85920847D01*
X135679916Y-85782991D01*
X135588522Y-85676863D01*
X135530425Y-85618480D01*
X135519127Y-85612042D01*
X135472600Y-85643434D01*
X135386874Y-85725614D01*
X135278685Y-85840588D01*
X135164769Y-85970360D01*
X135061864Y-86096936D01*
X135034680Y-86132897D01*
X134960234Y-86223685D01*
X134904927Y-86273625D01*
X134895441Y-86276964D01*
X134866700Y-86267729D01*
X134824060Y-86232526D01*
X134757017Y-86160101D01*
X134655065Y-86039204D01*
X134526592Y-85881888D01*
X134419098Y-85754593D01*
X134330826Y-85659641D01*
X134277643Y-85613851D01*
X134272048Y-85612042D01*
X134223425Y-85642728D01*
X134144523Y-85719593D01*
X134114129Y-85753571D01*
X134003643Y-85879716D01*
X133880003Y-86018454D01*
X133849018Y-86052786D01*
X133706151Y-86210472D01*
X133704951Y-79594503D01*
X133703752Y-72978534D01*
X134113787Y-72977929D01*
X134379431Y-72972873D01*
X134564285Y-72957826D01*
X134675777Y-72931604D01*
X134721336Y-72893021D01*
X134723298Y-72880727D01*
X134695308Y-72831590D01*
X134619775Y-72733237D01*
X134509352Y-72601536D01*
X134418098Y-72498026D01*
X134171242Y-72197882D01*
X133968623Y-71889921D01*
X133799002Y-71552567D01*
X133651139Y-71164247D01*
X133565231Y-70883784D01*
X136394639Y-70883784D01*
X136402018Y-71026888D01*
X136493804Y-71161131D01*
X136506011Y-71172164D01*
X136621205Y-71238226D01*
X136747454Y-71233701D01*
X136902577Y-71157194D01*
X136930181Y-71138918D01*
X137129548Y-71041309D01*
X137308180Y-71028038D01*
X137458815Y-71095816D01*
X137574193Y-71241354D01*
X137647051Y-71461365D01*
X137647515Y-71463797D01*
X137710584Y-71702632D01*
X137800127Y-71864753D01*
X137926335Y-71960592D01*
X138099395Y-72000582D01*
X138174437Y-72003316D01*
X138306516Y-71992976D01*
X138405158Y-71949469D01*
X138510569Y-71854065D01*
X138523083Y-71840892D01*
X138616361Y-71731105D01*
X138657019Y-71640316D01*
X138660008Y-71530130D01*
X138656869Y-71497350D01*
X138629856Y-71357122D01*
X138579741Y-71179384D01*
X138531301Y-71040161D01*
X138475852Y-70889871D01*
X138451705Y-70794415D01*
X138456658Y-70726542D01*
X138488510Y-70659006D01*
X138499077Y-70641208D01*
X138649893Y-70464411D01*
X138847986Y-70361456D01*
X138982633Y-70334367D01*
X139192357Y-70294092D01*
X139329205Y-70225667D01*
X139406437Y-70121938D01*
X139414151Y-70101579D01*
X139431628Y-69947497D01*
X139366308Y-69821540D01*
X139274420Y-69749508D01*
X139202116Y-69711265D01*
X139138596Y-69703878D01*
X139055122Y-69731314D01*
X138922956Y-69797539D01*
X138921687Y-69798204D01*
X138693954Y-69891698D01*
X138503229Y-69918213D01*
X138356740Y-69879778D01*
X138261714Y-69778420D01*
X138225377Y-69616169D01*
X138225218Y-69602729D01*
X138235419Y-69494261D01*
X138260787Y-69435651D01*
X138269546Y-69432287D01*
X138311275Y-69397212D01*
X138314681Y-69376876D01*
X138338557Y-69310922D01*
X138398819Y-69202337D01*
X138447665Y-69126401D01*
X138549226Y-68943833D01*
X138575567Y-68805135D01*
X138526822Y-68707465D01*
X138469023Y-68670643D01*
X138334408Y-68643327D01*
X138213304Y-68692815D01*
X138103373Y-68821968D01*
X138002282Y-69033643D01*
X137907695Y-69330699D01*
X137897040Y-69370801D01*
X137833371Y-69548817D01*
X137753970Y-69672560D01*
X137669086Y-69728432D01*
X137628702Y-69726944D01*
X137571598Y-69676507D01*
X137506593Y-69576054D01*
X137452723Y-69460035D01*
X137429142Y-69365794D01*
X137382400Y-69228762D01*
X137272133Y-69130788D01*
X137119283Y-69083999D01*
X136962680Y-69095661D01*
X136820938Y-69163987D01*
X136674633Y-69284686D01*
X136554245Y-69428694D01*
X136497798Y-69538937D01*
X136473313Y-69689711D01*
X136510492Y-69832776D01*
X136616349Y-69985831D01*
X136716354Y-70090411D01*
X136814865Y-70194944D01*
X136879887Y-70281062D01*
X136895375Y-70317904D01*
X136868145Y-70415555D01*
X136802530Y-70521248D01*
X136722648Y-70602812D01*
X136662060Y-70629145D01*
X136578682Y-70659939D01*
X136482947Y-70735142D01*
X136472755Y-70745776D01*
X136394639Y-70883784D01*
X133565231Y-70883784D01*
X133548334Y-70828622D01*
X133517017Y-70668221D01*
X133493208Y-70448936D01*
X133477305Y-70192905D01*
X133469706Y-69922266D01*
X133470809Y-69659159D01*
X133481012Y-69425722D01*
X133500713Y-69244095D01*
X133518429Y-69165458D01*
X133556635Y-69042606D01*
X133608020Y-68872763D01*
X133657932Y-68704640D01*
X133711816Y-68548751D01*
X133786865Y-68366684D01*
X133872848Y-68179503D01*
X133959533Y-68008268D01*
X134036687Y-67874039D01*
X134094078Y-67797880D01*
X134101244Y-67792147D01*
X134143276Y-67740215D01*
X134197880Y-67646857D01*
X134277395Y-67531387D01*
X134410518Y-67377975D01*
X134580612Y-67202768D01*
X134771039Y-67021911D01*
X134965163Y-66851551D01*
X135146344Y-66707833D01*
X135217661Y-66657208D01*
X135357257Y-66558951D01*
X135462977Y-66477405D01*
X135517440Y-66426240D01*
X135521204Y-66418474D01*
X135486255Y-66387659D01*
X135378936Y-66363734D01*
X135195538Y-66346392D01*
X134932353Y-66335328D01*
X134585672Y-66330235D01*
X134446248Y-66329808D01*
X133703752Y-66329320D01*
X133703752Y-64357214D01*
X133703935Y-63884601D01*
X133704730Y-63491537D01*
X133706507Y-63168918D01*
X133709635Y-62907637D01*
X133712608Y-62779446D01*
X135742845Y-62779446D01*
X135746631Y-62979468D01*
X135764303Y-63112773D01*
X135805333Y-63201194D01*
X135879193Y-63266559D01*
X135978255Y-63322034D01*
X136102590Y-63391913D01*
X136198964Y-63457250D01*
X136219759Y-63475294D01*
X136333750Y-63529696D01*
X136489272Y-63517964D01*
X136670648Y-63441695D01*
X136695899Y-63426763D01*
X136826804Y-63350170D01*
X136942871Y-63287865D01*
X136972949Y-63273441D01*
X137019888Y-63246054D01*
X137049213Y-63202827D01*
X137065001Y-63125044D01*
X137071330Y-62993990D01*
X137072312Y-62817415D01*
X137071936Y-62406283D01*
X136742854Y-62230955D01*
X136579836Y-62146100D01*
X136472471Y-62099083D01*
X136398969Y-62084587D01*
X136337540Y-62097292D01*
X136288867Y-62120135D01*
X136180325Y-62184016D01*
X136105385Y-62240053D01*
X136021709Y-62288427D01*
X135983483Y-62295463D01*
X135907346Y-62324702D01*
X135831501Y-62384119D01*
X135781694Y-62452389D01*
X135754295Y-62548180D01*
X135743665Y-62696637D01*
X135742845Y-62779446D01*
X133712608Y-62779446D01*
X133714483Y-62698589D01*
X133721420Y-62532668D01*
X133730816Y-62400768D01*
X133743040Y-62293783D01*
X133758461Y-62202608D01*
X133777450Y-62118136D01*
X133797688Y-62041071D01*
X133973883Y-61557100D01*
X134223404Y-61120988D01*
X134542650Y-60736523D01*
X134928018Y-60407495D01*
X135375908Y-60137692D01*
X135765009Y-59971281D01*
X135846479Y-59951713D01*
X135991303Y-59925843D01*
X136174804Y-59897880D01*
X136277149Y-59883932D01*
X136799524Y-59858987D01*
X137324934Y-59921111D01*
G37*
G36*
X133784280Y-51878577D02*
G01*
X133893756Y-51932640D01*
X134052030Y-52018633D01*
X134245710Y-52129357D01*
X134390838Y-52215123D01*
X134604607Y-52342487D01*
X134794985Y-52454832D01*
X134947535Y-52543724D01*
X135047820Y-52600726D01*
X135077923Y-52616583D01*
X135180008Y-52669235D01*
X135328283Y-52753538D01*
X135501139Y-52856283D01*
X135676969Y-52964261D01*
X135834163Y-53064264D01*
X135951112Y-53143084D01*
X135997731Y-53178822D01*
X136042067Y-53225356D01*
X136070928Y-53282367D01*
X136087592Y-53368553D01*
X136095336Y-53502615D01*
X136097437Y-53703251D01*
X136097469Y-53747867D01*
X136100641Y-53942118D01*
X136109233Y-54098637D01*
X136121861Y-54199391D01*
X136134307Y-54227749D01*
X136177071Y-54191932D01*
X136228135Y-54105847D01*
X136264800Y-54028585D01*
X136302958Y-53952046D01*
X136354596Y-53852977D01*
X136431700Y-53708125D01*
X136470917Y-53634844D01*
X136584708Y-53464924D01*
X136749302Y-53272179D01*
X136942961Y-53077565D01*
X137143949Y-52902037D01*
X137330530Y-52766550D01*
X137427312Y-52712828D01*
X137899334Y-52531962D01*
X138351422Y-52436896D01*
X138787042Y-52427917D01*
X139209657Y-52505315D01*
X139622732Y-52669374D01*
X140029732Y-52920385D01*
X140042670Y-52929838D01*
X140298699Y-53158605D01*
X140535805Y-53446299D01*
X140738157Y-53768143D01*
X140889926Y-54099359D01*
X140969331Y-54380313D01*
X140982799Y-54500302D01*
X140994466Y-54699410D01*
X141004069Y-54968112D01*
X141011346Y-55296883D01*
X141016035Y-55676198D01*
X141017871Y-56096535D01*
X141017888Y-56141999D01*
X141017888Y-57641013D01*
X139892949Y-57641013D01*
X139522249Y-57639857D01*
X139232379Y-57636144D01*
X139015539Y-57629503D01*
X138863932Y-57619567D01*
X138769758Y-57605966D01*
X138725218Y-57588330D01*
X138722568Y-57585602D01*
X138705956Y-57521990D01*
X138691737Y-57382353D01*
X138680696Y-57179308D01*
X138673617Y-56925473D01*
X138671695Y-56768353D01*
X138666265Y-56006513D01*
X138841502Y-55844378D01*
X138981805Y-55664543D01*
X139046421Y-55466944D01*
X139036465Y-55268924D01*
X138953051Y-55087826D01*
X138797294Y-54940993D01*
X138782867Y-54931931D01*
X138581019Y-54851561D01*
X138386122Y-54848099D01*
X138210584Y-54909962D01*
X138066817Y-55025571D01*
X137967228Y-55183344D01*
X137924228Y-55371701D01*
X137950226Y-55579059D01*
X137987242Y-55674433D01*
X138066703Y-55793536D01*
X138164349Y-55881302D01*
X138174704Y-55887166D01*
X138289847Y-55947495D01*
X138276127Y-56759934D01*
X138270655Y-57020200D01*
X138263787Y-57249707D01*
X138256127Y-57433802D01*
X138248280Y-57557833D01*
X138241196Y-57606693D01*
X138194232Y-57613393D01*
X138068896Y-57619399D01*
X137875469Y-57624695D01*
X137624234Y-57629264D01*
X137325472Y-57633088D01*
X136989465Y-57636151D01*
X136626495Y-57638436D01*
X136246843Y-57639925D01*
X135860790Y-57640601D01*
X135478620Y-57640448D01*
X135110613Y-57639447D01*
X134767051Y-57637583D01*
X134458216Y-57634839D01*
X134194390Y-57631196D01*
X133985853Y-57626638D01*
X133842889Y-57621148D01*
X133775778Y-57614709D01*
X133773870Y-57614106D01*
X133759685Y-57601902D01*
X133747529Y-57572790D01*
X133737249Y-57520466D01*
X133728690Y-57438625D01*
X133721699Y-57320962D01*
X133716123Y-57161172D01*
X133711808Y-56952951D01*
X133708601Y-56689993D01*
X133706347Y-56365994D01*
X133704894Y-55974649D01*
X133704087Y-55509654D01*
X133703774Y-54964702D01*
X133703752Y-54735396D01*
X133704255Y-54240891D01*
X133705707Y-53772965D01*
X133708021Y-53339087D01*
X133711111Y-52946724D01*
X133714890Y-52603345D01*
X133719272Y-52316417D01*
X133724171Y-52093410D01*
X133729499Y-51941791D01*
X133735171Y-51869029D01*
X133736998Y-51863644D01*
X133784280Y-51878577D01*
G37*
G36*
X138010056Y-48378048D02*
G01*
X138485094Y-48378938D01*
X138940362Y-48380304D01*
X139367521Y-48382146D01*
X139758230Y-48384465D01*
X140104149Y-48387260D01*
X140396938Y-48390532D01*
X140628256Y-48394281D01*
X140789763Y-48398507D01*
X140873119Y-48403211D01*
X140879363Y-48404145D01*
X141017888Y-48431850D01*
X141017888Y-49889136D01*
X141017888Y-51346423D01*
X138627796Y-51346423D01*
X138174053Y-51346910D01*
X137745924Y-51348309D01*
X137351811Y-51350530D01*
X137000113Y-51353479D01*
X136699234Y-51357066D01*
X136457573Y-51361198D01*
X136283534Y-51365783D01*
X136185515Y-51370729D01*
X136167587Y-51373329D01*
X136139608Y-51395974D01*
X136120035Y-51447740D01*
X136107465Y-51541962D01*
X136100495Y-51691974D01*
X136097722Y-51911110D01*
X136097469Y-52039642D01*
X136095754Y-52312834D01*
X136087734Y-52506865D01*
X136069103Y-52631208D01*
X136035552Y-52695336D01*
X135982774Y-52708722D01*
X135906460Y-52680840D01*
X135826407Y-52635688D01*
X135687206Y-52555853D01*
X135551915Y-52483313D01*
X135543368Y-52478986D01*
X135421090Y-52413749D01*
X135322650Y-52355778D01*
X135245192Y-52307610D01*
X135115433Y-52228437D01*
X134957166Y-52132751D01*
X134901533Y-52099298D01*
X134738911Y-52001475D01*
X134596602Y-51915556D01*
X134498450Y-51855946D01*
X134479494Y-51844305D01*
X134363152Y-51780079D01*
X134297449Y-51748781D01*
X134212110Y-51704089D01*
X134082541Y-51628086D01*
X133953907Y-51548048D01*
X133703752Y-51388026D01*
X133703752Y-49909567D01*
X133703752Y-48431108D01*
X133803490Y-48404380D01*
X133865213Y-48399581D01*
X134007250Y-48395256D01*
X134221261Y-48391403D01*
X134498906Y-48388023D01*
X134831845Y-48385117D01*
X135211738Y-48382684D01*
X135630243Y-48380725D01*
X136079022Y-48379241D01*
X136549732Y-48378230D01*
X137034035Y-48377694D01*
X137523590Y-48377634D01*
X138010056Y-48378048D01*
G37*
%TD*%
M02*
