%TF.GenerationSoftware,KiCad,Pcbnew,8.0.1-8.0.1-0~ubuntu20.04.1*%
%TF.CreationDate,2024-04-11T23:30:54+02:00*%
%TF.ProjectId,reaktor51_led,7265616b-746f-4723-9531-5f6c65642e6b,rev?*%
%TF.SameCoordinates,Original*%
%TF.FileFunction,Copper,L1,Top*%
%TF.FilePolarity,Positive*%
%FSLAX46Y46*%
G04 Gerber Fmt 4.6, Leading zero omitted, Abs format (unit mm)*
G04 Created by KiCad (PCBNEW 8.0.1-8.0.1-0~ubuntu20.04.1) date 2024-04-11 23:30:54*
%MOMM*%
%LPD*%
G01*
G04 APERTURE LIST*
%TA.AperFunction,ComponentPad*%
%ADD10O,1.600000X1.600000*%
%TD*%
%TA.AperFunction,ComponentPad*%
%ADD11C,1.600000*%
%TD*%
%TA.AperFunction,ComponentPad*%
%ADD12C,2.000000*%
%TD*%
%TA.AperFunction,ComponentPad*%
%ADD13C,1.800000*%
%TD*%
%TA.AperFunction,ComponentPad*%
%ADD14R,1.800000X1.800000*%
%TD*%
%TA.AperFunction,ComponentPad*%
%ADD15R,3.000000X3.000000*%
%TD*%
%TA.AperFunction,ComponentPad*%
%ADD16C,3.000000*%
%TD*%
%TA.AperFunction,Conductor*%
%ADD17C,0.500000*%
%TD*%
G04 APERTURE END LIST*
D10*
%TO.P,R1,2*%
%TO.N,Net-(SW1-B)*%
X166330000Y-59500000D03*
D11*
%TO.P,R1,1*%
%TO.N,Net-(D1-A)*%
X156170000Y-59500000D03*
%TD*%
D12*
%TO.P,SW1,1,A*%
%TO.N,Net-(BT1-+)*%
X174000000Y-65250000D03*
X174000000Y-71750000D03*
%TO.P,SW1,2,B*%
%TO.N,Net-(SW1-B)*%
X178500000Y-65250000D03*
X178500000Y-71750000D03*
%TD*%
D13*
%TO.P,D1,2,A*%
%TO.N,Net-(D1-A)*%
X161250000Y-52765000D03*
D14*
%TO.P,D1,1,K*%
%TO.N,GND*%
X161250000Y-50225000D03*
%TD*%
D15*
%TO.P,BT1,1,+*%
%TO.N,Net-(BT1-+)*%
X161250000Y-80500000D03*
D16*
%TO.P,BT1,2,-*%
%TO.N,GND*%
X161250000Y-100990000D03*
%TD*%
D17*
%TO.N,Net-(D1-A)*%
X156170000Y-56607350D02*
G75*
G02*
X157250014Y-54000014I3687400J-50D01*
G01*
X156170000Y-59500000D02*
X156170000Y-56607350D01*
X157250000Y-54000000D02*
X157323223Y-53926777D01*
X157323223Y-53926777D02*
G75*
G02*
X160128000Y-52765014I2804777J-2804823D01*
G01*
X160128000Y-52765000D02*
X161250000Y-52765000D01*
%TO.N,Net-(SW1-B)*%
X166330000Y-59500000D02*
X172878680Y-59500000D01*
%TO.N,GND*%
X159511391Y-100990000D02*
G75*
G02*
X153500002Y-98499998I9J8501400D01*
G01*
X153250001Y-98249999D02*
G75*
G02*
X151499990Y-94025127I4224899J4224899D01*
G01*
X151500000Y-58992640D02*
G75*
G02*
X154499988Y-51749988I10242600J40D01*
G01*
X158181675Y-50225000D02*
X161250000Y-50225000D01*
X154500000Y-51750000D02*
G75*
G02*
X158181675Y-50224990I3681700J-3681700D01*
G01*
X161250000Y-100990000D02*
X159511391Y-100990000D01*
X153500000Y-98500000D02*
X153250000Y-98250000D01*
X151500000Y-94025127D02*
X151500000Y-58992640D01*
%TO.N,Net-(SW1-B)*%
X176909010Y-61409009D02*
X176500000Y-61000000D01*
X178500000Y-65250000D02*
G75*
G03*
X176909014Y-61409005I-5432000J0D01*
G01*
X176500000Y-61000000D02*
G75*
G03*
X172878680Y-59500009I-3621300J-3621300D01*
G01*
X178500000Y-71750000D02*
X178500000Y-65250000D01*
%TO.N,Net-(BT1-+)*%
X174000000Y-71750000D02*
X174000000Y-65250000D01*
X163800253Y-80500000D02*
G75*
G03*
X172249985Y-76999985I-53J11949800D01*
G01*
X161250000Y-80500000D02*
X163800253Y-80500000D01*
X172249999Y-76999999D02*
G75*
G03*
X174000010Y-72775127I-4224899J4224899D01*
G01*
X174000000Y-72775127D02*
X174000000Y-71750000D01*
%TD*%
%TA.AperFunction,NonConductor*%
G36*
X161001187Y-45500523D02*
G01*
X161985030Y-45519578D01*
X161989779Y-45519763D01*
X162970943Y-45576831D01*
X162975727Y-45577202D01*
X163953927Y-45672218D01*
X163958664Y-45672772D01*
X164932447Y-45805595D01*
X164937188Y-45806336D01*
X165905079Y-45976764D01*
X165909794Y-45977688D01*
X166870388Y-46185474D01*
X166875032Y-46186573D01*
X167826881Y-46431405D01*
X167831442Y-46432672D01*
X168773136Y-46714190D01*
X168777644Y-46715634D01*
X169707672Y-47033386D01*
X169712158Y-47035015D01*
X170629199Y-47388547D01*
X170633621Y-47390351D01*
X171536286Y-47779129D01*
X171540621Y-47781097D01*
X171853662Y-47930549D01*
X172427518Y-48204519D01*
X172431811Y-48206671D01*
X172776398Y-48387889D01*
X173301696Y-48664144D01*
X173305867Y-48666443D01*
X174027981Y-49082669D01*
X174157322Y-49157221D01*
X174161436Y-49159699D01*
X174993301Y-49683112D01*
X174997281Y-49685726D01*
X175345969Y-49924455D01*
X175808212Y-50240930D01*
X175812122Y-50243719D01*
X176600976Y-50829930D01*
X176604774Y-50832869D01*
X177370305Y-51449162D01*
X177373957Y-51452220D01*
X177743783Y-51774330D01*
X178115079Y-52097720D01*
X178118639Y-52100944D01*
X178834188Y-52774637D01*
X178837620Y-52777996D01*
X179526544Y-53478890D01*
X179529844Y-53482380D01*
X179685932Y-53653995D01*
X180116413Y-54127298D01*
X180191103Y-54209417D01*
X180194258Y-54213023D01*
X180221590Y-54245517D01*
X180826906Y-54965165D01*
X180829925Y-54968900D01*
X181432924Y-55744911D01*
X181435797Y-55748759D01*
X182008319Y-56547573D01*
X182011041Y-56551530D01*
X182552211Y-57371928D01*
X182554776Y-57375987D01*
X183063762Y-58216709D01*
X183066145Y-58220823D01*
X183542213Y-59080656D01*
X183544433Y-59084855D01*
X183902424Y-59795003D01*
X183986839Y-59962457D01*
X183988917Y-59966786D01*
X184397012Y-60860869D01*
X184398921Y-60865276D01*
X184772078Y-61774466D01*
X184773815Y-61778944D01*
X185111484Y-62701902D01*
X185113046Y-62706443D01*
X185414717Y-63641759D01*
X185416103Y-63646357D01*
X185681343Y-64592705D01*
X185682549Y-64597354D01*
X185910932Y-65553206D01*
X185911958Y-65557897D01*
X186103166Y-66521924D01*
X186104009Y-66526652D01*
X186257743Y-67497348D01*
X186258402Y-67502105D01*
X186374432Y-68478027D01*
X186374906Y-68482806D01*
X186453057Y-69462471D01*
X186453346Y-69467265D01*
X186493504Y-70449209D01*
X186493608Y-70454011D01*
X186495711Y-71436823D01*
X186495628Y-71441624D01*
X186459675Y-72423757D01*
X186459406Y-72428552D01*
X186385449Y-73408540D01*
X186384995Y-73413321D01*
X186273145Y-74389727D01*
X186272506Y-74394487D01*
X186122935Y-75365803D01*
X186122113Y-75370535D01*
X185935030Y-76335391D01*
X185934024Y-76340087D01*
X185709734Y-77296914D01*
X185708548Y-77301567D01*
X185447367Y-78249023D01*
X185446001Y-78253628D01*
X185148329Y-79190257D01*
X185146786Y-79194804D01*
X184813081Y-80119169D01*
X184811364Y-80123654D01*
X184442089Y-81034469D01*
X184440198Y-81038884D01*
X184035950Y-81934674D01*
X184033890Y-81939012D01*
X183595265Y-82818463D01*
X183593039Y-82822719D01*
X183120675Y-83684550D01*
X183118286Y-83688716D01*
X182612898Y-84531620D01*
X182610349Y-84535690D01*
X182072704Y-85358386D01*
X182069999Y-85362354D01*
X181500921Y-86163586D01*
X181498065Y-86167447D01*
X180898381Y-86946050D01*
X180895378Y-86949798D01*
X180265962Y-87704635D01*
X180262815Y-87708263D01*
X179604675Y-88438124D01*
X179601391Y-88441627D01*
X178915473Y-89145466D01*
X178912055Y-89148840D01*
X178199397Y-89825590D01*
X178195851Y-89828829D01*
X177457531Y-90477468D01*
X177453862Y-90480568D01*
X176737697Y-91062188D01*
X176725320Y-91070079D01*
X176725599Y-91070502D01*
X176718817Y-91074981D01*
X176681281Y-91107546D01*
X176676319Y-91111631D01*
X176637153Y-91142200D01*
X176637149Y-91142204D01*
X176637076Y-91142302D01*
X176619371Y-91161262D01*
X176619278Y-91161341D01*
X176619273Y-91161347D01*
X176591442Y-91202520D01*
X176587708Y-91207747D01*
X176557793Y-91247407D01*
X176557791Y-91247410D01*
X176557749Y-91247515D01*
X176545547Y-91270425D01*
X176545478Y-91270526D01*
X176529259Y-91317482D01*
X176527003Y-91323502D01*
X176508365Y-91369569D01*
X176508365Y-91369571D01*
X176508350Y-91369693D01*
X176502493Y-91394977D01*
X176502453Y-91395090D01*
X176502453Y-91395093D01*
X176498938Y-91444664D01*
X176498317Y-91451065D01*
X176492239Y-91500360D01*
X176492240Y-91500368D01*
X176492255Y-91500475D01*
X176493143Y-91526428D01*
X176493135Y-91526538D01*
X176493135Y-91526550D01*
X176502565Y-91575309D01*
X176503623Y-91581655D01*
X176510515Y-91630876D01*
X176510560Y-91630980D01*
X176518133Y-91655813D01*
X176518155Y-91655929D01*
X176518156Y-91655933D01*
X176539900Y-91700623D01*
X176542560Y-91706472D01*
X176561948Y-91752209D01*
X176562012Y-91752291D01*
X176575765Y-91774335D01*
X182025507Y-102975196D01*
X185113159Y-109321249D01*
X185124788Y-109390144D01*
X185097324Y-109454389D01*
X185039487Y-109493588D01*
X185001656Y-109499500D01*
X130624500Y-109499500D01*
X130557461Y-109479815D01*
X130511706Y-109427011D01*
X130500500Y-109375500D01*
X130500500Y-94265328D01*
X150749490Y-94265328D01*
X150783764Y-94744498D01*
X150852133Y-95220006D01*
X150954248Y-95689415D01*
X151071334Y-96088166D01*
X151089594Y-96150353D01*
X151183156Y-96401200D01*
X151257479Y-96600465D01*
X151457038Y-97037436D01*
X151687267Y-97459069D01*
X151687275Y-97459082D01*
X151946975Y-97863185D01*
X151946983Y-97863195D01*
X151946987Y-97863200D01*
X151946990Y-97863205D01*
X152234880Y-98247780D01*
X152549472Y-98610838D01*
X152549486Y-98610852D01*
X152663414Y-98724780D01*
X152663439Y-98724807D01*
X152667048Y-98728416D01*
X152913537Y-98974905D01*
X152913539Y-98974907D01*
X152969316Y-99030684D01*
X152969316Y-99030683D01*
X153027856Y-99089224D01*
X153027906Y-99089269D01*
X153167000Y-99228363D01*
X153585515Y-99599136D01*
X153585516Y-99599137D01*
X153879342Y-99829334D01*
X154025644Y-99943954D01*
X154485795Y-100261573D01*
X154964284Y-100550830D01*
X155459365Y-100810668D01*
X155969231Y-101040141D01*
X155969238Y-101040143D01*
X155969241Y-101040145D01*
X156056614Y-101073281D01*
X156492022Y-101238410D01*
X157025830Y-101404751D01*
X157568708Y-101538559D01*
X158118674Y-101639345D01*
X158604341Y-101698315D01*
X158673722Y-101706740D01*
X158739137Y-101710696D01*
X159231828Y-101740500D01*
X159308707Y-101740500D01*
X159375746Y-101760185D01*
X159421501Y-101812989D01*
X159424886Y-101821160D01*
X159425630Y-101823154D01*
X159425635Y-101823166D01*
X159562770Y-102074309D01*
X159562775Y-102074317D01*
X159734254Y-102303387D01*
X159734270Y-102303405D01*
X159936594Y-102505729D01*
X159936612Y-102505745D01*
X160165682Y-102677224D01*
X160165690Y-102677229D01*
X160416833Y-102814364D01*
X160416832Y-102814364D01*
X160416836Y-102814365D01*
X160416839Y-102814367D01*
X160684954Y-102914369D01*
X160684960Y-102914370D01*
X160684962Y-102914371D01*
X160964566Y-102975195D01*
X160964568Y-102975195D01*
X160964572Y-102975196D01*
X161218220Y-102993337D01*
X161249999Y-102995610D01*
X161250000Y-102995610D01*
X161250001Y-102995610D01*
X161278595Y-102993564D01*
X161535428Y-102975196D01*
X161815046Y-102914369D01*
X162083161Y-102814367D01*
X162334315Y-102677226D01*
X162563395Y-102505739D01*
X162765739Y-102303395D01*
X162937226Y-102074315D01*
X163074367Y-101823161D01*
X163174369Y-101555046D01*
X163235196Y-101275428D01*
X163255610Y-100990000D01*
X163235196Y-100704572D01*
X163201750Y-100550824D01*
X163174371Y-100424962D01*
X163174370Y-100424960D01*
X163174369Y-100424954D01*
X163074367Y-100156839D01*
X162974646Y-99974215D01*
X162937229Y-99905690D01*
X162937224Y-99905682D01*
X162765745Y-99676612D01*
X162765729Y-99676594D01*
X162563405Y-99474270D01*
X162563387Y-99474254D01*
X162334317Y-99302775D01*
X162334309Y-99302770D01*
X162083166Y-99165635D01*
X162083167Y-99165635D01*
X161975915Y-99125632D01*
X161815046Y-99065631D01*
X161815043Y-99065630D01*
X161815037Y-99065628D01*
X161535433Y-99004804D01*
X161250001Y-98984390D01*
X161249999Y-98984390D01*
X160964566Y-99004804D01*
X160684962Y-99065628D01*
X160416833Y-99165635D01*
X160165690Y-99302770D01*
X160165682Y-99302775D01*
X159936612Y-99474254D01*
X159936594Y-99474270D01*
X159734270Y-99676594D01*
X159734254Y-99676612D01*
X159562775Y-99905682D01*
X159562770Y-99905690D01*
X159425631Y-100156843D01*
X159424003Y-100160407D01*
X159378240Y-100213204D01*
X159311198Y-100232879D01*
X159307159Y-100232813D01*
X159008511Y-100223036D01*
X159000414Y-100222505D01*
X158503740Y-100173587D01*
X158495695Y-100172528D01*
X158003272Y-100091228D01*
X157995318Y-100089646D01*
X157752291Y-100032980D01*
X157509269Y-99976315D01*
X157501432Y-99974215D01*
X157023826Y-99829334D01*
X157016142Y-99826725D01*
X156549059Y-99650927D01*
X156541562Y-99647822D01*
X156086954Y-99441842D01*
X156079677Y-99438253D01*
X155639528Y-99202988D01*
X155632501Y-99198931D01*
X155208678Y-98935381D01*
X155201931Y-98930873D01*
X154796250Y-98640167D01*
X154789812Y-98635227D01*
X154404009Y-98318606D01*
X154397909Y-98313256D01*
X154032108Y-97970646D01*
X154029192Y-97967824D01*
X153782408Y-97721040D01*
X153779033Y-97717530D01*
X153505537Y-97421664D01*
X153499214Y-97414261D01*
X153251282Y-97099761D01*
X153245559Y-97091884D01*
X153023065Y-96758899D01*
X153017984Y-96750606D01*
X152822304Y-96401196D01*
X152817885Y-96392525D01*
X152650219Y-96028831D01*
X152646493Y-96019836D01*
X152524593Y-95689415D01*
X152507872Y-95644091D01*
X152504874Y-95634863D01*
X152396162Y-95249402D01*
X152393898Y-95239971D01*
X152315759Y-94847150D01*
X152314243Y-94837576D01*
X152267167Y-94439844D01*
X152266406Y-94430176D01*
X152250596Y-94027821D01*
X152250500Y-94022952D01*
X152250500Y-82047870D01*
X159249500Y-82047870D01*
X159249501Y-82047876D01*
X159255908Y-82107483D01*
X159306202Y-82242328D01*
X159306206Y-82242335D01*
X159392452Y-82357544D01*
X159392455Y-82357547D01*
X159507664Y-82443793D01*
X159507671Y-82443797D01*
X159642517Y-82494091D01*
X159642516Y-82494091D01*
X159649444Y-82494835D01*
X159702127Y-82500500D01*
X162797872Y-82500499D01*
X162857483Y-82494091D01*
X162992331Y-82443796D01*
X163107546Y-82357546D01*
X163193796Y-82242331D01*
X163244091Y-82107483D01*
X163250500Y-82047873D01*
X163250500Y-81374500D01*
X163270185Y-81307461D01*
X163322989Y-81261706D01*
X163374500Y-81250500D01*
X163721376Y-81250500D01*
X163748873Y-81250500D01*
X163748944Y-81250520D01*
X163800256Y-81250520D01*
X163800256Y-81250521D01*
X164132824Y-81250520D01*
X164797048Y-81215707D01*
X165458539Y-81146179D01*
X166115486Y-81042126D01*
X166130738Y-81038884D01*
X166766073Y-80903838D01*
X166766077Y-80903836D01*
X166766086Y-80903835D01*
X167408557Y-80731683D01*
X168041138Y-80526143D01*
X168662095Y-80287778D01*
X168662122Y-80287765D01*
X168662127Y-80287764D01*
X168825071Y-80215216D01*
X169269726Y-80017242D01*
X169862365Y-79715276D01*
X170438389Y-79382707D01*
X170996218Y-79020448D01*
X171307472Y-78794308D01*
X171534315Y-78629498D01*
X171534317Y-78629496D01*
X171534315Y-78629496D01*
X171534324Y-78629491D01*
X172051231Y-78210907D01*
X172545523Y-77765844D01*
X172717831Y-77593533D01*
X172717843Y-77593524D01*
X172724905Y-77586462D01*
X172724907Y-77586461D01*
X172780684Y-77530684D01*
X172836461Y-77474907D01*
X172836462Y-77474904D01*
X172841272Y-77470095D01*
X172841406Y-77469944D01*
X172950521Y-77360831D01*
X173265112Y-76997774D01*
X173553002Y-76613199D01*
X173553010Y-76613186D01*
X173553016Y-76613179D01*
X173733805Y-76331865D01*
X173812723Y-76209066D01*
X174042951Y-75787435D01*
X174242515Y-75350454D01*
X174410397Y-74900350D01*
X174545741Y-74439416D01*
X174547531Y-74431191D01*
X174589424Y-74238609D01*
X174647857Y-73970001D01*
X174716226Y-73494497D01*
X174743067Y-73119216D01*
X174767484Y-73053754D01*
X174807733Y-73019011D01*
X174823509Y-73010474D01*
X175019744Y-72857738D01*
X175188164Y-72674785D01*
X175324173Y-72466607D01*
X175424063Y-72238881D01*
X175485108Y-71997821D01*
X175505643Y-71750000D01*
X175485108Y-71502179D01*
X175424063Y-71261119D01*
X175324173Y-71033393D01*
X175188166Y-70825217D01*
X175166557Y-70801744D01*
X175019744Y-70642262D01*
X174823509Y-70489526D01*
X174815477Y-70485179D01*
X174765891Y-70435961D01*
X174750500Y-70376128D01*
X174750500Y-66623872D01*
X174770185Y-66556833D01*
X174815487Y-66514815D01*
X174823509Y-66510474D01*
X175019744Y-66357738D01*
X175188164Y-66174785D01*
X175324173Y-65966607D01*
X175424063Y-65738881D01*
X175485108Y-65497821D01*
X175485109Y-65497812D01*
X175505643Y-65250005D01*
X175505643Y-65249994D01*
X175485109Y-65002187D01*
X175485107Y-65002175D01*
X175424063Y-64761118D01*
X175324173Y-64533393D01*
X175188166Y-64325217D01*
X175166557Y-64301744D01*
X175019744Y-64142262D01*
X174823509Y-63989526D01*
X174823507Y-63989525D01*
X174823506Y-63989524D01*
X174604811Y-63871172D01*
X174604802Y-63871169D01*
X174369616Y-63790429D01*
X174124335Y-63749500D01*
X173875665Y-63749500D01*
X173630383Y-63790429D01*
X173395197Y-63871169D01*
X173395188Y-63871172D01*
X173176493Y-63989524D01*
X172980257Y-64142261D01*
X172811833Y-64325217D01*
X172675826Y-64533393D01*
X172575936Y-64761118D01*
X172514892Y-65002175D01*
X172514890Y-65002187D01*
X172494357Y-65249994D01*
X172494357Y-65250005D01*
X172514890Y-65497812D01*
X172514892Y-65497824D01*
X172575936Y-65738881D01*
X172675826Y-65966606D01*
X172811833Y-66174782D01*
X172811836Y-66174785D01*
X172980256Y-66357738D01*
X173176491Y-66510474D01*
X173184513Y-66514815D01*
X173234106Y-66564032D01*
X173249500Y-66623872D01*
X173249500Y-70376128D01*
X173229815Y-70443167D01*
X173184522Y-70485179D01*
X173176491Y-70489526D01*
X173045667Y-70591350D01*
X172980257Y-70642261D01*
X172811833Y-70825217D01*
X172675826Y-71033393D01*
X172575936Y-71261118D01*
X172514892Y-71502175D01*
X172514890Y-71502187D01*
X172494357Y-71749994D01*
X172494357Y-71750005D01*
X172514890Y-71997812D01*
X172514892Y-71997824D01*
X172575936Y-72238881D01*
X172675826Y-72466606D01*
X172811833Y-72674782D01*
X172811836Y-72674785D01*
X172980256Y-72857738D01*
X173144525Y-72985594D01*
X173176496Y-73010478D01*
X173179811Y-73012644D01*
X173225169Y-73065789D01*
X173235895Y-73121320D01*
X173233584Y-73180154D01*
X173232820Y-73189862D01*
X173185748Y-73587556D01*
X173184225Y-73597172D01*
X173106096Y-73989948D01*
X173103823Y-73999416D01*
X172995120Y-74384843D01*
X172992112Y-74394103D01*
X172853497Y-74769832D01*
X172849771Y-74778827D01*
X172682110Y-75142510D01*
X172677689Y-75151185D01*
X172482006Y-75500601D01*
X172476919Y-75508903D01*
X172254432Y-75841878D01*
X172248709Y-75849755D01*
X172000777Y-76164253D01*
X171994454Y-76171656D01*
X171722042Y-76466351D01*
X171716174Y-76472286D01*
X171265356Y-76898497D01*
X171260169Y-76903132D01*
X170785518Y-77303938D01*
X170780080Y-77308274D01*
X170283719Y-77681825D01*
X170278047Y-77685850D01*
X169761503Y-78030995D01*
X169755613Y-78034696D01*
X169220532Y-78350332D01*
X169214445Y-78353696D01*
X168662512Y-78638833D01*
X168656245Y-78641851D01*
X168089197Y-78895591D01*
X168082771Y-78898253D01*
X167502374Y-79119803D01*
X167495809Y-79122100D01*
X166903924Y-79310753D01*
X166897241Y-79312679D01*
X166295670Y-79467858D01*
X166288888Y-79469405D01*
X165679604Y-79590600D01*
X165672747Y-79591765D01*
X165057617Y-79678609D01*
X165050706Y-79679388D01*
X164431663Y-79731607D01*
X164424718Y-79731997D01*
X163802744Y-79749451D01*
X163799266Y-79749500D01*
X163374499Y-79749500D01*
X163307460Y-79729815D01*
X163261705Y-79677011D01*
X163250499Y-79625500D01*
X163250499Y-78952129D01*
X163250498Y-78952123D01*
X163250497Y-78952116D01*
X163244574Y-78897014D01*
X163244091Y-78892516D01*
X163193797Y-78757671D01*
X163193793Y-78757664D01*
X163107547Y-78642455D01*
X163107544Y-78642452D01*
X162992335Y-78556206D01*
X162992328Y-78556202D01*
X162857482Y-78505908D01*
X162857483Y-78505908D01*
X162797883Y-78499501D01*
X162797881Y-78499500D01*
X162797873Y-78499500D01*
X162797864Y-78499500D01*
X159702129Y-78499500D01*
X159702123Y-78499501D01*
X159642516Y-78505908D01*
X159507671Y-78556202D01*
X159507664Y-78556206D01*
X159392455Y-78642452D01*
X159392452Y-78642455D01*
X159306206Y-78757664D01*
X159306202Y-78757671D01*
X159255908Y-78892517D01*
X159249501Y-78952116D01*
X159249501Y-78952123D01*
X159249500Y-78952135D01*
X159249500Y-82047870D01*
X152250500Y-82047870D01*
X152250500Y-68553735D01*
X154498048Y-68553735D01*
X154498500Y-68557950D01*
X154500590Y-68573824D01*
X154501244Y-68578009D01*
X154515564Y-68626696D01*
X154517119Y-68632502D01*
X154529059Y-68681816D01*
X154530572Y-68685734D01*
X154536735Y-68700614D01*
X154538431Y-68704441D01*
X154564858Y-68747754D01*
X154567865Y-68752961D01*
X157525221Y-74174779D01*
X157530923Y-74186703D01*
X157533609Y-74193188D01*
X157562778Y-74243710D01*
X157564228Y-74246293D01*
X157579332Y-74273983D01*
X157592166Y-74297513D01*
X157595801Y-74302494D01*
X157599498Y-74307312D01*
X157640721Y-74348535D01*
X157642821Y-74350686D01*
X157679836Y-74389542D01*
X157683066Y-74392932D01*
X157687823Y-74396768D01*
X157692683Y-74400497D01*
X157692686Y-74400500D01*
X157743209Y-74429669D01*
X157745772Y-74431191D01*
X157795561Y-74461570D01*
X157795563Y-74461570D01*
X157801134Y-74464038D01*
X157806808Y-74466389D01*
X157806814Y-74466392D01*
X157863210Y-74481502D01*
X157865979Y-74482280D01*
X157921991Y-74498755D01*
X157921997Y-74498755D01*
X157928049Y-74499701D01*
X157934107Y-74500499D01*
X157934108Y-74500500D01*
X157992400Y-74500500D01*
X157995406Y-74500535D01*
X158053736Y-74501951D01*
X158053744Y-74501949D01*
X158060700Y-74501205D01*
X158073905Y-74500500D01*
X164426095Y-74500500D01*
X164439300Y-74501205D01*
X164446256Y-74501949D01*
X164446264Y-74501951D01*
X164504593Y-74500535D01*
X164507600Y-74500500D01*
X164565889Y-74500500D01*
X164565892Y-74500500D01*
X164565894Y-74500499D01*
X164571936Y-74499703D01*
X164577996Y-74498755D01*
X164578009Y-74498755D01*
X164634027Y-74482277D01*
X164636780Y-74481504D01*
X164693186Y-74466392D01*
X164693196Y-74466386D01*
X164698880Y-74464031D01*
X164704436Y-74461571D01*
X164704436Y-74461570D01*
X164704439Y-74461570D01*
X164754254Y-74431174D01*
X164756790Y-74429669D01*
X164807314Y-74400500D01*
X164807317Y-74400497D01*
X164812137Y-74396799D01*
X164816928Y-74392934D01*
X164816936Y-74392930D01*
X164857218Y-74350643D01*
X164859237Y-74348575D01*
X164900500Y-74307314D01*
X164900501Y-74307311D01*
X164904220Y-74302464D01*
X164907828Y-74297517D01*
X164907834Y-74297512D01*
X164935783Y-74246268D01*
X164937204Y-74243737D01*
X164966392Y-74193186D01*
X164966393Y-74193179D01*
X164969069Y-74186719D01*
X164974770Y-74174791D01*
X167932154Y-68752922D01*
X167935099Y-68747820D01*
X167961570Y-68704439D01*
X167961571Y-68704433D01*
X167963314Y-68700500D01*
X167969392Y-68685825D01*
X167970938Y-68681821D01*
X167970938Y-68681820D01*
X167970939Y-68681819D01*
X167982887Y-68632470D01*
X167984424Y-68626733D01*
X167998755Y-68578009D01*
X167998755Y-68578005D01*
X167999417Y-68573771D01*
X168001496Y-68557989D01*
X168001951Y-68553736D01*
X168000720Y-68503010D01*
X168000720Y-68496990D01*
X168001951Y-68446266D01*
X168001498Y-68442036D01*
X167999416Y-68426221D01*
X167998755Y-68421997D01*
X167998755Y-68421991D01*
X167984436Y-68373305D01*
X167982880Y-68367499D01*
X167970939Y-68318183D01*
X167970939Y-68318181D01*
X167970936Y-68318177D01*
X167969405Y-68314209D01*
X167963288Y-68299441D01*
X167961570Y-68295560D01*
X167935135Y-68252236D01*
X167932130Y-68247032D01*
X164974775Y-62825214D01*
X164969072Y-62813285D01*
X164966392Y-62806813D01*
X164937228Y-62756302D01*
X164935776Y-62753717D01*
X164907834Y-62702488D01*
X164907832Y-62702485D01*
X164907831Y-62702484D01*
X164904240Y-62697562D01*
X164900501Y-62692688D01*
X164900500Y-62692686D01*
X164900498Y-62692684D01*
X164900495Y-62692680D01*
X164859278Y-62651464D01*
X164857176Y-62649311D01*
X164816934Y-62607068D01*
X164812221Y-62603266D01*
X164807310Y-62599497D01*
X164756813Y-62570343D01*
X164754227Y-62568808D01*
X164704439Y-62538430D01*
X164698829Y-62535944D01*
X164693188Y-62533608D01*
X164636836Y-62518509D01*
X164633942Y-62517695D01*
X164578012Y-62501245D01*
X164571974Y-62500300D01*
X164565895Y-62499500D01*
X164565892Y-62499500D01*
X164507600Y-62499500D01*
X164504593Y-62499464D01*
X164446264Y-62498049D01*
X164439300Y-62498795D01*
X164426095Y-62499500D01*
X158073905Y-62499500D01*
X158060700Y-62498795D01*
X158053736Y-62498049D01*
X158053735Y-62498049D01*
X157995407Y-62499464D01*
X157992400Y-62499500D01*
X157934104Y-62499500D01*
X157928046Y-62500296D01*
X157921994Y-62501244D01*
X157866067Y-62517693D01*
X157863175Y-62518505D01*
X157806814Y-62533607D01*
X157801169Y-62535945D01*
X157795555Y-62538432D01*
X157745745Y-62568823D01*
X157743162Y-62570356D01*
X157692690Y-62599496D01*
X157687810Y-62603240D01*
X157683064Y-62607069D01*
X157642821Y-62649312D01*
X157640724Y-62651460D01*
X157599498Y-62692687D01*
X157595760Y-62697557D01*
X157592168Y-62702482D01*
X157564240Y-62753683D01*
X157562769Y-62756304D01*
X157533608Y-62806811D01*
X157530923Y-62813295D01*
X157525222Y-62825217D01*
X154567868Y-68247032D01*
X154564863Y-68252237D01*
X154538429Y-68295561D01*
X154536745Y-68299363D01*
X154530572Y-68314266D01*
X154529060Y-68318183D01*
X154517117Y-68367504D01*
X154515562Y-68373305D01*
X154501246Y-68421984D01*
X154500588Y-68426187D01*
X154498492Y-68442112D01*
X154498048Y-68446257D01*
X154499279Y-68496994D01*
X154499279Y-68503006D01*
X154498048Y-68553735D01*
X152250500Y-68553735D01*
X152250500Y-58994495D01*
X152250557Y-58990750D01*
X152254892Y-58847265D01*
X152267703Y-58423235D01*
X152268152Y-58415813D01*
X152319365Y-57852208D01*
X152320268Y-57844778D01*
X152329671Y-57782994D01*
X152405415Y-57285309D01*
X152406755Y-57277995D01*
X152525532Y-56724672D01*
X152527320Y-56717418D01*
X152536017Y-56686221D01*
X152679289Y-56172270D01*
X152681502Y-56165171D01*
X152866111Y-55630190D01*
X152868750Y-55623233D01*
X153085322Y-55100376D01*
X153088373Y-55093597D01*
X153336125Y-54584763D01*
X153339582Y-54578175D01*
X153617598Y-54085239D01*
X153621463Y-54078847D01*
X153635258Y-54057511D01*
X153928726Y-53603609D01*
X153932963Y-53597471D01*
X154268372Y-53141636D01*
X154272961Y-53135780D01*
X154635260Y-52701054D01*
X154640204Y-52695472D01*
X155027380Y-52284167D01*
X155033892Y-52277744D01*
X155313319Y-52021696D01*
X155321571Y-52014771D01*
X155621438Y-51784673D01*
X155630273Y-51778487D01*
X155949039Y-51575411D01*
X155958385Y-51570016D01*
X156293617Y-51395504D01*
X156303408Y-51390937D01*
X156652585Y-51246302D01*
X156662721Y-51242613D01*
X157023185Y-51128958D01*
X157033600Y-51126167D01*
X157402607Y-51044359D01*
X157413226Y-51042487D01*
X157787947Y-50993153D01*
X157798685Y-50992213D01*
X158178748Y-50975618D01*
X158184157Y-50975500D01*
X158260559Y-50975500D01*
X159725501Y-50975500D01*
X159792540Y-50995185D01*
X159838295Y-51047989D01*
X159849501Y-51099500D01*
X159849501Y-51172876D01*
X159855908Y-51232483D01*
X159906202Y-51367328D01*
X159906206Y-51367335D01*
X159992452Y-51482544D01*
X159992455Y-51482547D01*
X160107664Y-51568793D01*
X160107673Y-51568798D01*
X160187904Y-51598722D01*
X160243838Y-51640593D01*
X160268256Y-51706057D01*
X160253405Y-51774330D01*
X160235802Y-51798886D01*
X160141019Y-51901849D01*
X160104116Y-51958334D01*
X160050970Y-52003691D01*
X160000307Y-52014513D01*
X159942661Y-52014513D01*
X159573143Y-52043595D01*
X159573142Y-52043595D01*
X159207044Y-52101579D01*
X158846634Y-52188104D01*
X158846605Y-52188112D01*
X158494098Y-52302647D01*
X158151642Y-52444495D01*
X158151621Y-52444505D01*
X157821394Y-52612762D01*
X157821372Y-52612774D01*
X157610951Y-52741719D01*
X157505329Y-52806444D01*
X157505325Y-52806446D01*
X157505315Y-52806453D01*
X157205460Y-53024308D01*
X156923600Y-53265035D01*
X156847251Y-53341382D01*
X156847177Y-53341453D01*
X156662992Y-53525639D01*
X156662696Y-53525965D01*
X156582319Y-53606342D01*
X156333233Y-53903189D01*
X156222633Y-54061142D01*
X156110956Y-54220632D01*
X156110953Y-54220636D01*
X156110951Y-54220640D01*
X155917196Y-54556229D01*
X155753420Y-54907443D01*
X155620880Y-55271584D01*
X155520577Y-55645907D01*
X155453282Y-56027533D01*
X155419501Y-56413578D01*
X155419500Y-56533429D01*
X155419500Y-56607341D01*
X155419499Y-56693815D01*
X155419500Y-56693832D01*
X155419500Y-58373336D01*
X155399815Y-58440375D01*
X155366625Y-58474910D01*
X155330863Y-58499951D01*
X155169951Y-58660862D01*
X155039432Y-58847265D01*
X155039431Y-58847267D01*
X154943261Y-59053502D01*
X154943258Y-59053511D01*
X154884366Y-59273302D01*
X154884364Y-59273313D01*
X154864532Y-59499998D01*
X154864532Y-59500001D01*
X154884364Y-59726686D01*
X154884366Y-59726697D01*
X154943258Y-59946488D01*
X154943261Y-59946497D01*
X155039431Y-60152732D01*
X155039432Y-60152734D01*
X155169954Y-60339141D01*
X155330858Y-60500045D01*
X155366631Y-60525093D01*
X155517266Y-60630568D01*
X155723504Y-60726739D01*
X155943308Y-60785635D01*
X156105230Y-60799801D01*
X156169998Y-60805468D01*
X156170000Y-60805468D01*
X156170002Y-60805468D01*
X156226673Y-60800509D01*
X156396692Y-60785635D01*
X156616496Y-60726739D01*
X156822734Y-60630568D01*
X157009139Y-60500047D01*
X157170047Y-60339139D01*
X157300568Y-60152734D01*
X157396739Y-59946496D01*
X157455635Y-59726692D01*
X157475468Y-59500001D01*
X165024532Y-59500001D01*
X165044364Y-59726686D01*
X165044366Y-59726697D01*
X165103258Y-59946488D01*
X165103261Y-59946497D01*
X165199431Y-60152732D01*
X165199432Y-60152734D01*
X165329954Y-60339141D01*
X165490858Y-60500045D01*
X165526631Y-60525093D01*
X165677266Y-60630568D01*
X165883504Y-60726739D01*
X166103308Y-60785635D01*
X166265230Y-60799801D01*
X166329998Y-60805468D01*
X166330000Y-60805468D01*
X166330002Y-60805468D01*
X166386673Y-60800509D01*
X166556692Y-60785635D01*
X166776496Y-60726739D01*
X166982734Y-60630568D01*
X167169139Y-60500047D01*
X167330047Y-60339139D01*
X167345619Y-60316900D01*
X167355088Y-60303377D01*
X167409665Y-60259752D01*
X167456663Y-60250500D01*
X172799802Y-60250500D01*
X172875978Y-60250500D01*
X172881385Y-60250617D01*
X173254237Y-60266895D01*
X173264975Y-60267835D01*
X173632313Y-60316195D01*
X173642932Y-60318067D01*
X174004663Y-60398259D01*
X174015089Y-60401053D01*
X174368438Y-60512462D01*
X174378584Y-60516155D01*
X174720864Y-60657932D01*
X174730668Y-60662504D01*
X175059296Y-60833576D01*
X175068664Y-60838984D01*
X175381122Y-61038041D01*
X175389983Y-61044246D01*
X175683902Y-61269778D01*
X175692189Y-61276732D01*
X175967180Y-61528715D01*
X175971089Y-61532457D01*
X176029412Y-61590781D01*
X176029434Y-61590801D01*
X176322548Y-61883914D01*
X176376400Y-61937766D01*
X176380142Y-61941674D01*
X176650585Y-62236813D01*
X176657538Y-62245100D01*
X176899562Y-62560513D01*
X176905767Y-62569374D01*
X177119391Y-62904698D01*
X177124799Y-62914066D01*
X177308376Y-63266715D01*
X177312948Y-63276519D01*
X177465096Y-63643837D01*
X177468796Y-63654003D01*
X177568748Y-63971011D01*
X177570134Y-64040866D01*
X177533532Y-64100382D01*
X177526651Y-64106150D01*
X177480259Y-64142259D01*
X177311833Y-64325217D01*
X177175826Y-64533393D01*
X177075936Y-64761118D01*
X177014892Y-65002175D01*
X177014890Y-65002187D01*
X176994357Y-65249994D01*
X176994357Y-65250005D01*
X177014890Y-65497812D01*
X177014892Y-65497824D01*
X177075936Y-65738881D01*
X177175826Y-65966606D01*
X177311833Y-66174782D01*
X177311836Y-66174785D01*
X177480256Y-66357738D01*
X177676491Y-66510474D01*
X177684513Y-66514815D01*
X177734106Y-66564032D01*
X177749500Y-66623872D01*
X177749500Y-70376128D01*
X177729815Y-70443167D01*
X177684522Y-70485179D01*
X177676491Y-70489526D01*
X177545667Y-70591350D01*
X177480257Y-70642261D01*
X177311833Y-70825217D01*
X177175826Y-71033393D01*
X177075936Y-71261118D01*
X177014892Y-71502175D01*
X177014890Y-71502187D01*
X176994357Y-71749994D01*
X176994357Y-71750005D01*
X177014890Y-71997812D01*
X177014892Y-71997824D01*
X177075936Y-72238881D01*
X177175826Y-72466606D01*
X177311833Y-72674782D01*
X177311836Y-72674785D01*
X177480256Y-72857738D01*
X177676491Y-73010474D01*
X177895190Y-73128828D01*
X178130386Y-73209571D01*
X178375665Y-73250500D01*
X178624335Y-73250500D01*
X178869614Y-73209571D01*
X179104810Y-73128828D01*
X179323509Y-73010474D01*
X179519744Y-72857738D01*
X179688164Y-72674785D01*
X179824173Y-72466607D01*
X179924063Y-72238881D01*
X179985108Y-71997821D01*
X180005643Y-71750000D01*
X179985108Y-71502179D01*
X179924063Y-71261119D01*
X179824173Y-71033393D01*
X179688166Y-70825217D01*
X179666557Y-70801744D01*
X179519744Y-70642262D01*
X179323509Y-70489526D01*
X179315477Y-70485179D01*
X179265891Y-70435961D01*
X179250500Y-70376128D01*
X179250500Y-66623872D01*
X179270185Y-66556833D01*
X179315487Y-66514815D01*
X179323509Y-66510474D01*
X179519744Y-66357738D01*
X179688164Y-66174785D01*
X179824173Y-65966607D01*
X179924063Y-65738881D01*
X179985108Y-65497821D01*
X179985109Y-65497812D01*
X180005643Y-65250005D01*
X180005643Y-65249994D01*
X179985109Y-65002187D01*
X179985107Y-65002175D01*
X179924063Y-64761118D01*
X179824173Y-64533393D01*
X179688166Y-64325217D01*
X179666557Y-64301744D01*
X179519744Y-64142262D01*
X179323509Y-63989526D01*
X179323508Y-63989525D01*
X179323505Y-63989523D01*
X179323503Y-63989522D01*
X179143905Y-63892329D01*
X179094314Y-63843109D01*
X179081756Y-63809631D01*
X179062274Y-63720071D01*
X179062270Y-63720056D01*
X178937859Y-63296347D01*
X178937856Y-63296339D01*
X178937854Y-63296332D01*
X178783525Y-62882560D01*
X178783524Y-62882559D01*
X178783522Y-62882552D01*
X178783520Y-62882549D01*
X178600078Y-62480863D01*
X178600074Y-62480856D01*
X178471342Y-62245100D01*
X178388429Y-62093256D01*
X178149675Y-61721745D01*
X178051637Y-61590781D01*
X177885026Y-61368214D01*
X177832356Y-61307430D01*
X177595829Y-61034462D01*
X177439695Y-60878327D01*
X177439695Y-60878326D01*
X177439694Y-60878326D01*
X177380814Y-60819445D01*
X177380799Y-60819431D01*
X177093531Y-60532164D01*
X177093529Y-60532161D01*
X177067009Y-60505641D01*
X177066993Y-60505612D01*
X176882422Y-60321042D01*
X176882409Y-60321030D01*
X176882400Y-60321021D01*
X176565419Y-60046355D01*
X176565417Y-60046353D01*
X176229655Y-59795005D01*
X176229650Y-59795002D01*
X176082344Y-59700335D01*
X175876808Y-59568245D01*
X175751826Y-59500000D01*
X175508681Y-59367233D01*
X175508674Y-59367229D01*
X175127173Y-59193005D01*
X175127170Y-59193003D01*
X174734163Y-59046420D01*
X174331755Y-58928264D01*
X174331737Y-58928259D01*
X173921910Y-58839108D01*
X173566055Y-58787946D01*
X173506747Y-58779419D01*
X173297568Y-58764459D01*
X173088391Y-58749499D01*
X173088390Y-58749499D01*
X172878677Y-58749500D01*
X167456663Y-58749500D01*
X167389624Y-58729815D01*
X167355088Y-58696623D01*
X167330045Y-58660858D01*
X167169141Y-58499954D01*
X166982734Y-58369432D01*
X166982732Y-58369431D01*
X166776497Y-58273261D01*
X166776488Y-58273258D01*
X166556697Y-58214366D01*
X166556693Y-58214365D01*
X166556692Y-58214365D01*
X166556691Y-58214364D01*
X166556686Y-58214364D01*
X166330002Y-58194532D01*
X166329998Y-58194532D01*
X166103313Y-58214364D01*
X166103302Y-58214366D01*
X165883511Y-58273258D01*
X165883502Y-58273261D01*
X165677267Y-58369431D01*
X165677265Y-58369432D01*
X165490858Y-58499954D01*
X165329954Y-58660858D01*
X165199432Y-58847265D01*
X165199431Y-58847267D01*
X165103261Y-59053502D01*
X165103258Y-59053511D01*
X165044366Y-59273302D01*
X165044364Y-59273313D01*
X165024532Y-59499998D01*
X165024532Y-59500001D01*
X157475468Y-59500001D01*
X157475468Y-59500000D01*
X157455635Y-59273308D01*
X157396739Y-59053504D01*
X157300568Y-58847266D01*
X157186404Y-58684221D01*
X157170048Y-58660862D01*
X157170044Y-58660858D01*
X157009139Y-58499953D01*
X157004373Y-58496615D01*
X156973375Y-58474910D01*
X156929751Y-58420332D01*
X156920500Y-58373336D01*
X156920500Y-56610413D01*
X156920649Y-56604327D01*
X156934346Y-56325582D01*
X156935539Y-56313472D01*
X156945588Y-56245733D01*
X156976045Y-56040427D01*
X156978418Y-56028500D01*
X157045493Y-55760728D01*
X157049017Y-55749114D01*
X157142021Y-55489193D01*
X157146663Y-55477987D01*
X157264693Y-55228436D01*
X157270412Y-55217735D01*
X157412340Y-54980945D01*
X157419081Y-54970857D01*
X157583531Y-54749124D01*
X157591223Y-54739751D01*
X157778944Y-54532632D01*
X157783106Y-54528261D01*
X157836461Y-54474907D01*
X157851765Y-54459601D01*
X157856133Y-54455441D01*
X158083265Y-54249585D01*
X158092632Y-54241899D01*
X158336368Y-54061134D01*
X158346465Y-54054387D01*
X158606746Y-53898383D01*
X158617463Y-53892655D01*
X158891766Y-53762921D01*
X158902992Y-53758271D01*
X159188713Y-53656039D01*
X159200325Y-53652518D01*
X159494676Y-53578787D01*
X159506598Y-53576416D01*
X159806749Y-53531893D01*
X159818847Y-53530701D01*
X159998307Y-53521885D01*
X160066230Y-53538257D01*
X160108197Y-53577913D01*
X160141021Y-53628153D01*
X160298216Y-53798913D01*
X160298219Y-53798915D01*
X160298222Y-53798918D01*
X160481365Y-53941464D01*
X160481371Y-53941468D01*
X160481374Y-53941470D01*
X160685497Y-54051936D01*
X160763886Y-54078847D01*
X160905015Y-54127297D01*
X160905017Y-54127297D01*
X160905019Y-54127298D01*
X161133951Y-54165500D01*
X161133952Y-54165500D01*
X161366048Y-54165500D01*
X161366049Y-54165500D01*
X161594981Y-54127298D01*
X161814503Y-54051936D01*
X162018626Y-53941470D01*
X162201784Y-53798913D01*
X162358979Y-53628153D01*
X162485924Y-53433849D01*
X162579157Y-53221300D01*
X162636134Y-52996305D01*
X162642772Y-52916195D01*
X162655300Y-52765006D01*
X162655300Y-52764993D01*
X162636135Y-52533702D01*
X162636133Y-52533691D01*
X162579157Y-52308699D01*
X162485924Y-52096151D01*
X162358983Y-51901852D01*
X162358980Y-51901849D01*
X162358979Y-51901847D01*
X162264195Y-51798884D01*
X162233275Y-51736232D01*
X162241135Y-51666806D01*
X162285283Y-51612651D01*
X162312095Y-51598722D01*
X162392326Y-51568798D01*
X162392326Y-51568797D01*
X162392331Y-51568796D01*
X162507546Y-51482546D01*
X162593796Y-51367331D01*
X162644091Y-51232483D01*
X162650500Y-51172873D01*
X162650499Y-49277128D01*
X162644091Y-49217517D01*
X162622526Y-49159699D01*
X162593797Y-49082671D01*
X162593793Y-49082664D01*
X162507547Y-48967455D01*
X162507544Y-48967452D01*
X162392335Y-48881206D01*
X162392328Y-48881202D01*
X162257482Y-48830908D01*
X162257483Y-48830908D01*
X162197883Y-48824501D01*
X162197881Y-48824500D01*
X162197873Y-48824500D01*
X162197864Y-48824500D01*
X160302129Y-48824500D01*
X160302123Y-48824501D01*
X160242516Y-48830908D01*
X160107671Y-48881202D01*
X160107664Y-48881206D01*
X159992455Y-48967452D01*
X159992452Y-48967455D01*
X159906206Y-49082664D01*
X159906202Y-49082671D01*
X159855908Y-49217517D01*
X159849501Y-49277116D01*
X159849501Y-49277123D01*
X159849500Y-49277135D01*
X159849500Y-49350500D01*
X159829815Y-49417539D01*
X159777011Y-49463294D01*
X159725500Y-49474500D01*
X158233043Y-49474500D01*
X158233008Y-49474490D01*
X157968909Y-49474490D01*
X157544474Y-49504848D01*
X157123276Y-49565409D01*
X156707487Y-49655860D01*
X156299203Y-49775745D01*
X155900500Y-49924455D01*
X155513443Y-50101219D01*
X155139970Y-50305151D01*
X155139957Y-50305159D01*
X154782016Y-50535193D01*
X154781992Y-50535210D01*
X154441356Y-50790206D01*
X154119764Y-51068869D01*
X154119738Y-51068893D01*
X154005647Y-51182985D01*
X154005594Y-51183013D01*
X153751197Y-51437412D01*
X153340154Y-51897370D01*
X152955542Y-52379659D01*
X152598563Y-52882774D01*
X152270373Y-53405087D01*
X151971971Y-53945005D01*
X151971970Y-53945008D01*
X151704322Y-54500786D01*
X151468268Y-55070675D01*
X151468261Y-55070693D01*
X151264518Y-55652960D01*
X151093745Y-56245733D01*
X151093742Y-56245743D01*
X150956478Y-56847144D01*
X150853148Y-57455314D01*
X150853148Y-57455318D01*
X150784086Y-58068285D01*
X150784085Y-58068295D01*
X150784085Y-58068299D01*
X150767175Y-58369431D01*
X150749499Y-58684205D01*
X150749499Y-58684221D01*
X150749500Y-58918722D01*
X150749500Y-93973757D01*
X150749490Y-93973791D01*
X150749490Y-94265328D01*
X130500500Y-94265328D01*
X130500500Y-45624500D01*
X130520185Y-45557461D01*
X130572989Y-45511706D01*
X130624500Y-45500500D01*
X160934108Y-45500500D01*
X160998786Y-45500500D01*
X161001187Y-45500523D01*
G37*
%TD.AperFunction*%
M02*
