%TF.GenerationSoftware,KiCad,Pcbnew,8.0.1-8.0.1-0~ubuntu20.04.1*%
%TF.CreationDate,2024-04-26T13:56:55+02:00*%
%TF.ProjectId,reaktor51_led,7265616b-746f-4723-9531-5f6c65642e6b,1*%
%TF.SameCoordinates,Original*%
%TF.FileFunction,Legend,Bot*%
%TF.FilePolarity,Positive*%
%FSLAX46Y46*%
G04 Gerber Fmt 4.6, Leading zero omitted, Abs format (unit mm)*
G04 Created by KiCad (PCBNEW 8.0.1-8.0.1-0~ubuntu20.04.1) date 2024-04-26 13:56:55*
%MOMM*%
%LPD*%
G01*
G04 APERTURE LIST*
%ADD10C,0.300000*%
%ADD11C,0.250000*%
G04 APERTURE END LIST*
D10*
X135000000Y-53000000D02*
X140000000Y-53000000D01*
X140000000Y-102000000D01*
X135000000Y-102000000D01*
X135000000Y-53000000D01*
D11*
X136318952Y-98740288D02*
X138818952Y-98740288D01*
X136318952Y-97311717D02*
X137747523Y-98383146D01*
X138818952Y-97311717D02*
X137390380Y-98740288D01*
X136318952Y-96240288D02*
X137985619Y-96240288D01*
X138818952Y-96240288D02*
X138699904Y-96359336D01*
X138699904Y-96359336D02*
X138580857Y-96240288D01*
X138580857Y-96240288D02*
X138699904Y-96121241D01*
X138699904Y-96121241D02*
X138818952Y-96240288D01*
X138818952Y-96240288D02*
X138580857Y-96240288D01*
X136557047Y-93621241D02*
X136438000Y-93740289D01*
X136438000Y-93740289D02*
X136318952Y-94097431D01*
X136318952Y-94097431D02*
X136318952Y-94335527D01*
X136318952Y-94335527D02*
X136438000Y-94692670D01*
X136438000Y-94692670D02*
X136676095Y-94930765D01*
X136676095Y-94930765D02*
X136914190Y-95049812D01*
X136914190Y-95049812D02*
X137390380Y-95168860D01*
X137390380Y-95168860D02*
X137747523Y-95168860D01*
X137747523Y-95168860D02*
X138223714Y-95049812D01*
X138223714Y-95049812D02*
X138461809Y-94930765D01*
X138461809Y-94930765D02*
X138699904Y-94692670D01*
X138699904Y-94692670D02*
X138818952Y-94335527D01*
X138818952Y-94335527D02*
X138818952Y-94097431D01*
X138818952Y-94097431D02*
X138699904Y-93740289D01*
X138699904Y-93740289D02*
X138580857Y-93621241D01*
X136318952Y-91478384D02*
X137628476Y-91478384D01*
X137628476Y-91478384D02*
X137866571Y-91597431D01*
X137866571Y-91597431D02*
X137985619Y-91835527D01*
X137985619Y-91835527D02*
X137985619Y-92311717D01*
X137985619Y-92311717D02*
X137866571Y-92549812D01*
X136438000Y-91478384D02*
X136318952Y-91716479D01*
X136318952Y-91716479D02*
X136318952Y-92311717D01*
X136318952Y-92311717D02*
X136438000Y-92549812D01*
X136438000Y-92549812D02*
X136676095Y-92668860D01*
X136676095Y-92668860D02*
X136914190Y-92668860D01*
X136914190Y-92668860D02*
X137152285Y-92549812D01*
X137152285Y-92549812D02*
X137271333Y-92311717D01*
X137271333Y-92311717D02*
X137271333Y-91716479D01*
X137271333Y-91716479D02*
X137390380Y-91478384D01*
X136318952Y-89216479D02*
X138818952Y-89216479D01*
X136438000Y-89216479D02*
X136318952Y-89454574D01*
X136318952Y-89454574D02*
X136318952Y-89930765D01*
X136318952Y-89930765D02*
X136438000Y-90168860D01*
X136438000Y-90168860D02*
X136557047Y-90287907D01*
X136557047Y-90287907D02*
X136795142Y-90406955D01*
X136795142Y-90406955D02*
X137509428Y-90406955D01*
X137509428Y-90406955D02*
X137747523Y-90287907D01*
X137747523Y-90287907D02*
X137866571Y-90168860D01*
X137866571Y-90168860D02*
X137985619Y-89930765D01*
X137985619Y-89930765D02*
X137985619Y-89454574D01*
X137985619Y-89454574D02*
X137866571Y-89216479D01*
X137271333Y-86121240D02*
X137271333Y-84216479D01*
X136318952Y-81121240D02*
X138818952Y-81121240D01*
X137985619Y-79930764D02*
X136318952Y-79930764D01*
X137747523Y-79930764D02*
X137866571Y-79811717D01*
X137866571Y-79811717D02*
X137985619Y-79573622D01*
X137985619Y-79573622D02*
X137985619Y-79216479D01*
X137985619Y-79216479D02*
X137866571Y-78978383D01*
X137866571Y-78978383D02*
X137628476Y-78859336D01*
X137628476Y-78859336D02*
X136318952Y-78859336D01*
X137985619Y-76597431D02*
X135961809Y-76597431D01*
X135961809Y-76597431D02*
X135723714Y-76716478D01*
X135723714Y-76716478D02*
X135604666Y-76835526D01*
X135604666Y-76835526D02*
X135485619Y-77073621D01*
X135485619Y-77073621D02*
X135485619Y-77430764D01*
X135485619Y-77430764D02*
X135604666Y-77668859D01*
X136438000Y-76597431D02*
X136318952Y-76835526D01*
X136318952Y-76835526D02*
X136318952Y-77311717D01*
X136318952Y-77311717D02*
X136438000Y-77549812D01*
X136438000Y-77549812D02*
X136557047Y-77668859D01*
X136557047Y-77668859D02*
X136795142Y-77787907D01*
X136795142Y-77787907D02*
X137509428Y-77787907D01*
X137509428Y-77787907D02*
X137747523Y-77668859D01*
X137747523Y-77668859D02*
X137866571Y-77549812D01*
X137866571Y-77549812D02*
X137985619Y-77311717D01*
X137985619Y-77311717D02*
X137985619Y-76835526D01*
X137985619Y-76835526D02*
X137866571Y-76597431D01*
X136438000Y-74454573D02*
X136318952Y-74692669D01*
X136318952Y-74692669D02*
X136318952Y-75168859D01*
X136318952Y-75168859D02*
X136438000Y-75406954D01*
X136438000Y-75406954D02*
X136676095Y-75526002D01*
X136676095Y-75526002D02*
X137628476Y-75526002D01*
X137628476Y-75526002D02*
X137866571Y-75406954D01*
X137866571Y-75406954D02*
X137985619Y-75168859D01*
X137985619Y-75168859D02*
X137985619Y-74692669D01*
X137985619Y-74692669D02*
X137866571Y-74454573D01*
X137866571Y-74454573D02*
X137628476Y-74335526D01*
X137628476Y-74335526D02*
X137390380Y-74335526D01*
X137390380Y-74335526D02*
X137152285Y-75526002D01*
X136318952Y-73264097D02*
X138818952Y-73264097D01*
X138818952Y-73264097D02*
X138818952Y-72311716D01*
X138818952Y-72311716D02*
X138699904Y-72073621D01*
X138699904Y-72073621D02*
X138580857Y-71954574D01*
X138580857Y-71954574D02*
X138342761Y-71835526D01*
X138342761Y-71835526D02*
X137985619Y-71835526D01*
X137985619Y-71835526D02*
X137747523Y-71954574D01*
X137747523Y-71954574D02*
X137628476Y-72073621D01*
X137628476Y-72073621D02*
X137509428Y-72311716D01*
X137509428Y-72311716D02*
X137509428Y-73264097D01*
X137271333Y-68859335D02*
X137271333Y-66954574D01*
X138580857Y-63978383D02*
X138699904Y-63859335D01*
X138699904Y-63859335D02*
X138818952Y-63621240D01*
X138818952Y-63621240D02*
X138818952Y-63026002D01*
X138818952Y-63026002D02*
X138699904Y-62787907D01*
X138699904Y-62787907D02*
X138580857Y-62668859D01*
X138580857Y-62668859D02*
X138342761Y-62549812D01*
X138342761Y-62549812D02*
X138104666Y-62549812D01*
X138104666Y-62549812D02*
X137747523Y-62668859D01*
X137747523Y-62668859D02*
X136318952Y-64097431D01*
X136318952Y-64097431D02*
X136318952Y-62549812D01*
X138818952Y-61002193D02*
X138818952Y-60764098D01*
X138818952Y-60764098D02*
X138699904Y-60526002D01*
X138699904Y-60526002D02*
X138580857Y-60406955D01*
X138580857Y-60406955D02*
X138342761Y-60287907D01*
X138342761Y-60287907D02*
X137866571Y-60168860D01*
X137866571Y-60168860D02*
X137271333Y-60168860D01*
X137271333Y-60168860D02*
X136795142Y-60287907D01*
X136795142Y-60287907D02*
X136557047Y-60406955D01*
X136557047Y-60406955D02*
X136438000Y-60526002D01*
X136438000Y-60526002D02*
X136318952Y-60764098D01*
X136318952Y-60764098D02*
X136318952Y-61002193D01*
X136318952Y-61002193D02*
X136438000Y-61240288D01*
X136438000Y-61240288D02*
X136557047Y-61359336D01*
X136557047Y-61359336D02*
X136795142Y-61478383D01*
X136795142Y-61478383D02*
X137271333Y-61597431D01*
X137271333Y-61597431D02*
X137866571Y-61597431D01*
X137866571Y-61597431D02*
X138342761Y-61478383D01*
X138342761Y-61478383D02*
X138580857Y-61359336D01*
X138580857Y-61359336D02*
X138699904Y-61240288D01*
X138699904Y-61240288D02*
X138818952Y-61002193D01*
X138580857Y-59216479D02*
X138699904Y-59097431D01*
X138699904Y-59097431D02*
X138818952Y-58859336D01*
X138818952Y-58859336D02*
X138818952Y-58264098D01*
X138818952Y-58264098D02*
X138699904Y-58026003D01*
X138699904Y-58026003D02*
X138580857Y-57906955D01*
X138580857Y-57906955D02*
X138342761Y-57787908D01*
X138342761Y-57787908D02*
X138104666Y-57787908D01*
X138104666Y-57787908D02*
X137747523Y-57906955D01*
X137747523Y-57906955D02*
X136318952Y-59335527D01*
X136318952Y-59335527D02*
X136318952Y-57787908D01*
X137985619Y-55645051D02*
X136318952Y-55645051D01*
X138938000Y-56240289D02*
X137152285Y-56835527D01*
X137152285Y-56835527D02*
X137152285Y-55287908D01*
M02*
