%TF.GenerationSoftware,KiCad,Pcbnew,8.0.6-8.0.6-0~ubuntu20.04.1*%
%TF.CreationDate,2024-11-17T18:25:06+01:00*%
%TF.ProjectId,reaktor51_game,7265616b-746f-4723-9531-5f67616d652e,1*%
%TF.SameCoordinates,Original*%
%TF.FileFunction,Copper,L2,Bot*%
%TF.FilePolarity,Positive*%
%FSLAX46Y46*%
G04 Gerber Fmt 4.6, Leading zero omitted, Abs format (unit mm)*
G04 Created by KiCad (PCBNEW 8.0.6-8.0.6-0~ubuntu20.04.1) date 2024-11-17 18:25:06*
%MOMM*%
%LPD*%
G01*
G04 APERTURE LIST*
%TA.AperFunction,ComponentPad*%
%ADD10C,1.600000*%
%TD*%
%TA.AperFunction,ComponentPad*%
%ADD11O,1.600000X1.600000*%
%TD*%
%TA.AperFunction,ComponentPad*%
%ADD12R,1.600000X1.600000*%
%TD*%
%TA.AperFunction,ComponentPad*%
%ADD13C,1.400000*%
%TD*%
%TA.AperFunction,ComponentPad*%
%ADD14R,3.000000X3.000000*%
%TD*%
%TA.AperFunction,ComponentPad*%
%ADD15C,3.000000*%
%TD*%
%TA.AperFunction,ComponentPad*%
%ADD16C,2.500000*%
%TD*%
%TA.AperFunction,ComponentPad*%
%ADD17C,2.100000*%
%TD*%
%TA.AperFunction,ComponentPad*%
%ADD18R,2.000000X2.000000*%
%TD*%
%TA.AperFunction,ComponentPad*%
%ADD19C,2.000000*%
%TD*%
%TA.AperFunction,ViaPad*%
%ADD20C,0.600000*%
%TD*%
%TA.AperFunction,Conductor*%
%ADD21C,0.250000*%
%TD*%
G04 APERTURE END LIST*
D10*
%TO.P,R5,1*%
%TO.N,Net-(BT1-+)*%
X137000000Y-80920000D03*
D11*
%TO.P,R5,2*%
%TO.N,Net-(U1-~{RESET}{slash}PB5)*%
X137000000Y-91080000D03*
%TD*%
D12*
%TO.P,U1,1,~{RESET}/PB5*%
%TO.N,Net-(U1-~{RESET}{slash}PB5)*%
X137700000Y-101300000D03*
D11*
%TO.P,U1,2,PB3*%
%TO.N,Net-(SW3-K)*%
X140240000Y-101300000D03*
%TO.P,U1,3,PB4*%
%TO.N,Net-(SW4-K)*%
X142780000Y-101300000D03*
%TO.P,U1,4,GND*%
%TO.N,GND*%
X145320000Y-101300000D03*
%TO.P,U1,5,PB0*%
%TO.N,Net-(U1-PB0)*%
X145320000Y-93680000D03*
%TO.P,U1,6,PB1*%
%TO.N,Net-(SW1-K)*%
X142780000Y-93680000D03*
%TO.P,U1,7,PB2*%
%TO.N,Net-(SW2-K)*%
X140240000Y-93680000D03*
%TO.P,U1,8,VCC*%
%TO.N,Net-(BT1-+)*%
X137700000Y-93680000D03*
%TD*%
D10*
%TO.P,R6,1*%
%TO.N,Net-(C1-Pad1)*%
X137000000Y-103920000D03*
D11*
%TO.P,R6,2*%
%TO.N,GND*%
X137000000Y-114080000D03*
%TD*%
D10*
%TO.P,R1,1*%
%TO.N,Net-(BT1-+)*%
X155000000Y-80080000D03*
D11*
%TO.P,R1,2*%
%TO.N,Net-(SW1-A)*%
X155000000Y-69920000D03*
%TD*%
D10*
%TO.P,R2,1*%
%TO.N,Net-(BT1-+)*%
X137000000Y-78580000D03*
D11*
%TO.P,R2,2*%
%TO.N,Net-(SW2-A)*%
X137000000Y-68420000D03*
%TD*%
D10*
%TO.P,R3,1*%
%TO.N,Net-(BT1-+)*%
X137000000Y-126580000D03*
D11*
%TO.P,R3,2*%
%TO.N,Net-(SW3-A)*%
X137000000Y-116420000D03*
%TD*%
D10*
%TO.P,R4,1*%
%TO.N,Net-(BT1-+)*%
X155000000Y-125080000D03*
D11*
%TO.P,R4,2*%
%TO.N,Net-(SW4-A)*%
X155000000Y-114920000D03*
%TD*%
D13*
%TO.P,C1,1*%
%TO.N,Net-(C1-Pad1)*%
X141500000Y-105750000D03*
%TO.P,C1,2*%
%TO.N,Net-(C1-Pad2)*%
X141500000Y-108250000D03*
%TD*%
%TO.P,C2,1*%
%TO.N,GND*%
X141500000Y-86750000D03*
%TO.P,C2,2*%
%TO.N,Net-(BT1-+)*%
X141500000Y-89250000D03*
%TD*%
D14*
%TO.P,BT1,1,+*%
%TO.N,Net-(BT1-+)*%
X152500000Y-97500000D03*
D15*
%TO.P,BT1,2,-*%
%TO.N,GND*%
X132010000Y-97500000D03*
%TD*%
D16*
%TO.P,SW4,1,1*%
%TO.N,Net-(SW4-K)*%
X161500000Y-126250000D03*
X161500000Y-113750000D03*
%TO.P,SW4,2,2*%
%TO.N,GND*%
X166500000Y-126250000D03*
X166500000Y-113750000D03*
D17*
%TO.P,SW4,3,K*%
%TO.N,Net-(SW4-K)*%
X157250000Y-120000000D03*
%TO.P,SW4,4,A*%
%TO.N,Net-(SW4-A)*%
X170750000Y-120000000D03*
%TD*%
D16*
%TO.P,SW3,1,1*%
%TO.N,Net-(SW3-K)*%
X143500000Y-126250000D03*
X143500000Y-113750000D03*
%TO.P,SW3,2,2*%
%TO.N,GND*%
X148500000Y-126250000D03*
X148500000Y-113750000D03*
D17*
%TO.P,SW3,3,K*%
%TO.N,Net-(SW3-K)*%
X139250000Y-120000000D03*
%TO.P,SW3,4,A*%
%TO.N,Net-(SW3-A)*%
X152750000Y-120000000D03*
%TD*%
D16*
%TO.P,SW2,1,1*%
%TO.N,Net-(SW2-K)*%
X143500000Y-81250000D03*
X143500000Y-68750000D03*
%TO.P,SW2,2,2*%
%TO.N,GND*%
X148500000Y-81250000D03*
X148500000Y-68750000D03*
D17*
%TO.P,SW2,3,K*%
%TO.N,Net-(SW2-K)*%
X139250000Y-75000000D03*
%TO.P,SW2,4,A*%
%TO.N,Net-(SW2-A)*%
X152750000Y-75000000D03*
%TD*%
D16*
%TO.P,SW1,1,1*%
%TO.N,Net-(SW1-K)*%
X161500000Y-81250000D03*
X161500000Y-68750000D03*
%TO.P,SW1,2,2*%
%TO.N,GND*%
X166500000Y-81250000D03*
X166500000Y-68750000D03*
D17*
%TO.P,SW1,3,K*%
%TO.N,Net-(SW1-K)*%
X157250000Y-75000000D03*
%TO.P,SW1,4,A*%
%TO.N,Net-(SW1-A)*%
X170750000Y-75000000D03*
%TD*%
D18*
%TO.P,LS1,1,1*%
%TO.N,Net-(U1-PB0)*%
X165000000Y-93700000D03*
D19*
%TO.P,LS1,2,2*%
%TO.N,Net-(C1-Pad2)*%
X165000000Y-101300000D03*
%TD*%
D20*
%TO.N,GND*%
X142250000Y-117250000D03*
X150500000Y-77500000D03*
X144000000Y-99500000D03*
X143500000Y-103500000D03*
X162500000Y-102500000D03*
X132500000Y-125000000D03*
X132500000Y-70000000D03*
X171500000Y-102500000D03*
X171500000Y-92500000D03*
X162500000Y-92500000D03*
X157500000Y-102500000D03*
X157500000Y-92500000D03*
X141000000Y-112000000D03*
%TD*%
D21*
%TO.N,Net-(C1-Pad1)*%
X148580407Y-100500000D02*
X148580407Y-98830407D01*
X148580407Y-98830407D02*
X148000000Y-98250000D01*
%TO.N,Net-(C1-Pad2)*%
X141500000Y-108250000D02*
X141933243Y-108250000D01*
X148891067Y-101250000D02*
X164950000Y-101250000D01*
X141933243Y-108250000D02*
X146681485Y-103501758D01*
X146681485Y-103501758D02*
X147016393Y-103124674D01*
X147016393Y-103124674D02*
X148891067Y-101250000D01*
X164950000Y-101250000D02*
X165000000Y-101300000D01*
%TO.N,Net-(U1-PB0)*%
X162500000Y-94250000D02*
X145890000Y-94250000D01*
X162500000Y-94250000D02*
X162750000Y-94250000D01*
X162750000Y-94250000D02*
X163300000Y-93700000D01*
X163300000Y-93700000D02*
X165000000Y-93700000D01*
%TO.N,Net-(C1-Pad1)*%
X141500000Y-105750000D02*
X143372583Y-105750000D01*
X143372583Y-105750000D02*
X146135459Y-102987124D01*
X146135459Y-102987124D02*
X146266393Y-102839701D01*
X146266393Y-102839701D02*
X146266393Y-102814014D01*
X146266393Y-102814014D02*
X148580407Y-100500000D01*
%TO.N,Net-(SW3-A)*%
X152500000Y-121750000D02*
X151000000Y-123250000D01*
X152500000Y-120250000D02*
X152500000Y-121750000D01*
X152750000Y-120000000D02*
X152500000Y-120250000D01*
X147000000Y-123250000D02*
X146250000Y-124000000D01*
X151000000Y-123250000D02*
X147000000Y-123250000D01*
%TO.N,Net-(SW2-A)*%
X137000000Y-68420000D02*
X138920000Y-66500000D01*
X151750000Y-73000000D02*
X152750000Y-74000000D01*
X138920000Y-66500000D02*
X145000000Y-66500000D01*
X146000000Y-67500000D02*
X146000000Y-70500000D01*
X145000000Y-66500000D02*
X146000000Y-67500000D01*
X146000000Y-70500000D02*
X148500000Y-73000000D01*
X148500000Y-73000000D02*
X151750000Y-73000000D01*
X152750000Y-74000000D02*
X152750000Y-75000000D01*
%TO.N,Net-(BT1-+)*%
X137000000Y-78580000D02*
X135500000Y-77080000D01*
X135500000Y-77080000D02*
X135500000Y-67750000D01*
X137500000Y-65750000D02*
X148500000Y-65750000D01*
X135500000Y-67750000D02*
X137500000Y-65750000D01*
X148500000Y-65750000D02*
X151250000Y-68500000D01*
X151250000Y-68500000D02*
X151250000Y-70000000D01*
X151250000Y-70000000D02*
X155000000Y-73750000D01*
X155000000Y-73750000D02*
X155000000Y-80080000D01*
%TO.N,Net-(SW3-A)*%
X142000000Y-128250000D02*
X137000000Y-123250000D01*
X146250000Y-124000000D02*
X146250000Y-127250000D01*
X146250000Y-127250000D02*
X145250000Y-128250000D01*
X137000000Y-123250000D02*
X137000000Y-116420000D01*
X145250000Y-128250000D02*
X142000000Y-128250000D01*
%TO.N,Net-(BT1-+)*%
X137000000Y-126580000D02*
X139670000Y-129250000D01*
X139670000Y-129250000D02*
X150830000Y-129250000D01*
X150830000Y-129250000D02*
X155000000Y-125080000D01*
%TO.N,Net-(SW4-K)*%
X142780000Y-101300000D02*
X140000000Y-104080000D01*
X146000000Y-111750000D02*
X146000000Y-115250000D01*
X140000000Y-104080000D02*
X140000000Y-109500000D01*
X141500000Y-111000000D02*
X145250000Y-111000000D01*
X140000000Y-109500000D02*
X141500000Y-111000000D01*
X145250000Y-111000000D02*
X146000000Y-111750000D01*
X155250000Y-117750000D02*
X157500000Y-120000000D01*
X146000000Y-115250000D02*
X148500000Y-117750000D01*
X148500000Y-117750000D02*
X155250000Y-117750000D01*
%TO.N,Net-(SW3-K)*%
X140240000Y-101300000D02*
X139250000Y-102290000D01*
X139250000Y-102290000D02*
X139250000Y-105310660D01*
X138250000Y-111750000D02*
X140250000Y-113750000D01*
X139250000Y-105310660D02*
X138250000Y-106310660D01*
X138250000Y-106310660D02*
X138250000Y-111750000D01*
X140250000Y-113750000D02*
X143500000Y-113750000D01*
X143500000Y-113750000D02*
X139250000Y-118000000D01*
X139250000Y-118000000D02*
X139250000Y-120000000D01*
X139250000Y-120000000D02*
X139250000Y-122000000D01*
X139250000Y-122000000D02*
X143500000Y-126250000D01*
%TO.N,Net-(SW4-K)*%
X157250000Y-120000000D02*
X157250000Y-122000000D01*
X157250000Y-122000000D02*
X161500000Y-126250000D01*
X161500000Y-113750000D02*
X157250000Y-118000000D01*
X157250000Y-118000000D02*
X157250000Y-120000000D01*
%TO.N,Net-(SW1-K)*%
X157250000Y-75000000D02*
X157250000Y-77000000D01*
X157250000Y-77000000D02*
X161500000Y-81250000D01*
X157250000Y-75000000D02*
X157250000Y-73000000D01*
X157250000Y-73000000D02*
X161500000Y-68750000D01*
%TO.N,Net-(SW2-K)*%
X143500000Y-81250000D02*
X139250000Y-77000000D01*
X139250000Y-77000000D02*
X139250000Y-75000000D01*
X139250000Y-75000000D02*
X139250000Y-73000000D01*
X139250000Y-73000000D02*
X143500000Y-68750000D01*
X143500000Y-68750000D02*
X143500000Y-69750000D01*
X143500000Y-80250000D02*
X143500000Y-81250000D01*
%TO.N,Net-(SW1-K)*%
X161500000Y-68750000D02*
X161500000Y-69750000D01*
%TO.N,Net-(BT1-+)*%
X141500000Y-89250000D02*
X136250000Y-89250000D01*
X136250000Y-89250000D02*
X135022703Y-90477297D01*
X135022703Y-90477297D02*
X135022703Y-98477297D01*
X135022703Y-98477297D02*
X134000000Y-99500000D01*
X134000000Y-123580000D02*
X137000000Y-126580000D01*
X134000000Y-99500000D02*
X134000000Y-123580000D01*
%TO.N,Net-(C1-Pad1)*%
X137000000Y-103920000D02*
X136000000Y-102920000D01*
X136000000Y-102920000D02*
X136000000Y-100250000D01*
X138000000Y-98250000D02*
X148000000Y-98250000D01*
X136000000Y-100250000D02*
X138000000Y-98250000D01*
%TO.N,Net-(U1-~{RESET}{slash}PB5)*%
X137700000Y-101300000D02*
X137700000Y-102450000D01*
X137700000Y-102450000D02*
X138425000Y-103175000D01*
X138425000Y-103175000D02*
X138425000Y-104510255D01*
X138425000Y-104510255D02*
X137435255Y-105500000D01*
X135000000Y-100000000D02*
X136250000Y-98750000D01*
X137435255Y-105500000D02*
X136250000Y-105500000D01*
X136250000Y-105500000D02*
X135000000Y-104250000D01*
X135000000Y-104250000D02*
X135000000Y-100000000D01*
X136250000Y-98750000D02*
X136250000Y-91830000D01*
X136250000Y-91830000D02*
X137000000Y-91080000D01*
%TO.N,Net-(SW1-K)*%
X161500000Y-81250000D02*
X160500000Y-82250000D01*
X160500000Y-82250000D02*
X153750000Y-82250000D01*
X150500000Y-79000000D02*
X147250000Y-79000000D01*
X153750000Y-82250000D02*
X150500000Y-79000000D01*
X144750000Y-91750000D02*
X142820000Y-93680000D01*
X147250000Y-79000000D02*
X146000000Y-80250000D01*
X146000000Y-80250000D02*
X146000000Y-84000000D01*
X146000000Y-84000000D02*
X144750000Y-85250000D01*
X144750000Y-85250000D02*
X144750000Y-91750000D01*
X142820000Y-93680000D02*
X142780000Y-93680000D01*
%TO.N,Net-(SW2-K)*%
X143500000Y-81250000D02*
X143500000Y-90250000D01*
X143500000Y-90250000D02*
X140240000Y-93510000D01*
X140240000Y-93510000D02*
X140240000Y-93680000D01*
%TO.N,Net-(SW2-A)*%
X152500000Y-75000000D02*
X152280241Y-75000000D01*
%TO.N,Net-(SW1-A)*%
X170500000Y-75000000D02*
X170500000Y-68000000D01*
X170500000Y-68000000D02*
X169000000Y-66500000D01*
X169000000Y-66500000D02*
X158420000Y-66500000D01*
X158420000Y-66500000D02*
X155000000Y-69920000D01*
%TO.N,Net-(U1-PB0)*%
X145890000Y-94250000D02*
X145320000Y-93680000D01*
%TO.N,Net-(BT1-+)*%
X137700000Y-93680000D02*
X141500000Y-89880000D01*
X141500000Y-89880000D02*
X141500000Y-89250000D01*
X137000000Y-80920000D02*
X137000000Y-84750000D01*
X137000000Y-84750000D02*
X141500000Y-89250000D01*
X152500000Y-97500000D02*
X139000000Y-97500000D01*
X137700000Y-96200000D02*
X137700000Y-93680000D01*
X139000000Y-97500000D02*
X137700000Y-96200000D01*
X137000000Y-80920000D02*
X137000000Y-78580000D01*
%TO.N,Net-(SW4-A)*%
X170500000Y-120000000D02*
X170500000Y-112500000D01*
X155000000Y-114000000D02*
X155000000Y-114920000D01*
X170500000Y-112500000D02*
X169000000Y-111000000D01*
X169000000Y-111000000D02*
X158000000Y-111000000D01*
X158000000Y-111000000D02*
X155000000Y-114000000D01*
%TO.N,GND*%
X141650000Y-87250000D02*
X141000000Y-87250000D01*
%TD*%
%TA.AperFunction,Conductor*%
%TO.N,GND*%
G36*
X136632587Y-65520185D02*
G01*
X136678342Y-65572989D01*
X136688286Y-65642147D01*
X136659261Y-65705703D01*
X136653230Y-65712179D01*
X135101270Y-67264139D01*
X135101267Y-67264142D01*
X135067485Y-67297924D01*
X135014140Y-67351268D01*
X134996571Y-67377564D01*
X134996569Y-67377567D01*
X134955927Y-67438391D01*
X134945686Y-67453717D01*
X134945685Y-67453719D01*
X134898540Y-67567538D01*
X134898535Y-67567554D01*
X134875638Y-67682671D01*
X134875637Y-67682676D01*
X134874501Y-67688383D01*
X134874500Y-67688398D01*
X134874500Y-77141611D01*
X134898535Y-77262444D01*
X134898540Y-77262461D01*
X134945685Y-77376281D01*
X134945690Y-77376290D01*
X134968685Y-77410703D01*
X134968686Y-77410704D01*
X135014140Y-77478731D01*
X135014141Y-77478732D01*
X135014142Y-77478733D01*
X135101267Y-77565858D01*
X135101268Y-77565858D01*
X135108335Y-77572925D01*
X135108334Y-77572925D01*
X135108338Y-77572928D01*
X135318611Y-77783201D01*
X135347738Y-77829267D01*
X135768510Y-79010316D01*
X135771477Y-79019838D01*
X135773260Y-79026493D01*
X135773264Y-79026504D01*
X135775087Y-79030413D01*
X135779517Y-79041211D01*
X135780609Y-79044278D01*
X135783373Y-79051742D01*
X135784926Y-79055936D01*
X135785122Y-79056446D01*
X135792920Y-79073324D01*
X135801530Y-79091961D01*
X135807409Y-79107272D01*
X135809494Y-79114002D01*
X135809495Y-79114006D01*
X136086122Y-79696830D01*
X136097085Y-79765834D01*
X136086122Y-79803168D01*
X135809489Y-80386005D01*
X135803855Y-80398296D01*
X135803621Y-80398825D01*
X135803619Y-80398829D01*
X135788968Y-80438765D01*
X135784941Y-80448453D01*
X135773260Y-80473504D01*
X135714366Y-80693302D01*
X135714364Y-80693313D01*
X135694532Y-80919998D01*
X135694532Y-80920001D01*
X135714364Y-81146686D01*
X135714366Y-81146697D01*
X135773258Y-81366488D01*
X135773260Y-81366493D01*
X135773261Y-81366496D01*
X135787238Y-81396470D01*
X135796882Y-81417151D01*
X135802948Y-81432868D01*
X135809494Y-81454003D01*
X136030965Y-81920618D01*
X136362521Y-82619172D01*
X136362522Y-82619173D01*
X136374500Y-82672342D01*
X136374500Y-84811611D01*
X136398535Y-84932444D01*
X136398540Y-84932461D01*
X136445685Y-85046280D01*
X136445690Y-85046289D01*
X136479914Y-85097507D01*
X136479915Y-85097509D01*
X136514141Y-85148733D01*
X136605586Y-85240178D01*
X136605608Y-85240198D01*
X139778229Y-88412819D01*
X139811714Y-88474142D01*
X139806730Y-88543834D01*
X139764858Y-88599767D01*
X139699394Y-88624184D01*
X139690548Y-88624500D01*
X136188389Y-88624500D01*
X136127971Y-88636518D01*
X136090259Y-88644019D01*
X136067550Y-88648536D01*
X136067548Y-88648537D01*
X136034207Y-88662347D01*
X135953719Y-88695684D01*
X135953705Y-88695692D01*
X135851272Y-88764138D01*
X135851264Y-88764144D01*
X135143873Y-89471536D01*
X134623973Y-89991436D01*
X134623970Y-89991439D01*
X134589551Y-90025858D01*
X134536844Y-90078564D01*
X134522186Y-90100500D01*
X134522187Y-90100501D01*
X134468392Y-90181009D01*
X134468388Y-90181016D01*
X134421243Y-90294835D01*
X134421238Y-90294851D01*
X134398756Y-90407876D01*
X134398757Y-90407877D01*
X134397203Y-90415690D01*
X134397203Y-98166844D01*
X134377518Y-98233883D01*
X134360884Y-98254525D01*
X133904217Y-98711191D01*
X133842894Y-98744676D01*
X133773202Y-98739692D01*
X133717269Y-98697820D01*
X133692852Y-98632356D01*
X133707704Y-98564083D01*
X133833908Y-98332957D01*
X133933890Y-98064895D01*
X133994699Y-97785362D01*
X134015109Y-97500001D01*
X134015109Y-97499998D01*
X133994699Y-97214637D01*
X133933890Y-96935104D01*
X133833908Y-96667041D01*
X133696808Y-96415961D01*
X133696807Y-96415960D01*
X133590115Y-96273436D01*
X132687577Y-97175974D01*
X132674641Y-97144742D01*
X132592563Y-97021903D01*
X132488097Y-96917437D01*
X132365258Y-96835359D01*
X132334024Y-96822421D01*
X133236562Y-95919883D01*
X133236561Y-95919882D01*
X133094046Y-95813196D01*
X133094038Y-95813191D01*
X132842957Y-95676091D01*
X132842958Y-95676091D01*
X132574895Y-95576109D01*
X132295362Y-95515300D01*
X132010001Y-95494891D01*
X132009999Y-95494891D01*
X131724637Y-95515300D01*
X131445104Y-95576109D01*
X131177041Y-95676091D01*
X130925961Y-95813191D01*
X130925953Y-95813196D01*
X130783437Y-95919882D01*
X130783436Y-95919883D01*
X131685975Y-96822421D01*
X131654742Y-96835359D01*
X131531903Y-96917437D01*
X131427437Y-97021903D01*
X131345359Y-97144742D01*
X131332421Y-97175974D01*
X130429883Y-96273436D01*
X130429882Y-96273437D01*
X130323196Y-96415953D01*
X130323191Y-96415961D01*
X130186091Y-96667041D01*
X130086109Y-96935104D01*
X130025300Y-97214637D01*
X130004891Y-97499998D01*
X130004891Y-97500001D01*
X130025300Y-97785362D01*
X130086109Y-98064895D01*
X130186091Y-98332958D01*
X130323191Y-98584038D01*
X130323196Y-98584046D01*
X130429882Y-98726561D01*
X130429883Y-98726562D01*
X131332421Y-97824024D01*
X131345359Y-97855258D01*
X131427437Y-97978097D01*
X131531903Y-98082563D01*
X131654742Y-98164641D01*
X131685974Y-98177578D01*
X130783436Y-99080115D01*
X130925960Y-99186807D01*
X130925961Y-99186808D01*
X131177042Y-99323908D01*
X131177041Y-99323908D01*
X131445104Y-99423890D01*
X131724637Y-99484699D01*
X132009999Y-99505109D01*
X132010001Y-99505109D01*
X132295362Y-99484699D01*
X132574895Y-99423890D01*
X132842958Y-99323908D01*
X133094038Y-99186808D01*
X133094039Y-99186807D01*
X133252036Y-99068532D01*
X133317500Y-99044115D01*
X133385773Y-99058967D01*
X133435179Y-99108372D01*
X133450031Y-99176644D01*
X133440909Y-99215250D01*
X133398539Y-99317543D01*
X133398535Y-99317554D01*
X133375797Y-99431871D01*
X133374500Y-99438391D01*
X133374500Y-123641608D01*
X133398535Y-123762444D01*
X133398540Y-123762461D01*
X133445685Y-123876280D01*
X133445690Y-123876289D01*
X133479914Y-123927507D01*
X133479915Y-123927509D01*
X133514140Y-123978731D01*
X133514141Y-123978732D01*
X133514142Y-123978733D01*
X133601267Y-124065858D01*
X133601268Y-124065858D01*
X133608335Y-124072925D01*
X133608334Y-124072925D01*
X133608338Y-124072928D01*
X135318611Y-125783202D01*
X135347738Y-125829268D01*
X135768510Y-127010316D01*
X135771477Y-127019838D01*
X135773260Y-127026493D01*
X135773264Y-127026504D01*
X135775087Y-127030413D01*
X135779517Y-127041211D01*
X135780609Y-127044278D01*
X135784921Y-127055923D01*
X135785122Y-127056446D01*
X135785126Y-127056457D01*
X135813038Y-127116869D01*
X135816352Y-127122433D01*
X135816164Y-127122544D01*
X135824729Y-127136869D01*
X135869430Y-127232731D01*
X135869431Y-127232733D01*
X135869432Y-127232734D01*
X135895639Y-127270162D01*
X135999954Y-127419141D01*
X136160858Y-127580045D01*
X136160861Y-127580047D01*
X136347266Y-127710568D01*
X136517648Y-127790018D01*
X136523025Y-127792687D01*
X136535781Y-127799410D01*
X136535784Y-127799411D01*
X136535786Y-127799412D01*
X136538792Y-127800483D01*
X136549565Y-127804902D01*
X136553504Y-127806739D01*
X136560177Y-127808526D01*
X136569694Y-127811491D01*
X137100214Y-128000500D01*
X137750731Y-128232260D01*
X137796797Y-128261387D01*
X138823229Y-129287819D01*
X138856714Y-129349142D01*
X138851730Y-129418834D01*
X138809858Y-129474767D01*
X138744394Y-129499184D01*
X138735548Y-129499500D01*
X120624500Y-129499500D01*
X120557461Y-129479815D01*
X120511706Y-129427011D01*
X120500500Y-129375500D01*
X120500500Y-65624500D01*
X120520185Y-65557461D01*
X120572989Y-65511706D01*
X120624500Y-65500500D01*
X136565548Y-65500500D01*
X136632587Y-65520185D01*
G37*
%TD.AperFunction*%
%TA.AperFunction,Conductor*%
G36*
X173442539Y-109520185D02*
G01*
X173488294Y-109572989D01*
X173499500Y-109624500D01*
X173499500Y-129375500D01*
X173479815Y-129442539D01*
X173427011Y-129488294D01*
X173375500Y-129499500D01*
X151764452Y-129499500D01*
X151697413Y-129479815D01*
X151651658Y-129427011D01*
X151641714Y-129357853D01*
X151670739Y-129294297D01*
X151676771Y-129287819D01*
X152732330Y-128232260D01*
X154203204Y-126761385D01*
X154249266Y-126732261D01*
X155430323Y-126311485D01*
X155439817Y-126308528D01*
X155446496Y-126306739D01*
X155450422Y-126304907D01*
X155461228Y-126300475D01*
X155464217Y-126299411D01*
X155475326Y-126295306D01*
X155475864Y-126295100D01*
X155536876Y-126266957D01*
X155536886Y-126266949D01*
X155542457Y-126263635D01*
X155542568Y-126263822D01*
X155556866Y-126255272D01*
X155652734Y-126210568D01*
X155839139Y-126080047D01*
X156000047Y-125919139D01*
X156130568Y-125732734D01*
X156226739Y-125526496D01*
X156285635Y-125306692D01*
X156305468Y-125080000D01*
X156303369Y-125056014D01*
X156292147Y-124927738D01*
X156285635Y-124853308D01*
X156226739Y-124633504D01*
X156130568Y-124427266D01*
X156000047Y-124240861D01*
X156000045Y-124240858D01*
X155839141Y-124079954D01*
X155652734Y-123949432D01*
X155652732Y-123949431D01*
X155446497Y-123853261D01*
X155446488Y-123853258D01*
X155226697Y-123794366D01*
X155226693Y-123794365D01*
X155226692Y-123794365D01*
X155226691Y-123794364D01*
X155226686Y-123794364D01*
X155000002Y-123774532D01*
X154999998Y-123774532D01*
X154773313Y-123794364D01*
X154773302Y-123794366D01*
X154553511Y-123853258D01*
X154553502Y-123853261D01*
X154347267Y-123949431D01*
X154347265Y-123949432D01*
X154160858Y-124079954D01*
X153999954Y-124240858D01*
X153869431Y-124427266D01*
X153790000Y-124597604D01*
X153787322Y-124602999D01*
X153780595Y-124615765D01*
X153780584Y-124615791D01*
X153779508Y-124618811D01*
X153775096Y-124629567D01*
X153773261Y-124633501D01*
X153773261Y-124633502D01*
X153771476Y-124640164D01*
X153768512Y-124649674D01*
X153347736Y-125830732D01*
X153318609Y-125876798D01*
X150607229Y-128588181D01*
X150545906Y-128621666D01*
X150519548Y-128624500D01*
X146059452Y-128624500D01*
X145992413Y-128604815D01*
X145946658Y-128552011D01*
X145936714Y-128482853D01*
X145965739Y-128419297D01*
X145971771Y-128412819D01*
X146735855Y-127648736D01*
X146735855Y-127648735D01*
X146735858Y-127648733D01*
X146804312Y-127546285D01*
X146831932Y-127479603D01*
X146851463Y-127432452D01*
X146856151Y-127408884D01*
X146869879Y-127339867D01*
X146902264Y-127277957D01*
X146962979Y-127243383D01*
X147032749Y-127247122D01*
X147088443Y-127286747D01*
X147097872Y-127298571D01*
X147097874Y-127298571D01*
X147822421Y-126574024D01*
X147835359Y-126605258D01*
X147917437Y-126728097D01*
X148021903Y-126832563D01*
X148144742Y-126914641D01*
X148175974Y-126927577D01*
X147450830Y-127652720D01*
X147622546Y-127769793D01*
X147622550Y-127769795D01*
X147858854Y-127883594D01*
X147858858Y-127883595D01*
X148109494Y-127960907D01*
X148109500Y-127960909D01*
X148368848Y-127999999D01*
X148368857Y-128000000D01*
X148631143Y-128000000D01*
X148631151Y-127999999D01*
X148890499Y-127960909D01*
X148890505Y-127960907D01*
X149141143Y-127883595D01*
X149377445Y-127769798D01*
X149377447Y-127769797D01*
X149549168Y-127652720D01*
X148824025Y-126927578D01*
X148855258Y-126914641D01*
X148978097Y-126832563D01*
X149082563Y-126728097D01*
X149164641Y-126605258D01*
X149177578Y-126574025D01*
X149902125Y-127298572D01*
X149949971Y-127238573D01*
X150081116Y-127011426D01*
X150176941Y-126767270D01*
X150235306Y-126511550D01*
X150235307Y-126511545D01*
X150254907Y-126250004D01*
X150254907Y-126249995D01*
X150235307Y-125988454D01*
X150235306Y-125988449D01*
X150176941Y-125732729D01*
X150081116Y-125488573D01*
X150081117Y-125488573D01*
X149949972Y-125261426D01*
X149902124Y-125201427D01*
X149177577Y-125925973D01*
X149164641Y-125894742D01*
X149082563Y-125771903D01*
X148978097Y-125667437D01*
X148855258Y-125585359D01*
X148824025Y-125572421D01*
X149549168Y-124847278D01*
X149377454Y-124730206D01*
X149377445Y-124730201D01*
X149141142Y-124616404D01*
X149141144Y-124616404D01*
X148890505Y-124539092D01*
X148890499Y-124539090D01*
X148631151Y-124500000D01*
X148368848Y-124500000D01*
X148109500Y-124539090D01*
X148109494Y-124539092D01*
X147858858Y-124616404D01*
X147858854Y-124616405D01*
X147622547Y-124730205D01*
X147622539Y-124730210D01*
X147450830Y-124847277D01*
X148175974Y-125572421D01*
X148144742Y-125585359D01*
X148021903Y-125667437D01*
X147917437Y-125771903D01*
X147835359Y-125894742D01*
X147822422Y-125925974D01*
X147097875Y-125201427D01*
X147097873Y-125201427D01*
X147096447Y-125203216D01*
X147039259Y-125243356D01*
X146969447Y-125246206D01*
X146909177Y-125210861D01*
X146877584Y-125148542D01*
X146875500Y-125125903D01*
X146875500Y-124310452D01*
X146895185Y-124243413D01*
X146911819Y-124222771D01*
X147222771Y-123911819D01*
X147284094Y-123878334D01*
X147310452Y-123875500D01*
X151061607Y-123875500D01*
X151122029Y-123863481D01*
X151182452Y-123851463D01*
X151182455Y-123851461D01*
X151182458Y-123851461D01*
X151215787Y-123837654D01*
X151215786Y-123837654D01*
X151215792Y-123837652D01*
X151296286Y-123804312D01*
X151358932Y-123762452D01*
X151398733Y-123735858D01*
X151485858Y-123648733D01*
X151485858Y-123648731D01*
X151496066Y-123638524D01*
X151496067Y-123638521D01*
X152774238Y-122360351D01*
X152779778Y-122355143D01*
X152804932Y-122332907D01*
X152819968Y-122315201D01*
X152826787Y-122307802D01*
X152985857Y-122148734D01*
X153019520Y-122098355D01*
X153054311Y-122046286D01*
X153054314Y-122046277D01*
X153057183Y-122040913D01*
X153058131Y-122041419D01*
X153072582Y-122017755D01*
X153870784Y-121077899D01*
X153891525Y-121051778D01*
X153891526Y-121051776D01*
X153894920Y-121047502D01*
X153894946Y-121047522D01*
X153899171Y-121041903D01*
X154008259Y-120914179D01*
X154135777Y-120706089D01*
X154229172Y-120480612D01*
X154286146Y-120243302D01*
X154305294Y-120000000D01*
X154286146Y-119756698D01*
X154229172Y-119519388D01*
X154229169Y-119519380D01*
X154135777Y-119293910D01*
X154008262Y-119085826D01*
X154008261Y-119085823D01*
X153948630Y-119016004D01*
X153849759Y-118900241D01*
X153683086Y-118757889D01*
X153664176Y-118741738D01*
X153664173Y-118741737D01*
X153456088Y-118614222D01*
X153456083Y-118614219D01*
X153455698Y-118614060D01*
X153455574Y-118613960D01*
X153451745Y-118612009D01*
X153452154Y-118611204D01*
X153401295Y-118570219D01*
X153379231Y-118503924D01*
X153396511Y-118436225D01*
X153447649Y-118388615D01*
X153503152Y-118375500D01*
X154939548Y-118375500D01*
X155006587Y-118395185D01*
X155027229Y-118411819D01*
X155373299Y-118757889D01*
X155406609Y-118818419D01*
X155705162Y-120148830D01*
X155707789Y-120166249D01*
X155710306Y-120198229D01*
X155713854Y-120243302D01*
X155770828Y-120480612D01*
X155770831Y-120480619D01*
X155791801Y-120531246D01*
X155793593Y-120535896D01*
X155793615Y-120535888D01*
X155794639Y-120538673D01*
X155805728Y-120564880D01*
X155806090Y-120565745D01*
X155828410Y-120619630D01*
X155830469Y-120624945D01*
X155839807Y-120650799D01*
X155843805Y-120658307D01*
X155848912Y-120669127D01*
X155864221Y-120706086D01*
X155864226Y-120706095D01*
X155900672Y-120765569D01*
X155904392Y-120772071D01*
X156635776Y-122145388D01*
X156647944Y-122179475D01*
X156648534Y-122182442D01*
X156648536Y-122182448D01*
X156648537Y-122182452D01*
X156654995Y-122198042D01*
X156654996Y-122198044D01*
X156654996Y-122198045D01*
X156695685Y-122296280D01*
X156695687Y-122296283D01*
X156695688Y-122296286D01*
X156720155Y-122332903D01*
X156720157Y-122332905D01*
X156720158Y-122332907D01*
X156764140Y-122398731D01*
X156764141Y-122398732D01*
X156764142Y-122398733D01*
X156851267Y-122485858D01*
X156851268Y-122485858D01*
X156858335Y-122492925D01*
X156858334Y-122492925D01*
X156858338Y-122492928D01*
X159351558Y-124986149D01*
X159383632Y-125041664D01*
X159741482Y-126373961D01*
X159741483Y-126373968D01*
X159755653Y-126426724D01*
X159759551Y-126449623D01*
X159764197Y-126511625D01*
X159764199Y-126511633D01*
X159822576Y-126767402D01*
X159822578Y-126767411D01*
X159822580Y-126767416D01*
X159918432Y-127011643D01*
X160049614Y-127238857D01*
X160122882Y-127330732D01*
X160213198Y-127443985D01*
X160368606Y-127588181D01*
X160405521Y-127622433D01*
X160622296Y-127770228D01*
X160622301Y-127770230D01*
X160622302Y-127770231D01*
X160622303Y-127770232D01*
X160747843Y-127830688D01*
X160858673Y-127884061D01*
X160858674Y-127884061D01*
X160858677Y-127884063D01*
X161109385Y-127961396D01*
X161368818Y-128000500D01*
X161631182Y-128000500D01*
X161890615Y-127961396D01*
X162141323Y-127884063D01*
X162377704Y-127770228D01*
X162594479Y-127622433D01*
X162786805Y-127443981D01*
X162950386Y-127238857D01*
X163081568Y-127011643D01*
X163177420Y-126767416D01*
X163235802Y-126511630D01*
X163235808Y-126511550D01*
X163255408Y-126250004D01*
X163255408Y-126249995D01*
X164745093Y-126249995D01*
X164745093Y-126250004D01*
X164764692Y-126511545D01*
X164764693Y-126511550D01*
X164823058Y-126767270D01*
X164918883Y-127011426D01*
X164918882Y-127011426D01*
X165050027Y-127238573D01*
X165097874Y-127298571D01*
X165822421Y-126574024D01*
X165835359Y-126605258D01*
X165917437Y-126728097D01*
X166021903Y-126832563D01*
X166144742Y-126914641D01*
X166175974Y-126927577D01*
X165450830Y-127652720D01*
X165622546Y-127769793D01*
X165622550Y-127769795D01*
X165858854Y-127883594D01*
X165858858Y-127883595D01*
X166109494Y-127960907D01*
X166109500Y-127960909D01*
X166368848Y-127999999D01*
X166368857Y-128000000D01*
X166631143Y-128000000D01*
X166631151Y-127999999D01*
X166890499Y-127960909D01*
X166890505Y-127960907D01*
X167141143Y-127883595D01*
X167377445Y-127769798D01*
X167377447Y-127769797D01*
X167549168Y-127652720D01*
X166824025Y-126927578D01*
X166855258Y-126914641D01*
X166978097Y-126832563D01*
X167082563Y-126728097D01*
X167164641Y-126605258D01*
X167177578Y-126574025D01*
X167902125Y-127298572D01*
X167949971Y-127238573D01*
X168081116Y-127011426D01*
X168176941Y-126767270D01*
X168235306Y-126511550D01*
X168235307Y-126511545D01*
X168254907Y-126250004D01*
X168254907Y-126249995D01*
X168235307Y-125988454D01*
X168235306Y-125988449D01*
X168176941Y-125732729D01*
X168081116Y-125488573D01*
X168081117Y-125488573D01*
X167949972Y-125261426D01*
X167902124Y-125201427D01*
X167177577Y-125925973D01*
X167164641Y-125894742D01*
X167082563Y-125771903D01*
X166978097Y-125667437D01*
X166855258Y-125585359D01*
X166824025Y-125572421D01*
X167549168Y-124847278D01*
X167377454Y-124730206D01*
X167377445Y-124730201D01*
X167141142Y-124616404D01*
X167141144Y-124616404D01*
X166890505Y-124539092D01*
X166890499Y-124539090D01*
X166631151Y-124500000D01*
X166368848Y-124500000D01*
X166109500Y-124539090D01*
X166109494Y-124539092D01*
X165858858Y-124616404D01*
X165858854Y-124616405D01*
X165622547Y-124730205D01*
X165622539Y-124730210D01*
X165450830Y-124847277D01*
X166175974Y-125572421D01*
X166144742Y-125585359D01*
X166021903Y-125667437D01*
X165917437Y-125771903D01*
X165835359Y-125894742D01*
X165822422Y-125925974D01*
X165097875Y-125201427D01*
X165097874Y-125201427D01*
X165050028Y-125261425D01*
X164918883Y-125488573D01*
X164823058Y-125732729D01*
X164764693Y-125988449D01*
X164764692Y-125988454D01*
X164745093Y-126249995D01*
X163255408Y-126249995D01*
X163235803Y-125988379D01*
X163235802Y-125988374D01*
X163235802Y-125988370D01*
X163177420Y-125732584D01*
X163081568Y-125488357D01*
X162950386Y-125261143D01*
X162786805Y-125056019D01*
X162786804Y-125056018D01*
X162786801Y-125056014D01*
X162594479Y-124877567D01*
X162558905Y-124853313D01*
X162377704Y-124729772D01*
X162377700Y-124729770D01*
X162377697Y-124729768D01*
X162377696Y-124729767D01*
X162141325Y-124615938D01*
X162141327Y-124615938D01*
X161890620Y-124538605D01*
X161890616Y-124538604D01*
X161890615Y-124538604D01*
X161834291Y-124530113D01*
X161787669Y-124523086D01*
X161774776Y-124520436D01*
X160290970Y-124132359D01*
X160234665Y-124100075D01*
X158062350Y-121927760D01*
X158028865Y-121866437D01*
X158033849Y-121796745D01*
X158041268Y-121780526D01*
X158532353Y-120883950D01*
X158581821Y-120834612D01*
X158650113Y-120819850D01*
X158715546Y-120844352D01*
X158728787Y-120855841D01*
X158750500Y-120877554D01*
X158750505Y-120877558D01*
X158853683Y-120952520D01*
X158897006Y-120983996D01*
X159002484Y-121037740D01*
X159058360Y-121066211D01*
X159058363Y-121066212D01*
X159144476Y-121094191D01*
X159230591Y-121122171D01*
X159313429Y-121135291D01*
X159409449Y-121150500D01*
X159409454Y-121150500D01*
X159590551Y-121150500D01*
X159677259Y-121136765D01*
X159769409Y-121122171D01*
X159941639Y-121066211D01*
X160102994Y-120983996D01*
X160249501Y-120877553D01*
X160377553Y-120749501D01*
X160483996Y-120602994D01*
X160566211Y-120441639D01*
X160622171Y-120269409D01*
X160641269Y-120148830D01*
X160650500Y-120090551D01*
X160650500Y-119909448D01*
X160634019Y-119805397D01*
X160622171Y-119730591D01*
X160566211Y-119558361D01*
X160566211Y-119558360D01*
X160510413Y-119448852D01*
X160483996Y-119397006D01*
X160464935Y-119370770D01*
X160377558Y-119250505D01*
X160377554Y-119250500D01*
X160249499Y-119122445D01*
X160249494Y-119122441D01*
X160102997Y-119016006D01*
X160102996Y-119016005D01*
X160102994Y-119016004D01*
X160051300Y-118989664D01*
X159941639Y-118933788D01*
X159941636Y-118933787D01*
X159769410Y-118877829D01*
X159590551Y-118849500D01*
X159590546Y-118849500D01*
X159409454Y-118849500D01*
X159409449Y-118849500D01*
X159230589Y-118877829D01*
X159058363Y-118933787D01*
X159058360Y-118933788D01*
X158897002Y-119016006D01*
X158750505Y-119122441D01*
X158728784Y-119144161D01*
X158667459Y-119177643D01*
X158597768Y-119172656D01*
X158541836Y-119130782D01*
X158532354Y-119116050D01*
X158041275Y-118219485D01*
X158026336Y-118151234D01*
X158050667Y-118085738D01*
X158062343Y-118072245D01*
X160234669Y-115899920D01*
X160290970Y-115867639D01*
X161774787Y-115479559D01*
X161787660Y-115476914D01*
X161890615Y-115461396D01*
X162141323Y-115384063D01*
X162328111Y-115294110D01*
X162377696Y-115270232D01*
X162377696Y-115270231D01*
X162377704Y-115270228D01*
X162594479Y-115122433D01*
X162743733Y-114983945D01*
X162786801Y-114943985D01*
X162786801Y-114943983D01*
X162786805Y-114943981D01*
X162950386Y-114738857D01*
X163081568Y-114511643D01*
X163177420Y-114267416D01*
X163235802Y-114011630D01*
X163235808Y-114011550D01*
X163255408Y-113750004D01*
X163255408Y-113749995D01*
X164745093Y-113749995D01*
X164745093Y-113750004D01*
X164764692Y-114011545D01*
X164764693Y-114011550D01*
X164823058Y-114267270D01*
X164918883Y-114511426D01*
X164918882Y-114511426D01*
X165050027Y-114738573D01*
X165097874Y-114798571D01*
X165822421Y-114074024D01*
X165835359Y-114105258D01*
X165917437Y-114228097D01*
X166021903Y-114332563D01*
X166144742Y-114414641D01*
X166175974Y-114427577D01*
X165450830Y-115152720D01*
X165622546Y-115269793D01*
X165622550Y-115269795D01*
X165858854Y-115383594D01*
X165858858Y-115383595D01*
X166109494Y-115460907D01*
X166109500Y-115460909D01*
X166368848Y-115499999D01*
X166368857Y-115500000D01*
X166631143Y-115500000D01*
X166631151Y-115499999D01*
X166890499Y-115460909D01*
X166890505Y-115460907D01*
X167141143Y-115383595D01*
X167377445Y-115269798D01*
X167377447Y-115269797D01*
X167549168Y-115152720D01*
X166824025Y-114427578D01*
X166855258Y-114414641D01*
X166978097Y-114332563D01*
X167082563Y-114228097D01*
X167164641Y-114105258D01*
X167177578Y-114074025D01*
X167902125Y-114798572D01*
X167949971Y-114738573D01*
X168081116Y-114511426D01*
X168176941Y-114267270D01*
X168235306Y-114011550D01*
X168235307Y-114011545D01*
X168254907Y-113750004D01*
X168254907Y-113749995D01*
X168235307Y-113488454D01*
X168235306Y-113488449D01*
X168176941Y-113232729D01*
X168081116Y-112988573D01*
X168081117Y-112988573D01*
X167949972Y-112761426D01*
X167902124Y-112701427D01*
X167177577Y-113425973D01*
X167164641Y-113394742D01*
X167082563Y-113271903D01*
X166978097Y-113167437D01*
X166855258Y-113085359D01*
X166824025Y-113072421D01*
X167549168Y-112347278D01*
X167377454Y-112230206D01*
X167377445Y-112230201D01*
X167141142Y-112116404D01*
X167141144Y-112116404D01*
X166890505Y-112039092D01*
X166890499Y-112039090D01*
X166631151Y-112000000D01*
X166368848Y-112000000D01*
X166109500Y-112039090D01*
X166109494Y-112039092D01*
X165858858Y-112116404D01*
X165858854Y-112116405D01*
X165622547Y-112230205D01*
X165622539Y-112230210D01*
X165450830Y-112347277D01*
X166175974Y-113072421D01*
X166144742Y-113085359D01*
X166021903Y-113167437D01*
X165917437Y-113271903D01*
X165835359Y-113394742D01*
X165822422Y-113425974D01*
X165097875Y-112701427D01*
X165097874Y-112701427D01*
X165050028Y-112761425D01*
X164918883Y-112988573D01*
X164823058Y-113232729D01*
X164764693Y-113488449D01*
X164764692Y-113488454D01*
X164745093Y-113749995D01*
X163255408Y-113749995D01*
X163235803Y-113488379D01*
X163235802Y-113488374D01*
X163235802Y-113488373D01*
X163235802Y-113488370D01*
X163177420Y-113232584D01*
X163081568Y-112988357D01*
X162950386Y-112761143D01*
X162786805Y-112556019D01*
X162786804Y-112556018D01*
X162786801Y-112556014D01*
X162594479Y-112377567D01*
X162560900Y-112354673D01*
X162377704Y-112229772D01*
X162377700Y-112229770D01*
X162377697Y-112229768D01*
X162377696Y-112229767D01*
X162141325Y-112115938D01*
X162141327Y-112115938D01*
X161890623Y-112038606D01*
X161890619Y-112038605D01*
X161890615Y-112038604D01*
X161765823Y-112019794D01*
X161631187Y-111999500D01*
X161631182Y-111999500D01*
X161368818Y-111999500D01*
X161368812Y-111999500D01*
X161207247Y-112023853D01*
X161109385Y-112038604D01*
X161109382Y-112038605D01*
X161109376Y-112038606D01*
X160858673Y-112115938D01*
X160622303Y-112229767D01*
X160622302Y-112229768D01*
X160622296Y-112229771D01*
X160622296Y-112229772D01*
X160613367Y-112235860D01*
X160405520Y-112377567D01*
X160213198Y-112556014D01*
X160049614Y-112761143D01*
X159918432Y-112988356D01*
X159822582Y-113232578D01*
X159822576Y-113232597D01*
X159785568Y-113394742D01*
X159764198Y-113488370D01*
X159764192Y-113488449D01*
X159759550Y-113550380D01*
X159755652Y-113573277D01*
X159383631Y-114958335D01*
X159351557Y-115013850D01*
X156851269Y-117514139D01*
X156851263Y-117514145D01*
X156836473Y-117528933D01*
X156832630Y-117532614D01*
X156828391Y-117536502D01*
X156826253Y-117538890D01*
X156821578Y-117543828D01*
X156764145Y-117601263D01*
X156764141Y-117601268D01*
X156733760Y-117646737D01*
X156733759Y-117646738D01*
X156695690Y-117703709D01*
X156695687Y-117703715D01*
X156676019Y-117751196D01*
X156676020Y-117751197D01*
X156651002Y-117811599D01*
X156650999Y-117811607D01*
X156648537Y-117817547D01*
X156648535Y-117817556D01*
X156647943Y-117820532D01*
X156635776Y-117854611D01*
X156598172Y-117925220D01*
X156549285Y-117975138D01*
X156481170Y-117990702D01*
X156441282Y-117981497D01*
X156335731Y-117937787D01*
X156295493Y-117910903D01*
X155742928Y-117358338D01*
X155742925Y-117358334D01*
X155742925Y-117358335D01*
X155735858Y-117351268D01*
X155735858Y-117351267D01*
X155648733Y-117264142D01*
X155648732Y-117264141D01*
X155648731Y-117264140D01*
X155597509Y-117229915D01*
X155546287Y-117195689D01*
X155546286Y-117195688D01*
X155546283Y-117195686D01*
X155546280Y-117195685D01*
X155465792Y-117162347D01*
X155432453Y-117148537D01*
X155422427Y-117146543D01*
X155372029Y-117136518D01*
X155311610Y-117124500D01*
X155311607Y-117124500D01*
X155311606Y-117124500D01*
X148810452Y-117124500D01*
X148743413Y-117104815D01*
X148722771Y-117088181D01*
X146661819Y-115027229D01*
X146628334Y-114965906D01*
X146625500Y-114939548D01*
X146625500Y-114419252D01*
X146645185Y-114352213D01*
X146697989Y-114306458D01*
X146767147Y-114296514D01*
X146830703Y-114325539D01*
X146864928Y-114373950D01*
X146918883Y-114511426D01*
X147050027Y-114738573D01*
X147097874Y-114798571D01*
X147822421Y-114074024D01*
X147835359Y-114105258D01*
X147917437Y-114228097D01*
X148021903Y-114332563D01*
X148144742Y-114414641D01*
X148175974Y-114427577D01*
X147450830Y-115152720D01*
X147622546Y-115269793D01*
X147622550Y-115269795D01*
X147858854Y-115383594D01*
X147858858Y-115383595D01*
X148109494Y-115460907D01*
X148109500Y-115460909D01*
X148368848Y-115499999D01*
X148368857Y-115500000D01*
X148631143Y-115500000D01*
X148631151Y-115499999D01*
X148890499Y-115460909D01*
X148890505Y-115460907D01*
X149141143Y-115383595D01*
X149377445Y-115269798D01*
X149377447Y-115269797D01*
X149549168Y-115152720D01*
X149316446Y-114919998D01*
X153694532Y-114919998D01*
X153694532Y-114920001D01*
X153714364Y-115146686D01*
X153714366Y-115146697D01*
X153773258Y-115366488D01*
X153773261Y-115366497D01*
X153798189Y-115419954D01*
X153857095Y-115546278D01*
X153869430Y-115572729D01*
X153869432Y-115572734D01*
X153999954Y-115759141D01*
X154160858Y-115920045D01*
X154160861Y-115920047D01*
X154347266Y-116050568D01*
X154553504Y-116146739D01*
X154773308Y-116205635D01*
X154935230Y-116219801D01*
X154999998Y-116225468D01*
X155000000Y-116225468D01*
X155000002Y-116225468D01*
X155056673Y-116220509D01*
X155226692Y-116205635D01*
X155446496Y-116146739D01*
X155652734Y-116050568D01*
X155839139Y-115920047D01*
X156000047Y-115759139D01*
X156130568Y-115572734D01*
X156226739Y-115366496D01*
X156285635Y-115146692D01*
X156305468Y-114920000D01*
X156285635Y-114693308D01*
X156251430Y-114565656D01*
X156249080Y-114555039D01*
X156122742Y-113836555D01*
X156130519Y-113767121D01*
X156157184Y-113727404D01*
X158222772Y-111661819D01*
X158284095Y-111628334D01*
X158310453Y-111625500D01*
X168689548Y-111625500D01*
X168756587Y-111645185D01*
X168777229Y-111661819D01*
X169838181Y-112722771D01*
X169871666Y-112784094D01*
X169874500Y-112810452D01*
X169874500Y-117872924D01*
X169866708Y-117916186D01*
X169438819Y-119065554D01*
X169396982Y-119121514D01*
X169331533Y-119145971D01*
X169263251Y-119131161D01*
X169249726Y-119122610D01*
X169102997Y-119016006D01*
X169102996Y-119016005D01*
X169102994Y-119016004D01*
X169051300Y-118989664D01*
X168941639Y-118933788D01*
X168941636Y-118933787D01*
X168769410Y-118877829D01*
X168590551Y-118849500D01*
X168590546Y-118849500D01*
X168409454Y-118849500D01*
X168409449Y-118849500D01*
X168230589Y-118877829D01*
X168058363Y-118933787D01*
X168058360Y-118933788D01*
X167897002Y-119016006D01*
X167750505Y-119122441D01*
X167750500Y-119122445D01*
X167622445Y-119250500D01*
X167622441Y-119250505D01*
X167516006Y-119397002D01*
X167433788Y-119558360D01*
X167433787Y-119558363D01*
X167377829Y-119730589D01*
X167349500Y-119909448D01*
X167349500Y-120090551D01*
X167377829Y-120269410D01*
X167433787Y-120441636D01*
X167433788Y-120441639D01*
X167516006Y-120602997D01*
X167622441Y-120749494D01*
X167622445Y-120749499D01*
X167750500Y-120877554D01*
X167750505Y-120877558D01*
X167853683Y-120952520D01*
X167897006Y-120983996D01*
X168002484Y-121037740D01*
X168058360Y-121066211D01*
X168058363Y-121066212D01*
X168144476Y-121094191D01*
X168230591Y-121122171D01*
X168313429Y-121135291D01*
X168409449Y-121150500D01*
X168409454Y-121150500D01*
X168590551Y-121150500D01*
X168677259Y-121136765D01*
X168769409Y-121122171D01*
X168941639Y-121066211D01*
X169102994Y-120983996D01*
X169249501Y-120877553D01*
X169274561Y-120852492D01*
X169335880Y-120819009D01*
X169405572Y-120823992D01*
X169461506Y-120865863D01*
X169467967Y-120875384D01*
X169491742Y-120914181D01*
X169524487Y-120952520D01*
X169650241Y-121099759D01*
X169793897Y-121222453D01*
X169835823Y-121258261D01*
X169835826Y-121258262D01*
X170043910Y-121385777D01*
X170269381Y-121479169D01*
X170269378Y-121479169D01*
X170269384Y-121479170D01*
X170269388Y-121479172D01*
X170506698Y-121536146D01*
X170750000Y-121555294D01*
X170993302Y-121536146D01*
X171230612Y-121479172D01*
X171456089Y-121385777D01*
X171664179Y-121258259D01*
X171849759Y-121099759D01*
X172008259Y-120914179D01*
X172135777Y-120706089D01*
X172229172Y-120480612D01*
X172286146Y-120243302D01*
X172305294Y-120000000D01*
X172286146Y-119756698D01*
X172229172Y-119519388D01*
X172229169Y-119519380D01*
X172135777Y-119293910D01*
X172008260Y-119085823D01*
X172008257Y-119085818D01*
X171907663Y-118968038D01*
X171899875Y-118957905D01*
X171883242Y-118933788D01*
X171877095Y-118924875D01*
X171147422Y-117866854D01*
X171125566Y-117800491D01*
X171125500Y-117796455D01*
X171125500Y-112438393D01*
X171120213Y-112411817D01*
X171120212Y-112411812D01*
X171119542Y-112408445D01*
X171107512Y-112347960D01*
X171107376Y-112347278D01*
X171101464Y-112317554D01*
X171101463Y-112317548D01*
X171054311Y-112203714D01*
X171054310Y-112203713D01*
X171054307Y-112203707D01*
X170985859Y-112101268D01*
X170945043Y-112060452D01*
X170898733Y-112014142D01*
X170898732Y-112014141D01*
X169492927Y-110608337D01*
X169492925Y-110608334D01*
X169492925Y-110608335D01*
X169485858Y-110601268D01*
X169485858Y-110601267D01*
X169398733Y-110514142D01*
X169398732Y-110514141D01*
X169398731Y-110514140D01*
X169347509Y-110479915D01*
X169296287Y-110445689D01*
X169296286Y-110445688D01*
X169296283Y-110445686D01*
X169296280Y-110445685D01*
X169215792Y-110412347D01*
X169182453Y-110398537D01*
X169172427Y-110396543D01*
X169122029Y-110386518D01*
X169061610Y-110374500D01*
X169061607Y-110374500D01*
X169061606Y-110374500D01*
X158067741Y-110374500D01*
X158067721Y-110374499D01*
X158061607Y-110374499D01*
X157938394Y-110374499D01*
X157837597Y-110394548D01*
X157837592Y-110394548D01*
X157817549Y-110398536D01*
X157817547Y-110398536D01*
X157770397Y-110418067D01*
X157703719Y-110445685D01*
X157703717Y-110445686D01*
X157601266Y-110514141D01*
X155066358Y-113049049D01*
X155051154Y-113061981D01*
X155033368Y-113074792D01*
X155033366Y-113074794D01*
X154092020Y-113982152D01*
X154088095Y-113985980D01*
X154087968Y-113986104D01*
X154087825Y-113986245D01*
X154087815Y-113986255D01*
X154087814Y-113986257D01*
X154049534Y-114028518D01*
X154047208Y-114031666D01*
X154035177Y-114045635D01*
X153999956Y-114080857D01*
X153999948Y-114080866D01*
X153869432Y-114267265D01*
X153869431Y-114267267D01*
X153773261Y-114473502D01*
X153773258Y-114473511D01*
X153714366Y-114693302D01*
X153714364Y-114693313D01*
X153694532Y-114919998D01*
X149316446Y-114919998D01*
X148824025Y-114427578D01*
X148855258Y-114414641D01*
X148978097Y-114332563D01*
X149082563Y-114228097D01*
X149164641Y-114105258D01*
X149177578Y-114074025D01*
X149902125Y-114798572D01*
X149949971Y-114738573D01*
X150081116Y-114511426D01*
X150176941Y-114267270D01*
X150235306Y-114011550D01*
X150235307Y-114011545D01*
X150254907Y-113750004D01*
X150254907Y-113749995D01*
X150235307Y-113488454D01*
X150235306Y-113488449D01*
X150176941Y-113232729D01*
X150081116Y-112988573D01*
X150081117Y-112988573D01*
X149949972Y-112761426D01*
X149902124Y-112701427D01*
X149177577Y-113425973D01*
X149164641Y-113394742D01*
X149082563Y-113271903D01*
X148978097Y-113167437D01*
X148855258Y-113085359D01*
X148824025Y-113072422D01*
X149590388Y-112306059D01*
X149592933Y-112308604D01*
X149616025Y-112284444D01*
X149683945Y-112268053D01*
X149703628Y-112270604D01*
X150099787Y-112354676D01*
X150558207Y-112411816D01*
X150558215Y-112411816D01*
X150558224Y-112411817D01*
X151019821Y-112429783D01*
X151019822Y-112429782D01*
X151019824Y-112429783D01*
X151481298Y-112408446D01*
X151939287Y-112347960D01*
X152390478Y-112248762D01*
X152831604Y-112111571D01*
X153259471Y-111937380D01*
X153670984Y-111727450D01*
X154063162Y-111483299D01*
X154433168Y-111206696D01*
X154778322Y-110899643D01*
X155096127Y-110564362D01*
X155384282Y-110203281D01*
X155640701Y-109819012D01*
X155780740Y-109564687D01*
X155830319Y-109515459D01*
X155889361Y-109500500D01*
X173375500Y-109500500D01*
X173442539Y-109520185D01*
G37*
%TD.AperFunction*%
%TA.AperFunction,Conductor*%
G36*
X134830703Y-104965739D02*
G01*
X134837181Y-104971771D01*
X135761016Y-105895606D01*
X135761045Y-105895637D01*
X135851264Y-105985856D01*
X135851267Y-105985858D01*
X135928190Y-106037256D01*
X135953710Y-106054309D01*
X135953713Y-106054311D01*
X135953715Y-106054312D01*
X135996892Y-106072196D01*
X135996893Y-106072197D01*
X136016958Y-106080508D01*
X136067548Y-106101463D01*
X136127971Y-106113481D01*
X136188393Y-106125500D01*
X137500500Y-106125500D01*
X137567539Y-106145185D01*
X137613294Y-106197989D01*
X137624500Y-106249500D01*
X137624500Y-111811610D01*
X137648535Y-111932444D01*
X137648539Y-111932458D01*
X137654020Y-111945690D01*
X137695685Y-112046281D01*
X137695687Y-112046284D01*
X137729914Y-112097507D01*
X137729915Y-112097509D01*
X137764141Y-112148733D01*
X137855586Y-112240178D01*
X137855608Y-112240198D01*
X139761016Y-114145606D01*
X139761045Y-114145637D01*
X139851263Y-114235855D01*
X139851271Y-114235861D01*
X139893536Y-114264102D01*
X139893537Y-114264102D01*
X139953714Y-114304312D01*
X140034207Y-114337652D01*
X140067548Y-114351463D01*
X140127971Y-114363481D01*
X140188393Y-114375500D01*
X140188394Y-114375500D01*
X141073666Y-114375500D01*
X141135327Y-114391918D01*
X141369818Y-114526317D01*
X141399474Y-114543314D01*
X141447849Y-114593728D01*
X141461288Y-114662293D01*
X141457568Y-114683062D01*
X141383631Y-114958335D01*
X141351557Y-115013850D01*
X138851269Y-117514139D01*
X138851263Y-117514145D01*
X138836473Y-117528933D01*
X138832630Y-117532614D01*
X138828391Y-117536502D01*
X138826253Y-117538890D01*
X138821578Y-117543828D01*
X138764145Y-117601263D01*
X138764141Y-117601268D01*
X138733760Y-117646737D01*
X138733759Y-117646738D01*
X138695690Y-117703709D01*
X138695687Y-117703715D01*
X138676019Y-117751196D01*
X138676020Y-117751197D01*
X138651002Y-117811599D01*
X138650999Y-117811607D01*
X138648537Y-117817547D01*
X138648534Y-117817557D01*
X138647945Y-117820522D01*
X138635777Y-117854609D01*
X137904393Y-119227925D01*
X137900674Y-119234425D01*
X137864228Y-119293901D01*
X137864222Y-119293912D01*
X137864059Y-119294307D01*
X137863956Y-119294433D01*
X137862013Y-119298249D01*
X137861211Y-119297840D01*
X137820216Y-119348708D01*
X137753920Y-119370770D01*
X137686222Y-119353488D01*
X137638614Y-119302349D01*
X137625500Y-119246849D01*
X137625500Y-118172341D01*
X137637478Y-118119172D01*
X137659755Y-118072238D01*
X138190505Y-116954002D01*
X138195837Y-116942391D01*
X138196071Y-116941864D01*
X138210966Y-116901351D01*
X138214958Y-116891758D01*
X138226739Y-116866496D01*
X138285635Y-116646692D01*
X138305468Y-116420000D01*
X138285635Y-116193308D01*
X138226739Y-115973504D01*
X138130568Y-115767266D01*
X138000047Y-115580861D01*
X138000045Y-115580858D01*
X137839141Y-115419954D01*
X137741048Y-115351269D01*
X137697423Y-115296692D01*
X137690229Y-115227194D01*
X137721752Y-115164839D01*
X137741048Y-115148119D01*
X137838817Y-115079660D01*
X137999657Y-114918820D01*
X138130134Y-114732482D01*
X138226265Y-114526326D01*
X138226269Y-114526317D01*
X138278872Y-114330000D01*
X137315686Y-114330000D01*
X137320080Y-114325606D01*
X137372741Y-114234394D01*
X137400000Y-114132661D01*
X137400000Y-114027339D01*
X137372741Y-113925606D01*
X137320080Y-113834394D01*
X137315686Y-113830000D01*
X138278872Y-113830000D01*
X138278872Y-113829999D01*
X138226269Y-113633682D01*
X138226265Y-113633673D01*
X138130134Y-113427517D01*
X137999657Y-113241179D01*
X137838820Y-113080342D01*
X137652482Y-112949865D01*
X137446328Y-112853734D01*
X137250000Y-112801127D01*
X137250000Y-113764314D01*
X137245606Y-113759920D01*
X137154394Y-113707259D01*
X137052661Y-113680000D01*
X136947339Y-113680000D01*
X136845606Y-113707259D01*
X136754394Y-113759920D01*
X136750000Y-113764314D01*
X136750000Y-112801127D01*
X136553671Y-112853734D01*
X136347517Y-112949865D01*
X136161179Y-113080342D01*
X136000342Y-113241179D01*
X135869865Y-113427517D01*
X135773734Y-113633673D01*
X135773730Y-113633682D01*
X135721127Y-113829999D01*
X135721128Y-113830000D01*
X136684314Y-113830000D01*
X136679920Y-113834394D01*
X136627259Y-113925606D01*
X136600000Y-114027339D01*
X136600000Y-114132661D01*
X136627259Y-114234394D01*
X136679920Y-114325606D01*
X136684314Y-114330000D01*
X135721128Y-114330000D01*
X135773730Y-114526317D01*
X135773734Y-114526326D01*
X135869865Y-114732482D01*
X136000342Y-114918820D01*
X136161179Y-115079657D01*
X136258952Y-115148119D01*
X136302577Y-115202696D01*
X136309769Y-115272195D01*
X136278247Y-115334549D01*
X136258952Y-115351269D01*
X136160856Y-115419956D01*
X135999954Y-115580858D01*
X135869432Y-115767265D01*
X135869431Y-115767267D01*
X135773261Y-115973502D01*
X135773258Y-115973511D01*
X135714366Y-116193302D01*
X135714364Y-116193313D01*
X135694532Y-116419998D01*
X135694532Y-116420001D01*
X135714364Y-116646686D01*
X135714366Y-116646697D01*
X135773258Y-116866488D01*
X135773260Y-116866493D01*
X135773261Y-116866496D01*
X135787238Y-116896470D01*
X135796882Y-116917151D01*
X135802948Y-116932868D01*
X135809494Y-116954003D01*
X136084122Y-117532614D01*
X136362521Y-118119172D01*
X136362522Y-118119173D01*
X136374500Y-118172342D01*
X136374500Y-123311611D01*
X136398535Y-123432444D01*
X136398540Y-123432461D01*
X136445685Y-123546280D01*
X136445690Y-123546289D01*
X136479914Y-123597507D01*
X136479915Y-123597509D01*
X136514141Y-123648733D01*
X136605586Y-123740178D01*
X136605608Y-123740198D01*
X141278229Y-128412819D01*
X141311714Y-128474142D01*
X141306730Y-128543834D01*
X141264858Y-128599767D01*
X141199394Y-128624184D01*
X141190548Y-128624500D01*
X139980452Y-128624500D01*
X139913413Y-128604815D01*
X139892771Y-128588181D01*
X138681388Y-127376798D01*
X138652261Y-127330732D01*
X138636590Y-127286747D01*
X138587677Y-127149454D01*
X138231487Y-126149681D01*
X138228528Y-126140183D01*
X138226739Y-126133504D01*
X138224904Y-126129570D01*
X138220478Y-126118778D01*
X138219409Y-126115777D01*
X138215329Y-126104734D01*
X138215125Y-126104201D01*
X138215118Y-126104187D01*
X138215116Y-126104180D01*
X138186960Y-126043129D01*
X138186958Y-126043127D01*
X138186957Y-126043123D01*
X138186954Y-126043119D01*
X138183636Y-126037544D01*
X138183822Y-126037433D01*
X138175267Y-126023124D01*
X138130570Y-125927271D01*
X138130567Y-125927265D01*
X138107794Y-125894742D01*
X138000047Y-125740861D01*
X138000045Y-125740858D01*
X137839141Y-125579954D01*
X137652731Y-125449430D01*
X137482372Y-125369990D01*
X137476967Y-125367308D01*
X137464212Y-125360586D01*
X137461197Y-125359512D01*
X137450423Y-125355092D01*
X137446495Y-125353260D01*
X137439831Y-125351475D01*
X137430310Y-125348508D01*
X136249268Y-124927738D01*
X136203202Y-124898611D01*
X134661819Y-123357228D01*
X134628334Y-123295905D01*
X134625500Y-123269547D01*
X134625500Y-105059452D01*
X134645185Y-104992413D01*
X134697989Y-104946658D01*
X134767147Y-104936714D01*
X134830703Y-104965739D01*
G37*
%TD.AperFunction*%
%TA.AperFunction,Conductor*%
G36*
X145311768Y-114312812D02*
G01*
X145360327Y-114363049D01*
X145374500Y-114420618D01*
X145374500Y-115311606D01*
X145380444Y-115341492D01*
X145380443Y-115341492D01*
X145398535Y-115432444D01*
X145398538Y-115432456D01*
X145410526Y-115461397D01*
X145445684Y-115546278D01*
X145445685Y-115546280D01*
X145445688Y-115546286D01*
X145463361Y-115572734D01*
X145514141Y-115648733D01*
X145605586Y-115740178D01*
X145605608Y-115740198D01*
X148011016Y-118145606D01*
X148011045Y-118145637D01*
X148101264Y-118235856D01*
X148101267Y-118235858D01*
X148178190Y-118287256D01*
X148203710Y-118304309D01*
X148203712Y-118304310D01*
X148203715Y-118304312D01*
X148270396Y-118331931D01*
X148270398Y-118331933D01*
X148310640Y-118348601D01*
X148317548Y-118351463D01*
X148377971Y-118363481D01*
X148438393Y-118375500D01*
X148438394Y-118375500D01*
X151996848Y-118375500D01*
X152063887Y-118395185D01*
X152109642Y-118447989D01*
X152119586Y-118517147D01*
X152090561Y-118580703D01*
X152047957Y-118611424D01*
X152048255Y-118612009D01*
X152044475Y-118613934D01*
X152044302Y-118614060D01*
X152043916Y-118614219D01*
X152043911Y-118614222D01*
X151835826Y-118741737D01*
X151835823Y-118741738D01*
X151650241Y-118900241D01*
X151491738Y-119085823D01*
X151491738Y-119085824D01*
X151467966Y-119124616D01*
X151416154Y-119171490D01*
X151347224Y-119182911D01*
X151283061Y-119155253D01*
X151274559Y-119147505D01*
X151249499Y-119122445D01*
X151249494Y-119122441D01*
X151102997Y-119016006D01*
X151102996Y-119016005D01*
X151102994Y-119016004D01*
X151051300Y-118989664D01*
X150941639Y-118933788D01*
X150941636Y-118933787D01*
X150769410Y-118877829D01*
X150590551Y-118849500D01*
X150590546Y-118849500D01*
X150409454Y-118849500D01*
X150409449Y-118849500D01*
X150230589Y-118877829D01*
X150058363Y-118933787D01*
X150058360Y-118933788D01*
X149897002Y-119016006D01*
X149750505Y-119122441D01*
X149750500Y-119122445D01*
X149622445Y-119250500D01*
X149622441Y-119250505D01*
X149516006Y-119397002D01*
X149433788Y-119558360D01*
X149433787Y-119558363D01*
X149377829Y-119730589D01*
X149349500Y-119909448D01*
X149349500Y-120090551D01*
X149377829Y-120269410D01*
X149433787Y-120441636D01*
X149433788Y-120441639D01*
X149516006Y-120602997D01*
X149622441Y-120749494D01*
X149622445Y-120749499D01*
X149750500Y-120877554D01*
X149750505Y-120877558D01*
X149853683Y-120952520D01*
X149897006Y-120983996D01*
X150002484Y-121037740D01*
X150058360Y-121066211D01*
X150058363Y-121066212D01*
X150144476Y-121094191D01*
X150230591Y-121122171D01*
X150313429Y-121135291D01*
X150409449Y-121150500D01*
X150409454Y-121150500D01*
X150590551Y-121150500D01*
X150677259Y-121136765D01*
X150769409Y-121122171D01*
X150941639Y-121066211D01*
X151102994Y-120983996D01*
X151199087Y-120914181D01*
X151232897Y-120889617D01*
X151298703Y-120866137D01*
X151366757Y-120881963D01*
X151415452Y-120932068D01*
X151424003Y-120952520D01*
X151639002Y-121631849D01*
X151640463Y-121701703D01*
X151608462Y-121756945D01*
X150777229Y-122588181D01*
X150715906Y-122621666D01*
X150689548Y-122624500D01*
X146938389Y-122624500D01*
X146877971Y-122636518D01*
X146834743Y-122645116D01*
X146817546Y-122648537D01*
X146703716Y-122695687D01*
X146703707Y-122695692D01*
X146601268Y-122764140D01*
X146557705Y-122807703D01*
X146514142Y-122851267D01*
X146514139Y-122851270D01*
X145851270Y-123514139D01*
X145851267Y-123514142D01*
X145819129Y-123546280D01*
X145764142Y-123601266D01*
X145737187Y-123641608D01*
X145737186Y-123641609D01*
X145695690Y-123703708D01*
X145695688Y-123703713D01*
X145666354Y-123774531D01*
X145666355Y-123774532D01*
X145648536Y-123817549D01*
X145648535Y-123817555D01*
X145624500Y-123938389D01*
X145624500Y-126939547D01*
X145604815Y-127006586D01*
X145588181Y-127027228D01*
X145027229Y-127588181D01*
X144965906Y-127621666D01*
X144939548Y-127624500D01*
X144900334Y-127624500D01*
X144833295Y-127604815D01*
X144787540Y-127552011D01*
X144777596Y-127482853D01*
X144803386Y-127423188D01*
X144950386Y-127238857D01*
X145081568Y-127011643D01*
X145177420Y-126767416D01*
X145235802Y-126511630D01*
X145235808Y-126511550D01*
X145255408Y-126250004D01*
X145255408Y-126249995D01*
X145235803Y-125988379D01*
X145235802Y-125988374D01*
X145235802Y-125988370D01*
X145177420Y-125732584D01*
X145081568Y-125488357D01*
X144950386Y-125261143D01*
X144786805Y-125056019D01*
X144786804Y-125056018D01*
X144786801Y-125056014D01*
X144594479Y-124877567D01*
X144558905Y-124853313D01*
X144377704Y-124729772D01*
X144377700Y-124729770D01*
X144377697Y-124729768D01*
X144377696Y-124729767D01*
X144141325Y-124615938D01*
X144141327Y-124615938D01*
X143890620Y-124538605D01*
X143890616Y-124538604D01*
X143890615Y-124538604D01*
X143834291Y-124530113D01*
X143787669Y-124523086D01*
X143774776Y-124520436D01*
X142290970Y-124132359D01*
X142234665Y-124100075D01*
X140062350Y-121927760D01*
X140028865Y-121866437D01*
X140033849Y-121796745D01*
X140041268Y-121780526D01*
X140532353Y-120883950D01*
X140581821Y-120834612D01*
X140650113Y-120819850D01*
X140715546Y-120844352D01*
X140728787Y-120855841D01*
X140750500Y-120877554D01*
X140750505Y-120877558D01*
X140853683Y-120952520D01*
X140897006Y-120983996D01*
X141002484Y-121037740D01*
X141058360Y-121066211D01*
X141058363Y-121066212D01*
X141144476Y-121094191D01*
X141230591Y-121122171D01*
X141313429Y-121135291D01*
X141409449Y-121150500D01*
X141409454Y-121150500D01*
X141590551Y-121150500D01*
X141677259Y-121136765D01*
X141769409Y-121122171D01*
X141941639Y-121066211D01*
X142102994Y-120983996D01*
X142249501Y-120877553D01*
X142377553Y-120749501D01*
X142483996Y-120602994D01*
X142566211Y-120441639D01*
X142622171Y-120269409D01*
X142641269Y-120148830D01*
X142650500Y-120090551D01*
X142650500Y-119909448D01*
X142634019Y-119805397D01*
X142622171Y-119730591D01*
X142566211Y-119558361D01*
X142566211Y-119558360D01*
X142510413Y-119448852D01*
X142483996Y-119397006D01*
X142464935Y-119370770D01*
X142377558Y-119250505D01*
X142377554Y-119250500D01*
X142249499Y-119122445D01*
X142249494Y-119122441D01*
X142102997Y-119016006D01*
X142102996Y-119016005D01*
X142102994Y-119016004D01*
X142051300Y-118989664D01*
X141941639Y-118933788D01*
X141941636Y-118933787D01*
X141769410Y-118877829D01*
X141590551Y-118849500D01*
X141590546Y-118849500D01*
X141409454Y-118849500D01*
X141409449Y-118849500D01*
X141230589Y-118877829D01*
X141058363Y-118933787D01*
X141058360Y-118933788D01*
X140897002Y-119016006D01*
X140750505Y-119122441D01*
X140728784Y-119144161D01*
X140667459Y-119177643D01*
X140597768Y-119172656D01*
X140541836Y-119130782D01*
X140532354Y-119116050D01*
X140041275Y-118219485D01*
X140026336Y-118151234D01*
X140050667Y-118085738D01*
X140062343Y-118072245D01*
X142234669Y-115899920D01*
X142290970Y-115867639D01*
X143774787Y-115479559D01*
X143787660Y-115476914D01*
X143890615Y-115461396D01*
X144141323Y-115384063D01*
X144328111Y-115294110D01*
X144377696Y-115270232D01*
X144377696Y-115270231D01*
X144377704Y-115270228D01*
X144594479Y-115122433D01*
X144743733Y-114983945D01*
X144786801Y-114943985D01*
X144786801Y-114943983D01*
X144786805Y-114943981D01*
X144950386Y-114738857D01*
X145081568Y-114511643D01*
X145135072Y-114375314D01*
X145177887Y-114320102D01*
X145243757Y-114296801D01*
X145311768Y-114312812D01*
G37*
%TD.AperFunction*%
%TA.AperFunction,Conductor*%
G36*
X145669500Y-105500845D02*
G01*
X145725433Y-105542717D01*
X145749850Y-105608181D01*
X145746146Y-105648343D01*
X145692618Y-105853424D01*
X145614364Y-106308724D01*
X145575096Y-106769020D01*
X145575096Y-107230979D01*
X145614364Y-107691275D01*
X145692618Y-108146575D01*
X145809285Y-108593554D01*
X145809286Y-108593559D01*
X145963528Y-109029013D01*
X146154226Y-109449779D01*
X146380011Y-109852829D01*
X146639217Y-110235197D01*
X146639219Y-110235200D01*
X146639225Y-110235208D01*
X146930009Y-110594176D01*
X147250253Y-110927128D01*
X147327911Y-110995204D01*
X147597637Y-111231651D01*
X147597640Y-111231653D01*
X147969656Y-111505546D01*
X148363606Y-111746827D01*
X148363618Y-111746833D01*
X148403606Y-111766866D01*
X148454728Y-111814493D01*
X148471986Y-111882198D01*
X148449899Y-111948485D01*
X148395482Y-111992308D01*
X148366547Y-112000347D01*
X148109500Y-112039090D01*
X148109494Y-112039092D01*
X147858858Y-112116404D01*
X147858854Y-112116405D01*
X147622547Y-112230205D01*
X147622539Y-112230210D01*
X147450830Y-112347277D01*
X148175974Y-113072421D01*
X148144742Y-113085359D01*
X148021903Y-113167437D01*
X147917437Y-113271903D01*
X147835359Y-113394742D01*
X147822422Y-113425974D01*
X147097875Y-112701427D01*
X147097874Y-112701427D01*
X147050028Y-112761425D01*
X146918883Y-112988573D01*
X146864928Y-113126049D01*
X146822112Y-113181263D01*
X146756242Y-113204564D01*
X146688232Y-113188553D01*
X146639673Y-113138315D01*
X146625500Y-113080747D01*
X146625500Y-111688393D01*
X146625499Y-111688389D01*
X146608209Y-111601463D01*
X146601463Y-111567548D01*
X146554311Y-111453714D01*
X146554310Y-111453713D01*
X146554307Y-111453707D01*
X146485858Y-111351267D01*
X146485855Y-111351263D01*
X146395637Y-111261045D01*
X146395606Y-111261016D01*
X145740198Y-110605608D01*
X145740178Y-110605586D01*
X145648733Y-110514141D01*
X145597509Y-110479915D01*
X145546287Y-110445689D01*
X145546286Y-110445688D01*
X145546283Y-110445686D01*
X145546280Y-110445685D01*
X145465792Y-110412347D01*
X145432453Y-110398537D01*
X145422427Y-110396543D01*
X145372029Y-110386518D01*
X145311610Y-110374500D01*
X145311607Y-110374500D01*
X145311606Y-110374500D01*
X141810453Y-110374500D01*
X141743414Y-110354815D01*
X141722772Y-110338181D01*
X140972177Y-109587586D01*
X140938692Y-109526263D01*
X140943676Y-109456571D01*
X140985548Y-109400638D01*
X141051012Y-109376221D01*
X141104648Y-109384277D01*
X141170060Y-109409618D01*
X141388757Y-109450500D01*
X141388759Y-109450500D01*
X141611241Y-109450500D01*
X141611243Y-109450500D01*
X141829940Y-109409618D01*
X142037401Y-109329247D01*
X142226562Y-109212124D01*
X142366282Y-109084751D01*
X142390979Y-109062238D01*
X142390981Y-109062236D01*
X142525058Y-108884689D01*
X142567060Y-108800336D01*
X142574577Y-108787293D01*
X143139564Y-107931820D01*
X143155345Y-107912486D01*
X145538487Y-105529344D01*
X145599808Y-105495861D01*
X145669500Y-105500845D01*
G37*
%TD.AperFunction*%
%TA.AperFunction,Conductor*%
G36*
X139293834Y-106253930D02*
G01*
X139349767Y-106295802D01*
X139374184Y-106361266D01*
X139374500Y-106370112D01*
X139374500Y-109561611D01*
X139398535Y-109682444D01*
X139398540Y-109682461D01*
X139445685Y-109796280D01*
X139445687Y-109796283D01*
X139445688Y-109796286D01*
X139460873Y-109819012D01*
X139479914Y-109847507D01*
X139479915Y-109847509D01*
X139514140Y-109898731D01*
X139514141Y-109898732D01*
X139514142Y-109898733D01*
X139601267Y-109985858D01*
X139601268Y-109985858D01*
X139608335Y-109992925D01*
X139608334Y-109992925D01*
X139608337Y-109992927D01*
X141014141Y-111398732D01*
X141014142Y-111398733D01*
X141069116Y-111453707D01*
X141101268Y-111485859D01*
X141203707Y-111554307D01*
X141203713Y-111554310D01*
X141203714Y-111554311D01*
X141317548Y-111601463D01*
X141377971Y-111613481D01*
X141438393Y-111625500D01*
X141438394Y-111625500D01*
X144939548Y-111625500D01*
X145006587Y-111645185D01*
X145027229Y-111661819D01*
X145338181Y-111972771D01*
X145371666Y-112034094D01*
X145374500Y-112060452D01*
X145374500Y-113079381D01*
X145354815Y-113146420D01*
X145302011Y-113192175D01*
X145232853Y-113202119D01*
X145169297Y-113173094D01*
X145135072Y-113124683D01*
X145117292Y-113079381D01*
X145081568Y-112988357D01*
X144950386Y-112761143D01*
X144786805Y-112556019D01*
X144786804Y-112556018D01*
X144786801Y-112556014D01*
X144594479Y-112377567D01*
X144560900Y-112354673D01*
X144377704Y-112229772D01*
X144377700Y-112229770D01*
X144377697Y-112229768D01*
X144377696Y-112229767D01*
X144141325Y-112115938D01*
X144141327Y-112115938D01*
X143890623Y-112038606D01*
X143890619Y-112038605D01*
X143890615Y-112038604D01*
X143765823Y-112019794D01*
X143631187Y-111999500D01*
X143631182Y-111999500D01*
X143368818Y-111999500D01*
X143368812Y-111999500D01*
X143207247Y-112023853D01*
X143109385Y-112038604D01*
X143109382Y-112038605D01*
X143109376Y-112038606D01*
X142858673Y-112115938D01*
X142622303Y-112229767D01*
X142622302Y-112229768D01*
X142622296Y-112229771D01*
X142622296Y-112229772D01*
X142613367Y-112235860D01*
X142405506Y-112377577D01*
X142401888Y-112380463D01*
X142401487Y-112379961D01*
X142386187Y-112391145D01*
X141135325Y-113108082D01*
X141073664Y-113124500D01*
X140560452Y-113124500D01*
X140493413Y-113104815D01*
X140472771Y-113088181D01*
X138911819Y-111527229D01*
X138878334Y-111465906D01*
X138875500Y-111439548D01*
X138875500Y-106621112D01*
X138895185Y-106554073D01*
X138911819Y-106533431D01*
X139162819Y-106282431D01*
X139224142Y-106248946D01*
X139293834Y-106253930D01*
G37*
%TD.AperFunction*%
%TA.AperFunction,Conductor*%
G36*
X145570000Y-102616629D02*
G01*
X145550315Y-102683668D01*
X145533681Y-102704310D01*
X143149812Y-105088181D01*
X143088489Y-105121666D01*
X143062131Y-105124500D01*
X143048919Y-105124500D01*
X142997022Y-105113117D01*
X142042938Y-104673446D01*
X142039587Y-104671841D01*
X142036589Y-104670349D01*
X142031954Y-104668385D01*
X141990542Y-104649300D01*
X141981088Y-104645059D01*
X141980774Y-104644922D01*
X141980719Y-104644900D01*
X141921580Y-104623361D01*
X141915406Y-104621807D01*
X141915518Y-104621361D01*
X141898081Y-104616779D01*
X141829944Y-104590383D01*
X141829941Y-104590382D01*
X141829940Y-104590382D01*
X141611243Y-104549500D01*
X141388757Y-104549500D01*
X141170060Y-104590382D01*
X141084932Y-104623361D01*
X140962601Y-104670752D01*
X140962595Y-104670755D01*
X140814777Y-104762279D01*
X140747416Y-104780834D01*
X140680717Y-104760026D01*
X140635856Y-104706461D01*
X140625500Y-104656852D01*
X140625500Y-104390452D01*
X140645185Y-104323413D01*
X140661819Y-104302771D01*
X141274098Y-103690492D01*
X141983204Y-102981385D01*
X142029266Y-102952261D01*
X143210323Y-102531485D01*
X143219817Y-102528528D01*
X143226496Y-102526739D01*
X143230422Y-102524907D01*
X143241228Y-102520475D01*
X143244217Y-102519411D01*
X143255326Y-102515306D01*
X143255864Y-102515100D01*
X143316876Y-102486957D01*
X143316886Y-102486949D01*
X143322457Y-102483635D01*
X143322568Y-102483822D01*
X143336866Y-102475272D01*
X143432734Y-102430568D01*
X143619139Y-102300047D01*
X143780047Y-102139139D01*
X143910568Y-101952734D01*
X143937895Y-101894129D01*
X143984064Y-101841695D01*
X144051257Y-101822542D01*
X144118139Y-101842757D01*
X144162657Y-101894133D01*
X144189865Y-101952482D01*
X144320342Y-102138820D01*
X144481179Y-102299657D01*
X144667517Y-102430134D01*
X144873673Y-102526265D01*
X144873682Y-102526269D01*
X145069999Y-102578872D01*
X145070000Y-102578871D01*
X145070000Y-101615686D01*
X145074394Y-101620080D01*
X145165606Y-101672741D01*
X145267339Y-101700000D01*
X145372661Y-101700000D01*
X145474394Y-101672741D01*
X145565606Y-101620080D01*
X145570000Y-101615686D01*
X145570000Y-102616629D01*
G37*
%TD.AperFunction*%
%TA.AperFunction,Conductor*%
G36*
X173442539Y-90520185D02*
G01*
X173488294Y-90572989D01*
X173499500Y-90624500D01*
X173499500Y-104375500D01*
X173479815Y-104442539D01*
X173427011Y-104488294D01*
X173375500Y-104499500D01*
X155889361Y-104499500D01*
X155822322Y-104479815D01*
X155780739Y-104435311D01*
X155640701Y-104180988D01*
X155384282Y-103796719D01*
X155096127Y-103435638D01*
X154778322Y-103100357D01*
X154778319Y-103100354D01*
X154778315Y-103100350D01*
X154490432Y-102844247D01*
X154433168Y-102793304D01*
X154146327Y-102578872D01*
X154063173Y-102516709D01*
X154063168Y-102516706D01*
X154063162Y-102516701D01*
X154063156Y-102516697D01*
X154063147Y-102516691D01*
X153671002Y-102272561D01*
X153670997Y-102272558D01*
X153670984Y-102272550D01*
X153352261Y-102109956D01*
X153301490Y-102061958D01*
X153284727Y-101994129D01*
X153307297Y-101928005D01*
X153362034Y-101884580D01*
X153408611Y-101875500D01*
X162844465Y-101875500D01*
X162902371Y-101889851D01*
X164349267Y-102653982D01*
X164350257Y-102654511D01*
X164395190Y-102678828D01*
X164395195Y-102678829D01*
X164395200Y-102678832D01*
X164441259Y-102694644D01*
X164445015Y-102696001D01*
X164450085Y-102697926D01*
X164464043Y-102703226D01*
X164464057Y-102703228D01*
X164468391Y-102704350D01*
X164477575Y-102707110D01*
X164590267Y-102745797D01*
X164630385Y-102759571D01*
X164875665Y-102800500D01*
X165124335Y-102800500D01*
X165369614Y-102759571D01*
X165604810Y-102678828D01*
X165823509Y-102560474D01*
X166019744Y-102407738D01*
X166188164Y-102224785D01*
X166324173Y-102016607D01*
X166424063Y-101788881D01*
X166485108Y-101547821D01*
X166485109Y-101547812D01*
X166505643Y-101300005D01*
X166505643Y-101299994D01*
X166485109Y-101052187D01*
X166485107Y-101052175D01*
X166424063Y-100811118D01*
X166324173Y-100583393D01*
X166188166Y-100375217D01*
X166166557Y-100351744D01*
X166019744Y-100192262D01*
X165823509Y-100039526D01*
X165823507Y-100039525D01*
X165823506Y-100039524D01*
X165604811Y-99921172D01*
X165604802Y-99921169D01*
X165369616Y-99840429D01*
X165124335Y-99799500D01*
X164875665Y-99799500D01*
X164630383Y-99840429D01*
X164395196Y-99921169D01*
X164395187Y-99921173D01*
X164388293Y-99924904D01*
X164381648Y-99928246D01*
X162912132Y-100612900D01*
X162859765Y-100624500D01*
X149329907Y-100624500D01*
X149262868Y-100604815D01*
X149217113Y-100552011D01*
X149205907Y-100500500D01*
X149205907Y-98768802D01*
X149203293Y-98755661D01*
X149199354Y-98735858D01*
X149181870Y-98647955D01*
X149134718Y-98534121D01*
X149134717Y-98534120D01*
X149134714Y-98534114D01*
X149081068Y-98453828D01*
X149081067Y-98453827D01*
X149066265Y-98431674D01*
X148979140Y-98344549D01*
X148979139Y-98344548D01*
X148971772Y-98337181D01*
X148938287Y-98275858D01*
X148943271Y-98206166D01*
X148985143Y-98150233D01*
X149050607Y-98125816D01*
X149059453Y-98125500D01*
X149757762Y-98125500D01*
X149824801Y-98145185D01*
X149839416Y-98156180D01*
X150271350Y-98534123D01*
X150457155Y-98696702D01*
X150494645Y-98755661D01*
X150499500Y-98790021D01*
X150499500Y-99047869D01*
X150499501Y-99047876D01*
X150505908Y-99107483D01*
X150556202Y-99242328D01*
X150556206Y-99242335D01*
X150642452Y-99357544D01*
X150642455Y-99357547D01*
X150757664Y-99443793D01*
X150757671Y-99443797D01*
X150892517Y-99494091D01*
X150892516Y-99494091D01*
X150899444Y-99494835D01*
X150952127Y-99500500D01*
X154047872Y-99500499D01*
X154107483Y-99494091D01*
X154242331Y-99443796D01*
X154357546Y-99357546D01*
X154443796Y-99242331D01*
X154494091Y-99107483D01*
X154500500Y-99047873D01*
X154500499Y-95952128D01*
X154494091Y-95892517D01*
X154492983Y-95889547D01*
X154443797Y-95757671D01*
X154443793Y-95757664D01*
X154357547Y-95642455D01*
X154357544Y-95642452D01*
X154242335Y-95556206D01*
X154242328Y-95556202D01*
X154107482Y-95505908D01*
X154107483Y-95505908D01*
X154047883Y-95499501D01*
X154047881Y-95499500D01*
X154047873Y-95499500D01*
X154047864Y-95499500D01*
X150952129Y-95499500D01*
X150952123Y-95499501D01*
X150892516Y-95505908D01*
X150757671Y-95556202D01*
X150757664Y-95556206D01*
X150642455Y-95642452D01*
X150642452Y-95642455D01*
X150556206Y-95757664D01*
X150556202Y-95757671D01*
X150505908Y-95892517D01*
X150500706Y-95940909D01*
X150499501Y-95952123D01*
X150499500Y-95952135D01*
X150499500Y-96209976D01*
X150479815Y-96277015D01*
X150457155Y-96303295D01*
X150041447Y-96667041D01*
X149849085Y-96835359D01*
X149839416Y-96843819D01*
X149776001Y-96873151D01*
X149757761Y-96874500D01*
X139310453Y-96874500D01*
X139243414Y-96854815D01*
X139222772Y-96838181D01*
X138361819Y-95977228D01*
X138328334Y-95915905D01*
X138325500Y-95889547D01*
X138325500Y-95432341D01*
X138337478Y-95379172D01*
X138422282Y-95200500D01*
X138859994Y-94278284D01*
X138906522Y-94226161D01*
X138973845Y-94207467D01*
X139040587Y-94228139D01*
X139084397Y-94279047D01*
X139109432Y-94332734D01*
X139109433Y-94332735D01*
X139239954Y-94519141D01*
X139400858Y-94680045D01*
X139400861Y-94680047D01*
X139587266Y-94810568D01*
X139793504Y-94906739D01*
X140013308Y-94965635D01*
X140175230Y-94979801D01*
X140239998Y-94985468D01*
X140240000Y-94985468D01*
X140240002Y-94985468D01*
X140296673Y-94980509D01*
X140466692Y-94965635D01*
X140686496Y-94906739D01*
X140892734Y-94810568D01*
X141079139Y-94680047D01*
X141240047Y-94519139D01*
X141370568Y-94332734D01*
X141397618Y-94274724D01*
X141443790Y-94222285D01*
X141510983Y-94203133D01*
X141577865Y-94223348D01*
X141622382Y-94274725D01*
X141649429Y-94332728D01*
X141649432Y-94332734D01*
X141779954Y-94519141D01*
X141940858Y-94680045D01*
X141940861Y-94680047D01*
X142127266Y-94810568D01*
X142333504Y-94906739D01*
X142553308Y-94965635D01*
X142715230Y-94979801D01*
X142779998Y-94985468D01*
X142780000Y-94985468D01*
X142780002Y-94985468D01*
X142836673Y-94980509D01*
X143006692Y-94965635D01*
X143226496Y-94906739D01*
X143432734Y-94810568D01*
X143619139Y-94680047D01*
X143780047Y-94519139D01*
X143910568Y-94332734D01*
X143937619Y-94274722D01*
X143983788Y-94222286D01*
X144050981Y-94203133D01*
X144117862Y-94223348D01*
X144162380Y-94274722D01*
X144189432Y-94332734D01*
X144189433Y-94332735D01*
X144319954Y-94519141D01*
X144480858Y-94680045D01*
X144480861Y-94680047D01*
X144667266Y-94810568D01*
X144873504Y-94906739D01*
X145093308Y-94965635D01*
X145255230Y-94979801D01*
X145319998Y-94985468D01*
X145320000Y-94985468D01*
X145348433Y-94982979D01*
X145367419Y-94982778D01*
X145371383Y-94983040D01*
X146711897Y-94879840D01*
X146720433Y-94878887D01*
X146743918Y-94876266D01*
X146757675Y-94875500D01*
X162811607Y-94875500D01*
X162872029Y-94863481D01*
X162932452Y-94851463D01*
X162980181Y-94831693D01*
X163046286Y-94804312D01*
X163097509Y-94770084D01*
X163133891Y-94745774D01*
X163200567Y-94724897D01*
X163267947Y-94743381D01*
X163283043Y-94754357D01*
X163374118Y-94831693D01*
X163664583Y-95078341D01*
X163690849Y-95099186D01*
X163690853Y-95099188D01*
X163708671Y-95108803D01*
X163724095Y-95118662D01*
X163757669Y-95143796D01*
X163757672Y-95143797D01*
X163757674Y-95143798D01*
X163800958Y-95159942D01*
X163816516Y-95167001D01*
X163817469Y-95167515D01*
X163825042Y-95170297D01*
X163833097Y-95172485D01*
X163843913Y-95175962D01*
X163872846Y-95186754D01*
X163892511Y-95194089D01*
X163892512Y-95194089D01*
X163892517Y-95194091D01*
X163952127Y-95200500D01*
X166047872Y-95200499D01*
X166107483Y-95194091D01*
X166242331Y-95143796D01*
X166357546Y-95057546D01*
X166443796Y-94942331D01*
X166494091Y-94807483D01*
X166500500Y-94747873D01*
X166500499Y-92652128D01*
X166494091Y-92592517D01*
X166478021Y-92549432D01*
X166443797Y-92457671D01*
X166443793Y-92457664D01*
X166357547Y-92342455D01*
X166357544Y-92342452D01*
X166242335Y-92256206D01*
X166242328Y-92256202D01*
X166107482Y-92205908D01*
X166107483Y-92205908D01*
X166047883Y-92199501D01*
X166047881Y-92199500D01*
X166047873Y-92199500D01*
X166047864Y-92199500D01*
X163952129Y-92199500D01*
X163952123Y-92199501D01*
X163892516Y-92205908D01*
X163757671Y-92256202D01*
X163757664Y-92256206D01*
X163642455Y-92342452D01*
X163642452Y-92342455D01*
X163556206Y-92457664D01*
X163556202Y-92457671D01*
X163518922Y-92557626D01*
X163491232Y-92601156D01*
X162646842Y-93461374D01*
X162612489Y-93500163D01*
X162610947Y-93502289D01*
X162598275Y-93517134D01*
X162527229Y-93588181D01*
X162465906Y-93621666D01*
X162439547Y-93624500D01*
X151731340Y-93624500D01*
X151664301Y-93604815D01*
X151618546Y-93552011D01*
X151608602Y-93482853D01*
X151637627Y-93419297D01*
X151696405Y-93381523D01*
X151715097Y-93377568D01*
X151939287Y-93347960D01*
X152390478Y-93248762D01*
X152831604Y-93111571D01*
X153259471Y-92937380D01*
X153670984Y-92727450D01*
X154063162Y-92483299D01*
X154433168Y-92206696D01*
X154778322Y-91899643D01*
X155096127Y-91564362D01*
X155384282Y-91203281D01*
X155640701Y-90819012D01*
X155780740Y-90564687D01*
X155830319Y-90515459D01*
X155889361Y-90500500D01*
X173375500Y-90500500D01*
X173442539Y-90520185D01*
G37*
%TD.AperFunction*%
%TA.AperFunction,Conductor*%
G36*
X147756587Y-98895185D02*
G01*
X147777229Y-98911819D01*
X147918588Y-99053178D01*
X147952073Y-99114501D01*
X147954907Y-99140859D01*
X147954907Y-100189547D01*
X147935222Y-100256586D01*
X147918588Y-100277228D01*
X146682134Y-101513681D01*
X146620811Y-101547166D01*
X146594453Y-101550000D01*
X145635686Y-101550000D01*
X145640080Y-101545606D01*
X145692741Y-101454394D01*
X145720000Y-101352661D01*
X145720000Y-101247339D01*
X145692741Y-101145606D01*
X145640080Y-101054394D01*
X145635686Y-101050000D01*
X146598872Y-101050000D01*
X146598872Y-101049999D01*
X146546269Y-100853682D01*
X146546265Y-100853673D01*
X146450134Y-100647517D01*
X146319657Y-100461179D01*
X146158820Y-100300342D01*
X145972482Y-100169865D01*
X145766328Y-100073734D01*
X145570000Y-100021127D01*
X145570000Y-100984314D01*
X145565606Y-100979920D01*
X145474394Y-100927259D01*
X145372661Y-100900000D01*
X145267339Y-100900000D01*
X145165606Y-100927259D01*
X145074394Y-100979920D01*
X145070000Y-100984314D01*
X145070000Y-100021127D01*
X144873671Y-100073734D01*
X144667517Y-100169865D01*
X144481179Y-100300342D01*
X144320342Y-100461179D01*
X144189867Y-100647515D01*
X144162657Y-100705867D01*
X144116484Y-100758306D01*
X144049290Y-100777457D01*
X143982409Y-100757241D01*
X143937893Y-100705865D01*
X143937618Y-100705276D01*
X143910568Y-100647266D01*
X143780047Y-100460861D01*
X143780045Y-100460858D01*
X143619141Y-100299954D01*
X143432734Y-100169432D01*
X143432732Y-100169431D01*
X143226497Y-100073261D01*
X143226488Y-100073258D01*
X143006697Y-100014366D01*
X143006693Y-100014365D01*
X143006692Y-100014365D01*
X143006691Y-100014364D01*
X143006686Y-100014364D01*
X142780002Y-99994532D01*
X142779998Y-99994532D01*
X142553313Y-100014364D01*
X142553302Y-100014366D01*
X142333511Y-100073258D01*
X142333502Y-100073261D01*
X142127267Y-100169431D01*
X142127265Y-100169432D01*
X141940858Y-100299954D01*
X141779954Y-100460858D01*
X141649430Y-100647268D01*
X141649430Y-100647269D01*
X141622380Y-100705276D01*
X141576207Y-100757714D01*
X141509013Y-100776865D01*
X141442132Y-100756648D01*
X141397617Y-100705273D01*
X141370570Y-100647271D01*
X141370569Y-100647269D01*
X141370568Y-100647266D01*
X141240047Y-100460861D01*
X141240045Y-100460858D01*
X141079141Y-100299954D01*
X140892734Y-100169432D01*
X140892732Y-100169431D01*
X140686497Y-100073261D01*
X140686488Y-100073258D01*
X140466697Y-100014366D01*
X140466693Y-100014365D01*
X140466692Y-100014365D01*
X140466691Y-100014364D01*
X140466686Y-100014364D01*
X140240002Y-99994532D01*
X140239998Y-99994532D01*
X140013313Y-100014364D01*
X140013302Y-100014366D01*
X139793511Y-100073258D01*
X139793502Y-100073261D01*
X139587267Y-100169431D01*
X139587265Y-100169432D01*
X139400858Y-100299954D01*
X139239954Y-100460858D01*
X139222725Y-100485464D01*
X139168147Y-100529088D01*
X139098648Y-100536280D01*
X139036294Y-100504757D01*
X139000882Y-100444526D01*
X138997861Y-100427591D01*
X138994091Y-100392516D01*
X138943797Y-100257671D01*
X138943793Y-100257664D01*
X138857547Y-100142455D01*
X138857544Y-100142452D01*
X138742335Y-100056206D01*
X138742328Y-100056202D01*
X138607482Y-100005908D01*
X138607483Y-100005908D01*
X138547883Y-99999501D01*
X138547881Y-99999500D01*
X138547873Y-99999500D01*
X138547865Y-99999500D01*
X137434451Y-99999500D01*
X137367412Y-99979815D01*
X137321657Y-99927011D01*
X137311713Y-99857853D01*
X137340738Y-99794297D01*
X137346770Y-99787819D01*
X137702719Y-99431871D01*
X138222771Y-98911819D01*
X138284094Y-98878334D01*
X138310452Y-98875500D01*
X147689548Y-98875500D01*
X147756587Y-98895185D01*
G37*
%TD.AperFunction*%
%TA.AperFunction,Conductor*%
G36*
X142440276Y-67145185D02*
G01*
X142486031Y-67197989D01*
X142495975Y-67267147D01*
X142466950Y-67330703D01*
X142443089Y-67351953D01*
X142405524Y-67377564D01*
X142213198Y-67556014D01*
X142049614Y-67761143D01*
X141918432Y-67988356D01*
X141822582Y-68232578D01*
X141822576Y-68232597D01*
X141775605Y-68438391D01*
X141764198Y-68488370D01*
X141764192Y-68488449D01*
X141759550Y-68550380D01*
X141755652Y-68573277D01*
X141383631Y-69958335D01*
X141351557Y-70013850D01*
X138851269Y-72514139D01*
X138851263Y-72514145D01*
X138836473Y-72528933D01*
X138832630Y-72532614D01*
X138828391Y-72536502D01*
X138826253Y-72538890D01*
X138821578Y-72543828D01*
X138764147Y-72601261D01*
X138764143Y-72601265D01*
X138764142Y-72601267D01*
X138729915Y-72652490D01*
X138729914Y-72652492D01*
X138729913Y-72652491D01*
X138695690Y-72703708D01*
X138695689Y-72703710D01*
X138676019Y-72751199D01*
X138648538Y-72817543D01*
X138647947Y-72820515D01*
X138635777Y-72854608D01*
X137904393Y-74227925D01*
X137900674Y-74234425D01*
X137864228Y-74293901D01*
X137864223Y-74293910D01*
X137848914Y-74330868D01*
X137843808Y-74341685D01*
X137839816Y-74349182D01*
X137828673Y-74371404D01*
X137828196Y-74372416D01*
X137799569Y-74447702D01*
X137795555Y-74459687D01*
X137770827Y-74519387D01*
X137713853Y-74756701D01*
X137694706Y-75000000D01*
X137713853Y-75243297D01*
X137713853Y-75243300D01*
X137713854Y-75243302D01*
X137761471Y-75441639D01*
X137770829Y-75480615D01*
X137770832Y-75480623D01*
X137828407Y-75619623D01*
X137830472Y-75624953D01*
X137839803Y-75650790D01*
X137839807Y-75650800D01*
X137840073Y-75651299D01*
X137843805Y-75658307D01*
X137848912Y-75669127D01*
X137864221Y-75706086D01*
X137864226Y-75706095D01*
X137900672Y-75765569D01*
X137904392Y-75772071D01*
X138635776Y-77145389D01*
X138647943Y-77179471D01*
X138648534Y-77182443D01*
X138648537Y-77182451D01*
X138662347Y-77215791D01*
X138662347Y-77215793D01*
X138695685Y-77296281D01*
X138695687Y-77296284D01*
X138695688Y-77296286D01*
X138729852Y-77347415D01*
X138729853Y-77347417D01*
X138764138Y-77398728D01*
X138764139Y-77398729D01*
X138764142Y-77398733D01*
X138851267Y-77485858D01*
X138851269Y-77485859D01*
X138858335Y-77492925D01*
X138858334Y-77492925D01*
X138858338Y-77492928D01*
X141351558Y-79986149D01*
X141383632Y-80041664D01*
X141741482Y-81373961D01*
X141741483Y-81373968D01*
X141755653Y-81426724D01*
X141759551Y-81449623D01*
X141764197Y-81511625D01*
X141764199Y-81511633D01*
X141822576Y-81767402D01*
X141822578Y-81767411D01*
X141822580Y-81767416D01*
X141918432Y-82011643D01*
X142049614Y-82238857D01*
X142097235Y-82298572D01*
X142102623Y-82305328D01*
X142112787Y-82320165D01*
X142810631Y-83516709D01*
X142857614Y-83597266D01*
X142874500Y-83659737D01*
X142874500Y-86306981D01*
X142854815Y-86374020D01*
X142802011Y-86419775D01*
X142732853Y-86429719D01*
X142669297Y-86400694D01*
X142631523Y-86341916D01*
X142631234Y-86340915D01*
X142623763Y-86314657D01*
X142623760Y-86314651D01*
X142524635Y-86115580D01*
X142524630Y-86115572D01*
X142508860Y-86094690D01*
X141853553Y-86749999D01*
X141853553Y-86750000D01*
X142508861Y-87405308D01*
X142524631Y-87384425D01*
X142524633Y-87384422D01*
X142623760Y-87185349D01*
X142631233Y-87159085D01*
X142668512Y-87099991D01*
X142731821Y-87070433D01*
X142801061Y-87079794D01*
X142854248Y-87125104D01*
X142874496Y-87191975D01*
X142874500Y-87193018D01*
X142874500Y-88805158D01*
X142854815Y-88872197D01*
X142802011Y-88917952D01*
X142732853Y-88927896D01*
X142669297Y-88898871D01*
X142631523Y-88840093D01*
X142631234Y-88839093D01*
X142627514Y-88826019D01*
X142624229Y-88814472D01*
X142624224Y-88814461D01*
X142525061Y-88615316D01*
X142525056Y-88615308D01*
X142390979Y-88437761D01*
X142226562Y-88287876D01*
X142226560Y-88287874D01*
X142037404Y-88170755D01*
X142037401Y-88170753D01*
X141970521Y-88144843D01*
X141956272Y-88138257D01*
X141931509Y-88124846D01*
X141931508Y-88124845D01*
X141931505Y-88124844D01*
X141901850Y-88113899D01*
X141845774Y-88072220D01*
X141821133Y-88006839D01*
X141835751Y-87938516D01*
X141884987Y-87888942D01*
X141899992Y-87881943D01*
X142037177Y-87828797D01*
X142037181Y-87828795D01*
X142153326Y-87756879D01*
X141496447Y-87100000D01*
X141546078Y-87100000D01*
X141635095Y-87076148D01*
X141714905Y-87030070D01*
X141780070Y-86964905D01*
X141826148Y-86885095D01*
X141850000Y-86796078D01*
X141850000Y-86703922D01*
X141826148Y-86614905D01*
X141780070Y-86535095D01*
X141714905Y-86469930D01*
X141635095Y-86423852D01*
X141546078Y-86400000D01*
X141453922Y-86400000D01*
X141364905Y-86423852D01*
X141285095Y-86469930D01*
X141219930Y-86535095D01*
X141173852Y-86614905D01*
X141150000Y-86703922D01*
X141150000Y-86753553D01*
X140491138Y-86094691D01*
X140491137Y-86094691D01*
X140475368Y-86115574D01*
X140376240Y-86314649D01*
X140315378Y-86528560D01*
X140294859Y-86749999D01*
X140294859Y-86750000D01*
X140305071Y-86860207D01*
X140291656Y-86928777D01*
X140243299Y-86979208D01*
X140175353Y-86995491D01*
X140109390Y-86972454D01*
X140093919Y-86959329D01*
X138877709Y-85743119D01*
X140846671Y-85743119D01*
X141500000Y-86396447D01*
X141500001Y-86396447D01*
X142153327Y-85743119D01*
X142037178Y-85671202D01*
X142037177Y-85671201D01*
X141829804Y-85590865D01*
X141611193Y-85550000D01*
X141388807Y-85550000D01*
X141170195Y-85590865D01*
X140962824Y-85671200D01*
X140962823Y-85671201D01*
X140846671Y-85743119D01*
X138877709Y-85743119D01*
X137661819Y-84527229D01*
X137628334Y-84465906D01*
X137625500Y-84439548D01*
X137625500Y-82672341D01*
X137637478Y-82619172D01*
X137650587Y-82591554D01*
X138142489Y-81555166D01*
X138190489Y-81454036D01*
X138190493Y-81454027D01*
X138190505Y-81454002D01*
X138195837Y-81442391D01*
X138196071Y-81441864D01*
X138210966Y-81401351D01*
X138214958Y-81391758D01*
X138226739Y-81366496D01*
X138285635Y-81146692D01*
X138305468Y-80920000D01*
X138285635Y-80693308D01*
X138226739Y-80473504D01*
X138203112Y-80422838D01*
X138197049Y-80407127D01*
X138190505Y-80385997D01*
X137913874Y-79803165D01*
X137902912Y-79734164D01*
X137913873Y-79696835D01*
X138190505Y-79114002D01*
X138195837Y-79102391D01*
X138196071Y-79101864D01*
X138210966Y-79061351D01*
X138214958Y-79051758D01*
X138226739Y-79026496D01*
X138285635Y-78806692D01*
X138305468Y-78580000D01*
X138285635Y-78353308D01*
X138226739Y-78133504D01*
X138130568Y-77927266D01*
X138000047Y-77740861D01*
X138000045Y-77740858D01*
X137839141Y-77579954D01*
X137652731Y-77449430D01*
X137482372Y-77369990D01*
X137476967Y-77367308D01*
X137464212Y-77360586D01*
X137461197Y-77359512D01*
X137450423Y-77355092D01*
X137446495Y-77353260D01*
X137439831Y-77351475D01*
X137430310Y-77348508D01*
X136249269Y-76927739D01*
X136203202Y-76898611D01*
X136161818Y-76857226D01*
X136128333Y-76795903D01*
X136125500Y-76769546D01*
X136125500Y-69633487D01*
X136145185Y-69566448D01*
X136197989Y-69520693D01*
X136267147Y-69510749D01*
X136320621Y-69531911D01*
X136347266Y-69550568D01*
X136553504Y-69646739D01*
X136773308Y-69705635D01*
X136935230Y-69719801D01*
X136999998Y-69725468D01*
X137000000Y-69725468D01*
X137000002Y-69725468D01*
X137056673Y-69720509D01*
X137226692Y-69705635D01*
X137446496Y-69646739D01*
X137652734Y-69550568D01*
X137839139Y-69420047D01*
X138000047Y-69259139D01*
X138130568Y-69072734D01*
X138210019Y-68902348D01*
X138212684Y-68896977D01*
X138219411Y-68884217D01*
X138220476Y-68881226D01*
X138224906Y-68870425D01*
X138226739Y-68866496D01*
X138228528Y-68859817D01*
X138231485Y-68850323D01*
X138652261Y-67669265D01*
X138681385Y-67623203D01*
X139142771Y-67161819D01*
X139204094Y-67128334D01*
X139230452Y-67125500D01*
X142373237Y-67125500D01*
X142440276Y-67145185D01*
G37*
%TD.AperFunction*%
%TA.AperFunction,Conductor*%
G36*
X147835359Y-81605258D02*
G01*
X147917437Y-81728097D01*
X148021903Y-81832563D01*
X148144742Y-81914641D01*
X148175974Y-81927577D01*
X147450830Y-82652720D01*
X147622546Y-82769793D01*
X147622550Y-82769795D01*
X147858854Y-82883594D01*
X147858858Y-82883595D01*
X148109494Y-82960907D01*
X148109500Y-82960909D01*
X148366547Y-82999652D01*
X148429904Y-83029108D01*
X148467278Y-83088142D01*
X148466803Y-83158010D01*
X148428630Y-83216530D01*
X148403608Y-83233132D01*
X148363619Y-83253165D01*
X148363600Y-83253176D01*
X147969660Y-83494451D01*
X147597637Y-83768348D01*
X147250245Y-84072879D01*
X147035369Y-84296283D01*
X146930009Y-84405824D01*
X146701113Y-84688393D01*
X146639222Y-84764796D01*
X146639217Y-84764802D01*
X146380011Y-85147170D01*
X146154226Y-85550220D01*
X145963528Y-85970986D01*
X145809286Y-86406440D01*
X145809285Y-86406445D01*
X145692618Y-86853424D01*
X145621708Y-87265997D01*
X145590952Y-87328734D01*
X145531161Y-87364883D01*
X145461317Y-87362968D01*
X145403597Y-87323597D01*
X145376325Y-87259270D01*
X145375500Y-87244993D01*
X145375500Y-85560451D01*
X145395185Y-85493412D01*
X145411814Y-85472774D01*
X146398729Y-84485860D01*
X146398733Y-84485858D01*
X146485858Y-84398733D01*
X146554311Y-84296286D01*
X146554312Y-84296285D01*
X146581932Y-84229603D01*
X146601463Y-84182452D01*
X146625500Y-84061606D01*
X146625500Y-81919252D01*
X146645185Y-81852213D01*
X146697989Y-81806458D01*
X146767147Y-81796514D01*
X146830703Y-81825539D01*
X146864928Y-81873950D01*
X146918883Y-82011426D01*
X147050027Y-82238573D01*
X147097874Y-82298571D01*
X147822421Y-81574024D01*
X147835359Y-81605258D01*
G37*
%TD.AperFunction*%
%TA.AperFunction,Conductor*%
G36*
X173442539Y-65520185D02*
G01*
X173488294Y-65572989D01*
X173499500Y-65624500D01*
X173499500Y-85375500D01*
X173479815Y-85442539D01*
X173427011Y-85488294D01*
X173375500Y-85499500D01*
X155889361Y-85499500D01*
X155822322Y-85479815D01*
X155780739Y-85435311D01*
X155640701Y-85180988D01*
X155384282Y-84796719D01*
X155096127Y-84435638D01*
X154778322Y-84100357D01*
X154778319Y-84100354D01*
X154778315Y-84100350D01*
X154490432Y-83844247D01*
X154433168Y-83793304D01*
X154063162Y-83516701D01*
X154063156Y-83516697D01*
X154063147Y-83516691D01*
X153671002Y-83272561D01*
X153670997Y-83272558D01*
X153670984Y-83272550D01*
X153259471Y-83062620D01*
X153259470Y-83062619D01*
X153259467Y-83062618D01*
X152831610Y-82888431D01*
X152816060Y-82883595D01*
X152745824Y-82861751D01*
X152390483Y-82751239D01*
X152291118Y-82729393D01*
X151939287Y-82652040D01*
X151481298Y-82591554D01*
X151481294Y-82591553D01*
X151481291Y-82591553D01*
X151019819Y-82570216D01*
X150558224Y-82588182D01*
X150558211Y-82588183D01*
X150250863Y-82626493D01*
X150099787Y-82645324D01*
X149928146Y-82681749D01*
X149703637Y-82729393D01*
X149633972Y-82724054D01*
X149592016Y-82692311D01*
X149590388Y-82693940D01*
X149578638Y-82682190D01*
X149578252Y-82681898D01*
X149578197Y-82681749D01*
X148824025Y-81927578D01*
X148855258Y-81914641D01*
X148978097Y-81832563D01*
X149082563Y-81728097D01*
X149164641Y-81605258D01*
X149177578Y-81574025D01*
X149902125Y-82298572D01*
X149949971Y-82238573D01*
X150081116Y-82011426D01*
X150176941Y-81767270D01*
X150235306Y-81511550D01*
X150235307Y-81511545D01*
X150254907Y-81250004D01*
X150254907Y-81249995D01*
X150235307Y-80988454D01*
X150235306Y-80988449D01*
X150176941Y-80732729D01*
X150081116Y-80488573D01*
X150081117Y-80488573D01*
X149949972Y-80261426D01*
X149902124Y-80201427D01*
X149177577Y-80925973D01*
X149164641Y-80894742D01*
X149082563Y-80771903D01*
X148978097Y-80667437D01*
X148855258Y-80585359D01*
X148824024Y-80572421D01*
X149549168Y-79847278D01*
X149548778Y-79843114D01*
X149511724Y-79797925D01*
X149503665Y-79728521D01*
X149534408Y-79665779D01*
X149594192Y-79629617D01*
X149625878Y-79625500D01*
X150189548Y-79625500D01*
X150256587Y-79645185D01*
X150277229Y-79661819D01*
X153261016Y-82645606D01*
X153261045Y-82645637D01*
X153351264Y-82735856D01*
X153351267Y-82735858D01*
X153402490Y-82770084D01*
X153453714Y-82804312D01*
X153534207Y-82837652D01*
X153567548Y-82851463D01*
X153581353Y-82854208D01*
X153606610Y-82859233D01*
X153606630Y-82859236D01*
X153606652Y-82859241D01*
X153688391Y-82875499D01*
X153688392Y-82875500D01*
X153688393Y-82875500D01*
X153688394Y-82875500D01*
X159621296Y-82875500D01*
X159646996Y-82878193D01*
X159656092Y-82880120D01*
X159656093Y-82880120D01*
X159656102Y-82880122D01*
X161239150Y-82984718D01*
X161245929Y-82984987D01*
X161266233Y-82985794D01*
X161279795Y-82987081D01*
X161368818Y-83000500D01*
X161368824Y-83000500D01*
X161631182Y-83000500D01*
X161890615Y-82961396D01*
X162141323Y-82884063D01*
X162377704Y-82770228D01*
X162594479Y-82622433D01*
X162786805Y-82443981D01*
X162950386Y-82238857D01*
X163081568Y-82011643D01*
X163177420Y-81767416D01*
X163235802Y-81511630D01*
X163235808Y-81511550D01*
X163255408Y-81250004D01*
X163255408Y-81249995D01*
X164745093Y-81249995D01*
X164745093Y-81250004D01*
X164764692Y-81511545D01*
X164764693Y-81511550D01*
X164823058Y-81767270D01*
X164918883Y-82011426D01*
X164918882Y-82011426D01*
X165050027Y-82238573D01*
X165097874Y-82298571D01*
X165822421Y-81574024D01*
X165835359Y-81605258D01*
X165917437Y-81728097D01*
X166021903Y-81832563D01*
X166144742Y-81914641D01*
X166175974Y-81927577D01*
X165450830Y-82652720D01*
X165622546Y-82769793D01*
X165622550Y-82769795D01*
X165858854Y-82883594D01*
X165858858Y-82883595D01*
X166109494Y-82960907D01*
X166109500Y-82960909D01*
X166368848Y-82999999D01*
X166368857Y-83000000D01*
X166631143Y-83000000D01*
X166631151Y-82999999D01*
X166890499Y-82960909D01*
X166890505Y-82960907D01*
X167141143Y-82883595D01*
X167377445Y-82769798D01*
X167377447Y-82769797D01*
X167549168Y-82652720D01*
X166824025Y-81927578D01*
X166855258Y-81914641D01*
X166978097Y-81832563D01*
X167082563Y-81728097D01*
X167164641Y-81605258D01*
X167177578Y-81574025D01*
X167902125Y-82298572D01*
X167949971Y-82238573D01*
X168081116Y-82011426D01*
X168176941Y-81767270D01*
X168235306Y-81511550D01*
X168235307Y-81511545D01*
X168254907Y-81250004D01*
X168254907Y-81249995D01*
X168235307Y-80988454D01*
X168235306Y-80988449D01*
X168176941Y-80732729D01*
X168081116Y-80488573D01*
X168081117Y-80488573D01*
X167949972Y-80261426D01*
X167902124Y-80201427D01*
X167177577Y-80925973D01*
X167164641Y-80894742D01*
X167082563Y-80771903D01*
X166978097Y-80667437D01*
X166855258Y-80585359D01*
X166824025Y-80572421D01*
X167549168Y-79847278D01*
X167377454Y-79730206D01*
X167377445Y-79730201D01*
X167141142Y-79616404D01*
X167141144Y-79616404D01*
X166890505Y-79539092D01*
X166890499Y-79539090D01*
X166631151Y-79500000D01*
X166368848Y-79500000D01*
X166109500Y-79539090D01*
X166109494Y-79539092D01*
X165858858Y-79616404D01*
X165858854Y-79616405D01*
X165622547Y-79730205D01*
X165622539Y-79730210D01*
X165450830Y-79847277D01*
X166175974Y-80572421D01*
X166144742Y-80585359D01*
X166021903Y-80667437D01*
X165917437Y-80771903D01*
X165835359Y-80894742D01*
X165822422Y-80925974D01*
X165097875Y-80201427D01*
X165097874Y-80201427D01*
X165050028Y-80261425D01*
X164918883Y-80488573D01*
X164823058Y-80732729D01*
X164764693Y-80988449D01*
X164764692Y-80988454D01*
X164745093Y-81249995D01*
X163255408Y-81249995D01*
X163235803Y-80988379D01*
X163235802Y-80988374D01*
X163235802Y-80988370D01*
X163177420Y-80732584D01*
X163081568Y-80488357D01*
X162950386Y-80261143D01*
X162786805Y-80056019D01*
X162786804Y-80056018D01*
X162786801Y-80056014D01*
X162594479Y-79877567D01*
X162558905Y-79853313D01*
X162377704Y-79729772D01*
X162377700Y-79729770D01*
X162377697Y-79729768D01*
X162377696Y-79729767D01*
X162141325Y-79615938D01*
X162141327Y-79615938D01*
X161890620Y-79538605D01*
X161890616Y-79538604D01*
X161890615Y-79538604D01*
X161834291Y-79530113D01*
X161787669Y-79523086D01*
X161774776Y-79520436D01*
X160290970Y-79132359D01*
X160234665Y-79100075D01*
X158062350Y-76927760D01*
X158028865Y-76866437D01*
X158033849Y-76796745D01*
X158041268Y-76780526D01*
X158532353Y-75883950D01*
X158581821Y-75834612D01*
X158650113Y-75819850D01*
X158715546Y-75844352D01*
X158728787Y-75855841D01*
X158750500Y-75877554D01*
X158750505Y-75877558D01*
X158800913Y-75914181D01*
X158897006Y-75983996D01*
X159002484Y-76037740D01*
X159058360Y-76066211D01*
X159058363Y-76066212D01*
X159144476Y-76094191D01*
X159230591Y-76122171D01*
X159313429Y-76135291D01*
X159409449Y-76150500D01*
X159409454Y-76150500D01*
X159590551Y-76150500D01*
X159677259Y-76136765D01*
X159769409Y-76122171D01*
X159941639Y-76066211D01*
X160102994Y-75983996D01*
X160249501Y-75877553D01*
X160377553Y-75749501D01*
X160483996Y-75602994D01*
X160566211Y-75441639D01*
X160622171Y-75269409D01*
X160636765Y-75177259D01*
X160650500Y-75090551D01*
X160650500Y-74909448D01*
X160634019Y-74805397D01*
X160622171Y-74730591D01*
X160566211Y-74558361D01*
X160566211Y-74558360D01*
X160537740Y-74502484D01*
X160483996Y-74397006D01*
X160456850Y-74359642D01*
X160377558Y-74250505D01*
X160377554Y-74250500D01*
X160249499Y-74122445D01*
X160249494Y-74122441D01*
X160102997Y-74016006D01*
X160102996Y-74016005D01*
X160102994Y-74016004D01*
X160051300Y-73989664D01*
X159941639Y-73933788D01*
X159941636Y-73933787D01*
X159769410Y-73877829D01*
X159590551Y-73849500D01*
X159590546Y-73849500D01*
X159409454Y-73849500D01*
X159409449Y-73849500D01*
X159230589Y-73877829D01*
X159058363Y-73933787D01*
X159058360Y-73933788D01*
X158897002Y-74016006D01*
X158750505Y-74122441D01*
X158728784Y-74144161D01*
X158667459Y-74177643D01*
X158597768Y-74172656D01*
X158541836Y-74130782D01*
X158532354Y-74116050D01*
X158041275Y-73219485D01*
X158026336Y-73151234D01*
X158050667Y-73085738D01*
X158062343Y-73072245D01*
X160234669Y-70899920D01*
X160290970Y-70867639D01*
X161774787Y-70479559D01*
X161787660Y-70476914D01*
X161890615Y-70461396D01*
X162141323Y-70384063D01*
X162377704Y-70270228D01*
X162594479Y-70122433D01*
X162786805Y-69943981D01*
X162950386Y-69738857D01*
X163081568Y-69511643D01*
X163177420Y-69267416D01*
X163235802Y-69011630D01*
X163235808Y-69011550D01*
X163255408Y-68750004D01*
X163255408Y-68749995D01*
X163235803Y-68488379D01*
X163235802Y-68488374D01*
X163235802Y-68488373D01*
X163235802Y-68488370D01*
X163177420Y-68232584D01*
X163081568Y-67988357D01*
X162950386Y-67761143D01*
X162786805Y-67556019D01*
X162786804Y-67556018D01*
X162786801Y-67556014D01*
X162660032Y-67438391D01*
X162594479Y-67377567D01*
X162594475Y-67377564D01*
X162556911Y-67351953D01*
X162512609Y-67297924D01*
X162504551Y-67228521D01*
X162535294Y-67165778D01*
X162595077Y-67129617D01*
X162626763Y-67125500D01*
X165374120Y-67125500D01*
X165441159Y-67145185D01*
X165486914Y-67197989D01*
X165496858Y-67267147D01*
X165467833Y-67330703D01*
X165450977Y-67345714D01*
X165450830Y-67347277D01*
X166175974Y-68072421D01*
X166144742Y-68085359D01*
X166021903Y-68167437D01*
X165917437Y-68271903D01*
X165835359Y-68394742D01*
X165822422Y-68425974D01*
X165097875Y-67701427D01*
X165097874Y-67701427D01*
X165050028Y-67761425D01*
X164918883Y-67988573D01*
X164823058Y-68232729D01*
X164764693Y-68488449D01*
X164764692Y-68488454D01*
X164745093Y-68749995D01*
X164745093Y-68750004D01*
X164764692Y-69011545D01*
X164764693Y-69011550D01*
X164823058Y-69267270D01*
X164918883Y-69511426D01*
X164918882Y-69511426D01*
X165050027Y-69738573D01*
X165097874Y-69798571D01*
X165822421Y-69074024D01*
X165835359Y-69105258D01*
X165917437Y-69228097D01*
X166021903Y-69332563D01*
X166144742Y-69414641D01*
X166175974Y-69427577D01*
X165450830Y-70152720D01*
X165622546Y-70269793D01*
X165622550Y-70269795D01*
X165858854Y-70383594D01*
X165858858Y-70383595D01*
X166109494Y-70460907D01*
X166109500Y-70460909D01*
X166368848Y-70499999D01*
X166368857Y-70500000D01*
X166631143Y-70500000D01*
X166631151Y-70499999D01*
X166890499Y-70460909D01*
X166890505Y-70460907D01*
X167141143Y-70383595D01*
X167377445Y-70269798D01*
X167377447Y-70269797D01*
X167549168Y-70152720D01*
X166824025Y-69427578D01*
X166855258Y-69414641D01*
X166978097Y-69332563D01*
X167082563Y-69228097D01*
X167164641Y-69105258D01*
X167177578Y-69074025D01*
X167902125Y-69798572D01*
X167949971Y-69738573D01*
X168081116Y-69511426D01*
X168176941Y-69267270D01*
X168235306Y-69011550D01*
X168235307Y-69011545D01*
X168254907Y-68750004D01*
X168254907Y-68749995D01*
X168235307Y-68488454D01*
X168235306Y-68488449D01*
X168176941Y-68232729D01*
X168081116Y-67988573D01*
X168081117Y-67988573D01*
X167949972Y-67761426D01*
X167902124Y-67701427D01*
X167177577Y-68425973D01*
X167164641Y-68394742D01*
X167082563Y-68271903D01*
X166978097Y-68167437D01*
X166855258Y-68085359D01*
X166824025Y-68072421D01*
X167549168Y-67347278D01*
X167548778Y-67343114D01*
X167511724Y-67297925D01*
X167503665Y-67228521D01*
X167534408Y-67165779D01*
X167594192Y-67129617D01*
X167625878Y-67125500D01*
X168689548Y-67125500D01*
X168756587Y-67145185D01*
X168777229Y-67161819D01*
X169838181Y-68222771D01*
X169871666Y-68284094D01*
X169874500Y-68310452D01*
X169874500Y-72872924D01*
X169866708Y-72916186D01*
X169438819Y-74065554D01*
X169396982Y-74121514D01*
X169331533Y-74145971D01*
X169263251Y-74131161D01*
X169249726Y-74122610D01*
X169102997Y-74016006D01*
X169102996Y-74016005D01*
X169102994Y-74016004D01*
X169051300Y-73989664D01*
X168941639Y-73933788D01*
X168941636Y-73933787D01*
X168769410Y-73877829D01*
X168590551Y-73849500D01*
X168590546Y-73849500D01*
X168409454Y-73849500D01*
X168409449Y-73849500D01*
X168230589Y-73877829D01*
X168058363Y-73933787D01*
X168058360Y-73933788D01*
X167897002Y-74016006D01*
X167750505Y-74122441D01*
X167750500Y-74122445D01*
X167622445Y-74250500D01*
X167622441Y-74250505D01*
X167516006Y-74397002D01*
X167433788Y-74558360D01*
X167433787Y-74558363D01*
X167377829Y-74730589D01*
X167349500Y-74909448D01*
X167349500Y-75090551D01*
X167377829Y-75269410D01*
X167433787Y-75441636D01*
X167433788Y-75441639D01*
X167516006Y-75602997D01*
X167622441Y-75749494D01*
X167622445Y-75749499D01*
X167750500Y-75877554D01*
X167750505Y-75877558D01*
X167800913Y-75914181D01*
X167897006Y-75983996D01*
X168002484Y-76037740D01*
X168058360Y-76066211D01*
X168058363Y-76066212D01*
X168144476Y-76094191D01*
X168230591Y-76122171D01*
X168313429Y-76135291D01*
X168409449Y-76150500D01*
X168409454Y-76150500D01*
X168590551Y-76150500D01*
X168677259Y-76136765D01*
X168769409Y-76122171D01*
X168941639Y-76066211D01*
X169102994Y-75983996D01*
X169249501Y-75877553D01*
X169274561Y-75852492D01*
X169335880Y-75819009D01*
X169405572Y-75823992D01*
X169461506Y-75865863D01*
X169467967Y-75875384D01*
X169491742Y-75914181D01*
X169551368Y-75983993D01*
X169650241Y-76099759D01*
X169793897Y-76222453D01*
X169835823Y-76258261D01*
X169835826Y-76258262D01*
X170043910Y-76385777D01*
X170269381Y-76479169D01*
X170269378Y-76479169D01*
X170269384Y-76479170D01*
X170269388Y-76479172D01*
X170506698Y-76536146D01*
X170750000Y-76555294D01*
X170993302Y-76536146D01*
X171230612Y-76479172D01*
X171456089Y-76385777D01*
X171664179Y-76258259D01*
X171849759Y-76099759D01*
X172008259Y-75914179D01*
X172135777Y-75706089D01*
X172229172Y-75480612D01*
X172286146Y-75243302D01*
X172305294Y-75000000D01*
X172286146Y-74756698D01*
X172229172Y-74519388D01*
X172229169Y-74519380D01*
X172135777Y-74293910D01*
X172008260Y-74085823D01*
X172008257Y-74085818D01*
X171942725Y-74009090D01*
X171907660Y-73968034D01*
X171899875Y-73957905D01*
X171883242Y-73933788D01*
X171877095Y-73924875D01*
X171147422Y-72866854D01*
X171125566Y-72800491D01*
X171125500Y-72796455D01*
X171125500Y-67938396D01*
X171125499Y-67938388D01*
X171124896Y-67935358D01*
X171124892Y-67935341D01*
X171101463Y-67817549D01*
X171092608Y-67796172D01*
X171054311Y-67703714D01*
X171054309Y-67703711D01*
X171054307Y-67703707D01*
X170985859Y-67601268D01*
X170946198Y-67561607D01*
X170898733Y-67514142D01*
X170898732Y-67514141D01*
X169492927Y-66108337D01*
X169492925Y-66108334D01*
X169492925Y-66108335D01*
X169485858Y-66101268D01*
X169485858Y-66101267D01*
X169398733Y-66014142D01*
X169398732Y-66014141D01*
X169398731Y-66014140D01*
X169347509Y-65979915D01*
X169296287Y-65945689D01*
X169296286Y-65945688D01*
X169296283Y-65945686D01*
X169296280Y-65945685D01*
X169215792Y-65912347D01*
X169182453Y-65898537D01*
X169172427Y-65896543D01*
X169122029Y-65886518D01*
X169061610Y-65874500D01*
X169061607Y-65874500D01*
X169061606Y-65874500D01*
X158481606Y-65874500D01*
X158358393Y-65874500D01*
X158358389Y-65874500D01*
X158297971Y-65886518D01*
X158254743Y-65895116D01*
X158237546Y-65898537D01*
X158155673Y-65932451D01*
X158123715Y-65945687D01*
X158021265Y-66014142D01*
X158021262Y-66014145D01*
X155796798Y-68238610D01*
X155750732Y-68267737D01*
X154569683Y-68688509D01*
X154560172Y-68691473D01*
X154553510Y-68693258D01*
X154553505Y-68693260D01*
X154549565Y-68695097D01*
X154538820Y-68699505D01*
X154535703Y-68700616D01*
X154523761Y-68705041D01*
X154523240Y-68705242D01*
X154523228Y-68705246D01*
X154463121Y-68733042D01*
X154457574Y-68736347D01*
X154457461Y-68736158D01*
X154443133Y-68744726D01*
X154347271Y-68789428D01*
X154347264Y-68789432D01*
X154160858Y-68919954D01*
X153999954Y-69080858D01*
X153869432Y-69267265D01*
X153869431Y-69267267D01*
X153773261Y-69473502D01*
X153773258Y-69473511D01*
X153714366Y-69693302D01*
X153714364Y-69693313D01*
X153694532Y-69919998D01*
X153694532Y-69920001D01*
X153714364Y-70146686D01*
X153714366Y-70146697D01*
X153773258Y-70366488D01*
X153773261Y-70366497D01*
X153869431Y-70572732D01*
X153869432Y-70572734D01*
X153999954Y-70759141D01*
X154160858Y-70920045D01*
X154160861Y-70920047D01*
X154347266Y-71050568D01*
X154553504Y-71146739D01*
X154773308Y-71205635D01*
X154935230Y-71219801D01*
X154999998Y-71225468D01*
X155000000Y-71225468D01*
X155000002Y-71225468D01*
X155056673Y-71220509D01*
X155226692Y-71205635D01*
X155446496Y-71146739D01*
X155652734Y-71050568D01*
X155839139Y-70920047D01*
X156000047Y-70759139D01*
X156130568Y-70572734D01*
X156210019Y-70402348D01*
X156212684Y-70396977D01*
X156219411Y-70384217D01*
X156220476Y-70381226D01*
X156224906Y-70370425D01*
X156226739Y-70366496D01*
X156228528Y-70359817D01*
X156231485Y-70350323D01*
X156652261Y-69169266D01*
X156681385Y-69123204D01*
X158642772Y-67161819D01*
X158704095Y-67128334D01*
X158730453Y-67125500D01*
X160373237Y-67125500D01*
X160440276Y-67145185D01*
X160486031Y-67197989D01*
X160495975Y-67267147D01*
X160466950Y-67330703D01*
X160443089Y-67351953D01*
X160405524Y-67377564D01*
X160213198Y-67556014D01*
X160049614Y-67761143D01*
X159918432Y-67988356D01*
X159822582Y-68232578D01*
X159822576Y-68232597D01*
X159775605Y-68438391D01*
X159764198Y-68488370D01*
X159764192Y-68488449D01*
X159759550Y-68550380D01*
X159755652Y-68573277D01*
X159383631Y-69958335D01*
X159351557Y-70013850D01*
X156851269Y-72514139D01*
X156851263Y-72514145D01*
X156836473Y-72528933D01*
X156832630Y-72532614D01*
X156828391Y-72536502D01*
X156826253Y-72538890D01*
X156821578Y-72543828D01*
X156764147Y-72601261D01*
X156764143Y-72601265D01*
X156764142Y-72601267D01*
X156729915Y-72652490D01*
X156729914Y-72652492D01*
X156729913Y-72652491D01*
X156695690Y-72703708D01*
X156695689Y-72703710D01*
X156676019Y-72751199D01*
X156648538Y-72817543D01*
X156647947Y-72820515D01*
X156635777Y-72854608D01*
X155904393Y-74227925D01*
X155900674Y-74234425D01*
X155864228Y-74293901D01*
X155864222Y-74293912D01*
X155864059Y-74294307D01*
X155863956Y-74294433D01*
X155862013Y-74298249D01*
X155861211Y-74297840D01*
X155820216Y-74348708D01*
X155753920Y-74370770D01*
X155686222Y-74353488D01*
X155638614Y-74302349D01*
X155625500Y-74246849D01*
X155625500Y-73688393D01*
X155625499Y-73688389D01*
X155601463Y-73567548D01*
X155567625Y-73485857D01*
X155554312Y-73453715D01*
X155537256Y-73428190D01*
X155485858Y-73351267D01*
X155485856Y-73351264D01*
X155395637Y-73261045D01*
X155395606Y-73261016D01*
X151911819Y-69777229D01*
X151878334Y-69715906D01*
X151875500Y-69689548D01*
X151875500Y-68438391D01*
X151870920Y-68415371D01*
X151870920Y-68415366D01*
X151851464Y-68317556D01*
X151851463Y-68317549D01*
X151840100Y-68290117D01*
X151804311Y-68203714D01*
X151804309Y-68203711D01*
X151804307Y-68203707D01*
X151735858Y-68101267D01*
X151735855Y-68101263D01*
X151645637Y-68011045D01*
X151645606Y-68011016D01*
X149346771Y-65712181D01*
X149313286Y-65650858D01*
X149318270Y-65581166D01*
X149360142Y-65525233D01*
X149425606Y-65500816D01*
X149434452Y-65500500D01*
X173375500Y-65500500D01*
X173442539Y-65520185D01*
G37*
%TD.AperFunction*%
%TA.AperFunction,Conductor*%
G36*
X145311768Y-69312812D02*
G01*
X145360327Y-69363049D01*
X145374500Y-69420618D01*
X145374500Y-70561610D01*
X145398535Y-70682444D01*
X145398538Y-70682454D01*
X145409578Y-70709107D01*
X145409578Y-70709108D01*
X145445685Y-70796281D01*
X145445687Y-70796285D01*
X145457941Y-70814623D01*
X145457942Y-70814625D01*
X145514141Y-70898732D01*
X145514144Y-70898736D01*
X145605586Y-70990178D01*
X145605608Y-70990198D01*
X148011016Y-73395606D01*
X148011045Y-73395637D01*
X148101264Y-73485856D01*
X148101267Y-73485858D01*
X148178190Y-73537256D01*
X148203710Y-73554309D01*
X148203712Y-73554310D01*
X148203715Y-73554312D01*
X148270396Y-73581931D01*
X148270398Y-73581933D01*
X148310640Y-73598601D01*
X148317548Y-73601463D01*
X148377971Y-73613481D01*
X148438393Y-73625500D01*
X148438394Y-73625500D01*
X150248165Y-73625500D01*
X150315204Y-73645185D01*
X150360959Y-73697989D01*
X150370903Y-73767147D01*
X150341878Y-73830703D01*
X150283100Y-73868477D01*
X150267563Y-73871973D01*
X150230589Y-73877829D01*
X150058363Y-73933787D01*
X150058360Y-73933788D01*
X149897002Y-74016006D01*
X149750505Y-74122441D01*
X149750500Y-74122445D01*
X149622445Y-74250500D01*
X149622441Y-74250505D01*
X149516006Y-74397002D01*
X149433788Y-74558360D01*
X149433787Y-74558363D01*
X149377829Y-74730589D01*
X149349500Y-74909448D01*
X149349500Y-75090551D01*
X149377829Y-75269410D01*
X149433787Y-75441636D01*
X149433788Y-75441639D01*
X149516006Y-75602997D01*
X149622441Y-75749494D01*
X149622445Y-75749499D01*
X149750500Y-75877554D01*
X149750505Y-75877558D01*
X149800913Y-75914181D01*
X149897006Y-75983996D01*
X150002484Y-76037740D01*
X150058360Y-76066211D01*
X150058363Y-76066212D01*
X150144476Y-76094191D01*
X150230591Y-76122171D01*
X150313429Y-76135291D01*
X150409449Y-76150500D01*
X150409454Y-76150500D01*
X150590551Y-76150500D01*
X150677259Y-76136765D01*
X150769409Y-76122171D01*
X150941639Y-76066211D01*
X151102994Y-75983996D01*
X151249501Y-75877553D01*
X151274561Y-75852492D01*
X151335880Y-75819009D01*
X151405572Y-75823992D01*
X151461506Y-75865863D01*
X151467967Y-75875384D01*
X151491742Y-75914181D01*
X151551368Y-75983993D01*
X151650241Y-76099759D01*
X151793897Y-76222453D01*
X151835823Y-76258261D01*
X151835826Y-76258262D01*
X152043910Y-76385777D01*
X152269381Y-76479169D01*
X152269378Y-76479169D01*
X152269384Y-76479170D01*
X152269388Y-76479172D01*
X152506698Y-76536146D01*
X152750000Y-76555294D01*
X152993302Y-76536146D01*
X153230612Y-76479172D01*
X153456089Y-76385777D01*
X153664179Y-76258259D01*
X153849759Y-76099759D01*
X154008259Y-75914179D01*
X154115248Y-75739590D01*
X154135776Y-75706091D01*
X154135936Y-75705705D01*
X154136037Y-75705579D01*
X154137991Y-75701745D01*
X154138796Y-75702155D01*
X154179774Y-75651299D01*
X154246067Y-75629230D01*
X154313767Y-75646506D01*
X154361381Y-75697640D01*
X154374500Y-75753151D01*
X154374500Y-78327655D01*
X154362522Y-78380824D01*
X153809489Y-79546005D01*
X153803855Y-79558296D01*
X153803621Y-79558825D01*
X153803619Y-79558829D01*
X153788968Y-79598765D01*
X153784941Y-79608453D01*
X153773260Y-79633504D01*
X153714366Y-79853302D01*
X153714364Y-79853313D01*
X153694532Y-80079998D01*
X153694532Y-80080001D01*
X153714364Y-80306686D01*
X153714366Y-80306697D01*
X153773258Y-80526488D01*
X153773261Y-80526497D01*
X153869431Y-80732732D01*
X153869432Y-80732734D01*
X153999954Y-80919141D01*
X154160858Y-81080045D01*
X154160861Y-81080047D01*
X154347266Y-81210568D01*
X154553504Y-81306739D01*
X154773308Y-81365635D01*
X154893894Y-81376184D01*
X154902890Y-81376972D01*
X154967959Y-81402424D01*
X155001043Y-81448113D01*
X155014204Y-81419297D01*
X155072982Y-81381523D01*
X155097110Y-81376972D01*
X155104694Y-81376308D01*
X155226692Y-81365635D01*
X155446496Y-81306739D01*
X155652734Y-81210568D01*
X155839139Y-81080047D01*
X156000047Y-80919139D01*
X156130568Y-80732734D01*
X156226739Y-80526496D01*
X156285635Y-80306692D01*
X156305468Y-80080000D01*
X156303369Y-80056014D01*
X156287757Y-79877567D01*
X156285635Y-79853308D01*
X156226739Y-79633504D01*
X156203112Y-79582838D01*
X156197049Y-79567127D01*
X156190505Y-79545997D01*
X155742108Y-78601270D01*
X155637478Y-78380825D01*
X155625500Y-78327656D01*
X155625500Y-75753150D01*
X155645185Y-75686111D01*
X155697989Y-75640356D01*
X155767147Y-75630412D01*
X155830703Y-75659437D01*
X155861429Y-75702048D01*
X155862013Y-75701751D01*
X155863935Y-75705525D01*
X155864062Y-75705700D01*
X155864222Y-75706087D01*
X155864226Y-75706095D01*
X155900672Y-75765569D01*
X155904392Y-75772071D01*
X156635776Y-77145389D01*
X156647943Y-77179471D01*
X156648534Y-77182443D01*
X156648537Y-77182451D01*
X156662347Y-77215791D01*
X156662347Y-77215793D01*
X156695685Y-77296281D01*
X156695687Y-77296284D01*
X156695688Y-77296286D01*
X156729852Y-77347415D01*
X156729853Y-77347417D01*
X156764138Y-77398728D01*
X156764139Y-77398729D01*
X156764142Y-77398733D01*
X156851267Y-77485858D01*
X156851269Y-77485859D01*
X156858335Y-77492925D01*
X156858334Y-77492925D01*
X156858338Y-77492928D01*
X159351558Y-79986149D01*
X159383632Y-80041664D01*
X159640019Y-80996211D01*
X159638399Y-81066062D01*
X159631322Y-81083532D01*
X159396850Y-81555655D01*
X159349401Y-81606942D01*
X159285792Y-81624500D01*
X155107917Y-81624500D01*
X155040878Y-81604815D01*
X154997857Y-81555166D01*
X154978362Y-81589561D01*
X154916515Y-81622069D01*
X154892083Y-81624500D01*
X154060452Y-81624500D01*
X153993413Y-81604815D01*
X153972771Y-81588181D01*
X150990198Y-78605608D01*
X150990178Y-78605586D01*
X150898733Y-78514141D01*
X150847509Y-78479915D01*
X150806374Y-78452429D01*
X150796286Y-78445688D01*
X150796283Y-78445686D01*
X150796280Y-78445685D01*
X150715792Y-78412347D01*
X150682452Y-78398537D01*
X150682453Y-78398537D01*
X150669018Y-78395864D01*
X150614908Y-78385102D01*
X150588257Y-78379801D01*
X150561608Y-78374500D01*
X150561607Y-78374500D01*
X150561606Y-78374500D01*
X147311607Y-78374500D01*
X147188393Y-78374500D01*
X147188392Y-78374500D01*
X147161742Y-78379801D01*
X147135092Y-78385102D01*
X147080982Y-78395864D01*
X147067547Y-78398537D01*
X147034208Y-78412347D01*
X147028687Y-78414634D01*
X146993341Y-78429274D01*
X146953711Y-78445689D01*
X146943627Y-78452428D01*
X146943626Y-78452429D01*
X146851268Y-78514140D01*
X146807705Y-78557703D01*
X146764142Y-78601267D01*
X145514143Y-79851265D01*
X145514142Y-79851267D01*
X145504542Y-79865635D01*
X145504540Y-79865638D01*
X145504539Y-79865637D01*
X145445687Y-79953715D01*
X145432253Y-79986149D01*
X145418439Y-80019500D01*
X145398538Y-80067544D01*
X145398535Y-80067556D01*
X145374500Y-80188389D01*
X145374500Y-80579381D01*
X145354815Y-80646420D01*
X145302011Y-80692175D01*
X145232853Y-80702119D01*
X145169297Y-80673094D01*
X145135072Y-80624683D01*
X145097449Y-80528822D01*
X145081568Y-80488357D01*
X144950386Y-80261143D01*
X144786805Y-80056019D01*
X144786804Y-80056018D01*
X144786801Y-80056014D01*
X144594479Y-79877567D01*
X144558905Y-79853313D01*
X144377704Y-79729772D01*
X144377700Y-79729770D01*
X144377697Y-79729768D01*
X144377696Y-79729767D01*
X144141325Y-79615938D01*
X144141327Y-79615938D01*
X143890620Y-79538605D01*
X143890616Y-79538604D01*
X143890615Y-79538604D01*
X143834291Y-79530113D01*
X143787669Y-79523086D01*
X143774776Y-79520436D01*
X142290970Y-79132359D01*
X142234665Y-79100075D01*
X140062350Y-76927760D01*
X140028865Y-76866437D01*
X140033849Y-76796745D01*
X140041268Y-76780526D01*
X140532353Y-75883950D01*
X140581821Y-75834612D01*
X140650113Y-75819850D01*
X140715546Y-75844352D01*
X140728787Y-75855841D01*
X140750500Y-75877554D01*
X140750505Y-75877558D01*
X140800913Y-75914181D01*
X140897006Y-75983996D01*
X141002484Y-76037740D01*
X141058360Y-76066211D01*
X141058363Y-76066212D01*
X141144476Y-76094191D01*
X141230591Y-76122171D01*
X141313429Y-76135291D01*
X141409449Y-76150500D01*
X141409454Y-76150500D01*
X141590551Y-76150500D01*
X141677259Y-76136765D01*
X141769409Y-76122171D01*
X141941639Y-76066211D01*
X142102994Y-75983996D01*
X142249501Y-75877553D01*
X142377553Y-75749501D01*
X142483996Y-75602994D01*
X142566211Y-75441639D01*
X142622171Y-75269409D01*
X142636765Y-75177259D01*
X142650500Y-75090551D01*
X142650500Y-74909448D01*
X142634019Y-74805397D01*
X142622171Y-74730591D01*
X142566211Y-74558361D01*
X142566211Y-74558360D01*
X142537740Y-74502484D01*
X142483996Y-74397006D01*
X142456850Y-74359642D01*
X142377558Y-74250505D01*
X142377554Y-74250500D01*
X142249499Y-74122445D01*
X142249494Y-74122441D01*
X142102997Y-74016006D01*
X142102996Y-74016005D01*
X142102994Y-74016004D01*
X142051300Y-73989664D01*
X141941639Y-73933788D01*
X141941636Y-73933787D01*
X141769410Y-73877829D01*
X141590551Y-73849500D01*
X141590546Y-73849500D01*
X141409454Y-73849500D01*
X141409449Y-73849500D01*
X141230589Y-73877829D01*
X141058363Y-73933787D01*
X141058360Y-73933788D01*
X140897002Y-74016006D01*
X140750505Y-74122441D01*
X140728784Y-74144161D01*
X140667459Y-74177643D01*
X140597768Y-74172656D01*
X140541836Y-74130782D01*
X140532354Y-74116050D01*
X140041275Y-73219485D01*
X140026336Y-73151234D01*
X140050667Y-73085738D01*
X140062343Y-73072245D01*
X142234669Y-70899920D01*
X142290970Y-70867639D01*
X143774787Y-70479559D01*
X143787660Y-70476914D01*
X143890615Y-70461396D01*
X144141323Y-70384063D01*
X144377704Y-70270228D01*
X144594479Y-70122433D01*
X144786805Y-69943981D01*
X144950386Y-69738857D01*
X145081568Y-69511643D01*
X145135072Y-69375314D01*
X145177887Y-69320102D01*
X145243757Y-69296801D01*
X145311768Y-69312812D01*
G37*
%TD.AperFunction*%
%TA.AperFunction,Conductor*%
G36*
X150448300Y-68584761D02*
G01*
X150462010Y-68596600D01*
X150588181Y-68722771D01*
X150621666Y-68784094D01*
X150624500Y-68810452D01*
X150624500Y-70061611D01*
X150648535Y-70182444D01*
X150648540Y-70182461D01*
X150695685Y-70296280D01*
X150695686Y-70296282D01*
X150695688Y-70296286D01*
X150712536Y-70321501D01*
X150729270Y-70346545D01*
X150729272Y-70346547D01*
X150764141Y-70398732D01*
X150764144Y-70398736D01*
X150855586Y-70490178D01*
X150855608Y-70490198D01*
X154338181Y-73972771D01*
X154371666Y-74034094D01*
X154374500Y-74060452D01*
X154374500Y-74246848D01*
X154354815Y-74313887D01*
X154302011Y-74359642D01*
X154232853Y-74369586D01*
X154169297Y-74340561D01*
X154138575Y-74297957D01*
X154137991Y-74298255D01*
X154136065Y-74294475D01*
X154135940Y-74294302D01*
X154135780Y-74293916D01*
X154135777Y-74293911D01*
X154008262Y-74085826D01*
X154008261Y-74085823D01*
X153947211Y-74014343D01*
X153849759Y-73900241D01*
X153849755Y-73900238D01*
X153849753Y-73900235D01*
X153802503Y-73859881D01*
X153793607Y-73851490D01*
X153793026Y-73850885D01*
X153793019Y-73850879D01*
X153782960Y-73843030D01*
X153778710Y-73839560D01*
X153693925Y-73767147D01*
X153664179Y-73741741D01*
X153618827Y-73713949D01*
X153607338Y-73705984D01*
X153584795Y-73688393D01*
X152408717Y-72770643D01*
X152402352Y-72765906D01*
X152388701Y-72754111D01*
X152242928Y-72608338D01*
X152242925Y-72608334D01*
X152242925Y-72608335D01*
X152235858Y-72601268D01*
X152235858Y-72601267D01*
X152148733Y-72514142D01*
X152148732Y-72514141D01*
X152148731Y-72514140D01*
X152096397Y-72479172D01*
X152046286Y-72445688D01*
X151965792Y-72412347D01*
X151932452Y-72398537D01*
X151932448Y-72398536D01*
X151932444Y-72398535D01*
X151846139Y-72381368D01*
X151846138Y-72381368D01*
X151811611Y-72374500D01*
X151811607Y-72374500D01*
X151811606Y-72374500D01*
X148810452Y-72374500D01*
X148743413Y-72354815D01*
X148722771Y-72338181D01*
X146661819Y-70277229D01*
X146628334Y-70215906D01*
X146625500Y-70189548D01*
X146625500Y-69419252D01*
X146645185Y-69352213D01*
X146697989Y-69306458D01*
X146767147Y-69296514D01*
X146830703Y-69325539D01*
X146864928Y-69373950D01*
X146918883Y-69511426D01*
X147050027Y-69738573D01*
X147097874Y-69798571D01*
X147822421Y-69074024D01*
X147835359Y-69105258D01*
X147917437Y-69228097D01*
X148021903Y-69332563D01*
X148144742Y-69414641D01*
X148175974Y-69427577D01*
X147450830Y-70152720D01*
X147622546Y-70269793D01*
X147622550Y-70269795D01*
X147858854Y-70383594D01*
X147858858Y-70383595D01*
X148109494Y-70460907D01*
X148109500Y-70460909D01*
X148368848Y-70499999D01*
X148368857Y-70500000D01*
X148631143Y-70500000D01*
X148631151Y-70499999D01*
X148890499Y-70460909D01*
X148890505Y-70460907D01*
X149141143Y-70383595D01*
X149377445Y-70269798D01*
X149377447Y-70269797D01*
X149549168Y-70152720D01*
X148824025Y-69427578D01*
X148855258Y-69414641D01*
X148978097Y-69332563D01*
X149082563Y-69228097D01*
X149164641Y-69105258D01*
X149177578Y-69074025D01*
X149902125Y-69798572D01*
X149949971Y-69738573D01*
X150081116Y-69511426D01*
X150176941Y-69267270D01*
X150235306Y-69011550D01*
X150235307Y-69011545D01*
X150254907Y-68750004D01*
X150254907Y-68749998D01*
X150250676Y-68693549D01*
X150265295Y-68625226D01*
X150314531Y-68575652D01*
X150382753Y-68560567D01*
X150448300Y-68584761D01*
G37*
%TD.AperFunction*%
%TA.AperFunction,Conductor*%
G36*
X148256587Y-66395185D02*
G01*
X148277229Y-66411819D01*
X148653729Y-66788319D01*
X148687214Y-66849642D01*
X148682230Y-66919334D01*
X148640358Y-66975267D01*
X148574894Y-66999684D01*
X148566048Y-67000000D01*
X148368848Y-67000000D01*
X148109500Y-67039090D01*
X148109494Y-67039092D01*
X147858858Y-67116404D01*
X147858854Y-67116405D01*
X147622547Y-67230205D01*
X147622539Y-67230210D01*
X147450830Y-67347277D01*
X148175974Y-68072421D01*
X148144742Y-68085359D01*
X148021903Y-68167437D01*
X147917437Y-68271903D01*
X147835359Y-68394742D01*
X147822422Y-68425974D01*
X147097875Y-67701427D01*
X147097874Y-67701427D01*
X147050028Y-67761425D01*
X146918883Y-67988573D01*
X146864928Y-68126049D01*
X146822112Y-68181263D01*
X146756242Y-68204564D01*
X146688232Y-68188553D01*
X146639673Y-68138315D01*
X146625500Y-68080747D01*
X146625500Y-67567741D01*
X146625501Y-67567720D01*
X146625501Y-67438391D01*
X146607377Y-67347278D01*
X146603147Y-67326014D01*
X146601463Y-67317548D01*
X146565105Y-67229772D01*
X146554312Y-67203715D01*
X146554311Y-67203713D01*
X146554310Y-67203711D01*
X146485858Y-67101267D01*
X146485855Y-67101263D01*
X145971772Y-66587181D01*
X145938287Y-66525858D01*
X145943271Y-66456167D01*
X145985142Y-66400233D01*
X146050607Y-66375816D01*
X146059453Y-66375500D01*
X148189548Y-66375500D01*
X148256587Y-66395185D01*
G37*
%TD.AperFunction*%
%TD*%
%TA.AperFunction,Conductor*%
%TO.N,Net-(C1-Pad2)*%
G36*
X164621798Y-100386938D02*
G01*
X164621998Y-100387392D01*
X164999136Y-101295513D01*
X164999145Y-101304467D01*
X164999136Y-101304487D01*
X164622238Y-102212028D01*
X164615900Y-102218355D01*
X164606946Y-102218346D01*
X164605969Y-102217887D01*
X163016182Y-101378293D01*
X163010467Y-101371399D01*
X163009946Y-101367947D01*
X163009946Y-101132455D01*
X163013373Y-101124182D01*
X163016700Y-101121852D01*
X164606254Y-100381273D01*
X164615198Y-100380886D01*
X164621798Y-100386938D01*
G37*
%TD.AperFunction*%
%TD*%
%TA.AperFunction,Conductor*%
%TO.N,Net-(C1-Pad2)*%
G36*
X142565385Y-107447276D02*
G01*
X142566246Y-107448056D01*
X142732352Y-107614162D01*
X142735779Y-107622435D01*
X142733842Y-107628883D01*
X142152029Y-108509832D01*
X142144610Y-108514847D01*
X142137803Y-108514199D01*
X141506537Y-108253696D01*
X141500197Y-108247373D01*
X141499300Y-108242873D01*
X141499989Y-107560579D01*
X141503424Y-107552311D01*
X141510526Y-107548950D01*
X142556814Y-107444687D01*
X142565385Y-107447276D01*
G37*
%TD.AperFunction*%
%TD*%
%TA.AperFunction,Conductor*%
%TO.N,Net-(U1-PB0)*%
G36*
X164008325Y-92811913D02*
G01*
X164991484Y-93691046D01*
X164995367Y-93699115D01*
X164992407Y-93707567D01*
X164991958Y-93708041D01*
X164007625Y-94692374D01*
X163999352Y-94695801D01*
X163991779Y-94693019D01*
X163176621Y-94000829D01*
X163175921Y-94000184D01*
X163007676Y-93831939D01*
X163004249Y-93823666D01*
X163007597Y-93815473D01*
X163992177Y-92812438D01*
X164000417Y-92808936D01*
X164008325Y-92811913D01*
G37*
%TD.AperFunction*%
%TD*%
%TA.AperFunction,Conductor*%
%TO.N,Net-(C1-Pad1)*%
G36*
X141778508Y-105108192D02*
G01*
X141778902Y-105108364D01*
X142893198Y-105621865D01*
X142899276Y-105628439D01*
X142900000Y-105632490D01*
X142900000Y-105867509D01*
X142896573Y-105875782D01*
X142893197Y-105878135D01*
X141778913Y-106391630D01*
X141769965Y-106391980D01*
X141763390Y-106385901D01*
X141763213Y-106385496D01*
X141552273Y-105878135D01*
X141500866Y-105754490D01*
X141500855Y-105745538D01*
X141763214Y-105114501D01*
X141769553Y-105108180D01*
X141778508Y-105108192D01*
G37*
%TD.AperFunction*%
%TD*%
%TA.AperFunction,Conductor*%
%TO.N,Net-(SW3-A)*%
G36*
X152756237Y-120004834D02*
G01*
X153484850Y-120734835D01*
X153488269Y-120743111D01*
X153485487Y-120750674D01*
X152419635Y-122005682D01*
X152411667Y-122009769D01*
X152403143Y-122007026D01*
X152402444Y-122006381D01*
X152236663Y-121840600D01*
X152233781Y-121835857D01*
X151890334Y-120750674D01*
X151783163Y-120412045D01*
X151783934Y-120403125D01*
X151789836Y-120397708D01*
X152743476Y-120002290D01*
X152752429Y-120002288D01*
X152756237Y-120004834D01*
G37*
%TD.AperFunction*%
%TD*%
%TA.AperFunction,Conductor*%
%TO.N,Net-(SW2-A)*%
G36*
X138044956Y-67203175D02*
G01*
X138048212Y-67205472D01*
X138214527Y-67371787D01*
X138217954Y-67380060D01*
X138217275Y-67383987D01*
X137743229Y-68714568D01*
X137737225Y-68721211D01*
X137728281Y-68721662D01*
X137727743Y-68721456D01*
X137003787Y-68422562D01*
X136997448Y-68416237D01*
X136997437Y-68416212D01*
X136698543Y-67692256D01*
X136698554Y-67683301D01*
X136704893Y-67676976D01*
X136705389Y-67676785D01*
X138036014Y-67202724D01*
X138044956Y-67203175D01*
G37*
%TD.AperFunction*%
%TD*%
%TA.AperFunction,Conductor*%
%TO.N,Net-(SW2-A)*%
G36*
X152097732Y-73169164D02*
G01*
X153482040Y-74249405D01*
X153486454Y-74257196D01*
X153484066Y-74265827D01*
X153483123Y-74266894D01*
X152754138Y-74997268D01*
X152745868Y-75000703D01*
X152745849Y-75000703D01*
X151713285Y-75000008D01*
X151705014Y-74996576D01*
X151701593Y-74988300D01*
X151701686Y-74986836D01*
X151912292Y-73343537D01*
X151915623Y-73336753D01*
X152082262Y-73170114D01*
X152090534Y-73166688D01*
X152097732Y-73169164D01*
G37*
%TD.AperFunction*%
%TD*%
%TA.AperFunction,Conductor*%
%TO.N,Net-(BT1-+)*%
G36*
X135963982Y-77362723D02*
G01*
X137294569Y-77836771D01*
X137301211Y-77842774D01*
X137301662Y-77851718D01*
X137301456Y-77852256D01*
X137002562Y-78576212D01*
X136996237Y-78582551D01*
X136996212Y-78582562D01*
X136272256Y-78881456D01*
X136263301Y-78881445D01*
X136256976Y-78875106D01*
X136256780Y-78874596D01*
X135782724Y-77543984D01*
X135783175Y-77535043D01*
X135785469Y-77531790D01*
X135951788Y-77365471D01*
X135960060Y-77362045D01*
X135963982Y-77362723D01*
G37*
%TD.AperFunction*%
%TD*%
%TA.AperFunction,Conductor*%
%TO.N,Net-(BT1-+)*%
G36*
X155125875Y-78483427D02*
G01*
X155128172Y-78486683D01*
X155733833Y-79762748D01*
X155734284Y-79771692D01*
X155728280Y-79778335D01*
X155727753Y-79778569D01*
X155004490Y-80079134D01*
X154995536Y-80079144D01*
X154995510Y-80079134D01*
X154272246Y-79778569D01*
X154265921Y-79772230D01*
X154265932Y-79763275D01*
X154266154Y-79762773D01*
X154871828Y-78486682D01*
X154878471Y-78480679D01*
X154882398Y-78480000D01*
X155117602Y-78480000D01*
X155125875Y-78483427D01*
G37*
%TD.AperFunction*%
%TD*%
%TA.AperFunction,Conductor*%
%TO.N,Net-(SW3-A)*%
G36*
X137656690Y-116691898D02*
G01*
X137727753Y-116721430D01*
X137734078Y-116727769D01*
X137734067Y-116736724D01*
X137733833Y-116737251D01*
X137128172Y-118013317D01*
X137121529Y-118019321D01*
X137117602Y-118020000D01*
X136882398Y-118020000D01*
X136874125Y-118016573D01*
X136871828Y-118013317D01*
X136266166Y-116737251D01*
X136265715Y-116728307D01*
X136271719Y-116721664D01*
X136272234Y-116721434D01*
X136995512Y-116420864D01*
X137004461Y-116420854D01*
X137656690Y-116691898D01*
G37*
%TD.AperFunction*%
%TD*%
%TA.AperFunction,Conductor*%
%TO.N,Net-(BT1-+)*%
G36*
X137736698Y-126278554D02*
G01*
X137743023Y-126284893D01*
X137743227Y-126285426D01*
X138111495Y-127319104D01*
X138217275Y-127616012D01*
X138216824Y-127624956D01*
X138214527Y-127628212D01*
X138048212Y-127794527D01*
X138039939Y-127797954D01*
X138036013Y-127797275D01*
X136705430Y-127323228D01*
X136698788Y-127317225D01*
X136698337Y-127308281D01*
X136698536Y-127307760D01*
X136997438Y-126583785D01*
X137003762Y-126577448D01*
X137003764Y-126577446D01*
X137727744Y-126278543D01*
X137736698Y-126278554D01*
G37*
%TD.AperFunction*%
%TD*%
%TA.AperFunction,Conductor*%
%TO.N,Net-(BT1-+)*%
G36*
X154272252Y-124778541D02*
G01*
X154288939Y-124785431D01*
X154996212Y-125077437D01*
X155002551Y-125083762D01*
X155002562Y-125083787D01*
X155301456Y-125807743D01*
X155301445Y-125816698D01*
X155295106Y-125823023D01*
X155294568Y-125823229D01*
X153963987Y-126297275D01*
X153955043Y-126296824D01*
X153951787Y-126294527D01*
X153785472Y-126128212D01*
X153782045Y-126119939D01*
X153782722Y-126116018D01*
X154256771Y-124785428D01*
X154262774Y-124778788D01*
X154271718Y-124778337D01*
X154272252Y-124778541D01*
G37*
%TD.AperFunction*%
%TD*%
%TA.AperFunction,Conductor*%
%TO.N,Net-(SW4-K)*%
G36*
X142052252Y-100998541D02*
G01*
X142068939Y-101005431D01*
X142776212Y-101297437D01*
X142782551Y-101303762D01*
X142782562Y-101303787D01*
X143081456Y-102027743D01*
X143081445Y-102036698D01*
X143075106Y-102043023D01*
X143074568Y-102043229D01*
X141743987Y-102517275D01*
X141735043Y-102516824D01*
X141731787Y-102514527D01*
X141565472Y-102348212D01*
X141562045Y-102339939D01*
X141562722Y-102336018D01*
X142036771Y-101005428D01*
X142042774Y-100998788D01*
X142051718Y-100998337D01*
X142052252Y-100998541D01*
G37*
%TD.AperFunction*%
%TD*%
%TA.AperFunction,Conductor*%
%TO.N,Net-(SW4-K)*%
G36*
X156045903Y-118364896D02*
G01*
X157641017Y-119025453D01*
X157647349Y-119031784D01*
X157647353Y-119040730D01*
X157252570Y-119996197D01*
X157246244Y-120002534D01*
X157246192Y-120002556D01*
X156292112Y-120393394D01*
X156283157Y-120393359D01*
X156276850Y-120387002D01*
X156276264Y-120385139D01*
X155863316Y-118544964D01*
X155864848Y-118536143D01*
X155866454Y-118534136D01*
X156033157Y-118367433D01*
X156041429Y-118364007D01*
X156045903Y-118364896D01*
G37*
%TD.AperFunction*%
%TD*%
%TA.AperFunction,Conductor*%
%TO.N,Net-(SW3-K)*%
G36*
X139513408Y-100999019D02*
G01*
X140235509Y-101297146D01*
X140241848Y-101303471D01*
X140241856Y-101303489D01*
X140541562Y-102028021D01*
X140541557Y-102036976D01*
X140535222Y-102043305D01*
X140534953Y-102043412D01*
X139427821Y-102469594D01*
X139412801Y-102475377D01*
X139377029Y-102489147D01*
X139372826Y-102489928D01*
X139140003Y-102489928D01*
X139131730Y-102486501D01*
X139128303Y-102478228D01*
X139128656Y-102475377D01*
X139237216Y-102043305D01*
X139497597Y-101006980D01*
X139502935Y-100999794D01*
X139511794Y-100998487D01*
X139513408Y-100999019D01*
G37*
%TD.AperFunction*%
%TD*%
%TA.AperFunction,Conductor*%
%TO.N,Net-(SW3-K)*%
G36*
X142782810Y-112758516D02*
G01*
X143496028Y-113743136D01*
X143498106Y-113751847D01*
X143496028Y-113756864D01*
X142782810Y-114741483D01*
X142775182Y-114746172D01*
X142767517Y-114744770D01*
X141255882Y-113878371D01*
X141250408Y-113871284D01*
X141250000Y-113868220D01*
X141250000Y-113631779D01*
X141253427Y-113623506D01*
X141255878Y-113621630D01*
X142767519Y-112755228D01*
X142776399Y-112754088D01*
X142782810Y-112758516D01*
G37*
%TD.AperFunction*%
%TD*%
%TA.AperFunction,Conductor*%
%TO.N,Net-(SW3-K)*%
G36*
X143492272Y-113747914D02*
G01*
X143499884Y-113752631D01*
X143501959Y-113757746D01*
X143681666Y-114970631D01*
X143679488Y-114979317D01*
X143673052Y-114983665D01*
X142013990Y-115417578D01*
X142005119Y-115416356D01*
X142002757Y-115414532D01*
X141835504Y-115247279D01*
X141832077Y-115239006D01*
X141832477Y-115235971D01*
X142282408Y-113560850D01*
X142287864Y-113553750D01*
X142295593Y-113552339D01*
X143492272Y-113747914D01*
G37*
%TD.AperFunction*%
%TD*%
%TA.AperFunction,Conductor*%
%TO.N,Net-(SW3-K)*%
G36*
X139205366Y-117885375D02*
G01*
X139208139Y-117887429D01*
X139372556Y-118051846D01*
X139374545Y-118054498D01*
X140213810Y-119586747D01*
X140214778Y-119595650D01*
X140209169Y-119602630D01*
X140208029Y-119603176D01*
X139253776Y-119998847D01*
X139244822Y-119998850D01*
X139244808Y-119998844D01*
X138291819Y-119603120D01*
X138285493Y-119596783D01*
X138285501Y-119587828D01*
X138285973Y-119586826D01*
X139189541Y-117890200D01*
X139196453Y-117884511D01*
X139205366Y-117885375D01*
G37*
%TD.AperFunction*%
%TD*%
%TA.AperFunction,Conductor*%
%TO.N,Net-(SW3-K)*%
G36*
X139253776Y-120001152D02*
G01*
X139447429Y-120081448D01*
X140208030Y-120396824D01*
X140214359Y-120403158D01*
X140214356Y-120412112D01*
X140213810Y-120413252D01*
X139374545Y-121945501D01*
X139372556Y-121948153D01*
X139208139Y-122112570D01*
X139199866Y-122115997D01*
X139191593Y-122112570D01*
X139189541Y-122109800D01*
X138285978Y-120413183D01*
X138285115Y-120404271D01*
X138290806Y-120397357D01*
X138291810Y-120396883D01*
X139244808Y-120001154D01*
X139253763Y-120001147D01*
X139253776Y-120001152D01*
G37*
%TD.AperFunction*%
%TD*%
%TA.AperFunction,Conductor*%
%TO.N,Net-(SW3-K)*%
G36*
X142013988Y-124582420D02*
G01*
X143673052Y-125016335D01*
X143680188Y-125021742D01*
X143681665Y-125029368D01*
X143501959Y-126242253D01*
X143497356Y-126249934D01*
X143492272Y-126252085D01*
X142295595Y-126447660D01*
X142286878Y-126445612D01*
X142282408Y-126439148D01*
X142231793Y-126250707D01*
X141832477Y-124764027D01*
X141833641Y-124755149D01*
X141835500Y-124752724D01*
X142002758Y-124585466D01*
X142011030Y-124582040D01*
X142013988Y-124582420D01*
G37*
%TD.AperFunction*%
%TD*%
%TA.AperFunction,Conductor*%
%TO.N,Net-(SW4-K)*%
G36*
X157253776Y-120001152D02*
G01*
X157447429Y-120081448D01*
X158208030Y-120396824D01*
X158214359Y-120403158D01*
X158214356Y-120412112D01*
X158213810Y-120413252D01*
X157374545Y-121945501D01*
X157372556Y-121948153D01*
X157208139Y-122112570D01*
X157199866Y-122115997D01*
X157191593Y-122112570D01*
X157189541Y-122109800D01*
X156285978Y-120413183D01*
X156285115Y-120404271D01*
X156290806Y-120397357D01*
X156291810Y-120396883D01*
X157244808Y-120001154D01*
X157253763Y-120001147D01*
X157253776Y-120001152D01*
G37*
%TD.AperFunction*%
%TD*%
%TA.AperFunction,Conductor*%
%TO.N,Net-(SW4-K)*%
G36*
X160013988Y-124582420D02*
G01*
X161673052Y-125016335D01*
X161680188Y-125021742D01*
X161681665Y-125029368D01*
X161501959Y-126242253D01*
X161497356Y-126249934D01*
X161492272Y-126252085D01*
X160295595Y-126447660D01*
X160286878Y-126445612D01*
X160282408Y-126439148D01*
X160231793Y-126250707D01*
X159832477Y-124764027D01*
X159833641Y-124755149D01*
X159835500Y-124752724D01*
X160002758Y-124585466D01*
X160011030Y-124582040D01*
X160013988Y-124582420D01*
G37*
%TD.AperFunction*%
%TD*%
%TA.AperFunction,Conductor*%
%TO.N,Net-(SW4-K)*%
G36*
X161492272Y-113747914D02*
G01*
X161499884Y-113752631D01*
X161501959Y-113757746D01*
X161681666Y-114970631D01*
X161679488Y-114979317D01*
X161673052Y-114983665D01*
X160013990Y-115417578D01*
X160005119Y-115416356D01*
X160002757Y-115414532D01*
X159835504Y-115247279D01*
X159832077Y-115239006D01*
X159832477Y-115235971D01*
X160282408Y-113560850D01*
X160287864Y-113553750D01*
X160295593Y-113552339D01*
X161492272Y-113747914D01*
G37*
%TD.AperFunction*%
%TD*%
%TA.AperFunction,Conductor*%
%TO.N,Net-(SW4-K)*%
G36*
X157205366Y-117885375D02*
G01*
X157208139Y-117887429D01*
X157372556Y-118051846D01*
X157374545Y-118054498D01*
X158213810Y-119586747D01*
X158214778Y-119595650D01*
X158209169Y-119602630D01*
X158208029Y-119603176D01*
X157253776Y-119998847D01*
X157244822Y-119998850D01*
X157244808Y-119998844D01*
X156291819Y-119603120D01*
X156285493Y-119596783D01*
X156285501Y-119587828D01*
X156285973Y-119586826D01*
X157189541Y-117890200D01*
X157196453Y-117884511D01*
X157205366Y-117885375D01*
G37*
%TD.AperFunction*%
%TD*%
%TA.AperFunction,Conductor*%
%TO.N,Net-(SW1-K)*%
G36*
X157253776Y-75001152D02*
G01*
X157447429Y-75081448D01*
X158208030Y-75396824D01*
X158214359Y-75403158D01*
X158214356Y-75412112D01*
X158213810Y-75413252D01*
X157374545Y-76945501D01*
X157372556Y-76948153D01*
X157208139Y-77112570D01*
X157199866Y-77115997D01*
X157191593Y-77112570D01*
X157189541Y-77109800D01*
X156285978Y-75413183D01*
X156285115Y-75404271D01*
X156290806Y-75397357D01*
X156291810Y-75396883D01*
X157244808Y-75001154D01*
X157253763Y-75001147D01*
X157253776Y-75001152D01*
G37*
%TD.AperFunction*%
%TD*%
%TA.AperFunction,Conductor*%
%TO.N,Net-(SW1-K)*%
G36*
X160013988Y-79582420D02*
G01*
X161673052Y-80016335D01*
X161680188Y-80021742D01*
X161681665Y-80029368D01*
X161501959Y-81242253D01*
X161497356Y-81249934D01*
X161492272Y-81252085D01*
X160295595Y-81447660D01*
X160286878Y-81445612D01*
X160282408Y-81439148D01*
X160231793Y-81250707D01*
X159832477Y-79764027D01*
X159833641Y-79755149D01*
X159835500Y-79752724D01*
X160002758Y-79585466D01*
X160011030Y-79582040D01*
X160013988Y-79582420D01*
G37*
%TD.AperFunction*%
%TD*%
%TA.AperFunction,Conductor*%
%TO.N,Net-(SW1-K)*%
G36*
X157205366Y-72885375D02*
G01*
X157208139Y-72887429D01*
X157372556Y-73051846D01*
X157374545Y-73054498D01*
X158213810Y-74586747D01*
X158214778Y-74595650D01*
X158209169Y-74602630D01*
X158208029Y-74603176D01*
X157253776Y-74998847D01*
X157244822Y-74998850D01*
X157244808Y-74998844D01*
X156291819Y-74603120D01*
X156285493Y-74596783D01*
X156285501Y-74587828D01*
X156285973Y-74586826D01*
X157189541Y-72890200D01*
X157196453Y-72884511D01*
X157205366Y-72885375D01*
G37*
%TD.AperFunction*%
%TD*%
%TA.AperFunction,Conductor*%
%TO.N,Net-(SW1-K)*%
G36*
X161492272Y-68747914D02*
G01*
X161499884Y-68752631D01*
X161501959Y-68757746D01*
X161681666Y-69970631D01*
X161679488Y-69979317D01*
X161673052Y-69983665D01*
X160013990Y-70417578D01*
X160005119Y-70416356D01*
X160002757Y-70414532D01*
X159835504Y-70247279D01*
X159832077Y-70239006D01*
X159832477Y-70235971D01*
X160282408Y-68560850D01*
X160287864Y-68553750D01*
X160295593Y-68552339D01*
X161492272Y-68747914D01*
G37*
%TD.AperFunction*%
%TD*%
%TA.AperFunction,Conductor*%
%TO.N,Net-(SW2-K)*%
G36*
X142013988Y-79582420D02*
G01*
X143673052Y-80016335D01*
X143680188Y-80021742D01*
X143681665Y-80029368D01*
X143501959Y-81242253D01*
X143497356Y-81249934D01*
X143492272Y-81252085D01*
X142295595Y-81447660D01*
X142286878Y-81445612D01*
X142282408Y-81439148D01*
X142231793Y-81250707D01*
X141832477Y-79764027D01*
X141833641Y-79755149D01*
X141835500Y-79752724D01*
X142002758Y-79585466D01*
X142011030Y-79582040D01*
X142013988Y-79582420D01*
G37*
%TD.AperFunction*%
%TD*%
%TA.AperFunction,Conductor*%
%TO.N,Net-(SW2-K)*%
G36*
X139253776Y-75001152D02*
G01*
X139447429Y-75081448D01*
X140208030Y-75396824D01*
X140214359Y-75403158D01*
X140214356Y-75412112D01*
X140213810Y-75413252D01*
X139374545Y-76945501D01*
X139372556Y-76948153D01*
X139208139Y-77112570D01*
X139199866Y-77115997D01*
X139191593Y-77112570D01*
X139189541Y-77109800D01*
X138285978Y-75413183D01*
X138285115Y-75404271D01*
X138290806Y-75397357D01*
X138291810Y-75396883D01*
X139244808Y-75001154D01*
X139253763Y-75001147D01*
X139253776Y-75001152D01*
G37*
%TD.AperFunction*%
%TD*%
%TA.AperFunction,Conductor*%
%TO.N,Net-(SW2-K)*%
G36*
X139205366Y-72885375D02*
G01*
X139208139Y-72887429D01*
X139372556Y-73051846D01*
X139374545Y-73054498D01*
X140213810Y-74586747D01*
X140214778Y-74595650D01*
X140209169Y-74602630D01*
X140208029Y-74603176D01*
X139253776Y-74998847D01*
X139244822Y-74998850D01*
X139244808Y-74998844D01*
X138291819Y-74603120D01*
X138285493Y-74596783D01*
X138285501Y-74587828D01*
X138285973Y-74586826D01*
X139189541Y-72890200D01*
X139196453Y-72884511D01*
X139205366Y-72885375D01*
G37*
%TD.AperFunction*%
%TD*%
%TA.AperFunction,Conductor*%
%TO.N,Net-(SW2-K)*%
G36*
X143492272Y-68747914D02*
G01*
X143499884Y-68752631D01*
X143501959Y-68757746D01*
X143681666Y-69970631D01*
X143679488Y-69979317D01*
X143673052Y-69983665D01*
X142013990Y-70417578D01*
X142005119Y-70416356D01*
X142002757Y-70414532D01*
X141835504Y-70247279D01*
X141832077Y-70239006D01*
X141832477Y-70235971D01*
X142282408Y-68560850D01*
X142287864Y-68553750D01*
X142295593Y-68552339D01*
X143492272Y-68747914D01*
G37*
%TD.AperFunction*%
%TD*%
%TA.AperFunction,Conductor*%
%TO.N,Net-(BT1-+)*%
G36*
X141236609Y-88614098D02*
G01*
X141236786Y-88614503D01*
X141499132Y-89245508D01*
X141499144Y-89254463D01*
X141499132Y-89254492D01*
X141236786Y-89885496D01*
X141230446Y-89891819D01*
X141221491Y-89891807D01*
X141221086Y-89891630D01*
X140106803Y-89378135D01*
X140100724Y-89371560D01*
X140100000Y-89367509D01*
X140100000Y-89132490D01*
X140103427Y-89124217D01*
X140106798Y-89121866D01*
X141221087Y-88608368D01*
X141230034Y-88608019D01*
X141236609Y-88614098D01*
G37*
%TD.AperFunction*%
%TD*%
%TA.AperFunction,Conductor*%
%TO.N,Net-(BT1-+)*%
G36*
X135963982Y-125362723D02*
G01*
X137294569Y-125836771D01*
X137301211Y-125842774D01*
X137301662Y-125851718D01*
X137301456Y-125852256D01*
X137002562Y-126576212D01*
X136996237Y-126582551D01*
X136996212Y-126582562D01*
X136272256Y-126881456D01*
X136263301Y-126881445D01*
X136256976Y-126875106D01*
X136256780Y-126874596D01*
X135782724Y-125543984D01*
X135783175Y-125535043D01*
X135785469Y-125531790D01*
X135951788Y-125365471D01*
X135960060Y-125362045D01*
X135963982Y-125362723D01*
G37*
%TD.AperFunction*%
%TD*%
%TA.AperFunction,Conductor*%
%TO.N,Net-(C1-Pad1)*%
G36*
X136126999Y-102734970D02*
G01*
X137294862Y-103176628D01*
X137301388Y-103182760D01*
X137301667Y-103191711D01*
X137301535Y-103192044D01*
X137001856Y-103916510D01*
X136995527Y-103922845D01*
X136995509Y-103922853D01*
X136273321Y-104221016D01*
X136264366Y-104221005D01*
X136258041Y-104214666D01*
X136257529Y-104213131D01*
X135991018Y-103182760D01*
X135878784Y-102748843D01*
X135880030Y-102739976D01*
X135887181Y-102734587D01*
X135890111Y-102734214D01*
X136122860Y-102734214D01*
X136126999Y-102734970D01*
G37*
%TD.AperFunction*%
%TD*%
%TA.AperFunction,Conductor*%
%TO.N,Net-(U1-~{RESET}{slash}PB5)*%
G36*
X137707571Y-101307666D02*
G01*
X137708506Y-101308506D01*
X138493160Y-102093160D01*
X138496587Y-102101433D01*
X138494569Y-102108002D01*
X138107208Y-102678891D01*
X138105799Y-102680595D01*
X137937502Y-102848892D01*
X137929229Y-102852319D01*
X137921578Y-102849471D01*
X137063042Y-102107389D01*
X137059024Y-102099386D01*
X137061580Y-102091199D01*
X137691121Y-101309440D01*
X137698978Y-101305146D01*
X137707571Y-101307666D01*
G37*
%TD.AperFunction*%
%TD*%
%TA.AperFunction,Conductor*%
%TO.N,Net-(U1-~{RESET}{slash}PB5)*%
G36*
X137000444Y-91082426D02*
G01*
X137002993Y-91086237D01*
X137302266Y-91809723D01*
X137302261Y-91818678D01*
X137297406Y-91824268D01*
X136377753Y-92367713D01*
X136371801Y-92369340D01*
X136137400Y-92369340D01*
X136129127Y-92365913D01*
X136125700Y-92357640D01*
X136125720Y-92356961D01*
X136156706Y-91824268D01*
X136199359Y-91091005D01*
X136203260Y-91082946D01*
X136211023Y-91079986D01*
X136992167Y-91079009D01*
X137000444Y-91082426D01*
G37*
%TD.AperFunction*%
%TD*%
%TA.AperFunction,Conductor*%
%TO.N,Net-(SW1-K)*%
G36*
X160335209Y-80826047D02*
G01*
X161307141Y-81179501D01*
X161491763Y-81246641D01*
X161498366Y-81252688D01*
X161499285Y-81259677D01*
X161284769Y-82470684D01*
X161279951Y-82478232D01*
X161272477Y-82480318D01*
X159689429Y-82375722D01*
X159681399Y-82371757D01*
X159678500Y-82364047D01*
X159678500Y-82127745D01*
X159679721Y-82122541D01*
X160320733Y-80831838D01*
X160327482Y-80825953D01*
X160335209Y-80826047D01*
G37*
%TD.AperFunction*%
%TD*%
%TA.AperFunction,Conductor*%
%TO.N,Net-(SW1-K)*%
G36*
X143841071Y-92487142D02*
G01*
X143844123Y-92489339D01*
X144010453Y-92655669D01*
X144013880Y-92663942D01*
X144013136Y-92668048D01*
X143523348Y-93974823D01*
X143517235Y-93981367D01*
X143508286Y-93981673D01*
X143507927Y-93981532D01*
X142783787Y-93682562D01*
X142777448Y-93676237D01*
X142777437Y-93676212D01*
X142478635Y-92952478D01*
X142478646Y-92943525D01*
X142484985Y-92937200D01*
X142485707Y-92936930D01*
X143832140Y-92486516D01*
X143841071Y-92487142D01*
G37*
%TD.AperFunction*%
%TD*%
%TA.AperFunction,Conductor*%
%TO.N,Net-(SW2-K)*%
G36*
X143507523Y-81255321D02*
G01*
X144450010Y-82047145D01*
X144454140Y-82055090D01*
X144452591Y-82061997D01*
X143628386Y-83475204D01*
X143621258Y-83480625D01*
X143618279Y-83481010D01*
X143381721Y-83481010D01*
X143373448Y-83477583D01*
X143371614Y-83475204D01*
X142547408Y-82061997D01*
X142546200Y-82053124D01*
X142549987Y-82047147D01*
X143492475Y-81255321D01*
X143501013Y-81252624D01*
X143507523Y-81255321D01*
G37*
%TD.AperFunction*%
%TD*%
%TA.AperFunction,Conductor*%
%TO.N,Net-(SW2-K)*%
G36*
X141186734Y-92397808D02*
G01*
X141353078Y-92564152D01*
X141356505Y-92572425D01*
X141356108Y-92575446D01*
X140982546Y-93973264D01*
X140977100Y-93980372D01*
X140968222Y-93981546D01*
X140966778Y-93981058D01*
X140243787Y-93682562D01*
X140237448Y-93676237D01*
X140237437Y-93676212D01*
X139938216Y-92951464D01*
X139938227Y-92942509D01*
X139944316Y-92936292D01*
X141173749Y-92395371D01*
X141182702Y-92395177D01*
X141186734Y-92397808D01*
G37*
%TD.AperFunction*%
%TD*%
%TA.AperFunction,Conductor*%
%TO.N,Net-(SW1-A)*%
G36*
X170627129Y-73003155D02*
G01*
X170628488Y-73004785D01*
X171486931Y-74249519D01*
X171488807Y-74258276D01*
X171485578Y-74264430D01*
X170755533Y-74995459D01*
X170747262Y-74998891D01*
X170742767Y-74997996D01*
X170134850Y-74745562D01*
X169790335Y-74602504D01*
X169784010Y-74596168D01*
X169783858Y-74587619D01*
X170372164Y-73007346D01*
X170378262Y-73000788D01*
X170383129Y-72999728D01*
X170618856Y-72999728D01*
X170627129Y-73003155D01*
G37*
%TD.AperFunction*%
%TD*%
%TA.AperFunction,Conductor*%
%TO.N,Net-(SW1-A)*%
G36*
X156044956Y-68703175D02*
G01*
X156048212Y-68705472D01*
X156214527Y-68871787D01*
X156217954Y-68880060D01*
X156217275Y-68883987D01*
X155743229Y-70214568D01*
X155737225Y-70221211D01*
X155728281Y-70221662D01*
X155727743Y-70221456D01*
X155003787Y-69922562D01*
X154997448Y-69916237D01*
X154997437Y-69916212D01*
X154698543Y-69192256D01*
X154698554Y-69183301D01*
X154704893Y-69176976D01*
X154705389Y-69176785D01*
X156036014Y-68702724D01*
X156044956Y-68703175D01*
G37*
%TD.AperFunction*%
%TD*%
%TA.AperFunction,Conductor*%
%TO.N,Net-(U1-PB0)*%
G36*
X145892928Y-93123614D02*
G01*
X145893829Y-93124627D01*
X146681380Y-94121812D01*
X146683898Y-94129063D01*
X146683898Y-94364166D01*
X146680471Y-94372439D01*
X146673096Y-94375831D01*
X145332582Y-94479031D01*
X145324070Y-94476250D01*
X145320019Y-94468264D01*
X145319984Y-94467381D01*
X145319865Y-94372439D01*
X145319006Y-93684859D01*
X145322422Y-93676583D01*
X145876384Y-93123598D01*
X145884658Y-93120180D01*
X145892928Y-93123614D01*
G37*
%TD.AperFunction*%
%TD*%
%TA.AperFunction,Conductor*%
%TO.N,Net-(BT1-+)*%
G36*
X138744956Y-92463175D02*
G01*
X138748212Y-92465472D01*
X138914527Y-92631787D01*
X138917954Y-92640060D01*
X138917275Y-92643987D01*
X138443229Y-93974568D01*
X138437225Y-93981211D01*
X138428281Y-93981662D01*
X138427743Y-93981456D01*
X137703787Y-93682562D01*
X137697448Y-93676237D01*
X137697437Y-93676212D01*
X137398543Y-92952256D01*
X137398554Y-92943301D01*
X137404893Y-92936976D01*
X137405389Y-92936785D01*
X138736014Y-92462724D01*
X138744956Y-92463175D01*
G37*
%TD.AperFunction*%
%TD*%
%TA.AperFunction,Conductor*%
%TO.N,Net-(BT1-+)*%
G36*
X141504119Y-89252715D02*
G01*
X141883557Y-89633238D01*
X141985809Y-89735783D01*
X141989224Y-89744061D01*
X141985785Y-89752329D01*
X141984884Y-89753139D01*
X141043214Y-90515124D01*
X141034627Y-90517664D01*
X141027581Y-90514302D01*
X140861422Y-90348143D01*
X140858012Y-90340493D01*
X140800654Y-89262306D01*
X140803636Y-89253865D01*
X140811715Y-89250004D01*
X140812303Y-89249987D01*
X141495846Y-89249297D01*
X141504119Y-89252715D01*
G37*
%TD.AperFunction*%
%TD*%
%TA.AperFunction,Conductor*%
%TO.N,Net-(BT1-+)*%
G36*
X137656690Y-81191898D02*
G01*
X137727753Y-81221430D01*
X137734078Y-81227769D01*
X137734067Y-81236724D01*
X137733833Y-81237251D01*
X137128172Y-82513317D01*
X137121529Y-82519321D01*
X137117602Y-82520000D01*
X136882398Y-82520000D01*
X136874125Y-82516573D01*
X136871828Y-82513317D01*
X136266166Y-81237251D01*
X136265715Y-81228307D01*
X136271719Y-81221664D01*
X136272234Y-81221434D01*
X136995512Y-80920864D01*
X137004461Y-80920854D01*
X137656690Y-81191898D01*
G37*
%TD.AperFunction*%
%TD*%
%TA.AperFunction,Conductor*%
%TO.N,Net-(BT1-+)*%
G36*
X140605463Y-88174254D02*
G01*
X141756478Y-88599076D01*
X141763053Y-88605155D01*
X141763403Y-88614103D01*
X141763242Y-88614515D01*
X141502562Y-89246210D01*
X141496239Y-89252550D01*
X141496210Y-89252562D01*
X140864515Y-89513242D01*
X140855560Y-89513230D01*
X140849237Y-89506890D01*
X140849076Y-89506478D01*
X140424255Y-88355464D01*
X140424605Y-88346518D01*
X140426955Y-88343145D01*
X140593143Y-88176957D01*
X140601415Y-88173531D01*
X140605463Y-88174254D01*
G37*
%TD.AperFunction*%
%TD*%
%TA.AperFunction,Conductor*%
%TO.N,Net-(BT1-+)*%
G36*
X151007452Y-96504965D02*
G01*
X152486384Y-97490263D01*
X152491369Y-97497702D01*
X152489634Y-97506487D01*
X152486384Y-97509737D01*
X151007452Y-98495034D01*
X150998667Y-98496769D01*
X150993260Y-98494102D01*
X150003995Y-97628495D01*
X150000026Y-97620468D01*
X150000000Y-97619690D01*
X150000000Y-97380309D01*
X150003427Y-97372036D01*
X150003995Y-97371504D01*
X150993260Y-96505896D01*
X151001743Y-96503028D01*
X151007452Y-96504965D01*
G37*
%TD.AperFunction*%
%TD*%
%TA.AperFunction,Conductor*%
%TO.N,Net-(BT1-+)*%
G36*
X138356690Y-93951898D02*
G01*
X138427753Y-93981430D01*
X138434078Y-93987769D01*
X138434067Y-93996724D01*
X138433833Y-93997251D01*
X137828172Y-95273317D01*
X137821529Y-95279321D01*
X137817602Y-95280000D01*
X137582398Y-95280000D01*
X137574125Y-95276573D01*
X137571828Y-95273317D01*
X136966166Y-93997251D01*
X136965715Y-93988307D01*
X136971719Y-93981664D01*
X136972234Y-93981434D01*
X137695512Y-93680864D01*
X137704461Y-93680854D01*
X138356690Y-93951898D01*
G37*
%TD.AperFunction*%
%TD*%
%TA.AperFunction,Conductor*%
%TO.N,Net-(BT1-+)*%
G36*
X137125875Y-79323427D02*
G01*
X137128172Y-79326683D01*
X137733833Y-80602748D01*
X137734284Y-80611692D01*
X137728280Y-80618335D01*
X137727753Y-80618569D01*
X137004490Y-80919134D01*
X136995536Y-80919144D01*
X136995510Y-80919134D01*
X136272246Y-80618569D01*
X136265921Y-80612230D01*
X136265932Y-80603275D01*
X136266154Y-80602773D01*
X136871828Y-79326682D01*
X136878471Y-79320679D01*
X136882398Y-79320000D01*
X137117602Y-79320000D01*
X137125875Y-79323427D01*
G37*
%TD.AperFunction*%
%TD*%
%TA.AperFunction,Conductor*%
%TO.N,Net-(BT1-+)*%
G36*
X137656690Y-78851898D02*
G01*
X137727753Y-78881430D01*
X137734078Y-78887769D01*
X137734067Y-78896724D01*
X137733833Y-78897251D01*
X137128172Y-80173317D01*
X137121529Y-80179321D01*
X137117602Y-80180000D01*
X136882398Y-80180000D01*
X136874125Y-80176573D01*
X136871828Y-80173317D01*
X136266166Y-78897251D01*
X136265715Y-78888307D01*
X136271719Y-78881664D01*
X136272234Y-78881434D01*
X136995512Y-78580864D01*
X137004461Y-78580854D01*
X137656690Y-78851898D01*
G37*
%TD.AperFunction*%
%TD*%
%TA.AperFunction,Conductor*%
%TO.N,Net-(SW4-A)*%
G36*
X170627129Y-118003155D02*
G01*
X170628488Y-118004785D01*
X171486931Y-119249519D01*
X171488807Y-119258276D01*
X171485578Y-119264430D01*
X170755533Y-119995459D01*
X170747262Y-119998891D01*
X170742767Y-119997996D01*
X170134850Y-119745562D01*
X169790335Y-119602504D01*
X169784010Y-119596168D01*
X169783858Y-119587619D01*
X170372164Y-118007346D01*
X170378262Y-118000788D01*
X170383129Y-117999728D01*
X170618856Y-117999728D01*
X170627129Y-118003155D01*
G37*
%TD.AperFunction*%
%TD*%
%TA.AperFunction,Conductor*%
%TO.N,Net-(SW4-A)*%
G36*
X155400566Y-113438902D02*
G01*
X155566609Y-113604945D01*
X155569859Y-113611192D01*
X155797588Y-114906286D01*
X155795646Y-114915027D01*
X155788091Y-114919835D01*
X155786075Y-114920012D01*
X155004153Y-114920702D01*
X154995877Y-114917282D01*
X154995860Y-114917265D01*
X154442721Y-114362742D01*
X154439304Y-114354464D01*
X154442741Y-114346196D01*
X154442884Y-114346055D01*
X155384175Y-113438750D01*
X155392508Y-113435477D01*
X155400566Y-113438902D01*
G37*
%TD.AperFunction*%
%TD*%
M02*
