%TF.GenerationSoftware,KiCad,Pcbnew,8.0.6-8.0.6-0~ubuntu20.04.1*%
%TF.CreationDate,2024-11-17T18:25:06+01:00*%
%TF.ProjectId,reaktor51_game,7265616b-746f-4723-9531-5f67616d652e,1*%
%TF.SameCoordinates,Original*%
%TF.FileFunction,Soldermask,Bot*%
%TF.FilePolarity,Negative*%
%FSLAX46Y46*%
G04 Gerber Fmt 4.6, Leading zero omitted, Abs format (unit mm)*
G04 Created by KiCad (PCBNEW 8.0.6-8.0.6-0~ubuntu20.04.1) date 2024-11-17 18:25:06*
%MOMM*%
%LPD*%
G01*
G04 APERTURE LIST*
%ADD10C,1.600000*%
%ADD11O,1.600000X1.600000*%
%ADD12R,1.600000X1.600000*%
%ADD13C,1.400000*%
%ADD14R,3.000000X3.000000*%
%ADD15C,3.000000*%
%ADD16C,1.000000*%
%ADD17C,2.500000*%
%ADD18C,2.100000*%
%ADD19R,2.000000X2.000000*%
%ADD20C,2.000000*%
G04 APERTURE END LIST*
D10*
%TO.C,R5*%
X137000000Y-80920000D03*
D11*
X137000000Y-91080000D03*
%TD*%
D12*
%TO.C,U1*%
X137700000Y-101300000D03*
D11*
X140240000Y-101300000D03*
X142780000Y-101300000D03*
X145320000Y-101300000D03*
X145320000Y-93680000D03*
X142780000Y-93680000D03*
X140240000Y-93680000D03*
X137700000Y-93680000D03*
%TD*%
D10*
%TO.C,R6*%
X137000000Y-103920000D03*
D11*
X137000000Y-114080000D03*
%TD*%
D10*
%TO.C,R1*%
X155000000Y-80080000D03*
D11*
X155000000Y-69920000D03*
%TD*%
D10*
%TO.C,R2*%
X137000000Y-78580000D03*
D11*
X137000000Y-68420000D03*
%TD*%
D10*
%TO.C,R3*%
X137000000Y-126580000D03*
D11*
X137000000Y-116420000D03*
%TD*%
D10*
%TO.C,R4*%
X155000000Y-125080000D03*
D11*
X155000000Y-114920000D03*
%TD*%
D13*
%TO.C,C1*%
X141500000Y-105750000D03*
X141500000Y-108250000D03*
%TD*%
%TO.C,C2*%
X141500000Y-86750000D03*
X141500000Y-89250000D03*
%TD*%
D14*
%TO.C,BT1*%
X152500000Y-97500000D03*
D15*
X132010000Y-97500000D03*
%TD*%
D16*
%TO.C,SW4*%
X159500000Y-120000000D03*
X168500000Y-120000000D03*
D17*
X161500000Y-126250000D03*
X161500000Y-113750000D03*
X166500000Y-126250000D03*
X166500000Y-113750000D03*
D18*
X157250000Y-120000000D03*
X170750000Y-120000000D03*
%TD*%
D16*
%TO.C,SW3*%
X141500000Y-120000000D03*
X150500000Y-120000000D03*
D17*
X143500000Y-126250000D03*
X143500000Y-113750000D03*
X148500000Y-126250000D03*
X148500000Y-113750000D03*
D18*
X139250000Y-120000000D03*
X152750000Y-120000000D03*
%TD*%
D16*
%TO.C,SW2*%
X141500000Y-75000000D03*
X150500000Y-75000000D03*
D17*
X143500000Y-81250000D03*
X143500000Y-68750000D03*
X148500000Y-81250000D03*
X148500000Y-68750000D03*
D18*
X139250000Y-75000000D03*
X152750000Y-75000000D03*
%TD*%
D16*
%TO.C,SW1*%
X159500000Y-75000000D03*
X168500000Y-75000000D03*
D17*
X161500000Y-81250000D03*
X161500000Y-68750000D03*
X166500000Y-81250000D03*
X166500000Y-68750000D03*
D18*
X157250000Y-75000000D03*
X170750000Y-75000000D03*
%TD*%
D19*
%TO.C,LS1*%
X165000000Y-93700000D03*
D20*
X165000000Y-101300000D03*
%TD*%
M02*
