%TF.GenerationSoftware,KiCad,Pcbnew,8.0.6-8.0.6-0~ubuntu20.04.1*%
%TF.CreationDate,2024-11-17T18:25:06+01:00*%
%TF.ProjectId,reaktor51_game,7265616b-746f-4723-9531-5f67616d652e,1*%
%TF.SameCoordinates,Original*%
%TF.FileFunction,Legend,Bot*%
%TF.FilePolarity,Positive*%
%FSLAX46Y46*%
G04 Gerber Fmt 4.6, Leading zero omitted, Abs format (unit mm)*
G04 Created by KiCad (PCBNEW 8.0.6-8.0.6-0~ubuntu20.04.1) date 2024-11-17 18:25:06*
%MOMM*%
%LPD*%
G01*
G04 APERTURE LIST*
%ADD10C,0.220000*%
%ADD11C,0.300000*%
%ADD12C,0.250000*%
%ADD13C,0.150000*%
%ADD14C,0.120000*%
G04 APERTURE END LIST*
D10*
X133804988Y-74359021D02*
X133090702Y-73859021D01*
X133804988Y-73501878D02*
X132304988Y-73501878D01*
X132304988Y-73501878D02*
X132304988Y-74073307D01*
X132304988Y-74073307D02*
X132376417Y-74216164D01*
X132376417Y-74216164D02*
X132447845Y-74287593D01*
X132447845Y-74287593D02*
X132590702Y-74359021D01*
X132590702Y-74359021D02*
X132804988Y-74359021D01*
X132804988Y-74359021D02*
X132947845Y-74287593D01*
X132947845Y-74287593D02*
X133019274Y-74216164D01*
X133019274Y-74216164D02*
X133090702Y-74073307D01*
X133090702Y-74073307D02*
X133090702Y-73501878D01*
X133019274Y-75001878D02*
X133019274Y-75501878D01*
X133804988Y-75716164D02*
X133804988Y-75001878D01*
X133804988Y-75001878D02*
X132304988Y-75001878D01*
X132304988Y-75001878D02*
X132304988Y-75716164D01*
X132304988Y-76144736D02*
X133804988Y-76644736D01*
X133804988Y-76644736D02*
X132304988Y-77144736D01*
X133804988Y-78430450D02*
X133804988Y-77573307D01*
X133804988Y-78001878D02*
X132304988Y-78001878D01*
X132304988Y-78001878D02*
X132519274Y-77859021D01*
X132519274Y-77859021D02*
X132662131Y-77716164D01*
X132662131Y-77716164D02*
X132733560Y-77573307D01*
X122804988Y-84644736D02*
X124019274Y-84644736D01*
X124019274Y-84644736D02*
X124162131Y-84573307D01*
X124162131Y-84573307D02*
X124233560Y-84501878D01*
X124233560Y-84501878D02*
X124304988Y-84359021D01*
X124304988Y-84359021D02*
X124304988Y-84144736D01*
X124304988Y-84144736D02*
X124233560Y-84001878D01*
X123733560Y-84644736D02*
X123804988Y-84501878D01*
X123804988Y-84501878D02*
X123804988Y-84216164D01*
X123804988Y-84216164D02*
X123733560Y-84073307D01*
X123733560Y-84073307D02*
X123662131Y-84001878D01*
X123662131Y-84001878D02*
X123519274Y-83930450D01*
X123519274Y-83930450D02*
X123090702Y-83930450D01*
X123090702Y-83930450D02*
X122947845Y-84001878D01*
X122947845Y-84001878D02*
X122876417Y-84073307D01*
X122876417Y-84073307D02*
X122804988Y-84216164D01*
X122804988Y-84216164D02*
X122804988Y-84501878D01*
X122804988Y-84501878D02*
X122876417Y-84644736D01*
X123804988Y-85359021D02*
X122804988Y-85359021D01*
X122304988Y-85359021D02*
X122376417Y-85287593D01*
X122376417Y-85287593D02*
X122447845Y-85359021D01*
X122447845Y-85359021D02*
X122376417Y-85430450D01*
X122376417Y-85430450D02*
X122304988Y-85359021D01*
X122304988Y-85359021D02*
X122447845Y-85359021D01*
X122804988Y-85859022D02*
X122804988Y-86430450D01*
X122304988Y-86073307D02*
X123590702Y-86073307D01*
X123590702Y-86073307D02*
X123733560Y-86144736D01*
X123733560Y-86144736D02*
X123804988Y-86287593D01*
X123804988Y-86287593D02*
X123804988Y-86430450D01*
X123804988Y-86930450D02*
X122304988Y-86930450D01*
X123804988Y-87573308D02*
X123019274Y-87573308D01*
X123019274Y-87573308D02*
X122876417Y-87501879D01*
X122876417Y-87501879D02*
X122804988Y-87359022D01*
X122804988Y-87359022D02*
X122804988Y-87144736D01*
X122804988Y-87144736D02*
X122876417Y-87001879D01*
X122876417Y-87001879D02*
X122947845Y-86930450D01*
X122804988Y-88930451D02*
X123804988Y-88930451D01*
X122804988Y-88287593D02*
X123590702Y-88287593D01*
X123590702Y-88287593D02*
X123733560Y-88359022D01*
X123733560Y-88359022D02*
X123804988Y-88501879D01*
X123804988Y-88501879D02*
X123804988Y-88716165D01*
X123804988Y-88716165D02*
X123733560Y-88859022D01*
X123733560Y-88859022D02*
X123662131Y-88930451D01*
X123804988Y-89644736D02*
X122304988Y-89644736D01*
X122876417Y-89644736D02*
X122804988Y-89787594D01*
X122804988Y-89787594D02*
X122804988Y-90073308D01*
X122804988Y-90073308D02*
X122876417Y-90216165D01*
X122876417Y-90216165D02*
X122947845Y-90287594D01*
X122947845Y-90287594D02*
X123090702Y-90359022D01*
X123090702Y-90359022D02*
X123519274Y-90359022D01*
X123519274Y-90359022D02*
X123662131Y-90287594D01*
X123662131Y-90287594D02*
X123733560Y-90216165D01*
X123733560Y-90216165D02*
X123804988Y-90073308D01*
X123804988Y-90073308D02*
X123804988Y-89787594D01*
X123804988Y-89787594D02*
X123733560Y-89644736D01*
X123662131Y-91001879D02*
X123733560Y-91073308D01*
X123733560Y-91073308D02*
X123804988Y-91001879D01*
X123804988Y-91001879D02*
X123733560Y-90930451D01*
X123733560Y-90930451D02*
X123662131Y-91001879D01*
X123662131Y-91001879D02*
X123804988Y-91001879D01*
X123733560Y-92359023D02*
X123804988Y-92216165D01*
X123804988Y-92216165D02*
X123804988Y-91930451D01*
X123804988Y-91930451D02*
X123733560Y-91787594D01*
X123733560Y-91787594D02*
X123662131Y-91716165D01*
X123662131Y-91716165D02*
X123519274Y-91644737D01*
X123519274Y-91644737D02*
X123090702Y-91644737D01*
X123090702Y-91644737D02*
X122947845Y-91716165D01*
X122947845Y-91716165D02*
X122876417Y-91787594D01*
X122876417Y-91787594D02*
X122804988Y-91930451D01*
X122804988Y-91930451D02*
X122804988Y-92216165D01*
X122804988Y-92216165D02*
X122876417Y-92359023D01*
X123804988Y-93216165D02*
X123733560Y-93073308D01*
X123733560Y-93073308D02*
X123662131Y-93001879D01*
X123662131Y-93001879D02*
X123519274Y-92930451D01*
X123519274Y-92930451D02*
X123090702Y-92930451D01*
X123090702Y-92930451D02*
X122947845Y-93001879D01*
X122947845Y-93001879D02*
X122876417Y-93073308D01*
X122876417Y-93073308D02*
X122804988Y-93216165D01*
X122804988Y-93216165D02*
X122804988Y-93430451D01*
X122804988Y-93430451D02*
X122876417Y-93573308D01*
X122876417Y-93573308D02*
X122947845Y-93644737D01*
X122947845Y-93644737D02*
X123090702Y-93716165D01*
X123090702Y-93716165D02*
X123519274Y-93716165D01*
X123519274Y-93716165D02*
X123662131Y-93644737D01*
X123662131Y-93644737D02*
X123733560Y-93573308D01*
X123733560Y-93573308D02*
X123804988Y-93430451D01*
X123804988Y-93430451D02*
X123804988Y-93216165D01*
X123804988Y-94359022D02*
X122804988Y-94359022D01*
X122947845Y-94359022D02*
X122876417Y-94430451D01*
X122876417Y-94430451D02*
X122804988Y-94573308D01*
X122804988Y-94573308D02*
X122804988Y-94787594D01*
X122804988Y-94787594D02*
X122876417Y-94930451D01*
X122876417Y-94930451D02*
X123019274Y-95001880D01*
X123019274Y-95001880D02*
X123804988Y-95001880D01*
X123019274Y-95001880D02*
X122876417Y-95073308D01*
X122876417Y-95073308D02*
X122804988Y-95216165D01*
X122804988Y-95216165D02*
X122804988Y-95430451D01*
X122804988Y-95430451D02*
X122876417Y-95573308D01*
X122876417Y-95573308D02*
X123019274Y-95644737D01*
X123019274Y-95644737D02*
X123804988Y-95644737D01*
X122233560Y-97430451D02*
X124162131Y-96144737D01*
X123804988Y-97930451D02*
X122804988Y-97930451D01*
X122304988Y-97930451D02*
X122376417Y-97859023D01*
X122376417Y-97859023D02*
X122447845Y-97930451D01*
X122447845Y-97930451D02*
X122376417Y-98001880D01*
X122376417Y-98001880D02*
X122304988Y-97930451D01*
X122304988Y-97930451D02*
X122447845Y-97930451D01*
X122804988Y-98644737D02*
X123804988Y-98644737D01*
X122947845Y-98644737D02*
X122876417Y-98716166D01*
X122876417Y-98716166D02*
X122804988Y-98859023D01*
X122804988Y-98859023D02*
X122804988Y-99073309D01*
X122804988Y-99073309D02*
X122876417Y-99216166D01*
X122876417Y-99216166D02*
X123019274Y-99287595D01*
X123019274Y-99287595D02*
X123804988Y-99287595D01*
X122804988Y-100644738D02*
X124019274Y-100644738D01*
X124019274Y-100644738D02*
X124162131Y-100573309D01*
X124162131Y-100573309D02*
X124233560Y-100501880D01*
X124233560Y-100501880D02*
X124304988Y-100359023D01*
X124304988Y-100359023D02*
X124304988Y-100144738D01*
X124304988Y-100144738D02*
X124233560Y-100001880D01*
X123733560Y-100644738D02*
X123804988Y-100501880D01*
X123804988Y-100501880D02*
X123804988Y-100216166D01*
X123804988Y-100216166D02*
X123733560Y-100073309D01*
X123733560Y-100073309D02*
X123662131Y-100001880D01*
X123662131Y-100001880D02*
X123519274Y-99930452D01*
X123519274Y-99930452D02*
X123090702Y-99930452D01*
X123090702Y-99930452D02*
X122947845Y-100001880D01*
X122947845Y-100001880D02*
X122876417Y-100073309D01*
X122876417Y-100073309D02*
X122804988Y-100216166D01*
X122804988Y-100216166D02*
X122804988Y-100501880D01*
X122804988Y-100501880D02*
X122876417Y-100644738D01*
X123733560Y-101930452D02*
X123804988Y-101787595D01*
X123804988Y-101787595D02*
X123804988Y-101501881D01*
X123804988Y-101501881D02*
X123733560Y-101359023D01*
X123733560Y-101359023D02*
X123590702Y-101287595D01*
X123590702Y-101287595D02*
X123019274Y-101287595D01*
X123019274Y-101287595D02*
X122876417Y-101359023D01*
X122876417Y-101359023D02*
X122804988Y-101501881D01*
X122804988Y-101501881D02*
X122804988Y-101787595D01*
X122804988Y-101787595D02*
X122876417Y-101930452D01*
X122876417Y-101930452D02*
X123019274Y-102001881D01*
X123019274Y-102001881D02*
X123162131Y-102001881D01*
X123162131Y-102001881D02*
X123304988Y-101287595D01*
X122804988Y-102644737D02*
X124304988Y-102644737D01*
X122876417Y-102644737D02*
X122804988Y-102787595D01*
X122804988Y-102787595D02*
X122804988Y-103073309D01*
X122804988Y-103073309D02*
X122876417Y-103216166D01*
X122876417Y-103216166D02*
X122947845Y-103287595D01*
X122947845Y-103287595D02*
X123090702Y-103359023D01*
X123090702Y-103359023D02*
X123519274Y-103359023D01*
X123519274Y-103359023D02*
X123662131Y-103287595D01*
X123662131Y-103287595D02*
X123733560Y-103216166D01*
X123733560Y-103216166D02*
X123804988Y-103073309D01*
X123804988Y-103073309D02*
X123804988Y-102787595D01*
X123804988Y-102787595D02*
X123733560Y-102644737D01*
X122804988Y-104001880D02*
X123804988Y-104001880D01*
X122947845Y-104001880D02*
X122876417Y-104073309D01*
X122876417Y-104073309D02*
X122804988Y-104216166D01*
X122804988Y-104216166D02*
X122804988Y-104430452D01*
X122804988Y-104430452D02*
X122876417Y-104573309D01*
X122876417Y-104573309D02*
X123019274Y-104644738D01*
X123019274Y-104644738D02*
X123804988Y-104644738D01*
X123733560Y-105930452D02*
X123804988Y-105787595D01*
X123804988Y-105787595D02*
X123804988Y-105501881D01*
X123804988Y-105501881D02*
X123733560Y-105359023D01*
X123733560Y-105359023D02*
X123590702Y-105287595D01*
X123590702Y-105287595D02*
X123019274Y-105287595D01*
X123019274Y-105287595D02*
X122876417Y-105359023D01*
X122876417Y-105359023D02*
X122804988Y-105501881D01*
X122804988Y-105501881D02*
X122804988Y-105787595D01*
X122804988Y-105787595D02*
X122876417Y-105930452D01*
X122876417Y-105930452D02*
X123019274Y-106001881D01*
X123019274Y-106001881D02*
X123162131Y-106001881D01*
X123162131Y-106001881D02*
X123304988Y-105287595D01*
X122804988Y-106430452D02*
X122804988Y-107001880D01*
X122304988Y-106644737D02*
X123590702Y-106644737D01*
X123590702Y-106644737D02*
X123733560Y-106716166D01*
X123733560Y-106716166D02*
X123804988Y-106859023D01*
X123804988Y-106859023D02*
X123804988Y-107001880D01*
X122233560Y-108573309D02*
X124162131Y-107287595D01*
X123804988Y-109073309D02*
X122804988Y-109073309D01*
X123090702Y-109073309D02*
X122947845Y-109144738D01*
X122947845Y-109144738D02*
X122876417Y-109216167D01*
X122876417Y-109216167D02*
X122804988Y-109359024D01*
X122804988Y-109359024D02*
X122804988Y-109501881D01*
X123733560Y-110573309D02*
X123804988Y-110430452D01*
X123804988Y-110430452D02*
X123804988Y-110144738D01*
X123804988Y-110144738D02*
X123733560Y-110001880D01*
X123733560Y-110001880D02*
X123590702Y-109930452D01*
X123590702Y-109930452D02*
X123019274Y-109930452D01*
X123019274Y-109930452D02*
X122876417Y-110001880D01*
X122876417Y-110001880D02*
X122804988Y-110144738D01*
X122804988Y-110144738D02*
X122804988Y-110430452D01*
X122804988Y-110430452D02*
X122876417Y-110573309D01*
X122876417Y-110573309D02*
X123019274Y-110644738D01*
X123019274Y-110644738D02*
X123162131Y-110644738D01*
X123162131Y-110644738D02*
X123304988Y-109930452D01*
X123804988Y-111930452D02*
X123019274Y-111930452D01*
X123019274Y-111930452D02*
X122876417Y-111859023D01*
X122876417Y-111859023D02*
X122804988Y-111716166D01*
X122804988Y-111716166D02*
X122804988Y-111430452D01*
X122804988Y-111430452D02*
X122876417Y-111287594D01*
X123733560Y-111930452D02*
X123804988Y-111787594D01*
X123804988Y-111787594D02*
X123804988Y-111430452D01*
X123804988Y-111430452D02*
X123733560Y-111287594D01*
X123733560Y-111287594D02*
X123590702Y-111216166D01*
X123590702Y-111216166D02*
X123447845Y-111216166D01*
X123447845Y-111216166D02*
X123304988Y-111287594D01*
X123304988Y-111287594D02*
X123233560Y-111430452D01*
X123233560Y-111430452D02*
X123233560Y-111787594D01*
X123233560Y-111787594D02*
X123162131Y-111930452D01*
X123804988Y-112644737D02*
X122304988Y-112644737D01*
X123233560Y-112787595D02*
X123804988Y-113216166D01*
X122804988Y-113216166D02*
X123376417Y-112644737D01*
X122804988Y-113644738D02*
X122804988Y-114216166D01*
X122304988Y-113859023D02*
X123590702Y-113859023D01*
X123590702Y-113859023D02*
X123733560Y-113930452D01*
X123733560Y-113930452D02*
X123804988Y-114073309D01*
X123804988Y-114073309D02*
X123804988Y-114216166D01*
X123804988Y-114930452D02*
X123733560Y-114787595D01*
X123733560Y-114787595D02*
X123662131Y-114716166D01*
X123662131Y-114716166D02*
X123519274Y-114644738D01*
X123519274Y-114644738D02*
X123090702Y-114644738D01*
X123090702Y-114644738D02*
X122947845Y-114716166D01*
X122947845Y-114716166D02*
X122876417Y-114787595D01*
X122876417Y-114787595D02*
X122804988Y-114930452D01*
X122804988Y-114930452D02*
X122804988Y-115144738D01*
X122804988Y-115144738D02*
X122876417Y-115287595D01*
X122876417Y-115287595D02*
X122947845Y-115359024D01*
X122947845Y-115359024D02*
X123090702Y-115430452D01*
X123090702Y-115430452D02*
X123519274Y-115430452D01*
X123519274Y-115430452D02*
X123662131Y-115359024D01*
X123662131Y-115359024D02*
X123733560Y-115287595D01*
X123733560Y-115287595D02*
X123804988Y-115144738D01*
X123804988Y-115144738D02*
X123804988Y-114930452D01*
X123804988Y-116073309D02*
X122804988Y-116073309D01*
X123090702Y-116073309D02*
X122947845Y-116144738D01*
X122947845Y-116144738D02*
X122876417Y-116216167D01*
X122876417Y-116216167D02*
X122804988Y-116359024D01*
X122804988Y-116359024D02*
X122804988Y-116501881D01*
X122304988Y-117716166D02*
X122304988Y-117001880D01*
X122304988Y-117001880D02*
X123019274Y-116930452D01*
X123019274Y-116930452D02*
X122947845Y-117001880D01*
X122947845Y-117001880D02*
X122876417Y-117144738D01*
X122876417Y-117144738D02*
X122876417Y-117501880D01*
X122876417Y-117501880D02*
X122947845Y-117644738D01*
X122947845Y-117644738D02*
X123019274Y-117716166D01*
X123019274Y-117716166D02*
X123162131Y-117787595D01*
X123162131Y-117787595D02*
X123519274Y-117787595D01*
X123519274Y-117787595D02*
X123662131Y-117716166D01*
X123662131Y-117716166D02*
X123733560Y-117644738D01*
X123733560Y-117644738D02*
X123804988Y-117501880D01*
X123804988Y-117501880D02*
X123804988Y-117144738D01*
X123804988Y-117144738D02*
X123733560Y-117001880D01*
X123733560Y-117001880D02*
X123662131Y-116930452D01*
X123804988Y-119216166D02*
X123804988Y-118359023D01*
X123804988Y-118787594D02*
X122304988Y-118787594D01*
X122304988Y-118787594D02*
X122519274Y-118644737D01*
X122519274Y-118644737D02*
X122662131Y-118501880D01*
X122662131Y-118501880D02*
X122733560Y-118359023D01*
X123947845Y-119501880D02*
X123947845Y-120644737D01*
X122804988Y-121001879D02*
X124304988Y-121001879D01*
X122876417Y-121001879D02*
X122804988Y-121144737D01*
X122804988Y-121144737D02*
X122804988Y-121430451D01*
X122804988Y-121430451D02*
X122876417Y-121573308D01*
X122876417Y-121573308D02*
X122947845Y-121644737D01*
X122947845Y-121644737D02*
X123090702Y-121716165D01*
X123090702Y-121716165D02*
X123519274Y-121716165D01*
X123519274Y-121716165D02*
X123662131Y-121644737D01*
X123662131Y-121644737D02*
X123733560Y-121573308D01*
X123733560Y-121573308D02*
X123804988Y-121430451D01*
X123804988Y-121430451D02*
X123804988Y-121144737D01*
X123804988Y-121144737D02*
X123733560Y-121001879D01*
X123733560Y-123001880D02*
X123804988Y-122859022D01*
X123804988Y-122859022D02*
X123804988Y-122573308D01*
X123804988Y-122573308D02*
X123733560Y-122430451D01*
X123733560Y-122430451D02*
X123662131Y-122359022D01*
X123662131Y-122359022D02*
X123519274Y-122287594D01*
X123519274Y-122287594D02*
X123090702Y-122287594D01*
X123090702Y-122287594D02*
X122947845Y-122359022D01*
X122947845Y-122359022D02*
X122876417Y-122430451D01*
X122876417Y-122430451D02*
X122804988Y-122573308D01*
X122804988Y-122573308D02*
X122804988Y-122859022D01*
X122804988Y-122859022D02*
X122876417Y-123001880D01*
X123804988Y-123644736D02*
X122304988Y-123644736D01*
X122876417Y-123644736D02*
X122804988Y-123787594D01*
X122804988Y-123787594D02*
X122804988Y-124073308D01*
X122804988Y-124073308D02*
X122876417Y-124216165D01*
X122876417Y-124216165D02*
X122947845Y-124287594D01*
X122947845Y-124287594D02*
X123090702Y-124359022D01*
X123090702Y-124359022D02*
X123519274Y-124359022D01*
X123519274Y-124359022D02*
X123662131Y-124287594D01*
X123662131Y-124287594D02*
X123733560Y-124216165D01*
X123733560Y-124216165D02*
X123804988Y-124073308D01*
X123804988Y-124073308D02*
X123804988Y-123787594D01*
X123804988Y-123787594D02*
X123733560Y-123644736D01*
D11*
X122000000Y-67000000D02*
X131000000Y-67000000D01*
X131000000Y-78500000D01*
X122000000Y-78500000D01*
X122000000Y-67000000D01*
D12*
X125656187Y-68166667D02*
X123156187Y-68166667D01*
X123989520Y-69357143D02*
X125656187Y-69357143D01*
X124227616Y-69357143D02*
X124108568Y-69476190D01*
X124108568Y-69476190D02*
X123989520Y-69714285D01*
X123989520Y-69714285D02*
X123989520Y-70071428D01*
X123989520Y-70071428D02*
X124108568Y-70309524D01*
X124108568Y-70309524D02*
X124346663Y-70428571D01*
X124346663Y-70428571D02*
X125656187Y-70428571D01*
X123989520Y-72690476D02*
X126013330Y-72690476D01*
X126013330Y-72690476D02*
X126251425Y-72571429D01*
X126251425Y-72571429D02*
X126370473Y-72452381D01*
X126370473Y-72452381D02*
X126489520Y-72214286D01*
X126489520Y-72214286D02*
X126489520Y-71857143D01*
X126489520Y-71857143D02*
X126370473Y-71619048D01*
X125537140Y-72690476D02*
X125656187Y-72452381D01*
X125656187Y-72452381D02*
X125656187Y-71976190D01*
X125656187Y-71976190D02*
X125537140Y-71738095D01*
X125537140Y-71738095D02*
X125418092Y-71619048D01*
X125418092Y-71619048D02*
X125179997Y-71500000D01*
X125179997Y-71500000D02*
X124465711Y-71500000D01*
X124465711Y-71500000D02*
X124227616Y-71619048D01*
X124227616Y-71619048D02*
X124108568Y-71738095D01*
X124108568Y-71738095D02*
X123989520Y-71976190D01*
X123989520Y-71976190D02*
X123989520Y-72452381D01*
X123989520Y-72452381D02*
X124108568Y-72690476D01*
X125537140Y-74833334D02*
X125656187Y-74595238D01*
X125656187Y-74595238D02*
X125656187Y-74119048D01*
X125656187Y-74119048D02*
X125537140Y-73880953D01*
X125537140Y-73880953D02*
X125299044Y-73761905D01*
X125299044Y-73761905D02*
X124346663Y-73761905D01*
X124346663Y-73761905D02*
X124108568Y-73880953D01*
X124108568Y-73880953D02*
X123989520Y-74119048D01*
X123989520Y-74119048D02*
X123989520Y-74595238D01*
X123989520Y-74595238D02*
X124108568Y-74833334D01*
X124108568Y-74833334D02*
X124346663Y-74952381D01*
X124346663Y-74952381D02*
X124584759Y-74952381D01*
X124584759Y-74952381D02*
X124822854Y-73761905D01*
X125656187Y-76023810D02*
X123156187Y-76023810D01*
X123156187Y-76023810D02*
X123156187Y-76976191D01*
X123156187Y-76976191D02*
X123275235Y-77214286D01*
X123275235Y-77214286D02*
X123394282Y-77333333D01*
X123394282Y-77333333D02*
X123632378Y-77452381D01*
X123632378Y-77452381D02*
X123989520Y-77452381D01*
X123989520Y-77452381D02*
X124227616Y-77333333D01*
X124227616Y-77333333D02*
X124346663Y-77214286D01*
X124346663Y-77214286D02*
X124465711Y-76976191D01*
X124465711Y-76976191D02*
X124465711Y-76023810D01*
X127419142Y-68464286D02*
X127300095Y-68583334D01*
X127300095Y-68583334D02*
X127181047Y-68821429D01*
X127181047Y-68821429D02*
X127181047Y-69416667D01*
X127181047Y-69416667D02*
X127300095Y-69654762D01*
X127300095Y-69654762D02*
X127419142Y-69773810D01*
X127419142Y-69773810D02*
X127657238Y-69892857D01*
X127657238Y-69892857D02*
X127895333Y-69892857D01*
X127895333Y-69892857D02*
X128252476Y-69773810D01*
X128252476Y-69773810D02*
X129681047Y-68345238D01*
X129681047Y-68345238D02*
X129681047Y-69892857D01*
X127181047Y-71440476D02*
X127181047Y-71678571D01*
X127181047Y-71678571D02*
X127300095Y-71916667D01*
X127300095Y-71916667D02*
X127419142Y-72035714D01*
X127419142Y-72035714D02*
X127657238Y-72154762D01*
X127657238Y-72154762D02*
X128133428Y-72273809D01*
X128133428Y-72273809D02*
X128728666Y-72273809D01*
X128728666Y-72273809D02*
X129204857Y-72154762D01*
X129204857Y-72154762D02*
X129442952Y-72035714D01*
X129442952Y-72035714D02*
X129562000Y-71916667D01*
X129562000Y-71916667D02*
X129681047Y-71678571D01*
X129681047Y-71678571D02*
X129681047Y-71440476D01*
X129681047Y-71440476D02*
X129562000Y-71202381D01*
X129562000Y-71202381D02*
X129442952Y-71083333D01*
X129442952Y-71083333D02*
X129204857Y-70964286D01*
X129204857Y-70964286D02*
X128728666Y-70845238D01*
X128728666Y-70845238D02*
X128133428Y-70845238D01*
X128133428Y-70845238D02*
X127657238Y-70964286D01*
X127657238Y-70964286D02*
X127419142Y-71083333D01*
X127419142Y-71083333D02*
X127300095Y-71202381D01*
X127300095Y-71202381D02*
X127181047Y-71440476D01*
X127419142Y-73226190D02*
X127300095Y-73345238D01*
X127300095Y-73345238D02*
X127181047Y-73583333D01*
X127181047Y-73583333D02*
X127181047Y-74178571D01*
X127181047Y-74178571D02*
X127300095Y-74416666D01*
X127300095Y-74416666D02*
X127419142Y-74535714D01*
X127419142Y-74535714D02*
X127657238Y-74654761D01*
X127657238Y-74654761D02*
X127895333Y-74654761D01*
X127895333Y-74654761D02*
X128252476Y-74535714D01*
X128252476Y-74535714D02*
X129681047Y-73107142D01*
X129681047Y-73107142D02*
X129681047Y-74654761D01*
X128014380Y-76797618D02*
X129681047Y-76797618D01*
X127062000Y-76202380D02*
X128847714Y-75607142D01*
X128847714Y-75607142D02*
X128847714Y-77154761D01*
D13*
X131931009Y-91964285D02*
X131978628Y-92107142D01*
X131978628Y-92107142D02*
X132026247Y-92154761D01*
X132026247Y-92154761D02*
X132121485Y-92202380D01*
X132121485Y-92202380D02*
X132264342Y-92202380D01*
X132264342Y-92202380D02*
X132359580Y-92154761D01*
X132359580Y-92154761D02*
X132407200Y-92107142D01*
X132407200Y-92107142D02*
X132454819Y-92011904D01*
X132454819Y-92011904D02*
X132454819Y-91630952D01*
X132454819Y-91630952D02*
X131454819Y-91630952D01*
X131454819Y-91630952D02*
X131454819Y-91964285D01*
X131454819Y-91964285D02*
X131502438Y-92059523D01*
X131502438Y-92059523D02*
X131550057Y-92107142D01*
X131550057Y-92107142D02*
X131645295Y-92154761D01*
X131645295Y-92154761D02*
X131740533Y-92154761D01*
X131740533Y-92154761D02*
X131835771Y-92107142D01*
X131835771Y-92107142D02*
X131883390Y-92059523D01*
X131883390Y-92059523D02*
X131931009Y-91964285D01*
X131931009Y-91964285D02*
X131931009Y-91630952D01*
X131454819Y-92488095D02*
X131454819Y-93059523D01*
X132454819Y-92773809D02*
X131454819Y-92773809D01*
X132454819Y-93916666D02*
X132454819Y-93345238D01*
X132454819Y-93630952D02*
X131454819Y-93630952D01*
X131454819Y-93630952D02*
X131597676Y-93535714D01*
X131597676Y-93535714D02*
X131692914Y-93440476D01*
X131692914Y-93440476D02*
X131740533Y-93345238D01*
X150321428Y-97614700D02*
X149178571Y-97614700D01*
X149749999Y-98186128D02*
X149749999Y-97043271D01*
X165454819Y-96857142D02*
X165454819Y-96380952D01*
X165454819Y-96380952D02*
X164454819Y-96380952D01*
X165407200Y-97142857D02*
X165454819Y-97285714D01*
X165454819Y-97285714D02*
X165454819Y-97523809D01*
X165454819Y-97523809D02*
X165407200Y-97619047D01*
X165407200Y-97619047D02*
X165359580Y-97666666D01*
X165359580Y-97666666D02*
X165264342Y-97714285D01*
X165264342Y-97714285D02*
X165169104Y-97714285D01*
X165169104Y-97714285D02*
X165073866Y-97666666D01*
X165073866Y-97666666D02*
X165026247Y-97619047D01*
X165026247Y-97619047D02*
X164978628Y-97523809D01*
X164978628Y-97523809D02*
X164931009Y-97333333D01*
X164931009Y-97333333D02*
X164883390Y-97238095D01*
X164883390Y-97238095D02*
X164835771Y-97190476D01*
X164835771Y-97190476D02*
X164740533Y-97142857D01*
X164740533Y-97142857D02*
X164645295Y-97142857D01*
X164645295Y-97142857D02*
X164550057Y-97190476D01*
X164550057Y-97190476D02*
X164502438Y-97238095D01*
X164502438Y-97238095D02*
X164454819Y-97333333D01*
X164454819Y-97333333D02*
X164454819Y-97571428D01*
X164454819Y-97571428D02*
X164502438Y-97714285D01*
X165454819Y-98666666D02*
X165454819Y-98095238D01*
X165454819Y-98380952D02*
X164454819Y-98380952D01*
X164454819Y-98380952D02*
X164597676Y-98285714D01*
X164597676Y-98285714D02*
X164692914Y-98190476D01*
X164692914Y-98190476D02*
X164740533Y-98095238D01*
X162533866Y-93309048D02*
X162533866Y-94070953D01*
X162914819Y-93690000D02*
X162152914Y-93690000D01*
D14*
%TO.C,BT1*%
X149000000Y-94500000D02*
X154700000Y-94500000D01*
X154700000Y-94500000D02*
X154700000Y-100500000D01*
X149000000Y-100500000D02*
X154700000Y-100500000D01*
X148250000Y-101000000D02*
G75*
G02*
X149000000Y-100500000I750000J-312500D01*
G01*
X149000000Y-94500000D02*
G75*
G02*
X148250000Y-94000000I0J812500D01*
G01*
X125804329Y-97500000D02*
G75*
G02*
X148250000Y-94000000I11495715J11D01*
G01*
X148250000Y-101000000D02*
G75*
G02*
X125804329Y-97500000I-10949956J3499989D01*
G01*
%TO.C,LS1*%
X172600000Y-97500000D02*
G75*
G02*
X157400000Y-97500000I-7600000J0D01*
G01*
X157400000Y-97500000D02*
G75*
G02*
X172600000Y-97500000I7600000J0D01*
G01*
%TD*%
M02*
