%TF.GenerationSoftware,KiCad,Pcbnew,8.0.6-8.0.6-0~ubuntu20.04.1*%
%TF.CreationDate,2024-11-17T18:25:06+01:00*%
%TF.ProjectId,reaktor51_game,7265616b-746f-4723-9531-5f67616d652e,1*%
%TF.SameCoordinates,Original*%
%TF.FileFunction,Copper,L1,Top*%
%TF.FilePolarity,Positive*%
%FSLAX46Y46*%
G04 Gerber Fmt 4.6, Leading zero omitted, Abs format (unit mm)*
G04 Created by KiCad (PCBNEW 8.0.6-8.0.6-0~ubuntu20.04.1) date 2024-11-17 18:25:06*
%MOMM*%
%LPD*%
G01*
G04 APERTURE LIST*
%TA.AperFunction,ComponentPad*%
%ADD10C,1.600000*%
%TD*%
%TA.AperFunction,ComponentPad*%
%ADD11O,1.600000X1.600000*%
%TD*%
%TA.AperFunction,ComponentPad*%
%ADD12R,1.600000X1.600000*%
%TD*%
%TA.AperFunction,ComponentPad*%
%ADD13C,1.400000*%
%TD*%
%TA.AperFunction,ComponentPad*%
%ADD14R,3.000000X3.000000*%
%TD*%
%TA.AperFunction,ComponentPad*%
%ADD15C,3.000000*%
%TD*%
%TA.AperFunction,ComponentPad*%
%ADD16C,2.500000*%
%TD*%
%TA.AperFunction,ComponentPad*%
%ADD17C,2.100000*%
%TD*%
%TA.AperFunction,ComponentPad*%
%ADD18R,2.000000X2.000000*%
%TD*%
%TA.AperFunction,ComponentPad*%
%ADD19C,2.000000*%
%TD*%
%TA.AperFunction,ViaPad*%
%ADD20C,0.600000*%
%TD*%
G04 APERTURE END LIST*
D10*
%TO.P,R5,1*%
%TO.N,Net-(BT1-+)*%
X137000000Y-80920000D03*
D11*
%TO.P,R5,2*%
%TO.N,Net-(U1-~{RESET}{slash}PB5)*%
X137000000Y-91080000D03*
%TD*%
D12*
%TO.P,U1,1,~{RESET}/PB5*%
%TO.N,Net-(U1-~{RESET}{slash}PB5)*%
X137700000Y-101300000D03*
D11*
%TO.P,U1,2,PB3*%
%TO.N,Net-(SW3-K)*%
X140240000Y-101300000D03*
%TO.P,U1,3,PB4*%
%TO.N,Net-(SW4-K)*%
X142780000Y-101300000D03*
%TO.P,U1,4,GND*%
%TO.N,GND*%
X145320000Y-101300000D03*
%TO.P,U1,5,PB0*%
%TO.N,Net-(U1-PB0)*%
X145320000Y-93680000D03*
%TO.P,U1,6,PB1*%
%TO.N,Net-(SW1-K)*%
X142780000Y-93680000D03*
%TO.P,U1,7,PB2*%
%TO.N,Net-(SW2-K)*%
X140240000Y-93680000D03*
%TO.P,U1,8,VCC*%
%TO.N,Net-(BT1-+)*%
X137700000Y-93680000D03*
%TD*%
D10*
%TO.P,R6,1*%
%TO.N,Net-(C1-Pad1)*%
X137000000Y-103920000D03*
D11*
%TO.P,R6,2*%
%TO.N,GND*%
X137000000Y-114080000D03*
%TD*%
D10*
%TO.P,R1,1*%
%TO.N,Net-(BT1-+)*%
X155000000Y-80080000D03*
D11*
%TO.P,R1,2*%
%TO.N,Net-(SW1-A)*%
X155000000Y-69920000D03*
%TD*%
D10*
%TO.P,R2,1*%
%TO.N,Net-(BT1-+)*%
X137000000Y-78580000D03*
D11*
%TO.P,R2,2*%
%TO.N,Net-(SW2-A)*%
X137000000Y-68420000D03*
%TD*%
D10*
%TO.P,R3,1*%
%TO.N,Net-(BT1-+)*%
X137000000Y-126580000D03*
D11*
%TO.P,R3,2*%
%TO.N,Net-(SW3-A)*%
X137000000Y-116420000D03*
%TD*%
D10*
%TO.P,R4,1*%
%TO.N,Net-(BT1-+)*%
X155000000Y-125080000D03*
D11*
%TO.P,R4,2*%
%TO.N,Net-(SW4-A)*%
X155000000Y-114920000D03*
%TD*%
D13*
%TO.P,C1,1*%
%TO.N,Net-(C1-Pad1)*%
X141500000Y-105750000D03*
%TO.P,C1,2*%
%TO.N,Net-(C1-Pad2)*%
X141500000Y-108250000D03*
%TD*%
%TO.P,C2,1*%
%TO.N,GND*%
X141500000Y-86750000D03*
%TO.P,C2,2*%
%TO.N,Net-(BT1-+)*%
X141500000Y-89250000D03*
%TD*%
D14*
%TO.P,BT1,1,+*%
%TO.N,Net-(BT1-+)*%
X152500000Y-97500000D03*
D15*
%TO.P,BT1,2,-*%
%TO.N,GND*%
X132010000Y-97500000D03*
%TD*%
D16*
%TO.P,SW4,1,1*%
%TO.N,Net-(SW4-K)*%
X161500000Y-126250000D03*
X161500000Y-113750000D03*
%TO.P,SW4,2,2*%
%TO.N,GND*%
X166500000Y-126250000D03*
X166500000Y-113750000D03*
D17*
%TO.P,SW4,3,K*%
%TO.N,Net-(SW4-K)*%
X157250000Y-120000000D03*
%TO.P,SW4,4,A*%
%TO.N,Net-(SW4-A)*%
X170750000Y-120000000D03*
%TD*%
D16*
%TO.P,SW3,1,1*%
%TO.N,Net-(SW3-K)*%
X143500000Y-126250000D03*
X143500000Y-113750000D03*
%TO.P,SW3,2,2*%
%TO.N,GND*%
X148500000Y-126250000D03*
X148500000Y-113750000D03*
D17*
%TO.P,SW3,3,K*%
%TO.N,Net-(SW3-K)*%
X139250000Y-120000000D03*
%TO.P,SW3,4,A*%
%TO.N,Net-(SW3-A)*%
X152750000Y-120000000D03*
%TD*%
D16*
%TO.P,SW2,1,1*%
%TO.N,Net-(SW2-K)*%
X143500000Y-81250000D03*
X143500000Y-68750000D03*
%TO.P,SW2,2,2*%
%TO.N,GND*%
X148500000Y-81250000D03*
X148500000Y-68750000D03*
D17*
%TO.P,SW2,3,K*%
%TO.N,Net-(SW2-K)*%
X139250000Y-75000000D03*
%TO.P,SW2,4,A*%
%TO.N,Net-(SW2-A)*%
X152750000Y-75000000D03*
%TD*%
D16*
%TO.P,SW1,1,1*%
%TO.N,Net-(SW1-K)*%
X161500000Y-81250000D03*
X161500000Y-68750000D03*
%TO.P,SW1,2,2*%
%TO.N,GND*%
X166500000Y-81250000D03*
X166500000Y-68750000D03*
D17*
%TO.P,SW1,3,K*%
%TO.N,Net-(SW1-K)*%
X157250000Y-75000000D03*
%TO.P,SW1,4,A*%
%TO.N,Net-(SW1-A)*%
X170750000Y-75000000D03*
%TD*%
D18*
%TO.P,LS1,1,1*%
%TO.N,Net-(U1-PB0)*%
X165000000Y-93700000D03*
D19*
%TO.P,LS1,2,2*%
%TO.N,Net-(C1-Pad2)*%
X165000000Y-101300000D03*
%TD*%
D20*
%TO.N,GND*%
X142250000Y-117250000D03*
X150500000Y-77500000D03*
X144000000Y-99500000D03*
X143500000Y-103500000D03*
X162500000Y-102500000D03*
X132500000Y-125000000D03*
X132500000Y-70000000D03*
X171500000Y-102500000D03*
X171500000Y-92500000D03*
X162500000Y-92500000D03*
X157500000Y-102500000D03*
X157500000Y-92500000D03*
X141000000Y-112000000D03*
%TD*%
%TA.AperFunction,Conductor*%
%TO.N,GND*%
G36*
X173442539Y-65520185D02*
G01*
X173488294Y-65572989D01*
X173499500Y-65624500D01*
X173499500Y-85375500D01*
X173479815Y-85442539D01*
X173427011Y-85488294D01*
X173375500Y-85499500D01*
X155889361Y-85499500D01*
X155822322Y-85479815D01*
X155780739Y-85435311D01*
X155640701Y-85180988D01*
X155384282Y-84796719D01*
X155096127Y-84435638D01*
X154778322Y-84100357D01*
X154778319Y-84100354D01*
X154778315Y-84100350D01*
X154490432Y-83844247D01*
X154433168Y-83793304D01*
X154063162Y-83516701D01*
X154063156Y-83516697D01*
X154063147Y-83516691D01*
X153671002Y-83272561D01*
X153670997Y-83272558D01*
X153670984Y-83272550D01*
X153259471Y-83062620D01*
X153259470Y-83062619D01*
X153259467Y-83062618D01*
X152831610Y-82888431D01*
X152816060Y-82883595D01*
X152745824Y-82861751D01*
X152390483Y-82751239D01*
X152291118Y-82729393D01*
X151939287Y-82652040D01*
X151481298Y-82591554D01*
X151481294Y-82591553D01*
X151481291Y-82591553D01*
X151019819Y-82570216D01*
X150558224Y-82588182D01*
X150558211Y-82588183D01*
X150250863Y-82626493D01*
X150099787Y-82645324D01*
X149928146Y-82681749D01*
X149703637Y-82729393D01*
X149633972Y-82724054D01*
X149592016Y-82692311D01*
X149590388Y-82693940D01*
X149578638Y-82682190D01*
X149578252Y-82681898D01*
X149578197Y-82681749D01*
X148824025Y-81927578D01*
X148855258Y-81914641D01*
X148978097Y-81832563D01*
X149082563Y-81728097D01*
X149164641Y-81605258D01*
X149177578Y-81574025D01*
X149902125Y-82298572D01*
X149949971Y-82238573D01*
X150081116Y-82011426D01*
X150176941Y-81767270D01*
X150235306Y-81511550D01*
X150235307Y-81511545D01*
X150254907Y-81250004D01*
X150254907Y-81249995D01*
X150235307Y-80988454D01*
X150235306Y-80988449D01*
X150176941Y-80732729D01*
X150081116Y-80488573D01*
X150081117Y-80488573D01*
X149949972Y-80261426D01*
X149902124Y-80201427D01*
X149177577Y-80925973D01*
X149164641Y-80894742D01*
X149082563Y-80771903D01*
X148978097Y-80667437D01*
X148855258Y-80585359D01*
X148824025Y-80572421D01*
X149316448Y-80079998D01*
X153694532Y-80079998D01*
X153694532Y-80080001D01*
X153714364Y-80306686D01*
X153714366Y-80306697D01*
X153773258Y-80526488D01*
X153773261Y-80526497D01*
X153869431Y-80732732D01*
X153869432Y-80732734D01*
X153999954Y-80919141D01*
X154160858Y-81080045D01*
X154160861Y-81080047D01*
X154347266Y-81210568D01*
X154553504Y-81306739D01*
X154773308Y-81365635D01*
X154935230Y-81379801D01*
X154999998Y-81385468D01*
X155000000Y-81385468D01*
X155000002Y-81385468D01*
X155056673Y-81380509D01*
X155226692Y-81365635D01*
X155446496Y-81306739D01*
X155568183Y-81249995D01*
X159744592Y-81249995D01*
X159744592Y-81250004D01*
X159764196Y-81511620D01*
X159764197Y-81511625D01*
X159822576Y-81767402D01*
X159822578Y-81767411D01*
X159822580Y-81767416D01*
X159918432Y-82011643D01*
X160049614Y-82238857D01*
X160181736Y-82404533D01*
X160213198Y-82443985D01*
X160349244Y-82570216D01*
X160405521Y-82622433D01*
X160622296Y-82770228D01*
X160622301Y-82770230D01*
X160622302Y-82770231D01*
X160622303Y-82770232D01*
X160747843Y-82830688D01*
X160858673Y-82884061D01*
X160858674Y-82884061D01*
X160858677Y-82884063D01*
X161109385Y-82961396D01*
X161368818Y-83000500D01*
X161631182Y-83000500D01*
X161890615Y-82961396D01*
X162141323Y-82884063D01*
X162377704Y-82770228D01*
X162594479Y-82622433D01*
X162786805Y-82443981D01*
X162950386Y-82238857D01*
X163081568Y-82011643D01*
X163177420Y-81767416D01*
X163235802Y-81511630D01*
X163235808Y-81511550D01*
X163255408Y-81250004D01*
X163255408Y-81249995D01*
X164745093Y-81249995D01*
X164745093Y-81250004D01*
X164764692Y-81511545D01*
X164764693Y-81511550D01*
X164823058Y-81767270D01*
X164918883Y-82011426D01*
X164918882Y-82011426D01*
X165050027Y-82238573D01*
X165097874Y-82298571D01*
X165822421Y-81574024D01*
X165835359Y-81605258D01*
X165917437Y-81728097D01*
X166021903Y-81832563D01*
X166144742Y-81914641D01*
X166175974Y-81927577D01*
X165450830Y-82652720D01*
X165622546Y-82769793D01*
X165622550Y-82769795D01*
X165858854Y-82883594D01*
X165858858Y-82883595D01*
X166109494Y-82960907D01*
X166109500Y-82960909D01*
X166368848Y-82999999D01*
X166368857Y-83000000D01*
X166631143Y-83000000D01*
X166631151Y-82999999D01*
X166890499Y-82960909D01*
X166890505Y-82960907D01*
X167141143Y-82883595D01*
X167377445Y-82769798D01*
X167377447Y-82769797D01*
X167549168Y-82652720D01*
X166824025Y-81927578D01*
X166855258Y-81914641D01*
X166978097Y-81832563D01*
X167082563Y-81728097D01*
X167164641Y-81605258D01*
X167177578Y-81574025D01*
X167902125Y-82298572D01*
X167949971Y-82238573D01*
X168081116Y-82011426D01*
X168176941Y-81767270D01*
X168235306Y-81511550D01*
X168235307Y-81511545D01*
X168254907Y-81250004D01*
X168254907Y-81249995D01*
X168235307Y-80988454D01*
X168235306Y-80988449D01*
X168176941Y-80732729D01*
X168081116Y-80488573D01*
X168081117Y-80488573D01*
X167949972Y-80261426D01*
X167902124Y-80201427D01*
X167177577Y-80925973D01*
X167164641Y-80894742D01*
X167082563Y-80771903D01*
X166978097Y-80667437D01*
X166855258Y-80585359D01*
X166824025Y-80572421D01*
X167549168Y-79847278D01*
X167377454Y-79730206D01*
X167377445Y-79730201D01*
X167141142Y-79616404D01*
X167141144Y-79616404D01*
X166890505Y-79539092D01*
X166890499Y-79539090D01*
X166631151Y-79500000D01*
X166368848Y-79500000D01*
X166109500Y-79539090D01*
X166109494Y-79539092D01*
X165858858Y-79616404D01*
X165858854Y-79616405D01*
X165622547Y-79730205D01*
X165622539Y-79730210D01*
X165450830Y-79847277D01*
X166175974Y-80572421D01*
X166144742Y-80585359D01*
X166021903Y-80667437D01*
X165917437Y-80771903D01*
X165835359Y-80894742D01*
X165822422Y-80925974D01*
X165097875Y-80201427D01*
X165097874Y-80201427D01*
X165050028Y-80261425D01*
X164918883Y-80488573D01*
X164823058Y-80732729D01*
X164764693Y-80988449D01*
X164764692Y-80988454D01*
X164745093Y-81249995D01*
X163255408Y-81249995D01*
X163235803Y-80988379D01*
X163235802Y-80988374D01*
X163235802Y-80988370D01*
X163177420Y-80732584D01*
X163081568Y-80488357D01*
X162950386Y-80261143D01*
X162786805Y-80056019D01*
X162786804Y-80056018D01*
X162786801Y-80056014D01*
X162594479Y-79877567D01*
X162558905Y-79853313D01*
X162377704Y-79729772D01*
X162377700Y-79729770D01*
X162377697Y-79729768D01*
X162377696Y-79729767D01*
X162141325Y-79615938D01*
X162141327Y-79615938D01*
X161890623Y-79538606D01*
X161890619Y-79538605D01*
X161890615Y-79538604D01*
X161765823Y-79519794D01*
X161631187Y-79499500D01*
X161631182Y-79499500D01*
X161368818Y-79499500D01*
X161368812Y-79499500D01*
X161207247Y-79523853D01*
X161109385Y-79538604D01*
X161109382Y-79538605D01*
X161109376Y-79538606D01*
X160858673Y-79615938D01*
X160622303Y-79729767D01*
X160622302Y-79729768D01*
X160622296Y-79729771D01*
X160622296Y-79729772D01*
X160621654Y-79730210D01*
X160405520Y-79877567D01*
X160213198Y-80056014D01*
X160049614Y-80261143D01*
X159918432Y-80488356D01*
X159822582Y-80732578D01*
X159822576Y-80732597D01*
X159764197Y-80988374D01*
X159764196Y-80988379D01*
X159744592Y-81249995D01*
X155568183Y-81249995D01*
X155652734Y-81210568D01*
X155839139Y-81080047D01*
X156000047Y-80919139D01*
X156130568Y-80732734D01*
X156226739Y-80526496D01*
X156285635Y-80306692D01*
X156305468Y-80080000D01*
X156303369Y-80056014D01*
X156291466Y-79919954D01*
X156285635Y-79853308D01*
X156226739Y-79633504D01*
X156130568Y-79427266D01*
X156000047Y-79240861D01*
X156000045Y-79240858D01*
X155839141Y-79079954D01*
X155652734Y-78949432D01*
X155652732Y-78949431D01*
X155446497Y-78853261D01*
X155446488Y-78853258D01*
X155226697Y-78794366D01*
X155226693Y-78794365D01*
X155226692Y-78794365D01*
X155226691Y-78794364D01*
X155226686Y-78794364D01*
X155000002Y-78774532D01*
X154999998Y-78774532D01*
X154773313Y-78794364D01*
X154773302Y-78794366D01*
X154553511Y-78853258D01*
X154553502Y-78853261D01*
X154347267Y-78949431D01*
X154347265Y-78949432D01*
X154160858Y-79079954D01*
X153999954Y-79240858D01*
X153869432Y-79427265D01*
X153869431Y-79427267D01*
X153773261Y-79633502D01*
X153773258Y-79633511D01*
X153714366Y-79853302D01*
X153714364Y-79853313D01*
X153694532Y-80079998D01*
X149316448Y-80079998D01*
X149549168Y-79847278D01*
X149377454Y-79730206D01*
X149377445Y-79730201D01*
X149141142Y-79616404D01*
X149141144Y-79616404D01*
X148890505Y-79539092D01*
X148890499Y-79539090D01*
X148631151Y-79500000D01*
X148368848Y-79500000D01*
X148109500Y-79539090D01*
X148109494Y-79539092D01*
X147858858Y-79616404D01*
X147858854Y-79616405D01*
X147622547Y-79730205D01*
X147622539Y-79730210D01*
X147450830Y-79847277D01*
X148175974Y-80572421D01*
X148144742Y-80585359D01*
X148021903Y-80667437D01*
X147917437Y-80771903D01*
X147835359Y-80894742D01*
X147822422Y-80925974D01*
X147097875Y-80201427D01*
X147097874Y-80201427D01*
X147050028Y-80261425D01*
X146918883Y-80488573D01*
X146823058Y-80732729D01*
X146764693Y-80988449D01*
X146764692Y-80988454D01*
X146745093Y-81249995D01*
X146745093Y-81250004D01*
X146764692Y-81511545D01*
X146764693Y-81511550D01*
X146823058Y-81767270D01*
X146918883Y-82011426D01*
X146918882Y-82011426D01*
X147050027Y-82238573D01*
X147097874Y-82298571D01*
X147822421Y-81574024D01*
X147835359Y-81605258D01*
X147917437Y-81728097D01*
X148021903Y-81832563D01*
X148144742Y-81914641D01*
X148175974Y-81927577D01*
X147450830Y-82652720D01*
X147622546Y-82769793D01*
X147622550Y-82769795D01*
X147858854Y-82883594D01*
X147858858Y-82883595D01*
X148109494Y-82960907D01*
X148109500Y-82960909D01*
X148366547Y-82999652D01*
X148429904Y-83029108D01*
X148467278Y-83088142D01*
X148466803Y-83158010D01*
X148428630Y-83216530D01*
X148403608Y-83233132D01*
X148363619Y-83253165D01*
X148363600Y-83253176D01*
X147969660Y-83494451D01*
X147597637Y-83768348D01*
X147250245Y-84072879D01*
X146930009Y-84405824D01*
X146639222Y-84764796D01*
X146639217Y-84764802D01*
X146380011Y-85147170D01*
X146154226Y-85550220D01*
X145963528Y-85970986D01*
X145809286Y-86406440D01*
X145809285Y-86406445D01*
X145692618Y-86853424D01*
X145614364Y-87308724D01*
X145590781Y-87585163D01*
X145576132Y-87756880D01*
X145575096Y-87769020D01*
X145575096Y-88230979D01*
X145614364Y-88691275D01*
X145692618Y-89146575D01*
X145809285Y-89593554D01*
X145809286Y-89593559D01*
X145963528Y-90029013D01*
X146154226Y-90449779D01*
X146380011Y-90852829D01*
X146639217Y-91235197D01*
X146639219Y-91235200D01*
X146639225Y-91235208D01*
X146930009Y-91594176D01*
X147250253Y-91927128D01*
X147462315Y-92113025D01*
X147597637Y-92231651D01*
X147597640Y-92231653D01*
X147969656Y-92505546D01*
X148363606Y-92746827D01*
X148776641Y-92953747D01*
X148776645Y-92953748D01*
X148776648Y-92953750D01*
X149205748Y-93124801D01*
X149205750Y-93124802D01*
X149205756Y-93124803D01*
X149205769Y-93124809D01*
X149647884Y-93258775D01*
X150099787Y-93354676D01*
X150558207Y-93411816D01*
X150558215Y-93411816D01*
X150558224Y-93411817D01*
X151019821Y-93429783D01*
X151019822Y-93429782D01*
X151019824Y-93429783D01*
X151481298Y-93408446D01*
X151939287Y-93347960D01*
X152390478Y-93248762D01*
X152831604Y-93111571D01*
X153259471Y-92937380D01*
X153670984Y-92727450D01*
X153791962Y-92652135D01*
X163499500Y-92652135D01*
X163499500Y-94747870D01*
X163499501Y-94747876D01*
X163505908Y-94807483D01*
X163556202Y-94942328D01*
X163556206Y-94942335D01*
X163642452Y-95057544D01*
X163642455Y-95057547D01*
X163757664Y-95143793D01*
X163757671Y-95143797D01*
X163892517Y-95194091D01*
X163892516Y-95194091D01*
X163899444Y-95194835D01*
X163952127Y-95200500D01*
X166047872Y-95200499D01*
X166107483Y-95194091D01*
X166242331Y-95143796D01*
X166357546Y-95057546D01*
X166443796Y-94942331D01*
X166494091Y-94807483D01*
X166500500Y-94747873D01*
X166500499Y-92652128D01*
X166494091Y-92592517D01*
X166478021Y-92549432D01*
X166443797Y-92457671D01*
X166443793Y-92457664D01*
X166357547Y-92342455D01*
X166357544Y-92342452D01*
X166242335Y-92256206D01*
X166242328Y-92256202D01*
X166107482Y-92205908D01*
X166107483Y-92205908D01*
X166047883Y-92199501D01*
X166047881Y-92199500D01*
X166047873Y-92199500D01*
X166047864Y-92199500D01*
X163952129Y-92199500D01*
X163952123Y-92199501D01*
X163892516Y-92205908D01*
X163757671Y-92256202D01*
X163757664Y-92256206D01*
X163642455Y-92342452D01*
X163642452Y-92342455D01*
X163556206Y-92457664D01*
X163556202Y-92457671D01*
X163505908Y-92592517D01*
X163499501Y-92652116D01*
X163499501Y-92652123D01*
X163499500Y-92652135D01*
X153791962Y-92652135D01*
X154063162Y-92483299D01*
X154433168Y-92206696D01*
X154778322Y-91899643D01*
X155096127Y-91564362D01*
X155384282Y-91203281D01*
X155640701Y-90819012D01*
X155780740Y-90564687D01*
X155830319Y-90515459D01*
X155889361Y-90500500D01*
X173375500Y-90500500D01*
X173442539Y-90520185D01*
X173488294Y-90572989D01*
X173499500Y-90624500D01*
X173499500Y-104375500D01*
X173479815Y-104442539D01*
X173427011Y-104488294D01*
X173375500Y-104499500D01*
X155889361Y-104499500D01*
X155822322Y-104479815D01*
X155780739Y-104435311D01*
X155640701Y-104180988D01*
X155384282Y-103796719D01*
X155096127Y-103435638D01*
X154778322Y-103100357D01*
X154778319Y-103100354D01*
X154778315Y-103100350D01*
X154584053Y-102927533D01*
X154433168Y-102793304D01*
X154146327Y-102578872D01*
X154063173Y-102516709D01*
X154063168Y-102516706D01*
X154063162Y-102516701D01*
X154063156Y-102516697D01*
X154063147Y-102516691D01*
X153671002Y-102272561D01*
X153670997Y-102272558D01*
X153670984Y-102272550D01*
X153259471Y-102062620D01*
X153259470Y-102062619D01*
X153259467Y-102062618D01*
X152831610Y-101888431D01*
X152789057Y-101875197D01*
X152681335Y-101841695D01*
X152390483Y-101751239D01*
X152331447Y-101738259D01*
X151939287Y-101652040D01*
X151481298Y-101591554D01*
X151481294Y-101591553D01*
X151481291Y-101591553D01*
X151019819Y-101570216D01*
X150558224Y-101588182D01*
X150558211Y-101588183D01*
X150302313Y-101620080D01*
X150099787Y-101645324D01*
X149970593Y-101672741D01*
X149647884Y-101741224D01*
X149647884Y-101741225D01*
X149205769Y-101875191D01*
X149205766Y-101875192D01*
X149205750Y-101875197D01*
X149205748Y-101875198D01*
X148776648Y-102046249D01*
X148776630Y-102046258D01*
X148363609Y-102253171D01*
X148363600Y-102253176D01*
X147969660Y-102494451D01*
X147597637Y-102768348D01*
X147250245Y-103072879D01*
X146930009Y-103405824D01*
X146639222Y-103764796D01*
X146639217Y-103764802D01*
X146380011Y-104147170D01*
X146154226Y-104550220D01*
X145963528Y-104970986D01*
X145809286Y-105406440D01*
X145809285Y-105406445D01*
X145692618Y-105853424D01*
X145614364Y-106308724D01*
X145575096Y-106769020D01*
X145575096Y-107230979D01*
X145614364Y-107691275D01*
X145692618Y-108146575D01*
X145809285Y-108593554D01*
X145809286Y-108593559D01*
X145963528Y-109029013D01*
X146154226Y-109449779D01*
X146380011Y-109852829D01*
X146639217Y-110235197D01*
X146639219Y-110235200D01*
X146639225Y-110235208D01*
X146930009Y-110594176D01*
X147250253Y-110927128D01*
X147327911Y-110995204D01*
X147597637Y-111231651D01*
X147597640Y-111231653D01*
X147969656Y-111505546D01*
X148363606Y-111746827D01*
X148363618Y-111746833D01*
X148403606Y-111766866D01*
X148454728Y-111814493D01*
X148471986Y-111882198D01*
X148449899Y-111948485D01*
X148395482Y-111992308D01*
X148366547Y-112000347D01*
X148109500Y-112039090D01*
X148109494Y-112039092D01*
X147858858Y-112116404D01*
X147858854Y-112116405D01*
X147622547Y-112230205D01*
X147622539Y-112230210D01*
X147450830Y-112347277D01*
X148175974Y-113072421D01*
X148144742Y-113085359D01*
X148021903Y-113167437D01*
X147917437Y-113271903D01*
X147835359Y-113394742D01*
X147822422Y-113425974D01*
X147097875Y-112701427D01*
X147097874Y-112701427D01*
X147050028Y-112761425D01*
X146918883Y-112988573D01*
X146823058Y-113232729D01*
X146764693Y-113488449D01*
X146764692Y-113488454D01*
X146745093Y-113749995D01*
X146745093Y-113750004D01*
X146764692Y-114011545D01*
X146764693Y-114011550D01*
X146823058Y-114267270D01*
X146918883Y-114511426D01*
X146918882Y-114511426D01*
X147050027Y-114738573D01*
X147097874Y-114798571D01*
X147822421Y-114074024D01*
X147835359Y-114105258D01*
X147917437Y-114228097D01*
X148021903Y-114332563D01*
X148144742Y-114414641D01*
X148175974Y-114427577D01*
X147450830Y-115152720D01*
X147622546Y-115269793D01*
X147622550Y-115269795D01*
X147858854Y-115383594D01*
X147858858Y-115383595D01*
X148109494Y-115460907D01*
X148109500Y-115460909D01*
X148368848Y-115499999D01*
X148368857Y-115500000D01*
X148631143Y-115500000D01*
X148631151Y-115499999D01*
X148890499Y-115460909D01*
X148890505Y-115460907D01*
X149141143Y-115383595D01*
X149377445Y-115269798D01*
X149377447Y-115269797D01*
X149549168Y-115152720D01*
X149316446Y-114919998D01*
X153694532Y-114919998D01*
X153694532Y-114920001D01*
X153714364Y-115146686D01*
X153714366Y-115146697D01*
X153773258Y-115366488D01*
X153773261Y-115366497D01*
X153869431Y-115572732D01*
X153869432Y-115572734D01*
X153999954Y-115759141D01*
X154160858Y-115920045D01*
X154160861Y-115920047D01*
X154347266Y-116050568D01*
X154553504Y-116146739D01*
X154773308Y-116205635D01*
X154935230Y-116219801D01*
X154999998Y-116225468D01*
X155000000Y-116225468D01*
X155000002Y-116225468D01*
X155056673Y-116220509D01*
X155226692Y-116205635D01*
X155446496Y-116146739D01*
X155652734Y-116050568D01*
X155839139Y-115920047D01*
X156000047Y-115759139D01*
X156130568Y-115572734D01*
X156226739Y-115366496D01*
X156285635Y-115146692D01*
X156305468Y-114920000D01*
X156285635Y-114693308D01*
X156226739Y-114473504D01*
X156130568Y-114267266D01*
X156000047Y-114080861D01*
X156000045Y-114080858D01*
X155839141Y-113919954D01*
X155652734Y-113789432D01*
X155652732Y-113789431D01*
X155568162Y-113749995D01*
X159744592Y-113749995D01*
X159744592Y-113750004D01*
X159764196Y-114011620D01*
X159764197Y-114011625D01*
X159822576Y-114267402D01*
X159822578Y-114267411D01*
X159822580Y-114267416D01*
X159918432Y-114511643D01*
X160049614Y-114738857D01*
X160181736Y-114904533D01*
X160213198Y-114943985D01*
X160394753Y-115112441D01*
X160405521Y-115122433D01*
X160622296Y-115270228D01*
X160622301Y-115270230D01*
X160622302Y-115270231D01*
X160622303Y-115270232D01*
X160747843Y-115330688D01*
X160858673Y-115384061D01*
X160858674Y-115384061D01*
X160858677Y-115384063D01*
X161109385Y-115461396D01*
X161368818Y-115500500D01*
X161631182Y-115500500D01*
X161890615Y-115461396D01*
X162141323Y-115384063D01*
X162328111Y-115294110D01*
X162377696Y-115270232D01*
X162377696Y-115270231D01*
X162377704Y-115270228D01*
X162594479Y-115122433D01*
X162786805Y-114943981D01*
X162950386Y-114738857D01*
X163081568Y-114511643D01*
X163177420Y-114267416D01*
X163235802Y-114011630D01*
X163235808Y-114011550D01*
X163255408Y-113750004D01*
X163255408Y-113749995D01*
X164745093Y-113749995D01*
X164745093Y-113750004D01*
X164764692Y-114011545D01*
X164764693Y-114011550D01*
X164823058Y-114267270D01*
X164918883Y-114511426D01*
X164918882Y-114511426D01*
X165050027Y-114738573D01*
X165097874Y-114798571D01*
X165822421Y-114074024D01*
X165835359Y-114105258D01*
X165917437Y-114228097D01*
X166021903Y-114332563D01*
X166144742Y-114414641D01*
X166175974Y-114427577D01*
X165450830Y-115152720D01*
X165622546Y-115269793D01*
X165622550Y-115269795D01*
X165858854Y-115383594D01*
X165858858Y-115383595D01*
X166109494Y-115460907D01*
X166109500Y-115460909D01*
X166368848Y-115499999D01*
X166368857Y-115500000D01*
X166631143Y-115500000D01*
X166631151Y-115499999D01*
X166890499Y-115460909D01*
X166890505Y-115460907D01*
X167141143Y-115383595D01*
X167377445Y-115269798D01*
X167377447Y-115269797D01*
X167549168Y-115152720D01*
X166824025Y-114427578D01*
X166855258Y-114414641D01*
X166978097Y-114332563D01*
X167082563Y-114228097D01*
X167164641Y-114105258D01*
X167177578Y-114074025D01*
X167902125Y-114798572D01*
X167949971Y-114738573D01*
X168081116Y-114511426D01*
X168176941Y-114267270D01*
X168235306Y-114011550D01*
X168235307Y-114011545D01*
X168254907Y-113750004D01*
X168254907Y-113749995D01*
X168235307Y-113488454D01*
X168235306Y-113488449D01*
X168176941Y-113232729D01*
X168081116Y-112988573D01*
X168081117Y-112988573D01*
X167949972Y-112761426D01*
X167902124Y-112701427D01*
X167177577Y-113425973D01*
X167164641Y-113394742D01*
X167082563Y-113271903D01*
X166978097Y-113167437D01*
X166855258Y-113085359D01*
X166824025Y-113072421D01*
X167549168Y-112347278D01*
X167377454Y-112230206D01*
X167377445Y-112230201D01*
X167141142Y-112116404D01*
X167141144Y-112116404D01*
X166890505Y-112039092D01*
X166890499Y-112039090D01*
X166631151Y-112000000D01*
X166368848Y-112000000D01*
X166109500Y-112039090D01*
X166109494Y-112039092D01*
X165858858Y-112116404D01*
X165858854Y-112116405D01*
X165622547Y-112230205D01*
X165622539Y-112230210D01*
X165450830Y-112347277D01*
X166175974Y-113072421D01*
X166144742Y-113085359D01*
X166021903Y-113167437D01*
X165917437Y-113271903D01*
X165835359Y-113394742D01*
X165822422Y-113425974D01*
X165097875Y-112701427D01*
X165097874Y-112701427D01*
X165050028Y-112761425D01*
X164918883Y-112988573D01*
X164823058Y-113232729D01*
X164764693Y-113488449D01*
X164764692Y-113488454D01*
X164745093Y-113749995D01*
X163255408Y-113749995D01*
X163235803Y-113488379D01*
X163235802Y-113488374D01*
X163235802Y-113488370D01*
X163177420Y-113232584D01*
X163081568Y-112988357D01*
X162950386Y-112761143D01*
X162786805Y-112556019D01*
X162786804Y-112556018D01*
X162786801Y-112556014D01*
X162594479Y-112377567D01*
X162560900Y-112354673D01*
X162377704Y-112229772D01*
X162377700Y-112229770D01*
X162377697Y-112229768D01*
X162377696Y-112229767D01*
X162141325Y-112115938D01*
X162141327Y-112115938D01*
X161890623Y-112038606D01*
X161890619Y-112038605D01*
X161890615Y-112038604D01*
X161765823Y-112019794D01*
X161631187Y-111999500D01*
X161631182Y-111999500D01*
X161368818Y-111999500D01*
X161368812Y-111999500D01*
X161207247Y-112023853D01*
X161109385Y-112038604D01*
X161109382Y-112038605D01*
X161109376Y-112038606D01*
X160858673Y-112115938D01*
X160622303Y-112229767D01*
X160622302Y-112229768D01*
X160622296Y-112229771D01*
X160622296Y-112229772D01*
X160621654Y-112230210D01*
X160405520Y-112377567D01*
X160213198Y-112556014D01*
X160049614Y-112761143D01*
X159918432Y-112988356D01*
X159822582Y-113232578D01*
X159822576Y-113232597D01*
X159764197Y-113488374D01*
X159764196Y-113488379D01*
X159744592Y-113749995D01*
X155568162Y-113749995D01*
X155446497Y-113693261D01*
X155446488Y-113693258D01*
X155226697Y-113634366D01*
X155226693Y-113634365D01*
X155226692Y-113634365D01*
X155226691Y-113634364D01*
X155226686Y-113634364D01*
X155000002Y-113614532D01*
X154999998Y-113614532D01*
X154773313Y-113634364D01*
X154773302Y-113634366D01*
X154553511Y-113693258D01*
X154553502Y-113693261D01*
X154347267Y-113789431D01*
X154347265Y-113789432D01*
X154160858Y-113919954D01*
X153999954Y-114080858D01*
X153869432Y-114267265D01*
X153869431Y-114267267D01*
X153773261Y-114473502D01*
X153773258Y-114473511D01*
X153714366Y-114693302D01*
X153714364Y-114693313D01*
X153694532Y-114919998D01*
X149316446Y-114919998D01*
X148824025Y-114427578D01*
X148855258Y-114414641D01*
X148978097Y-114332563D01*
X149082563Y-114228097D01*
X149164641Y-114105258D01*
X149177578Y-114074025D01*
X149902125Y-114798572D01*
X149949971Y-114738573D01*
X150081116Y-114511426D01*
X150176941Y-114267270D01*
X150235306Y-114011550D01*
X150235307Y-114011545D01*
X150254907Y-113750004D01*
X150254907Y-113749995D01*
X150235307Y-113488454D01*
X150235306Y-113488449D01*
X150176941Y-113232729D01*
X150081116Y-112988573D01*
X150081117Y-112988573D01*
X149949972Y-112761426D01*
X149902124Y-112701427D01*
X149177577Y-113425973D01*
X149164641Y-113394742D01*
X149082563Y-113271903D01*
X148978097Y-113167437D01*
X148855258Y-113085359D01*
X148824025Y-113072422D01*
X149590388Y-112306059D01*
X149592933Y-112308604D01*
X149616025Y-112284444D01*
X149683945Y-112268053D01*
X149703628Y-112270604D01*
X150099787Y-112354676D01*
X150558207Y-112411816D01*
X150558215Y-112411816D01*
X150558224Y-112411817D01*
X151019821Y-112429783D01*
X151019822Y-112429782D01*
X151019824Y-112429783D01*
X151481298Y-112408446D01*
X151939287Y-112347960D01*
X152390478Y-112248762D01*
X152831604Y-112111571D01*
X153259471Y-111937380D01*
X153670984Y-111727450D01*
X154063162Y-111483299D01*
X154433168Y-111206696D01*
X154778322Y-110899643D01*
X155096127Y-110564362D01*
X155384282Y-110203281D01*
X155640701Y-109819012D01*
X155780740Y-109564687D01*
X155830319Y-109515459D01*
X155889361Y-109500500D01*
X173375500Y-109500500D01*
X173442539Y-109520185D01*
X173488294Y-109572989D01*
X173499500Y-109624500D01*
X173499500Y-129375500D01*
X173479815Y-129442539D01*
X173427011Y-129488294D01*
X173375500Y-129499500D01*
X120624500Y-129499500D01*
X120557461Y-129479815D01*
X120511706Y-129427011D01*
X120500500Y-129375500D01*
X120500500Y-126579998D01*
X135694532Y-126579998D01*
X135694532Y-126580001D01*
X135714364Y-126806686D01*
X135714366Y-126806697D01*
X135773258Y-127026488D01*
X135773261Y-127026497D01*
X135869431Y-127232732D01*
X135869432Y-127232734D01*
X135999954Y-127419141D01*
X136160858Y-127580045D01*
X136160861Y-127580047D01*
X136347266Y-127710568D01*
X136553504Y-127806739D01*
X136773308Y-127865635D01*
X136935230Y-127879801D01*
X136999998Y-127885468D01*
X137000000Y-127885468D01*
X137000002Y-127885468D01*
X137056673Y-127880509D01*
X137226692Y-127865635D01*
X137446496Y-127806739D01*
X137652734Y-127710568D01*
X137839139Y-127580047D01*
X138000047Y-127419139D01*
X138130568Y-127232734D01*
X138226739Y-127026496D01*
X138285635Y-126806692D01*
X138305468Y-126580000D01*
X138285635Y-126353308D01*
X138257953Y-126249995D01*
X141744592Y-126249995D01*
X141744592Y-126250004D01*
X141764196Y-126511620D01*
X141764197Y-126511625D01*
X141822576Y-126767402D01*
X141822578Y-126767411D01*
X141822580Y-126767416D01*
X141918432Y-127011643D01*
X142049614Y-127238857D01*
X142181736Y-127404533D01*
X142213198Y-127443985D01*
X142394753Y-127612441D01*
X142405521Y-127622433D01*
X142622296Y-127770228D01*
X142622301Y-127770230D01*
X142622302Y-127770231D01*
X142622303Y-127770232D01*
X142698116Y-127806741D01*
X142858673Y-127884061D01*
X142858674Y-127884061D01*
X142858677Y-127884063D01*
X143109385Y-127961396D01*
X143368818Y-128000500D01*
X143631182Y-128000500D01*
X143890615Y-127961396D01*
X144141323Y-127884063D01*
X144377704Y-127770228D01*
X144594479Y-127622433D01*
X144786805Y-127443981D01*
X144950386Y-127238857D01*
X145081568Y-127011643D01*
X145177420Y-126767416D01*
X145235802Y-126511630D01*
X145235808Y-126511550D01*
X145255408Y-126250004D01*
X145255408Y-126249995D01*
X146745093Y-126249995D01*
X146745093Y-126250004D01*
X146764692Y-126511545D01*
X146764693Y-126511550D01*
X146823058Y-126767270D01*
X146918883Y-127011426D01*
X146918882Y-127011426D01*
X147050027Y-127238573D01*
X147097874Y-127298571D01*
X147822421Y-126574024D01*
X147835359Y-126605258D01*
X147917437Y-126728097D01*
X148021903Y-126832563D01*
X148144742Y-126914641D01*
X148175974Y-126927577D01*
X147450830Y-127652720D01*
X147622546Y-127769793D01*
X147622550Y-127769795D01*
X147858854Y-127883594D01*
X147858858Y-127883595D01*
X148109494Y-127960907D01*
X148109500Y-127960909D01*
X148368848Y-127999999D01*
X148368857Y-128000000D01*
X148631143Y-128000000D01*
X148631151Y-127999999D01*
X148890499Y-127960909D01*
X148890505Y-127960907D01*
X149141143Y-127883595D01*
X149377445Y-127769798D01*
X149377447Y-127769797D01*
X149549168Y-127652720D01*
X148824025Y-126927578D01*
X148855258Y-126914641D01*
X148978097Y-126832563D01*
X149082563Y-126728097D01*
X149164641Y-126605258D01*
X149177578Y-126574025D01*
X149902125Y-127298572D01*
X149949971Y-127238573D01*
X150081116Y-127011426D01*
X150176941Y-126767270D01*
X150235306Y-126511550D01*
X150235307Y-126511545D01*
X150254907Y-126250004D01*
X150254907Y-126249995D01*
X150235307Y-125988454D01*
X150235306Y-125988449D01*
X150176941Y-125732729D01*
X150081116Y-125488573D01*
X150081117Y-125488573D01*
X149949972Y-125261426D01*
X149902124Y-125201427D01*
X149177577Y-125925973D01*
X149164641Y-125894742D01*
X149082563Y-125771903D01*
X148978097Y-125667437D01*
X148855258Y-125585359D01*
X148824025Y-125572421D01*
X149316448Y-125079998D01*
X153694532Y-125079998D01*
X153694532Y-125080001D01*
X153714364Y-125306686D01*
X153714366Y-125306697D01*
X153773258Y-125526488D01*
X153773261Y-125526497D01*
X153869431Y-125732732D01*
X153869432Y-125732734D01*
X153999954Y-125919141D01*
X154160858Y-126080045D01*
X154160861Y-126080047D01*
X154347266Y-126210568D01*
X154553504Y-126306739D01*
X154773308Y-126365635D01*
X154935230Y-126379801D01*
X154999998Y-126385468D01*
X155000000Y-126385468D01*
X155000002Y-126385468D01*
X155056673Y-126380509D01*
X155226692Y-126365635D01*
X155446496Y-126306739D01*
X155568183Y-126249995D01*
X159744592Y-126249995D01*
X159744592Y-126250004D01*
X159764196Y-126511620D01*
X159764197Y-126511625D01*
X159822576Y-126767402D01*
X159822578Y-126767411D01*
X159822580Y-126767416D01*
X159918432Y-127011643D01*
X160049614Y-127238857D01*
X160181736Y-127404533D01*
X160213198Y-127443985D01*
X160394753Y-127612441D01*
X160405521Y-127622433D01*
X160622296Y-127770228D01*
X160622301Y-127770230D01*
X160622302Y-127770231D01*
X160622303Y-127770232D01*
X160698116Y-127806741D01*
X160858673Y-127884061D01*
X160858674Y-127884061D01*
X160858677Y-127884063D01*
X161109385Y-127961396D01*
X161368818Y-128000500D01*
X161631182Y-128000500D01*
X161890615Y-127961396D01*
X162141323Y-127884063D01*
X162377704Y-127770228D01*
X162594479Y-127622433D01*
X162786805Y-127443981D01*
X162950386Y-127238857D01*
X163081568Y-127011643D01*
X163177420Y-126767416D01*
X163235802Y-126511630D01*
X163235808Y-126511550D01*
X163255408Y-126250004D01*
X163255408Y-126249995D01*
X164745093Y-126249995D01*
X164745093Y-126250004D01*
X164764692Y-126511545D01*
X164764693Y-126511550D01*
X164823058Y-126767270D01*
X164918883Y-127011426D01*
X164918882Y-127011426D01*
X165050027Y-127238573D01*
X165097874Y-127298571D01*
X165822421Y-126574024D01*
X165835359Y-126605258D01*
X165917437Y-126728097D01*
X166021903Y-126832563D01*
X166144742Y-126914641D01*
X166175974Y-126927577D01*
X165450830Y-127652720D01*
X165622546Y-127769793D01*
X165622550Y-127769795D01*
X165858854Y-127883594D01*
X165858858Y-127883595D01*
X166109494Y-127960907D01*
X166109500Y-127960909D01*
X166368848Y-127999999D01*
X166368857Y-128000000D01*
X166631143Y-128000000D01*
X166631151Y-127999999D01*
X166890499Y-127960909D01*
X166890505Y-127960907D01*
X167141143Y-127883595D01*
X167377445Y-127769798D01*
X167377447Y-127769797D01*
X167549168Y-127652720D01*
X166824025Y-126927578D01*
X166855258Y-126914641D01*
X166978097Y-126832563D01*
X167082563Y-126728097D01*
X167164641Y-126605258D01*
X167177578Y-126574025D01*
X167902125Y-127298572D01*
X167949971Y-127238573D01*
X168081116Y-127011426D01*
X168176941Y-126767270D01*
X168235306Y-126511550D01*
X168235307Y-126511545D01*
X168254907Y-126250004D01*
X168254907Y-126249995D01*
X168235307Y-125988454D01*
X168235306Y-125988449D01*
X168176941Y-125732729D01*
X168081116Y-125488573D01*
X168081117Y-125488573D01*
X167949972Y-125261426D01*
X167902124Y-125201427D01*
X167177577Y-125925973D01*
X167164641Y-125894742D01*
X167082563Y-125771903D01*
X166978097Y-125667437D01*
X166855258Y-125585359D01*
X166824025Y-125572421D01*
X167549168Y-124847278D01*
X167377454Y-124730206D01*
X167377445Y-124730201D01*
X167141142Y-124616404D01*
X167141144Y-124616404D01*
X166890505Y-124539092D01*
X166890499Y-124539090D01*
X166631151Y-124500000D01*
X166368848Y-124500000D01*
X166109500Y-124539090D01*
X166109494Y-124539092D01*
X165858858Y-124616404D01*
X165858854Y-124616405D01*
X165622547Y-124730205D01*
X165622539Y-124730210D01*
X165450830Y-124847277D01*
X166175974Y-125572421D01*
X166144742Y-125585359D01*
X166021903Y-125667437D01*
X165917437Y-125771903D01*
X165835359Y-125894742D01*
X165822422Y-125925974D01*
X165097875Y-125201427D01*
X165097874Y-125201427D01*
X165050028Y-125261425D01*
X164918883Y-125488573D01*
X164823058Y-125732729D01*
X164764693Y-125988449D01*
X164764692Y-125988454D01*
X164745093Y-126249995D01*
X163255408Y-126249995D01*
X163235803Y-125988379D01*
X163235802Y-125988374D01*
X163235802Y-125988370D01*
X163177420Y-125732584D01*
X163081568Y-125488357D01*
X162950386Y-125261143D01*
X162786805Y-125056019D01*
X162786804Y-125056018D01*
X162786801Y-125056014D01*
X162594479Y-124877567D01*
X162558905Y-124853313D01*
X162377704Y-124729772D01*
X162377700Y-124729770D01*
X162377697Y-124729768D01*
X162377696Y-124729767D01*
X162141325Y-124615938D01*
X162141327Y-124615938D01*
X161890623Y-124538606D01*
X161890619Y-124538605D01*
X161890615Y-124538604D01*
X161765823Y-124519794D01*
X161631187Y-124499500D01*
X161631182Y-124499500D01*
X161368818Y-124499500D01*
X161368812Y-124499500D01*
X161207247Y-124523853D01*
X161109385Y-124538604D01*
X161109382Y-124538605D01*
X161109376Y-124538606D01*
X160858673Y-124615938D01*
X160622303Y-124729767D01*
X160622302Y-124729768D01*
X160622296Y-124729771D01*
X160622296Y-124729772D01*
X160621654Y-124730210D01*
X160405520Y-124877567D01*
X160213198Y-125056014D01*
X160049614Y-125261143D01*
X159918432Y-125488356D01*
X159822582Y-125732578D01*
X159822576Y-125732597D01*
X159764197Y-125988374D01*
X159764196Y-125988379D01*
X159744592Y-126249995D01*
X155568183Y-126249995D01*
X155652734Y-126210568D01*
X155839139Y-126080047D01*
X156000047Y-125919139D01*
X156130568Y-125732734D01*
X156226739Y-125526496D01*
X156285635Y-125306692D01*
X156305468Y-125080000D01*
X156303369Y-125056014D01*
X156285635Y-124853313D01*
X156285635Y-124853308D01*
X156226739Y-124633504D01*
X156130568Y-124427266D01*
X156000047Y-124240861D01*
X156000045Y-124240858D01*
X155839141Y-124079954D01*
X155652734Y-123949432D01*
X155652732Y-123949431D01*
X155446497Y-123853261D01*
X155446488Y-123853258D01*
X155226697Y-123794366D01*
X155226693Y-123794365D01*
X155226692Y-123794365D01*
X155226691Y-123794364D01*
X155226686Y-123794364D01*
X155000002Y-123774532D01*
X154999998Y-123774532D01*
X154773313Y-123794364D01*
X154773302Y-123794366D01*
X154553511Y-123853258D01*
X154553502Y-123853261D01*
X154347267Y-123949431D01*
X154347265Y-123949432D01*
X154160858Y-124079954D01*
X153999954Y-124240858D01*
X153869432Y-124427265D01*
X153869431Y-124427267D01*
X153773261Y-124633502D01*
X153773258Y-124633511D01*
X153714366Y-124853302D01*
X153714364Y-124853313D01*
X153694532Y-125079998D01*
X149316448Y-125079998D01*
X149549168Y-124847278D01*
X149377454Y-124730206D01*
X149377445Y-124730201D01*
X149141142Y-124616404D01*
X149141144Y-124616404D01*
X148890505Y-124539092D01*
X148890499Y-124539090D01*
X148631151Y-124500000D01*
X148368848Y-124500000D01*
X148109500Y-124539090D01*
X148109494Y-124539092D01*
X147858858Y-124616404D01*
X147858854Y-124616405D01*
X147622547Y-124730205D01*
X147622539Y-124730210D01*
X147450830Y-124847277D01*
X148175974Y-125572421D01*
X148144742Y-125585359D01*
X148021903Y-125667437D01*
X147917437Y-125771903D01*
X147835359Y-125894742D01*
X147822422Y-125925974D01*
X147097875Y-125201427D01*
X147097874Y-125201427D01*
X147050028Y-125261425D01*
X146918883Y-125488573D01*
X146823058Y-125732729D01*
X146764693Y-125988449D01*
X146764692Y-125988454D01*
X146745093Y-126249995D01*
X145255408Y-126249995D01*
X145235803Y-125988379D01*
X145235802Y-125988374D01*
X145235802Y-125988370D01*
X145177420Y-125732584D01*
X145081568Y-125488357D01*
X144950386Y-125261143D01*
X144786805Y-125056019D01*
X144786804Y-125056018D01*
X144786801Y-125056014D01*
X144594479Y-124877567D01*
X144558905Y-124853313D01*
X144377704Y-124729772D01*
X144377700Y-124729770D01*
X144377697Y-124729768D01*
X144377696Y-124729767D01*
X144141325Y-124615938D01*
X144141327Y-124615938D01*
X143890623Y-124538606D01*
X143890619Y-124538605D01*
X143890615Y-124538604D01*
X143765823Y-124519794D01*
X143631187Y-124499500D01*
X143631182Y-124499500D01*
X143368818Y-124499500D01*
X143368812Y-124499500D01*
X143207247Y-124523853D01*
X143109385Y-124538604D01*
X143109382Y-124538605D01*
X143109376Y-124538606D01*
X142858673Y-124615938D01*
X142622303Y-124729767D01*
X142622302Y-124729768D01*
X142622296Y-124729771D01*
X142622296Y-124729772D01*
X142621654Y-124730210D01*
X142405520Y-124877567D01*
X142213198Y-125056014D01*
X142049614Y-125261143D01*
X141918432Y-125488356D01*
X141822582Y-125732578D01*
X141822576Y-125732597D01*
X141764197Y-125988374D01*
X141764196Y-125988379D01*
X141744592Y-126249995D01*
X138257953Y-126249995D01*
X138226739Y-126133504D01*
X138130568Y-125927266D01*
X138000047Y-125740861D01*
X138000045Y-125740858D01*
X137839141Y-125579954D01*
X137652734Y-125449432D01*
X137652732Y-125449431D01*
X137446497Y-125353261D01*
X137446488Y-125353258D01*
X137226697Y-125294366D01*
X137226693Y-125294365D01*
X137226692Y-125294365D01*
X137226691Y-125294364D01*
X137226686Y-125294364D01*
X137000002Y-125274532D01*
X136999998Y-125274532D01*
X136773313Y-125294364D01*
X136773302Y-125294366D01*
X136553511Y-125353258D01*
X136553502Y-125353261D01*
X136347267Y-125449431D01*
X136347265Y-125449432D01*
X136160858Y-125579954D01*
X135999954Y-125740858D01*
X135869432Y-125927265D01*
X135869431Y-125927267D01*
X135773261Y-126133502D01*
X135773258Y-126133511D01*
X135714366Y-126353302D01*
X135714364Y-126353313D01*
X135694532Y-126579998D01*
X120500500Y-126579998D01*
X120500500Y-120000000D01*
X137694706Y-120000000D01*
X137713853Y-120243297D01*
X137713853Y-120243300D01*
X137713854Y-120243302D01*
X137761471Y-120441639D01*
X137770830Y-120480619D01*
X137864222Y-120706089D01*
X137991737Y-120914173D01*
X137991738Y-120914176D01*
X138045449Y-120977063D01*
X138150241Y-121099759D01*
X138293897Y-121222453D01*
X138335823Y-121258261D01*
X138335826Y-121258262D01*
X138543910Y-121385777D01*
X138769381Y-121479169D01*
X138769378Y-121479169D01*
X138769384Y-121479170D01*
X138769388Y-121479172D01*
X139006698Y-121536146D01*
X139250000Y-121555294D01*
X139493302Y-121536146D01*
X139730612Y-121479172D01*
X139956089Y-121385777D01*
X140164179Y-121258259D01*
X140349759Y-121099759D01*
X140508259Y-120914179D01*
X140532032Y-120875383D01*
X140583840Y-120828510D01*
X140652769Y-120817086D01*
X140716932Y-120844741D01*
X140725439Y-120852493D01*
X140750500Y-120877554D01*
X140750505Y-120877558D01*
X140800913Y-120914181D01*
X140897006Y-120983996D01*
X141002484Y-121037740D01*
X141058360Y-121066211D01*
X141058363Y-121066212D01*
X141144476Y-121094191D01*
X141230591Y-121122171D01*
X141313429Y-121135291D01*
X141409449Y-121150500D01*
X141409454Y-121150500D01*
X141590551Y-121150500D01*
X141677259Y-121136765D01*
X141769409Y-121122171D01*
X141941639Y-121066211D01*
X142102994Y-120983996D01*
X142249501Y-120877553D01*
X142377553Y-120749501D01*
X142483996Y-120602994D01*
X142566211Y-120441639D01*
X142622171Y-120269409D01*
X142636765Y-120177259D01*
X142650500Y-120090551D01*
X142650500Y-119909448D01*
X149349500Y-119909448D01*
X149349500Y-120090551D01*
X149377829Y-120269410D01*
X149433787Y-120441636D01*
X149433788Y-120441639D01*
X149516006Y-120602997D01*
X149622441Y-120749494D01*
X149622445Y-120749499D01*
X149750500Y-120877554D01*
X149750505Y-120877558D01*
X149800913Y-120914181D01*
X149897006Y-120983996D01*
X150002484Y-121037740D01*
X150058360Y-121066211D01*
X150058363Y-121066212D01*
X150144476Y-121094191D01*
X150230591Y-121122171D01*
X150313429Y-121135291D01*
X150409449Y-121150500D01*
X150409454Y-121150500D01*
X150590551Y-121150500D01*
X150677259Y-121136765D01*
X150769409Y-121122171D01*
X150941639Y-121066211D01*
X151102994Y-120983996D01*
X151249501Y-120877553D01*
X151274561Y-120852492D01*
X151335880Y-120819009D01*
X151405572Y-120823992D01*
X151461506Y-120865863D01*
X151467967Y-120875384D01*
X151491742Y-120914181D01*
X151551368Y-120983993D01*
X151650241Y-121099759D01*
X151793897Y-121222453D01*
X151835823Y-121258261D01*
X151835826Y-121258262D01*
X152043910Y-121385777D01*
X152269381Y-121479169D01*
X152269378Y-121479169D01*
X152269384Y-121479170D01*
X152269388Y-121479172D01*
X152506698Y-121536146D01*
X152750000Y-121555294D01*
X152993302Y-121536146D01*
X153230612Y-121479172D01*
X153456089Y-121385777D01*
X153664179Y-121258259D01*
X153849759Y-121099759D01*
X154008259Y-120914179D01*
X154135777Y-120706089D01*
X154229172Y-120480612D01*
X154286146Y-120243302D01*
X154305294Y-120000000D01*
X155694706Y-120000000D01*
X155713853Y-120243297D01*
X155713853Y-120243300D01*
X155713854Y-120243302D01*
X155761471Y-120441639D01*
X155770830Y-120480619D01*
X155864222Y-120706089D01*
X155991737Y-120914173D01*
X155991738Y-120914176D01*
X156045449Y-120977063D01*
X156150241Y-121099759D01*
X156293897Y-121222453D01*
X156335823Y-121258261D01*
X156335826Y-121258262D01*
X156543910Y-121385777D01*
X156769381Y-121479169D01*
X156769378Y-121479169D01*
X156769384Y-121479170D01*
X156769388Y-121479172D01*
X157006698Y-121536146D01*
X157250000Y-121555294D01*
X157493302Y-121536146D01*
X157730612Y-121479172D01*
X157956089Y-121385777D01*
X158164179Y-121258259D01*
X158349759Y-121099759D01*
X158508259Y-120914179D01*
X158532032Y-120875383D01*
X158583840Y-120828510D01*
X158652769Y-120817086D01*
X158716932Y-120844741D01*
X158725439Y-120852493D01*
X158750500Y-120877554D01*
X158750505Y-120877558D01*
X158800913Y-120914181D01*
X158897006Y-120983996D01*
X159002484Y-121037740D01*
X159058360Y-121066211D01*
X159058363Y-121066212D01*
X159144476Y-121094191D01*
X159230591Y-121122171D01*
X159313429Y-121135291D01*
X159409449Y-121150500D01*
X159409454Y-121150500D01*
X159590551Y-121150500D01*
X159677259Y-121136765D01*
X159769409Y-121122171D01*
X159941639Y-121066211D01*
X160102994Y-120983996D01*
X160249501Y-120877553D01*
X160377553Y-120749501D01*
X160483996Y-120602994D01*
X160566211Y-120441639D01*
X160622171Y-120269409D01*
X160636765Y-120177259D01*
X160650500Y-120090551D01*
X160650500Y-119909448D01*
X167349500Y-119909448D01*
X167349500Y-120090551D01*
X167377829Y-120269410D01*
X167433787Y-120441636D01*
X167433788Y-120441639D01*
X167516006Y-120602997D01*
X167622441Y-120749494D01*
X167622445Y-120749499D01*
X167750500Y-120877554D01*
X167750505Y-120877558D01*
X167800913Y-120914181D01*
X167897006Y-120983996D01*
X168002484Y-121037740D01*
X168058360Y-121066211D01*
X168058363Y-121066212D01*
X168144476Y-121094191D01*
X168230591Y-121122171D01*
X168313429Y-121135291D01*
X168409449Y-121150500D01*
X168409454Y-121150500D01*
X168590551Y-121150500D01*
X168677259Y-121136765D01*
X168769409Y-121122171D01*
X168941639Y-121066211D01*
X169102994Y-120983996D01*
X169249501Y-120877553D01*
X169274561Y-120852492D01*
X169335880Y-120819009D01*
X169405572Y-120823992D01*
X169461506Y-120865863D01*
X169467967Y-120875384D01*
X169491742Y-120914181D01*
X169551368Y-120983993D01*
X169650241Y-121099759D01*
X169793897Y-121222453D01*
X169835823Y-121258261D01*
X169835826Y-121258262D01*
X170043910Y-121385777D01*
X170269381Y-121479169D01*
X170269378Y-121479169D01*
X170269384Y-121479170D01*
X170269388Y-121479172D01*
X170506698Y-121536146D01*
X170750000Y-121555294D01*
X170993302Y-121536146D01*
X171230612Y-121479172D01*
X171456089Y-121385777D01*
X171664179Y-121258259D01*
X171849759Y-121099759D01*
X172008259Y-120914179D01*
X172135777Y-120706089D01*
X172229172Y-120480612D01*
X172286146Y-120243302D01*
X172305294Y-120000000D01*
X172286146Y-119756698D01*
X172229172Y-119519388D01*
X172178480Y-119397006D01*
X172135777Y-119293910D01*
X172008262Y-119085826D01*
X172008261Y-119085823D01*
X171948630Y-119016004D01*
X171849759Y-118900241D01*
X171727063Y-118795449D01*
X171664176Y-118741738D01*
X171664173Y-118741737D01*
X171456089Y-118614222D01*
X171230618Y-118520830D01*
X171230621Y-118520830D01*
X171124992Y-118495470D01*
X170993302Y-118463854D01*
X170993300Y-118463853D01*
X170993297Y-118463853D01*
X170750000Y-118444706D01*
X170506702Y-118463853D01*
X170269380Y-118520830D01*
X170043910Y-118614222D01*
X169835826Y-118741737D01*
X169835823Y-118741738D01*
X169650241Y-118900241D01*
X169491738Y-119085823D01*
X169491738Y-119085824D01*
X169467966Y-119124616D01*
X169416154Y-119171490D01*
X169347224Y-119182911D01*
X169283061Y-119155253D01*
X169274559Y-119147505D01*
X169249499Y-119122445D01*
X169249494Y-119122441D01*
X169102997Y-119016006D01*
X169102996Y-119016005D01*
X169102994Y-119016004D01*
X169051300Y-118989664D01*
X168941639Y-118933788D01*
X168941636Y-118933787D01*
X168769410Y-118877829D01*
X168590551Y-118849500D01*
X168590546Y-118849500D01*
X168409454Y-118849500D01*
X168409449Y-118849500D01*
X168230589Y-118877829D01*
X168058363Y-118933787D01*
X168058360Y-118933788D01*
X167897002Y-119016006D01*
X167750505Y-119122441D01*
X167750500Y-119122445D01*
X167622445Y-119250500D01*
X167622441Y-119250505D01*
X167516006Y-119397002D01*
X167433788Y-119558360D01*
X167433787Y-119558363D01*
X167377829Y-119730589D01*
X167349500Y-119909448D01*
X160650500Y-119909448D01*
X160634019Y-119805397D01*
X160622171Y-119730591D01*
X160566211Y-119558361D01*
X160566211Y-119558360D01*
X160537740Y-119502484D01*
X160483996Y-119397006D01*
X160470396Y-119378287D01*
X160377558Y-119250505D01*
X160377554Y-119250500D01*
X160249499Y-119122445D01*
X160249494Y-119122441D01*
X160102997Y-119016006D01*
X160102996Y-119016005D01*
X160102994Y-119016004D01*
X160051300Y-118989664D01*
X159941639Y-118933788D01*
X159941636Y-118933787D01*
X159769410Y-118877829D01*
X159590551Y-118849500D01*
X159590546Y-118849500D01*
X159409454Y-118849500D01*
X159409449Y-118849500D01*
X159230589Y-118877829D01*
X159058363Y-118933787D01*
X159058360Y-118933788D01*
X158897002Y-119016006D01*
X158750505Y-119122440D01*
X158725439Y-119147507D01*
X158664115Y-119180991D01*
X158594423Y-119176005D01*
X158538491Y-119134133D01*
X158532032Y-119124614D01*
X158508260Y-119085823D01*
X158508257Y-119085818D01*
X158448630Y-119016004D01*
X158349759Y-118900241D01*
X158227063Y-118795449D01*
X158164176Y-118741738D01*
X158164173Y-118741737D01*
X157956089Y-118614222D01*
X157730618Y-118520830D01*
X157730621Y-118520830D01*
X157624992Y-118495470D01*
X157493302Y-118463854D01*
X157493300Y-118463853D01*
X157493297Y-118463853D01*
X157250000Y-118444706D01*
X157006702Y-118463853D01*
X156769380Y-118520830D01*
X156543910Y-118614222D01*
X156335826Y-118741737D01*
X156335823Y-118741738D01*
X156150241Y-118900241D01*
X155991738Y-119085823D01*
X155991737Y-119085826D01*
X155864222Y-119293910D01*
X155770830Y-119519380D01*
X155713853Y-119756702D01*
X155694706Y-120000000D01*
X154305294Y-120000000D01*
X154286146Y-119756698D01*
X154229172Y-119519388D01*
X154178480Y-119397006D01*
X154135777Y-119293910D01*
X154008262Y-119085826D01*
X154008261Y-119085823D01*
X153948630Y-119016004D01*
X153849759Y-118900241D01*
X153727063Y-118795449D01*
X153664176Y-118741738D01*
X153664173Y-118741737D01*
X153456089Y-118614222D01*
X153230618Y-118520830D01*
X153230621Y-118520830D01*
X153124992Y-118495470D01*
X152993302Y-118463854D01*
X152993300Y-118463853D01*
X152993297Y-118463853D01*
X152750000Y-118444706D01*
X152506702Y-118463853D01*
X152269380Y-118520830D01*
X152043910Y-118614222D01*
X151835826Y-118741737D01*
X151835823Y-118741738D01*
X151650241Y-118900241D01*
X151491738Y-119085823D01*
X151491738Y-119085824D01*
X151467966Y-119124616D01*
X151416154Y-119171490D01*
X151347224Y-119182911D01*
X151283061Y-119155253D01*
X151274559Y-119147505D01*
X151249499Y-119122445D01*
X151249494Y-119122441D01*
X151102997Y-119016006D01*
X151102996Y-119016005D01*
X151102994Y-119016004D01*
X151051300Y-118989664D01*
X150941639Y-118933788D01*
X150941636Y-118933787D01*
X150769410Y-118877829D01*
X150590551Y-118849500D01*
X150590546Y-118849500D01*
X150409454Y-118849500D01*
X150409449Y-118849500D01*
X150230589Y-118877829D01*
X150058363Y-118933787D01*
X150058360Y-118933788D01*
X149897002Y-119016006D01*
X149750505Y-119122441D01*
X149750500Y-119122445D01*
X149622445Y-119250500D01*
X149622441Y-119250505D01*
X149516006Y-119397002D01*
X149433788Y-119558360D01*
X149433787Y-119558363D01*
X149377829Y-119730589D01*
X149349500Y-119909448D01*
X142650500Y-119909448D01*
X142634019Y-119805397D01*
X142622171Y-119730591D01*
X142566211Y-119558361D01*
X142566211Y-119558360D01*
X142537740Y-119502484D01*
X142483996Y-119397006D01*
X142470396Y-119378287D01*
X142377558Y-119250505D01*
X142377554Y-119250500D01*
X142249499Y-119122445D01*
X142249494Y-119122441D01*
X142102997Y-119016006D01*
X142102996Y-119016005D01*
X142102994Y-119016004D01*
X142051300Y-118989664D01*
X141941639Y-118933788D01*
X141941636Y-118933787D01*
X141769410Y-118877829D01*
X141590551Y-118849500D01*
X141590546Y-118849500D01*
X141409454Y-118849500D01*
X141409449Y-118849500D01*
X141230589Y-118877829D01*
X141058363Y-118933787D01*
X141058360Y-118933788D01*
X140897002Y-119016006D01*
X140750505Y-119122440D01*
X140725439Y-119147507D01*
X140664115Y-119180991D01*
X140594423Y-119176005D01*
X140538491Y-119134133D01*
X140532032Y-119124614D01*
X140508260Y-119085823D01*
X140508257Y-119085818D01*
X140448630Y-119016004D01*
X140349759Y-118900241D01*
X140227063Y-118795449D01*
X140164176Y-118741738D01*
X140164173Y-118741737D01*
X139956089Y-118614222D01*
X139730618Y-118520830D01*
X139730621Y-118520830D01*
X139624992Y-118495470D01*
X139493302Y-118463854D01*
X139493300Y-118463853D01*
X139493297Y-118463853D01*
X139250000Y-118444706D01*
X139006702Y-118463853D01*
X138769380Y-118520830D01*
X138543910Y-118614222D01*
X138335826Y-118741737D01*
X138335823Y-118741738D01*
X138150241Y-118900241D01*
X137991738Y-119085823D01*
X137991737Y-119085826D01*
X137864222Y-119293910D01*
X137770830Y-119519380D01*
X137713853Y-119756702D01*
X137694706Y-120000000D01*
X120500500Y-120000000D01*
X120500500Y-116419998D01*
X135694532Y-116419998D01*
X135694532Y-116420001D01*
X135714364Y-116646686D01*
X135714366Y-116646697D01*
X135773258Y-116866488D01*
X135773261Y-116866497D01*
X135869431Y-117072732D01*
X135869432Y-117072734D01*
X135999954Y-117259141D01*
X136160858Y-117420045D01*
X136160861Y-117420047D01*
X136347266Y-117550568D01*
X136553504Y-117646739D01*
X136773308Y-117705635D01*
X136935230Y-117719801D01*
X136999998Y-117725468D01*
X137000000Y-117725468D01*
X137000002Y-117725468D01*
X137056673Y-117720509D01*
X137226692Y-117705635D01*
X137446496Y-117646739D01*
X137652734Y-117550568D01*
X137839139Y-117420047D01*
X138000047Y-117259139D01*
X138130568Y-117072734D01*
X138226739Y-116866496D01*
X138285635Y-116646692D01*
X138305468Y-116420000D01*
X138285635Y-116193308D01*
X138226739Y-115973504D01*
X138130568Y-115767266D01*
X138000047Y-115580861D01*
X138000045Y-115580858D01*
X137839141Y-115419954D01*
X137741048Y-115351269D01*
X137697423Y-115296692D01*
X137690229Y-115227194D01*
X137721752Y-115164839D01*
X137741048Y-115148119D01*
X137838817Y-115079660D01*
X137999657Y-114918820D01*
X138130134Y-114732482D01*
X138226265Y-114526326D01*
X138226269Y-114526317D01*
X138278872Y-114330000D01*
X137315686Y-114330000D01*
X137320080Y-114325606D01*
X137372741Y-114234394D01*
X137400000Y-114132661D01*
X137400000Y-114027339D01*
X137372741Y-113925606D01*
X137320080Y-113834394D01*
X137315686Y-113830000D01*
X138278872Y-113830000D01*
X138278872Y-113829999D01*
X138257435Y-113749995D01*
X141744592Y-113749995D01*
X141744592Y-113750004D01*
X141764196Y-114011620D01*
X141764197Y-114011625D01*
X141822576Y-114267402D01*
X141822578Y-114267411D01*
X141822580Y-114267416D01*
X141918432Y-114511643D01*
X142049614Y-114738857D01*
X142181736Y-114904533D01*
X142213198Y-114943985D01*
X142394753Y-115112441D01*
X142405521Y-115122433D01*
X142622296Y-115270228D01*
X142622301Y-115270230D01*
X142622302Y-115270231D01*
X142622303Y-115270232D01*
X142747843Y-115330688D01*
X142858673Y-115384061D01*
X142858674Y-115384061D01*
X142858677Y-115384063D01*
X143109385Y-115461396D01*
X143368818Y-115500500D01*
X143631182Y-115500500D01*
X143890615Y-115461396D01*
X144141323Y-115384063D01*
X144328111Y-115294110D01*
X144377696Y-115270232D01*
X144377696Y-115270231D01*
X144377704Y-115270228D01*
X144594479Y-115122433D01*
X144786805Y-114943981D01*
X144950386Y-114738857D01*
X145081568Y-114511643D01*
X145177420Y-114267416D01*
X145235802Y-114011630D01*
X145235808Y-114011550D01*
X145255408Y-113750004D01*
X145255408Y-113749995D01*
X145235803Y-113488379D01*
X145235802Y-113488374D01*
X145235802Y-113488370D01*
X145177420Y-113232584D01*
X145081568Y-112988357D01*
X144950386Y-112761143D01*
X144786805Y-112556019D01*
X144786804Y-112556018D01*
X144786801Y-112556014D01*
X144594479Y-112377567D01*
X144560900Y-112354673D01*
X144377704Y-112229772D01*
X144377700Y-112229770D01*
X144377697Y-112229768D01*
X144377696Y-112229767D01*
X144141325Y-112115938D01*
X144141327Y-112115938D01*
X143890623Y-112038606D01*
X143890619Y-112038605D01*
X143890615Y-112038604D01*
X143765823Y-112019794D01*
X143631187Y-111999500D01*
X143631182Y-111999500D01*
X143368818Y-111999500D01*
X143368812Y-111999500D01*
X143207247Y-112023853D01*
X143109385Y-112038604D01*
X143109382Y-112038605D01*
X143109376Y-112038606D01*
X142858673Y-112115938D01*
X142622303Y-112229767D01*
X142622302Y-112229768D01*
X142622296Y-112229771D01*
X142622296Y-112229772D01*
X142621654Y-112230210D01*
X142405520Y-112377567D01*
X142213198Y-112556014D01*
X142049614Y-112761143D01*
X141918432Y-112988356D01*
X141822582Y-113232578D01*
X141822576Y-113232597D01*
X141764197Y-113488374D01*
X141764196Y-113488379D01*
X141744592Y-113749995D01*
X138257435Y-113749995D01*
X138226269Y-113633682D01*
X138226265Y-113633673D01*
X138130134Y-113427517D01*
X137999657Y-113241179D01*
X137838820Y-113080342D01*
X137652482Y-112949865D01*
X137446328Y-112853734D01*
X137250000Y-112801127D01*
X137250000Y-113764314D01*
X137245606Y-113759920D01*
X137154394Y-113707259D01*
X137052661Y-113680000D01*
X136947339Y-113680000D01*
X136845606Y-113707259D01*
X136754394Y-113759920D01*
X136750000Y-113764314D01*
X136750000Y-112801127D01*
X136553671Y-112853734D01*
X136347517Y-112949865D01*
X136161179Y-113080342D01*
X136000342Y-113241179D01*
X135869865Y-113427517D01*
X135773734Y-113633673D01*
X135773730Y-113633682D01*
X135721127Y-113829999D01*
X135721128Y-113830000D01*
X136684314Y-113830000D01*
X136679920Y-113834394D01*
X136627259Y-113925606D01*
X136600000Y-114027339D01*
X136600000Y-114132661D01*
X136627259Y-114234394D01*
X136679920Y-114325606D01*
X136684314Y-114330000D01*
X135721128Y-114330000D01*
X135773730Y-114526317D01*
X135773734Y-114526326D01*
X135869865Y-114732482D01*
X136000342Y-114918820D01*
X136161179Y-115079657D01*
X136258952Y-115148119D01*
X136302577Y-115202696D01*
X136309769Y-115272195D01*
X136278247Y-115334549D01*
X136258952Y-115351269D01*
X136160856Y-115419956D01*
X135999954Y-115580858D01*
X135869432Y-115767265D01*
X135869431Y-115767267D01*
X135773261Y-115973502D01*
X135773258Y-115973511D01*
X135714366Y-116193302D01*
X135714364Y-116193313D01*
X135694532Y-116419998D01*
X120500500Y-116419998D01*
X120500500Y-105749999D01*
X140294357Y-105749999D01*
X140294357Y-105750000D01*
X140314884Y-105971535D01*
X140314885Y-105971537D01*
X140375769Y-106185523D01*
X140375775Y-106185538D01*
X140474938Y-106384683D01*
X140474943Y-106384691D01*
X140609020Y-106562238D01*
X140773437Y-106712123D01*
X140773439Y-106712125D01*
X140962595Y-106829245D01*
X140962596Y-106829245D01*
X140962599Y-106829247D01*
X141104898Y-106884374D01*
X141160298Y-106926946D01*
X141183889Y-106992713D01*
X141168178Y-107060793D01*
X141118154Y-107109572D01*
X141104906Y-107115622D01*
X140998693Y-107156769D01*
X140962601Y-107170752D01*
X140962595Y-107170754D01*
X140773439Y-107287874D01*
X140773437Y-107287876D01*
X140609020Y-107437761D01*
X140474943Y-107615308D01*
X140474938Y-107615316D01*
X140375775Y-107814461D01*
X140375769Y-107814476D01*
X140314885Y-108028462D01*
X140314884Y-108028464D01*
X140294357Y-108249999D01*
X140294357Y-108250000D01*
X140314884Y-108471535D01*
X140314885Y-108471537D01*
X140375769Y-108685523D01*
X140375775Y-108685538D01*
X140474938Y-108884683D01*
X140474943Y-108884691D01*
X140609020Y-109062238D01*
X140773437Y-109212123D01*
X140773439Y-109212125D01*
X140962595Y-109329245D01*
X140962596Y-109329245D01*
X140962599Y-109329247D01*
X141170060Y-109409618D01*
X141388757Y-109450500D01*
X141388759Y-109450500D01*
X141611241Y-109450500D01*
X141611243Y-109450500D01*
X141829940Y-109409618D01*
X142037401Y-109329247D01*
X142226562Y-109212124D01*
X142390981Y-109062236D01*
X142525058Y-108884689D01*
X142624229Y-108685528D01*
X142685115Y-108471536D01*
X142705643Y-108250000D01*
X142703782Y-108229921D01*
X142685115Y-108028464D01*
X142685114Y-108028462D01*
X142624230Y-107814476D01*
X142624229Y-107814472D01*
X142624224Y-107814461D01*
X142525061Y-107615316D01*
X142525056Y-107615308D01*
X142390979Y-107437761D01*
X142226562Y-107287876D01*
X142226560Y-107287874D01*
X142037404Y-107170754D01*
X142037395Y-107170750D01*
X141965560Y-107142921D01*
X141895101Y-107115625D01*
X141839701Y-107073054D01*
X141816110Y-107007288D01*
X141831821Y-106939207D01*
X141881844Y-106890428D01*
X141895093Y-106884377D01*
X142037401Y-106829247D01*
X142226562Y-106712124D01*
X142390981Y-106562236D01*
X142525058Y-106384689D01*
X142624229Y-106185528D01*
X142685115Y-105971536D01*
X142705643Y-105750000D01*
X142685115Y-105528464D01*
X142624229Y-105314472D01*
X142620665Y-105307314D01*
X142525061Y-105115316D01*
X142525056Y-105115308D01*
X142390979Y-104937761D01*
X142226562Y-104787876D01*
X142226560Y-104787874D01*
X142037404Y-104670754D01*
X142037398Y-104670752D01*
X141829940Y-104590382D01*
X141611243Y-104549500D01*
X141388757Y-104549500D01*
X141170060Y-104590382D01*
X141049382Y-104637133D01*
X140962601Y-104670752D01*
X140962595Y-104670754D01*
X140773439Y-104787874D01*
X140773437Y-104787876D01*
X140609020Y-104937761D01*
X140474943Y-105115308D01*
X140474938Y-105115316D01*
X140375775Y-105314461D01*
X140375769Y-105314476D01*
X140314885Y-105528462D01*
X140314884Y-105528464D01*
X140294357Y-105749999D01*
X120500500Y-105749999D01*
X120500500Y-103919998D01*
X135694532Y-103919998D01*
X135694532Y-103920001D01*
X135714364Y-104146686D01*
X135714366Y-104146697D01*
X135773258Y-104366488D01*
X135773261Y-104366497D01*
X135869431Y-104572732D01*
X135869432Y-104572734D01*
X135999954Y-104759141D01*
X136160858Y-104920045D01*
X136160861Y-104920047D01*
X136347266Y-105050568D01*
X136553504Y-105146739D01*
X136773308Y-105205635D01*
X136935230Y-105219801D01*
X136999998Y-105225468D01*
X137000000Y-105225468D01*
X137000002Y-105225468D01*
X137056673Y-105220509D01*
X137226692Y-105205635D01*
X137446496Y-105146739D01*
X137652734Y-105050568D01*
X137839139Y-104920047D01*
X138000047Y-104759139D01*
X138130568Y-104572734D01*
X138226739Y-104366496D01*
X138285635Y-104146692D01*
X138305468Y-103920000D01*
X138285635Y-103693308D01*
X138226739Y-103473504D01*
X138130568Y-103267266D01*
X138000047Y-103080861D01*
X138000045Y-103080858D01*
X137839141Y-102919954D01*
X137705065Y-102826074D01*
X137661440Y-102771498D01*
X137654246Y-102701999D01*
X137685769Y-102639644D01*
X137745998Y-102604230D01*
X137776184Y-102600499D01*
X138547872Y-102600499D01*
X138607483Y-102594091D01*
X138742331Y-102543796D01*
X138857546Y-102457546D01*
X138943796Y-102342331D01*
X138994091Y-102207483D01*
X138997862Y-102172401D01*
X139024599Y-102107855D01*
X139081990Y-102068006D01*
X139151816Y-102065511D01*
X139211905Y-102101163D01*
X139222726Y-102114536D01*
X139239956Y-102139143D01*
X139400858Y-102300045D01*
X139400861Y-102300047D01*
X139587266Y-102430568D01*
X139793504Y-102526739D01*
X140013308Y-102585635D01*
X140175230Y-102599801D01*
X140239998Y-102605468D01*
X140240000Y-102605468D01*
X140240002Y-102605468D01*
X140296807Y-102600498D01*
X140466692Y-102585635D01*
X140686496Y-102526739D01*
X140892734Y-102430568D01*
X141079139Y-102300047D01*
X141240047Y-102139139D01*
X141370568Y-101952734D01*
X141397618Y-101894724D01*
X141443790Y-101842285D01*
X141510983Y-101823133D01*
X141577865Y-101843348D01*
X141622382Y-101894725D01*
X141649429Y-101952728D01*
X141649432Y-101952734D01*
X141779954Y-102139141D01*
X141940858Y-102300045D01*
X141940861Y-102300047D01*
X142127266Y-102430568D01*
X142333504Y-102526739D01*
X142553308Y-102585635D01*
X142715230Y-102599801D01*
X142779998Y-102605468D01*
X142780000Y-102605468D01*
X142780002Y-102605468D01*
X142836807Y-102600498D01*
X143006692Y-102585635D01*
X143226496Y-102526739D01*
X143432734Y-102430568D01*
X143619139Y-102300047D01*
X143780047Y-102139139D01*
X143910568Y-101952734D01*
X143937895Y-101894129D01*
X143984064Y-101841695D01*
X144051257Y-101822542D01*
X144118139Y-101842757D01*
X144162657Y-101894133D01*
X144189865Y-101952482D01*
X144320342Y-102138820D01*
X144481179Y-102299657D01*
X144667517Y-102430134D01*
X144873673Y-102526265D01*
X144873682Y-102526269D01*
X145069999Y-102578872D01*
X145070000Y-102578871D01*
X145070000Y-101615686D01*
X145074394Y-101620080D01*
X145165606Y-101672741D01*
X145267339Y-101700000D01*
X145372661Y-101700000D01*
X145474394Y-101672741D01*
X145565606Y-101620080D01*
X145570000Y-101615686D01*
X145570000Y-102578872D01*
X145766317Y-102526269D01*
X145766326Y-102526265D01*
X145972482Y-102430134D01*
X146158820Y-102299657D01*
X146319657Y-102138820D01*
X146450134Y-101952482D01*
X146546265Y-101746326D01*
X146546269Y-101746317D01*
X146598872Y-101550000D01*
X145635686Y-101550000D01*
X145640080Y-101545606D01*
X145692741Y-101454394D01*
X145720000Y-101352661D01*
X145720000Y-101299994D01*
X163494357Y-101299994D01*
X163494357Y-101300005D01*
X163514890Y-101547812D01*
X163514892Y-101547824D01*
X163575936Y-101788881D01*
X163675826Y-102016606D01*
X163811833Y-102224782D01*
X163811836Y-102224785D01*
X163980256Y-102407738D01*
X164176491Y-102560474D01*
X164224346Y-102586372D01*
X164390884Y-102676498D01*
X164395190Y-102678828D01*
X164630386Y-102759571D01*
X164875665Y-102800500D01*
X165124335Y-102800500D01*
X165369614Y-102759571D01*
X165604810Y-102678828D01*
X165823509Y-102560474D01*
X166019744Y-102407738D01*
X166188164Y-102224785D01*
X166324173Y-102016607D01*
X166424063Y-101788881D01*
X166485108Y-101547821D01*
X166492850Y-101454394D01*
X166505643Y-101300005D01*
X166505643Y-101299994D01*
X166485109Y-101052187D01*
X166485107Y-101052175D01*
X166424063Y-100811118D01*
X166324173Y-100583393D01*
X166188166Y-100375217D01*
X166166557Y-100351744D01*
X166019744Y-100192262D01*
X165823509Y-100039526D01*
X165823507Y-100039525D01*
X165823506Y-100039524D01*
X165604811Y-99921172D01*
X165604802Y-99921169D01*
X165369616Y-99840429D01*
X165124335Y-99799500D01*
X164875665Y-99799500D01*
X164630383Y-99840429D01*
X164395197Y-99921169D01*
X164395188Y-99921172D01*
X164176493Y-100039524D01*
X163980257Y-100192261D01*
X163811833Y-100375217D01*
X163675826Y-100583393D01*
X163575936Y-100811118D01*
X163514892Y-101052175D01*
X163514890Y-101052187D01*
X163494357Y-101299994D01*
X145720000Y-101299994D01*
X145720000Y-101247339D01*
X145692741Y-101145606D01*
X145640080Y-101054394D01*
X145635686Y-101050000D01*
X146598872Y-101050000D01*
X146598872Y-101049999D01*
X146546269Y-100853682D01*
X146546265Y-100853673D01*
X146450134Y-100647517D01*
X146319657Y-100461179D01*
X146158820Y-100300342D01*
X145972482Y-100169865D01*
X145766328Y-100073734D01*
X145570000Y-100021127D01*
X145570000Y-100984314D01*
X145565606Y-100979920D01*
X145474394Y-100927259D01*
X145372661Y-100900000D01*
X145267339Y-100900000D01*
X145165606Y-100927259D01*
X145074394Y-100979920D01*
X145070000Y-100984314D01*
X145070000Y-100021127D01*
X144873671Y-100073734D01*
X144667517Y-100169865D01*
X144481179Y-100300342D01*
X144320342Y-100461179D01*
X144189867Y-100647515D01*
X144162657Y-100705867D01*
X144116484Y-100758306D01*
X144049290Y-100777457D01*
X143982409Y-100757241D01*
X143937893Y-100705865D01*
X143910570Y-100647271D01*
X143910567Y-100647265D01*
X143780045Y-100460858D01*
X143619141Y-100299954D01*
X143432734Y-100169432D01*
X143432732Y-100169431D01*
X143226497Y-100073261D01*
X143226488Y-100073258D01*
X143006697Y-100014366D01*
X143006693Y-100014365D01*
X143006692Y-100014365D01*
X143006691Y-100014364D01*
X143006686Y-100014364D01*
X142780002Y-99994532D01*
X142779998Y-99994532D01*
X142553313Y-100014364D01*
X142553302Y-100014366D01*
X142333511Y-100073258D01*
X142333502Y-100073261D01*
X142127267Y-100169431D01*
X142127265Y-100169432D01*
X141940858Y-100299954D01*
X141779954Y-100460858D01*
X141649432Y-100647265D01*
X141649431Y-100647267D01*
X141622382Y-100705275D01*
X141576209Y-100757714D01*
X141509016Y-100776866D01*
X141442135Y-100756650D01*
X141397618Y-100705275D01*
X141370568Y-100647267D01*
X141370567Y-100647265D01*
X141240045Y-100460858D01*
X141079141Y-100299954D01*
X140892734Y-100169432D01*
X140892732Y-100169431D01*
X140686497Y-100073261D01*
X140686488Y-100073258D01*
X140466697Y-100014366D01*
X140466693Y-100014365D01*
X140466692Y-100014365D01*
X140466691Y-100014364D01*
X140466686Y-100014364D01*
X140240002Y-99994532D01*
X140239998Y-99994532D01*
X140013313Y-100014364D01*
X140013302Y-100014366D01*
X139793511Y-100073258D01*
X139793502Y-100073261D01*
X139587267Y-100169431D01*
X139587265Y-100169432D01*
X139400858Y-100299954D01*
X139239954Y-100460858D01*
X139222725Y-100485464D01*
X139168147Y-100529088D01*
X139098648Y-100536280D01*
X139036294Y-100504757D01*
X139000882Y-100444526D01*
X138997861Y-100427591D01*
X138994091Y-100392516D01*
X138943797Y-100257671D01*
X138943793Y-100257664D01*
X138857547Y-100142455D01*
X138857544Y-100142452D01*
X138742335Y-100056206D01*
X138742328Y-100056202D01*
X138607482Y-100005908D01*
X138607483Y-100005908D01*
X138547883Y-99999501D01*
X138547881Y-99999500D01*
X138547873Y-99999500D01*
X138547864Y-99999500D01*
X136852129Y-99999500D01*
X136852123Y-99999501D01*
X136792516Y-100005908D01*
X136657671Y-100056202D01*
X136657664Y-100056206D01*
X136542455Y-100142452D01*
X136542452Y-100142455D01*
X136456206Y-100257664D01*
X136456202Y-100257671D01*
X136405908Y-100392517D01*
X136399501Y-100452116D01*
X136399500Y-100452135D01*
X136399500Y-102147870D01*
X136399501Y-102147876D01*
X136405908Y-102207483D01*
X136456202Y-102342328D01*
X136456206Y-102342335D01*
X136542452Y-102457544D01*
X136542453Y-102457544D01*
X136542454Y-102457546D01*
X136566417Y-102475485D01*
X136574913Y-102481845D01*
X136616783Y-102537779D01*
X136621767Y-102607471D01*
X136588281Y-102668794D01*
X136553006Y-102693493D01*
X136347267Y-102789431D01*
X136347265Y-102789432D01*
X136160858Y-102919954D01*
X135999954Y-103080858D01*
X135869432Y-103267265D01*
X135869431Y-103267267D01*
X135773261Y-103473502D01*
X135773258Y-103473511D01*
X135714366Y-103693302D01*
X135714364Y-103693313D01*
X135694532Y-103919998D01*
X120500500Y-103919998D01*
X120500500Y-97499998D01*
X130004891Y-97499998D01*
X130004891Y-97500001D01*
X130025300Y-97785362D01*
X130086109Y-98064895D01*
X130186091Y-98332958D01*
X130323191Y-98584038D01*
X130323196Y-98584046D01*
X130429882Y-98726561D01*
X130429883Y-98726562D01*
X131332421Y-97824024D01*
X131345359Y-97855258D01*
X131427437Y-97978097D01*
X131531903Y-98082563D01*
X131654742Y-98164641D01*
X131685974Y-98177578D01*
X130783436Y-99080115D01*
X130925960Y-99186807D01*
X130925961Y-99186808D01*
X131177042Y-99323908D01*
X131177041Y-99323908D01*
X131445104Y-99423890D01*
X131724637Y-99484699D01*
X132009999Y-99505109D01*
X132010001Y-99505109D01*
X132295362Y-99484699D01*
X132574895Y-99423890D01*
X132842958Y-99323908D01*
X133094047Y-99186803D01*
X133236561Y-99080116D01*
X133236562Y-99080115D01*
X132334025Y-98177577D01*
X132365258Y-98164641D01*
X132488097Y-98082563D01*
X132592563Y-97978097D01*
X132674641Y-97855258D01*
X132687578Y-97824025D01*
X133590115Y-98726562D01*
X133590116Y-98726561D01*
X133696803Y-98584047D01*
X133833908Y-98332958D01*
X133933890Y-98064895D01*
X133994699Y-97785362D01*
X134015109Y-97500001D01*
X134015109Y-97499998D01*
X133994699Y-97214637D01*
X133933890Y-96935104D01*
X133833908Y-96667041D01*
X133696808Y-96415961D01*
X133696807Y-96415960D01*
X133590115Y-96273436D01*
X132687577Y-97175973D01*
X132674641Y-97144742D01*
X132592563Y-97021903D01*
X132488097Y-96917437D01*
X132365258Y-96835359D01*
X132334024Y-96822421D01*
X133204310Y-95952135D01*
X150499500Y-95952135D01*
X150499500Y-99047870D01*
X150499501Y-99047876D01*
X150505908Y-99107483D01*
X150556202Y-99242328D01*
X150556206Y-99242335D01*
X150642452Y-99357544D01*
X150642455Y-99357547D01*
X150757664Y-99443793D01*
X150757671Y-99443797D01*
X150892517Y-99494091D01*
X150892516Y-99494091D01*
X150899444Y-99494835D01*
X150952127Y-99500500D01*
X154047872Y-99500499D01*
X154107483Y-99494091D01*
X154242331Y-99443796D01*
X154357546Y-99357546D01*
X154443796Y-99242331D01*
X154494091Y-99107483D01*
X154500500Y-99047873D01*
X154500499Y-95952128D01*
X154494091Y-95892517D01*
X154464506Y-95813196D01*
X154443797Y-95757671D01*
X154443793Y-95757664D01*
X154357547Y-95642455D01*
X154357544Y-95642452D01*
X154242335Y-95556206D01*
X154242328Y-95556202D01*
X154107482Y-95505908D01*
X154107483Y-95505908D01*
X154047883Y-95499501D01*
X154047881Y-95499500D01*
X154047873Y-95499500D01*
X154047864Y-95499500D01*
X150952129Y-95499500D01*
X150952123Y-95499501D01*
X150892516Y-95505908D01*
X150757671Y-95556202D01*
X150757664Y-95556206D01*
X150642455Y-95642452D01*
X150642452Y-95642455D01*
X150556206Y-95757664D01*
X150556202Y-95757671D01*
X150505908Y-95892517D01*
X150499501Y-95952116D01*
X150499501Y-95952123D01*
X150499500Y-95952135D01*
X133204310Y-95952135D01*
X133236562Y-95919883D01*
X133236561Y-95919882D01*
X133094046Y-95813196D01*
X133094038Y-95813191D01*
X132842957Y-95676091D01*
X132842958Y-95676091D01*
X132574895Y-95576109D01*
X132295362Y-95515300D01*
X132010001Y-95494891D01*
X132009999Y-95494891D01*
X131724637Y-95515300D01*
X131445104Y-95576109D01*
X131177041Y-95676091D01*
X130925961Y-95813191D01*
X130925953Y-95813196D01*
X130783437Y-95919882D01*
X130783436Y-95919883D01*
X131685975Y-96822421D01*
X131654742Y-96835359D01*
X131531903Y-96917437D01*
X131427437Y-97021903D01*
X131345359Y-97144742D01*
X131332421Y-97175974D01*
X130429883Y-96273436D01*
X130429882Y-96273437D01*
X130323196Y-96415953D01*
X130323191Y-96415961D01*
X130186091Y-96667041D01*
X130086109Y-96935104D01*
X130025300Y-97214637D01*
X130004891Y-97499998D01*
X120500500Y-97499998D01*
X120500500Y-91079998D01*
X135694532Y-91079998D01*
X135694532Y-91080001D01*
X135714364Y-91306686D01*
X135714366Y-91306697D01*
X135773258Y-91526488D01*
X135773261Y-91526497D01*
X135869431Y-91732732D01*
X135869432Y-91732734D01*
X135999954Y-91919141D01*
X136160858Y-92080045D01*
X136160861Y-92080047D01*
X136347266Y-92210568D01*
X136553504Y-92306739D01*
X136773308Y-92365635D01*
X136910782Y-92377662D01*
X136975850Y-92403114D01*
X137016829Y-92459705D01*
X137020707Y-92529467D01*
X136986253Y-92590251D01*
X136971097Y-92602765D01*
X136860859Y-92679953D01*
X136699954Y-92840858D01*
X136569432Y-93027265D01*
X136569431Y-93027267D01*
X136473261Y-93233502D01*
X136473258Y-93233511D01*
X136414366Y-93453302D01*
X136414364Y-93453313D01*
X136394532Y-93679998D01*
X136394532Y-93680001D01*
X136414364Y-93906686D01*
X136414366Y-93906697D01*
X136473258Y-94126488D01*
X136473261Y-94126497D01*
X136569431Y-94332732D01*
X136569432Y-94332734D01*
X136699954Y-94519141D01*
X136860858Y-94680045D01*
X136860861Y-94680047D01*
X137047266Y-94810568D01*
X137253504Y-94906739D01*
X137473308Y-94965635D01*
X137635230Y-94979801D01*
X137699998Y-94985468D01*
X137700000Y-94985468D01*
X137700002Y-94985468D01*
X137756673Y-94980509D01*
X137926692Y-94965635D01*
X138146496Y-94906739D01*
X138352734Y-94810568D01*
X138539139Y-94680047D01*
X138700047Y-94519139D01*
X138830568Y-94332734D01*
X138857618Y-94274724D01*
X138903790Y-94222285D01*
X138970983Y-94203133D01*
X139037865Y-94223348D01*
X139082382Y-94274725D01*
X139109429Y-94332728D01*
X139109432Y-94332734D01*
X139239954Y-94519141D01*
X139400858Y-94680045D01*
X139400861Y-94680047D01*
X139587266Y-94810568D01*
X139793504Y-94906739D01*
X140013308Y-94965635D01*
X140175230Y-94979801D01*
X140239998Y-94985468D01*
X140240000Y-94985468D01*
X140240002Y-94985468D01*
X140296673Y-94980509D01*
X140466692Y-94965635D01*
X140686496Y-94906739D01*
X140892734Y-94810568D01*
X141079139Y-94680047D01*
X141240047Y-94519139D01*
X141370568Y-94332734D01*
X141397618Y-94274724D01*
X141443790Y-94222285D01*
X141510983Y-94203133D01*
X141577865Y-94223348D01*
X141622382Y-94274725D01*
X141649429Y-94332728D01*
X141649432Y-94332734D01*
X141779954Y-94519141D01*
X141940858Y-94680045D01*
X141940861Y-94680047D01*
X142127266Y-94810568D01*
X142333504Y-94906739D01*
X142553308Y-94965635D01*
X142715230Y-94979801D01*
X142779998Y-94985468D01*
X142780000Y-94985468D01*
X142780002Y-94985468D01*
X142836673Y-94980509D01*
X143006692Y-94965635D01*
X143226496Y-94906739D01*
X143432734Y-94810568D01*
X143619139Y-94680047D01*
X143780047Y-94519139D01*
X143910568Y-94332734D01*
X143937618Y-94274724D01*
X143983790Y-94222285D01*
X144050983Y-94203133D01*
X144117865Y-94223348D01*
X144162382Y-94274725D01*
X144189429Y-94332728D01*
X144189432Y-94332734D01*
X144319954Y-94519141D01*
X144480858Y-94680045D01*
X144480861Y-94680047D01*
X144667266Y-94810568D01*
X144873504Y-94906739D01*
X145093308Y-94965635D01*
X145255230Y-94979801D01*
X145319998Y-94985468D01*
X145320000Y-94985468D01*
X145320002Y-94985468D01*
X145376673Y-94980509D01*
X145546692Y-94965635D01*
X145766496Y-94906739D01*
X145972734Y-94810568D01*
X146159139Y-94680047D01*
X146320047Y-94519139D01*
X146450568Y-94332734D01*
X146546739Y-94126496D01*
X146605635Y-93906692D01*
X146625468Y-93680000D01*
X146605635Y-93453308D01*
X146546739Y-93233504D01*
X146450568Y-93027266D01*
X146320047Y-92840861D01*
X146320045Y-92840858D01*
X146159141Y-92679954D01*
X145972734Y-92549432D01*
X145972732Y-92549431D01*
X145766497Y-92453261D01*
X145766488Y-92453258D01*
X145546697Y-92394366D01*
X145546693Y-92394365D01*
X145546692Y-92394365D01*
X145546691Y-92394364D01*
X145546686Y-92394364D01*
X145320002Y-92374532D01*
X145319998Y-92374532D01*
X145093313Y-92394364D01*
X145093302Y-92394366D01*
X144873511Y-92453258D01*
X144873502Y-92453261D01*
X144667267Y-92549431D01*
X144667265Y-92549432D01*
X144480858Y-92679954D01*
X144319954Y-92840858D01*
X144189432Y-93027265D01*
X144189431Y-93027267D01*
X144162382Y-93085275D01*
X144116209Y-93137714D01*
X144049016Y-93156866D01*
X143982135Y-93136650D01*
X143937618Y-93085275D01*
X143910568Y-93027267D01*
X143910567Y-93027265D01*
X143780045Y-92840858D01*
X143619141Y-92679954D01*
X143432734Y-92549432D01*
X143432732Y-92549431D01*
X143226497Y-92453261D01*
X143226488Y-92453258D01*
X143006697Y-92394366D01*
X143006693Y-92394365D01*
X143006692Y-92394365D01*
X143006691Y-92394364D01*
X143006686Y-92394364D01*
X142780002Y-92374532D01*
X142779998Y-92374532D01*
X142553313Y-92394364D01*
X142553302Y-92394366D01*
X142333511Y-92453258D01*
X142333502Y-92453261D01*
X142127267Y-92549431D01*
X142127265Y-92549432D01*
X141940858Y-92679954D01*
X141779954Y-92840858D01*
X141649432Y-93027265D01*
X141649431Y-93027267D01*
X141622382Y-93085275D01*
X141576209Y-93137714D01*
X141509016Y-93156866D01*
X141442135Y-93136650D01*
X141397618Y-93085275D01*
X141370568Y-93027267D01*
X141370567Y-93027265D01*
X141240045Y-92840858D01*
X141079141Y-92679954D01*
X140892734Y-92549432D01*
X140892732Y-92549431D01*
X140686497Y-92453261D01*
X140686488Y-92453258D01*
X140466697Y-92394366D01*
X140466693Y-92394365D01*
X140466692Y-92394365D01*
X140466691Y-92394364D01*
X140466686Y-92394364D01*
X140240002Y-92374532D01*
X140239998Y-92374532D01*
X140013313Y-92394364D01*
X140013302Y-92394366D01*
X139793511Y-92453258D01*
X139793502Y-92453261D01*
X139587267Y-92549431D01*
X139587265Y-92549432D01*
X139400858Y-92679954D01*
X139239954Y-92840858D01*
X139109432Y-93027265D01*
X139109431Y-93027267D01*
X139082382Y-93085275D01*
X139036209Y-93137714D01*
X138969016Y-93156866D01*
X138902135Y-93136650D01*
X138857618Y-93085275D01*
X138830568Y-93027267D01*
X138830567Y-93027265D01*
X138700045Y-92840858D01*
X138539141Y-92679954D01*
X138352734Y-92549432D01*
X138352732Y-92549431D01*
X138146497Y-92453261D01*
X138146488Y-92453258D01*
X137926697Y-92394366D01*
X137926687Y-92394364D01*
X137789217Y-92382337D01*
X137724148Y-92356884D01*
X137683170Y-92300293D01*
X137679292Y-92230531D01*
X137713746Y-92169747D01*
X137728892Y-92157242D01*
X137839139Y-92080047D01*
X138000047Y-91919139D01*
X138130568Y-91732734D01*
X138226739Y-91526496D01*
X138285635Y-91306692D01*
X138305468Y-91080000D01*
X138285635Y-90853308D01*
X138226739Y-90633504D01*
X138130568Y-90427266D01*
X138000047Y-90240861D01*
X138000045Y-90240858D01*
X137839141Y-90079954D01*
X137652734Y-89949432D01*
X137652732Y-89949431D01*
X137446497Y-89853261D01*
X137446488Y-89853258D01*
X137226697Y-89794366D01*
X137226693Y-89794365D01*
X137226692Y-89794365D01*
X137226691Y-89794364D01*
X137226686Y-89794364D01*
X137000002Y-89774532D01*
X136999998Y-89774532D01*
X136773313Y-89794364D01*
X136773302Y-89794366D01*
X136553511Y-89853258D01*
X136553502Y-89853261D01*
X136347267Y-89949431D01*
X136347265Y-89949432D01*
X136160858Y-90079954D01*
X135999954Y-90240858D01*
X135869432Y-90427265D01*
X135869431Y-90427267D01*
X135773261Y-90633502D01*
X135773258Y-90633511D01*
X135714366Y-90853302D01*
X135714364Y-90853313D01*
X135694532Y-91079998D01*
X120500500Y-91079998D01*
X120500500Y-89249999D01*
X140294357Y-89249999D01*
X140294357Y-89250000D01*
X140314884Y-89471535D01*
X140314885Y-89471537D01*
X140375769Y-89685523D01*
X140375775Y-89685538D01*
X140474938Y-89884683D01*
X140474943Y-89884691D01*
X140609020Y-90062238D01*
X140773437Y-90212123D01*
X140773439Y-90212125D01*
X140962595Y-90329245D01*
X140962596Y-90329245D01*
X140962599Y-90329247D01*
X141170060Y-90409618D01*
X141388757Y-90450500D01*
X141388759Y-90450500D01*
X141611241Y-90450500D01*
X141611243Y-90450500D01*
X141829940Y-90409618D01*
X142037401Y-90329247D01*
X142226562Y-90212124D01*
X142390981Y-90062236D01*
X142525058Y-89884689D01*
X142624229Y-89685528D01*
X142685115Y-89471536D01*
X142705643Y-89250000D01*
X142703782Y-89229921D01*
X142685115Y-89028464D01*
X142685114Y-89028462D01*
X142624230Y-88814476D01*
X142624229Y-88814472D01*
X142624224Y-88814461D01*
X142525061Y-88615316D01*
X142525056Y-88615308D01*
X142390979Y-88437761D01*
X142226562Y-88287876D01*
X142226560Y-88287874D01*
X142037404Y-88170754D01*
X142037398Y-88170751D01*
X141937225Y-88131944D01*
X141894411Y-88115358D01*
X141839011Y-88072786D01*
X141815420Y-88007019D01*
X141831131Y-87938939D01*
X141881155Y-87890160D01*
X141894412Y-87884105D01*
X142037177Y-87828797D01*
X142037181Y-87828795D01*
X142153326Y-87756879D01*
X141500001Y-87103553D01*
X141500000Y-87103553D01*
X140846672Y-87756879D01*
X140846672Y-87756880D01*
X140962821Y-87828797D01*
X140962822Y-87828798D01*
X141105587Y-87884105D01*
X141160988Y-87926678D01*
X141184579Y-87992445D01*
X141168868Y-88060525D01*
X141118844Y-88109304D01*
X141105587Y-88115359D01*
X140962601Y-88170751D01*
X140962595Y-88170754D01*
X140773439Y-88287874D01*
X140773437Y-88287876D01*
X140609020Y-88437761D01*
X140474943Y-88615308D01*
X140474938Y-88615316D01*
X140375775Y-88814461D01*
X140375769Y-88814476D01*
X140314885Y-89028462D01*
X140314884Y-89028464D01*
X140294357Y-89249999D01*
X120500500Y-89249999D01*
X120500500Y-86749999D01*
X140294859Y-86749999D01*
X140294859Y-86750000D01*
X140315378Y-86971439D01*
X140376240Y-87185350D01*
X140475369Y-87384428D01*
X140491137Y-87405308D01*
X140491138Y-87405308D01*
X141146447Y-86750000D01*
X141100369Y-86703922D01*
X141150000Y-86703922D01*
X141150000Y-86796078D01*
X141173852Y-86885095D01*
X141219930Y-86964905D01*
X141285095Y-87030070D01*
X141364905Y-87076148D01*
X141453922Y-87100000D01*
X141546078Y-87100000D01*
X141635095Y-87076148D01*
X141714905Y-87030070D01*
X141780070Y-86964905D01*
X141826148Y-86885095D01*
X141850000Y-86796078D01*
X141850000Y-86749999D01*
X141853553Y-86749999D01*
X141853553Y-86750000D01*
X142508861Y-87405308D01*
X142524631Y-87384425D01*
X142524633Y-87384422D01*
X142623759Y-87185350D01*
X142684621Y-86971439D01*
X142705141Y-86750000D01*
X142705141Y-86749999D01*
X142684621Y-86528560D01*
X142623759Y-86314649D01*
X142524635Y-86115580D01*
X142524630Y-86115572D01*
X142508860Y-86094690D01*
X141853553Y-86749999D01*
X141850000Y-86749999D01*
X141850000Y-86703922D01*
X141826148Y-86614905D01*
X141780070Y-86535095D01*
X141714905Y-86469930D01*
X141635095Y-86423852D01*
X141546078Y-86400000D01*
X141453922Y-86400000D01*
X141364905Y-86423852D01*
X141285095Y-86469930D01*
X141219930Y-86535095D01*
X141173852Y-86614905D01*
X141150000Y-86703922D01*
X141100369Y-86703922D01*
X140491138Y-86094691D01*
X140491137Y-86094691D01*
X140475368Y-86115574D01*
X140376240Y-86314649D01*
X140315378Y-86528560D01*
X140294859Y-86749999D01*
X120500500Y-86749999D01*
X120500500Y-85743119D01*
X140846671Y-85743119D01*
X141500000Y-86396447D01*
X141500001Y-86396447D01*
X142153327Y-85743119D01*
X142037178Y-85671202D01*
X142037177Y-85671201D01*
X141829804Y-85590865D01*
X141611193Y-85550000D01*
X141388807Y-85550000D01*
X141170195Y-85590865D01*
X140962824Y-85671200D01*
X140962823Y-85671201D01*
X140846671Y-85743119D01*
X120500500Y-85743119D01*
X120500500Y-78579998D01*
X135694532Y-78579998D01*
X135694532Y-78580001D01*
X135714364Y-78806686D01*
X135714366Y-78806697D01*
X135773258Y-79026488D01*
X135773261Y-79026497D01*
X135869431Y-79232732D01*
X135869432Y-79232734D01*
X135999954Y-79419141D01*
X136160858Y-79580045D01*
X136258515Y-79648425D01*
X136302140Y-79703002D01*
X136309334Y-79772500D01*
X136277811Y-79834855D01*
X136258515Y-79851575D01*
X136160858Y-79919954D01*
X135999954Y-80080858D01*
X135869432Y-80267265D01*
X135869431Y-80267267D01*
X135773261Y-80473502D01*
X135773258Y-80473511D01*
X135714366Y-80693302D01*
X135714364Y-80693313D01*
X135694532Y-80919998D01*
X135694532Y-80920001D01*
X135714364Y-81146686D01*
X135714366Y-81146697D01*
X135773258Y-81366488D01*
X135773261Y-81366497D01*
X135869431Y-81572732D01*
X135869432Y-81572734D01*
X135999954Y-81759141D01*
X136160858Y-81920045D01*
X136160861Y-81920047D01*
X136347266Y-82050568D01*
X136553504Y-82146739D01*
X136773308Y-82205635D01*
X136935230Y-82219801D01*
X136999998Y-82225468D01*
X137000000Y-82225468D01*
X137000002Y-82225468D01*
X137056673Y-82220509D01*
X137226692Y-82205635D01*
X137446496Y-82146739D01*
X137652734Y-82050568D01*
X137839139Y-81920047D01*
X138000047Y-81759139D01*
X138130568Y-81572734D01*
X138226739Y-81366496D01*
X138257955Y-81249995D01*
X141744592Y-81249995D01*
X141744592Y-81250004D01*
X141764196Y-81511620D01*
X141764197Y-81511625D01*
X141822576Y-81767402D01*
X141822578Y-81767411D01*
X141822580Y-81767416D01*
X141918432Y-82011643D01*
X142049614Y-82238857D01*
X142181736Y-82404533D01*
X142213198Y-82443985D01*
X142349244Y-82570216D01*
X142405521Y-82622433D01*
X142622296Y-82770228D01*
X142622301Y-82770230D01*
X142622302Y-82770231D01*
X142622303Y-82770232D01*
X142747843Y-82830688D01*
X142858673Y-82884061D01*
X142858674Y-82884061D01*
X142858677Y-82884063D01*
X143109385Y-82961396D01*
X143368818Y-83000500D01*
X143631182Y-83000500D01*
X143890615Y-82961396D01*
X144141323Y-82884063D01*
X144377704Y-82770228D01*
X144594479Y-82622433D01*
X144786805Y-82443981D01*
X144950386Y-82238857D01*
X145081568Y-82011643D01*
X145177420Y-81767416D01*
X145235802Y-81511630D01*
X145235808Y-81511550D01*
X145255408Y-81250004D01*
X145255408Y-81249995D01*
X145235803Y-80988379D01*
X145235802Y-80988374D01*
X145235802Y-80988370D01*
X145177420Y-80732584D01*
X145081568Y-80488357D01*
X144950386Y-80261143D01*
X144786805Y-80056019D01*
X144786804Y-80056018D01*
X144786801Y-80056014D01*
X144594479Y-79877567D01*
X144558905Y-79853313D01*
X144377704Y-79729772D01*
X144377700Y-79729770D01*
X144377697Y-79729768D01*
X144377696Y-79729767D01*
X144141325Y-79615938D01*
X144141327Y-79615938D01*
X143890623Y-79538606D01*
X143890619Y-79538605D01*
X143890615Y-79538604D01*
X143765823Y-79519794D01*
X143631187Y-79499500D01*
X143631182Y-79499500D01*
X143368818Y-79499500D01*
X143368812Y-79499500D01*
X143207247Y-79523853D01*
X143109385Y-79538604D01*
X143109382Y-79538605D01*
X143109376Y-79538606D01*
X142858673Y-79615938D01*
X142622303Y-79729767D01*
X142622302Y-79729768D01*
X142622296Y-79729771D01*
X142622296Y-79729772D01*
X142621654Y-79730210D01*
X142405520Y-79877567D01*
X142213198Y-80056014D01*
X142049614Y-80261143D01*
X141918432Y-80488356D01*
X141822582Y-80732578D01*
X141822576Y-80732597D01*
X141764197Y-80988374D01*
X141764196Y-80988379D01*
X141744592Y-81249995D01*
X138257955Y-81249995D01*
X138285635Y-81146692D01*
X138305468Y-80920000D01*
X138285635Y-80693308D01*
X138226739Y-80473504D01*
X138130568Y-80267266D01*
X138000047Y-80080861D01*
X138000045Y-80080858D01*
X137839141Y-79919954D01*
X137743959Y-79853308D01*
X137741483Y-79851574D01*
X137697859Y-79796999D01*
X137690665Y-79727500D01*
X137722187Y-79665146D01*
X137741484Y-79648425D01*
X137839139Y-79580047D01*
X138000047Y-79419139D01*
X138130568Y-79232734D01*
X138226739Y-79026496D01*
X138285635Y-78806692D01*
X138305468Y-78580000D01*
X138285635Y-78353308D01*
X138226739Y-78133504D01*
X138130568Y-77927266D01*
X138000047Y-77740861D01*
X138000045Y-77740858D01*
X137839141Y-77579954D01*
X137652734Y-77449432D01*
X137652732Y-77449431D01*
X137446497Y-77353261D01*
X137446488Y-77353258D01*
X137226697Y-77294366D01*
X137226693Y-77294365D01*
X137226692Y-77294365D01*
X137226691Y-77294364D01*
X137226686Y-77294364D01*
X137000002Y-77274532D01*
X136999998Y-77274532D01*
X136773313Y-77294364D01*
X136773302Y-77294366D01*
X136553511Y-77353258D01*
X136553502Y-77353261D01*
X136347267Y-77449431D01*
X136347265Y-77449432D01*
X136160858Y-77579954D01*
X135999954Y-77740858D01*
X135869432Y-77927265D01*
X135869431Y-77927267D01*
X135773261Y-78133502D01*
X135773258Y-78133511D01*
X135714366Y-78353302D01*
X135714364Y-78353313D01*
X135694532Y-78579998D01*
X120500500Y-78579998D01*
X120500500Y-75000000D01*
X137694706Y-75000000D01*
X137713853Y-75243297D01*
X137713853Y-75243300D01*
X137713854Y-75243302D01*
X137761471Y-75441639D01*
X137770830Y-75480619D01*
X137864222Y-75706089D01*
X137991737Y-75914173D01*
X137991738Y-75914176D01*
X138045449Y-75977063D01*
X138150241Y-76099759D01*
X138293897Y-76222453D01*
X138335823Y-76258261D01*
X138335826Y-76258262D01*
X138543910Y-76385777D01*
X138769381Y-76479169D01*
X138769378Y-76479169D01*
X138769384Y-76479170D01*
X138769388Y-76479172D01*
X139006698Y-76536146D01*
X139250000Y-76555294D01*
X139493302Y-76536146D01*
X139730612Y-76479172D01*
X139956089Y-76385777D01*
X140164179Y-76258259D01*
X140349759Y-76099759D01*
X140508259Y-75914179D01*
X140532032Y-75875383D01*
X140583840Y-75828510D01*
X140652769Y-75817086D01*
X140716932Y-75844741D01*
X140725439Y-75852493D01*
X140750500Y-75877554D01*
X140750505Y-75877558D01*
X140800913Y-75914181D01*
X140897006Y-75983996D01*
X141002484Y-76037740D01*
X141058360Y-76066211D01*
X141058363Y-76066212D01*
X141144476Y-76094191D01*
X141230591Y-76122171D01*
X141313429Y-76135291D01*
X141409449Y-76150500D01*
X141409454Y-76150500D01*
X141590551Y-76150500D01*
X141677259Y-76136765D01*
X141769409Y-76122171D01*
X141941639Y-76066211D01*
X142102994Y-75983996D01*
X142249501Y-75877553D01*
X142377553Y-75749501D01*
X142483996Y-75602994D01*
X142566211Y-75441639D01*
X142622171Y-75269409D01*
X142636765Y-75177259D01*
X142650500Y-75090551D01*
X142650500Y-74909448D01*
X149349500Y-74909448D01*
X149349500Y-75090551D01*
X149377829Y-75269410D01*
X149433787Y-75441636D01*
X149433788Y-75441639D01*
X149516006Y-75602997D01*
X149622441Y-75749494D01*
X149622445Y-75749499D01*
X149750500Y-75877554D01*
X149750505Y-75877558D01*
X149800913Y-75914181D01*
X149897006Y-75983996D01*
X150002484Y-76037740D01*
X150058360Y-76066211D01*
X150058363Y-76066212D01*
X150144476Y-76094191D01*
X150230591Y-76122171D01*
X150313429Y-76135291D01*
X150409449Y-76150500D01*
X150409454Y-76150500D01*
X150590551Y-76150500D01*
X150677259Y-76136765D01*
X150769409Y-76122171D01*
X150941639Y-76066211D01*
X151102994Y-75983996D01*
X151249501Y-75877553D01*
X151274561Y-75852492D01*
X151335880Y-75819009D01*
X151405572Y-75823992D01*
X151461506Y-75865863D01*
X151467967Y-75875384D01*
X151491742Y-75914181D01*
X151551368Y-75983993D01*
X151650241Y-76099759D01*
X151793897Y-76222453D01*
X151835823Y-76258261D01*
X151835826Y-76258262D01*
X152043910Y-76385777D01*
X152269381Y-76479169D01*
X152269378Y-76479169D01*
X152269384Y-76479170D01*
X152269388Y-76479172D01*
X152506698Y-76536146D01*
X152750000Y-76555294D01*
X152993302Y-76536146D01*
X153230612Y-76479172D01*
X153456089Y-76385777D01*
X153664179Y-76258259D01*
X153849759Y-76099759D01*
X154008259Y-75914179D01*
X154135777Y-75706089D01*
X154229172Y-75480612D01*
X154286146Y-75243302D01*
X154305294Y-75000000D01*
X155694706Y-75000000D01*
X155713853Y-75243297D01*
X155713853Y-75243300D01*
X155713854Y-75243302D01*
X155761471Y-75441639D01*
X155770830Y-75480619D01*
X155864222Y-75706089D01*
X155991737Y-75914173D01*
X155991738Y-75914176D01*
X156045449Y-75977063D01*
X156150241Y-76099759D01*
X156293897Y-76222453D01*
X156335823Y-76258261D01*
X156335826Y-76258262D01*
X156543910Y-76385777D01*
X156769381Y-76479169D01*
X156769378Y-76479169D01*
X156769384Y-76479170D01*
X156769388Y-76479172D01*
X157006698Y-76536146D01*
X157250000Y-76555294D01*
X157493302Y-76536146D01*
X157730612Y-76479172D01*
X157956089Y-76385777D01*
X158164179Y-76258259D01*
X158349759Y-76099759D01*
X158508259Y-75914179D01*
X158532032Y-75875383D01*
X158583840Y-75828510D01*
X158652769Y-75817086D01*
X158716932Y-75844741D01*
X158725439Y-75852493D01*
X158750500Y-75877554D01*
X158750505Y-75877558D01*
X158800913Y-75914181D01*
X158897006Y-75983996D01*
X159002484Y-76037740D01*
X159058360Y-76066211D01*
X159058363Y-76066212D01*
X159144476Y-76094191D01*
X159230591Y-76122171D01*
X159313429Y-76135291D01*
X159409449Y-76150500D01*
X159409454Y-76150500D01*
X159590551Y-76150500D01*
X159677259Y-76136765D01*
X159769409Y-76122171D01*
X159941639Y-76066211D01*
X160102994Y-75983996D01*
X160249501Y-75877553D01*
X160377553Y-75749501D01*
X160483996Y-75602994D01*
X160566211Y-75441639D01*
X160622171Y-75269409D01*
X160636765Y-75177259D01*
X160650500Y-75090551D01*
X160650500Y-74909448D01*
X167349500Y-74909448D01*
X167349500Y-75090551D01*
X167377829Y-75269410D01*
X167433787Y-75441636D01*
X167433788Y-75441639D01*
X167516006Y-75602997D01*
X167622441Y-75749494D01*
X167622445Y-75749499D01*
X167750500Y-75877554D01*
X167750505Y-75877558D01*
X167800913Y-75914181D01*
X167897006Y-75983996D01*
X168002484Y-76037740D01*
X168058360Y-76066211D01*
X168058363Y-76066212D01*
X168144476Y-76094191D01*
X168230591Y-76122171D01*
X168313429Y-76135291D01*
X168409449Y-76150500D01*
X168409454Y-76150500D01*
X168590551Y-76150500D01*
X168677259Y-76136765D01*
X168769409Y-76122171D01*
X168941639Y-76066211D01*
X169102994Y-75983996D01*
X169249501Y-75877553D01*
X169274561Y-75852492D01*
X169335880Y-75819009D01*
X169405572Y-75823992D01*
X169461506Y-75865863D01*
X169467967Y-75875384D01*
X169491742Y-75914181D01*
X169551368Y-75983993D01*
X169650241Y-76099759D01*
X169793897Y-76222453D01*
X169835823Y-76258261D01*
X169835826Y-76258262D01*
X170043910Y-76385777D01*
X170269381Y-76479169D01*
X170269378Y-76479169D01*
X170269384Y-76479170D01*
X170269388Y-76479172D01*
X170506698Y-76536146D01*
X170750000Y-76555294D01*
X170993302Y-76536146D01*
X171230612Y-76479172D01*
X171456089Y-76385777D01*
X171664179Y-76258259D01*
X171849759Y-76099759D01*
X172008259Y-75914179D01*
X172135777Y-75706089D01*
X172229172Y-75480612D01*
X172286146Y-75243302D01*
X172305294Y-75000000D01*
X172286146Y-74756698D01*
X172229172Y-74519388D01*
X172178480Y-74397006D01*
X172135777Y-74293910D01*
X172008262Y-74085826D01*
X172008261Y-74085823D01*
X171948630Y-74016004D01*
X171849759Y-73900241D01*
X171727063Y-73795449D01*
X171664176Y-73741738D01*
X171664173Y-73741737D01*
X171456089Y-73614222D01*
X171230618Y-73520830D01*
X171230621Y-73520830D01*
X171124992Y-73495470D01*
X170993302Y-73463854D01*
X170993300Y-73463853D01*
X170993297Y-73463853D01*
X170750000Y-73444706D01*
X170506702Y-73463853D01*
X170269380Y-73520830D01*
X170043910Y-73614222D01*
X169835826Y-73741737D01*
X169835823Y-73741738D01*
X169650241Y-73900241D01*
X169491738Y-74085823D01*
X169491738Y-74085824D01*
X169467966Y-74124616D01*
X169416154Y-74171490D01*
X169347224Y-74182911D01*
X169283061Y-74155253D01*
X169274559Y-74147505D01*
X169249499Y-74122445D01*
X169249494Y-74122441D01*
X169102997Y-74016006D01*
X169102996Y-74016005D01*
X169102994Y-74016004D01*
X169051300Y-73989664D01*
X168941639Y-73933788D01*
X168941636Y-73933787D01*
X168769410Y-73877829D01*
X168590551Y-73849500D01*
X168590546Y-73849500D01*
X168409454Y-73849500D01*
X168409449Y-73849500D01*
X168230589Y-73877829D01*
X168058363Y-73933787D01*
X168058360Y-73933788D01*
X167897002Y-74016006D01*
X167750505Y-74122441D01*
X167750500Y-74122445D01*
X167622445Y-74250500D01*
X167622441Y-74250505D01*
X167516006Y-74397002D01*
X167433788Y-74558360D01*
X167433787Y-74558363D01*
X167377829Y-74730589D01*
X167349500Y-74909448D01*
X160650500Y-74909448D01*
X160634019Y-74805397D01*
X160622171Y-74730591D01*
X160566211Y-74558361D01*
X160566211Y-74558360D01*
X160537740Y-74502484D01*
X160483996Y-74397006D01*
X160470396Y-74378287D01*
X160377558Y-74250505D01*
X160377554Y-74250500D01*
X160249499Y-74122445D01*
X160249494Y-74122441D01*
X160102997Y-74016006D01*
X160102996Y-74016005D01*
X160102994Y-74016004D01*
X160051300Y-73989664D01*
X159941639Y-73933788D01*
X159941636Y-73933787D01*
X159769410Y-73877829D01*
X159590551Y-73849500D01*
X159590546Y-73849500D01*
X159409454Y-73849500D01*
X159409449Y-73849500D01*
X159230589Y-73877829D01*
X159058363Y-73933787D01*
X159058360Y-73933788D01*
X158897002Y-74016006D01*
X158750505Y-74122440D01*
X158725439Y-74147507D01*
X158664115Y-74180991D01*
X158594423Y-74176005D01*
X158538491Y-74134133D01*
X158532032Y-74124614D01*
X158508260Y-74085823D01*
X158508257Y-74085818D01*
X158448630Y-74016004D01*
X158349759Y-73900241D01*
X158227063Y-73795449D01*
X158164176Y-73741738D01*
X158164173Y-73741737D01*
X157956089Y-73614222D01*
X157730618Y-73520830D01*
X157730621Y-73520830D01*
X157624992Y-73495470D01*
X157493302Y-73463854D01*
X157493300Y-73463853D01*
X157493297Y-73463853D01*
X157250000Y-73444706D01*
X157006702Y-73463853D01*
X156769380Y-73520830D01*
X156543910Y-73614222D01*
X156335826Y-73741737D01*
X156335823Y-73741738D01*
X156150241Y-73900241D01*
X155991738Y-74085823D01*
X155991737Y-74085826D01*
X155864222Y-74293910D01*
X155770830Y-74519380D01*
X155713853Y-74756702D01*
X155694706Y-75000000D01*
X154305294Y-75000000D01*
X154286146Y-74756698D01*
X154229172Y-74519388D01*
X154178480Y-74397006D01*
X154135777Y-74293910D01*
X154008262Y-74085826D01*
X154008261Y-74085823D01*
X153948630Y-74016004D01*
X153849759Y-73900241D01*
X153727063Y-73795449D01*
X153664176Y-73741738D01*
X153664173Y-73741737D01*
X153456089Y-73614222D01*
X153230618Y-73520830D01*
X153230621Y-73520830D01*
X153124992Y-73495470D01*
X152993302Y-73463854D01*
X152993300Y-73463853D01*
X152993297Y-73463853D01*
X152750000Y-73444706D01*
X152506702Y-73463853D01*
X152269380Y-73520830D01*
X152043910Y-73614222D01*
X151835826Y-73741737D01*
X151835823Y-73741738D01*
X151650241Y-73900241D01*
X151491738Y-74085823D01*
X151491738Y-74085824D01*
X151467966Y-74124616D01*
X151416154Y-74171490D01*
X151347224Y-74182911D01*
X151283061Y-74155253D01*
X151274559Y-74147505D01*
X151249499Y-74122445D01*
X151249494Y-74122441D01*
X151102997Y-74016006D01*
X151102996Y-74016005D01*
X151102994Y-74016004D01*
X151051300Y-73989664D01*
X150941639Y-73933788D01*
X150941636Y-73933787D01*
X150769410Y-73877829D01*
X150590551Y-73849500D01*
X150590546Y-73849500D01*
X150409454Y-73849500D01*
X150409449Y-73849500D01*
X150230589Y-73877829D01*
X150058363Y-73933787D01*
X150058360Y-73933788D01*
X149897002Y-74016006D01*
X149750505Y-74122441D01*
X149750500Y-74122445D01*
X149622445Y-74250500D01*
X149622441Y-74250505D01*
X149516006Y-74397002D01*
X149433788Y-74558360D01*
X149433787Y-74558363D01*
X149377829Y-74730589D01*
X149349500Y-74909448D01*
X142650500Y-74909448D01*
X142634019Y-74805397D01*
X142622171Y-74730591D01*
X142566211Y-74558361D01*
X142566211Y-74558360D01*
X142537740Y-74502484D01*
X142483996Y-74397006D01*
X142470396Y-74378287D01*
X142377558Y-74250505D01*
X142377554Y-74250500D01*
X142249499Y-74122445D01*
X142249494Y-74122441D01*
X142102997Y-74016006D01*
X142102996Y-74016005D01*
X142102994Y-74016004D01*
X142051300Y-73989664D01*
X141941639Y-73933788D01*
X141941636Y-73933787D01*
X141769410Y-73877829D01*
X141590551Y-73849500D01*
X141590546Y-73849500D01*
X141409454Y-73849500D01*
X141409449Y-73849500D01*
X141230589Y-73877829D01*
X141058363Y-73933787D01*
X141058360Y-73933788D01*
X140897002Y-74016006D01*
X140750505Y-74122440D01*
X140725439Y-74147507D01*
X140664115Y-74180991D01*
X140594423Y-74176005D01*
X140538491Y-74134133D01*
X140532032Y-74124614D01*
X140508260Y-74085823D01*
X140508257Y-74085818D01*
X140448630Y-74016004D01*
X140349759Y-73900241D01*
X140227063Y-73795449D01*
X140164176Y-73741738D01*
X140164173Y-73741737D01*
X139956089Y-73614222D01*
X139730618Y-73520830D01*
X139730621Y-73520830D01*
X139624992Y-73495470D01*
X139493302Y-73463854D01*
X139493300Y-73463853D01*
X139493297Y-73463853D01*
X139250000Y-73444706D01*
X139006702Y-73463853D01*
X138769380Y-73520830D01*
X138543910Y-73614222D01*
X138335826Y-73741737D01*
X138335823Y-73741738D01*
X138150241Y-73900241D01*
X137991738Y-74085823D01*
X137991737Y-74085826D01*
X137864222Y-74293910D01*
X137770830Y-74519380D01*
X137713853Y-74756702D01*
X137694706Y-75000000D01*
X120500500Y-75000000D01*
X120500500Y-68419998D01*
X135694532Y-68419998D01*
X135694532Y-68420001D01*
X135714364Y-68646686D01*
X135714366Y-68646697D01*
X135773258Y-68866488D01*
X135773261Y-68866497D01*
X135869431Y-69072732D01*
X135869432Y-69072734D01*
X135999954Y-69259141D01*
X136160858Y-69420045D01*
X136160861Y-69420047D01*
X136347266Y-69550568D01*
X136553504Y-69646739D01*
X136773308Y-69705635D01*
X136935230Y-69719801D01*
X136999998Y-69725468D01*
X137000000Y-69725468D01*
X137000002Y-69725468D01*
X137056673Y-69720509D01*
X137226692Y-69705635D01*
X137446496Y-69646739D01*
X137652734Y-69550568D01*
X137839139Y-69420047D01*
X138000047Y-69259139D01*
X138130568Y-69072734D01*
X138226739Y-68866496D01*
X138257955Y-68749995D01*
X141744592Y-68749995D01*
X141744592Y-68750004D01*
X141764196Y-69011620D01*
X141764197Y-69011625D01*
X141822576Y-69267402D01*
X141822578Y-69267411D01*
X141822580Y-69267416D01*
X141918432Y-69511643D01*
X142049614Y-69738857D01*
X142181736Y-69904533D01*
X142213198Y-69943985D01*
X142394753Y-70112441D01*
X142405521Y-70122433D01*
X142622296Y-70270228D01*
X142622301Y-70270230D01*
X142622302Y-70270231D01*
X142622303Y-70270232D01*
X142747843Y-70330688D01*
X142858673Y-70384061D01*
X142858674Y-70384061D01*
X142858677Y-70384063D01*
X143109385Y-70461396D01*
X143368818Y-70500500D01*
X143631182Y-70500500D01*
X143890615Y-70461396D01*
X144141323Y-70384063D01*
X144377704Y-70270228D01*
X144594479Y-70122433D01*
X144786805Y-69943981D01*
X144950386Y-69738857D01*
X145081568Y-69511643D01*
X145177420Y-69267416D01*
X145235802Y-69011630D01*
X145235808Y-69011550D01*
X145255408Y-68750004D01*
X145255408Y-68749995D01*
X146745093Y-68749995D01*
X146745093Y-68750004D01*
X146764692Y-69011545D01*
X146764693Y-69011550D01*
X146823058Y-69267270D01*
X146918883Y-69511426D01*
X146918882Y-69511426D01*
X147050027Y-69738573D01*
X147097874Y-69798571D01*
X147822421Y-69074024D01*
X147835359Y-69105258D01*
X147917437Y-69228097D01*
X148021903Y-69332563D01*
X148144742Y-69414641D01*
X148175974Y-69427577D01*
X147450830Y-70152720D01*
X147622546Y-70269793D01*
X147622550Y-70269795D01*
X147858854Y-70383594D01*
X147858858Y-70383595D01*
X148109494Y-70460907D01*
X148109500Y-70460909D01*
X148368848Y-70499999D01*
X148368857Y-70500000D01*
X148631143Y-70500000D01*
X148631151Y-70499999D01*
X148890499Y-70460909D01*
X148890505Y-70460907D01*
X149141143Y-70383595D01*
X149377445Y-70269798D01*
X149377447Y-70269797D01*
X149549168Y-70152720D01*
X149316446Y-69919998D01*
X153694532Y-69919998D01*
X153694532Y-69920001D01*
X153714364Y-70146686D01*
X153714366Y-70146697D01*
X153773258Y-70366488D01*
X153773261Y-70366497D01*
X153869431Y-70572732D01*
X153869432Y-70572734D01*
X153999954Y-70759141D01*
X154160858Y-70920045D01*
X154160861Y-70920047D01*
X154347266Y-71050568D01*
X154553504Y-71146739D01*
X154773308Y-71205635D01*
X154935230Y-71219801D01*
X154999998Y-71225468D01*
X155000000Y-71225468D01*
X155000002Y-71225468D01*
X155056673Y-71220509D01*
X155226692Y-71205635D01*
X155446496Y-71146739D01*
X155652734Y-71050568D01*
X155839139Y-70920047D01*
X156000047Y-70759139D01*
X156130568Y-70572734D01*
X156226739Y-70366496D01*
X156285635Y-70146692D01*
X156305468Y-69920000D01*
X156285635Y-69693308D01*
X156226739Y-69473504D01*
X156130568Y-69267266D01*
X156000047Y-69080861D01*
X156000045Y-69080858D01*
X155839141Y-68919954D01*
X155652734Y-68789432D01*
X155652732Y-68789431D01*
X155568162Y-68749995D01*
X159744592Y-68749995D01*
X159744592Y-68750004D01*
X159764196Y-69011620D01*
X159764197Y-69011625D01*
X159822576Y-69267402D01*
X159822578Y-69267411D01*
X159822580Y-69267416D01*
X159918432Y-69511643D01*
X160049614Y-69738857D01*
X160181736Y-69904533D01*
X160213198Y-69943985D01*
X160394753Y-70112441D01*
X160405521Y-70122433D01*
X160622296Y-70270228D01*
X160622301Y-70270230D01*
X160622302Y-70270231D01*
X160622303Y-70270232D01*
X160747843Y-70330688D01*
X160858673Y-70384061D01*
X160858674Y-70384061D01*
X160858677Y-70384063D01*
X161109385Y-70461396D01*
X161368818Y-70500500D01*
X161631182Y-70500500D01*
X161890615Y-70461396D01*
X162141323Y-70384063D01*
X162377704Y-70270228D01*
X162594479Y-70122433D01*
X162786805Y-69943981D01*
X162950386Y-69738857D01*
X163081568Y-69511643D01*
X163177420Y-69267416D01*
X163235802Y-69011630D01*
X163235808Y-69011550D01*
X163255408Y-68750004D01*
X163255408Y-68749995D01*
X164745093Y-68749995D01*
X164745093Y-68750004D01*
X164764692Y-69011545D01*
X164764693Y-69011550D01*
X164823058Y-69267270D01*
X164918883Y-69511426D01*
X164918882Y-69511426D01*
X165050027Y-69738573D01*
X165097874Y-69798571D01*
X165822421Y-69074024D01*
X165835359Y-69105258D01*
X165917437Y-69228097D01*
X166021903Y-69332563D01*
X166144742Y-69414641D01*
X166175974Y-69427577D01*
X165450830Y-70152720D01*
X165622546Y-70269793D01*
X165622550Y-70269795D01*
X165858854Y-70383594D01*
X165858858Y-70383595D01*
X166109494Y-70460907D01*
X166109500Y-70460909D01*
X166368848Y-70499999D01*
X166368857Y-70500000D01*
X166631143Y-70500000D01*
X166631151Y-70499999D01*
X166890499Y-70460909D01*
X166890505Y-70460907D01*
X167141143Y-70383595D01*
X167377445Y-70269798D01*
X167377447Y-70269797D01*
X167549168Y-70152720D01*
X166824025Y-69427578D01*
X166855258Y-69414641D01*
X166978097Y-69332563D01*
X167082563Y-69228097D01*
X167164641Y-69105258D01*
X167177578Y-69074025D01*
X167902125Y-69798572D01*
X167949971Y-69738573D01*
X168081116Y-69511426D01*
X168176941Y-69267270D01*
X168235306Y-69011550D01*
X168235307Y-69011545D01*
X168254907Y-68750004D01*
X168254907Y-68749995D01*
X168235307Y-68488454D01*
X168235306Y-68488449D01*
X168176941Y-68232729D01*
X168081116Y-67988573D01*
X168081117Y-67988573D01*
X167949972Y-67761426D01*
X167902124Y-67701427D01*
X167177577Y-68425973D01*
X167164641Y-68394742D01*
X167082563Y-68271903D01*
X166978097Y-68167437D01*
X166855258Y-68085359D01*
X166824025Y-68072421D01*
X167549168Y-67347278D01*
X167377454Y-67230206D01*
X167377445Y-67230201D01*
X167141142Y-67116404D01*
X167141144Y-67116404D01*
X166890505Y-67039092D01*
X166890499Y-67039090D01*
X166631151Y-67000000D01*
X166368848Y-67000000D01*
X166109500Y-67039090D01*
X166109494Y-67039092D01*
X165858858Y-67116404D01*
X165858854Y-67116405D01*
X165622547Y-67230205D01*
X165622539Y-67230210D01*
X165450830Y-67347277D01*
X166175974Y-68072421D01*
X166144742Y-68085359D01*
X166021903Y-68167437D01*
X165917437Y-68271903D01*
X165835359Y-68394742D01*
X165822422Y-68425974D01*
X165097875Y-67701427D01*
X165097874Y-67701427D01*
X165050028Y-67761425D01*
X164918883Y-67988573D01*
X164823058Y-68232729D01*
X164764693Y-68488449D01*
X164764692Y-68488454D01*
X164745093Y-68749995D01*
X163255408Y-68749995D01*
X163235803Y-68488379D01*
X163235802Y-68488374D01*
X163235802Y-68488370D01*
X163177420Y-68232584D01*
X163081568Y-67988357D01*
X162950386Y-67761143D01*
X162786805Y-67556019D01*
X162786804Y-67556018D01*
X162786801Y-67556014D01*
X162594479Y-67377567D01*
X162550052Y-67347277D01*
X162377704Y-67229772D01*
X162377700Y-67229770D01*
X162377697Y-67229768D01*
X162377696Y-67229767D01*
X162141325Y-67115938D01*
X162141327Y-67115938D01*
X161890623Y-67038606D01*
X161890619Y-67038605D01*
X161890615Y-67038604D01*
X161765823Y-67019794D01*
X161631187Y-66999500D01*
X161631182Y-66999500D01*
X161368818Y-66999500D01*
X161368812Y-66999500D01*
X161207247Y-67023853D01*
X161109385Y-67038604D01*
X161109382Y-67038605D01*
X161109376Y-67038606D01*
X160858673Y-67115938D01*
X160622303Y-67229767D01*
X160622302Y-67229768D01*
X160622296Y-67229771D01*
X160622296Y-67229772D01*
X160621654Y-67230210D01*
X160405520Y-67377567D01*
X160213198Y-67556014D01*
X160049614Y-67761143D01*
X159918432Y-67988356D01*
X159822582Y-68232578D01*
X159822576Y-68232597D01*
X159764197Y-68488374D01*
X159764196Y-68488379D01*
X159744592Y-68749995D01*
X155568162Y-68749995D01*
X155446497Y-68693261D01*
X155446488Y-68693258D01*
X155226697Y-68634366D01*
X155226693Y-68634365D01*
X155226692Y-68634365D01*
X155226691Y-68634364D01*
X155226686Y-68634364D01*
X155000002Y-68614532D01*
X154999998Y-68614532D01*
X154773313Y-68634364D01*
X154773302Y-68634366D01*
X154553511Y-68693258D01*
X154553502Y-68693261D01*
X154347267Y-68789431D01*
X154347265Y-68789432D01*
X154160858Y-68919954D01*
X153999954Y-69080858D01*
X153869432Y-69267265D01*
X153869431Y-69267267D01*
X153773261Y-69473502D01*
X153773258Y-69473511D01*
X153714366Y-69693302D01*
X153714364Y-69693313D01*
X153694532Y-69919998D01*
X149316446Y-69919998D01*
X148824025Y-69427578D01*
X148855258Y-69414641D01*
X148978097Y-69332563D01*
X149082563Y-69228097D01*
X149164641Y-69105258D01*
X149177578Y-69074025D01*
X149902125Y-69798572D01*
X149949971Y-69738573D01*
X150081116Y-69511426D01*
X150176941Y-69267270D01*
X150235306Y-69011550D01*
X150235307Y-69011545D01*
X150254907Y-68750004D01*
X150254907Y-68749995D01*
X150235307Y-68488454D01*
X150235306Y-68488449D01*
X150176941Y-68232729D01*
X150081116Y-67988573D01*
X150081117Y-67988573D01*
X149949972Y-67761426D01*
X149902124Y-67701427D01*
X149177577Y-68425973D01*
X149164641Y-68394742D01*
X149082563Y-68271903D01*
X148978097Y-68167437D01*
X148855258Y-68085359D01*
X148824025Y-68072421D01*
X149549168Y-67347278D01*
X149377454Y-67230206D01*
X149377445Y-67230201D01*
X149141142Y-67116404D01*
X149141144Y-67116404D01*
X148890505Y-67039092D01*
X148890499Y-67039090D01*
X148631151Y-67000000D01*
X148368848Y-67000000D01*
X148109500Y-67039090D01*
X148109494Y-67039092D01*
X147858858Y-67116404D01*
X147858854Y-67116405D01*
X147622547Y-67230205D01*
X147622539Y-67230210D01*
X147450830Y-67347277D01*
X148175974Y-68072421D01*
X148144742Y-68085359D01*
X148021903Y-68167437D01*
X147917437Y-68271903D01*
X147835359Y-68394742D01*
X147822422Y-68425974D01*
X147097875Y-67701427D01*
X147097874Y-67701427D01*
X147050028Y-67761425D01*
X146918883Y-67988573D01*
X146823058Y-68232729D01*
X146764693Y-68488449D01*
X146764692Y-68488454D01*
X146745093Y-68749995D01*
X145255408Y-68749995D01*
X145235803Y-68488379D01*
X145235802Y-68488374D01*
X145235802Y-68488370D01*
X145177420Y-68232584D01*
X145081568Y-67988357D01*
X144950386Y-67761143D01*
X144786805Y-67556019D01*
X144786804Y-67556018D01*
X144786801Y-67556014D01*
X144594479Y-67377567D01*
X144550052Y-67347277D01*
X144377704Y-67229772D01*
X144377700Y-67229770D01*
X144377697Y-67229768D01*
X144377696Y-67229767D01*
X144141325Y-67115938D01*
X144141327Y-67115938D01*
X143890623Y-67038606D01*
X143890619Y-67038605D01*
X143890615Y-67038604D01*
X143765823Y-67019794D01*
X143631187Y-66999500D01*
X143631182Y-66999500D01*
X143368818Y-66999500D01*
X143368812Y-66999500D01*
X143207247Y-67023853D01*
X143109385Y-67038604D01*
X143109382Y-67038605D01*
X143109376Y-67038606D01*
X142858673Y-67115938D01*
X142622303Y-67229767D01*
X142622302Y-67229768D01*
X142622296Y-67229771D01*
X142622296Y-67229772D01*
X142621654Y-67230210D01*
X142405520Y-67377567D01*
X142213198Y-67556014D01*
X142049614Y-67761143D01*
X141918432Y-67988356D01*
X141822582Y-68232578D01*
X141822576Y-68232597D01*
X141764197Y-68488374D01*
X141764196Y-68488379D01*
X141744592Y-68749995D01*
X138257955Y-68749995D01*
X138285635Y-68646692D01*
X138305468Y-68420000D01*
X138285635Y-68193308D01*
X138226739Y-67973504D01*
X138130568Y-67767266D01*
X138000047Y-67580861D01*
X138000045Y-67580858D01*
X137839141Y-67419954D01*
X137652734Y-67289432D01*
X137652732Y-67289431D01*
X137446497Y-67193261D01*
X137446488Y-67193258D01*
X137226697Y-67134366D01*
X137226693Y-67134365D01*
X137226692Y-67134365D01*
X137226691Y-67134364D01*
X137226686Y-67134364D01*
X137000002Y-67114532D01*
X136999998Y-67114532D01*
X136773313Y-67134364D01*
X136773302Y-67134366D01*
X136553511Y-67193258D01*
X136553502Y-67193261D01*
X136347267Y-67289431D01*
X136347265Y-67289432D01*
X136160858Y-67419954D01*
X135999954Y-67580858D01*
X135869432Y-67767265D01*
X135869431Y-67767267D01*
X135773261Y-67973502D01*
X135773258Y-67973511D01*
X135714366Y-68193302D01*
X135714364Y-68193313D01*
X135694532Y-68419998D01*
X120500500Y-68419998D01*
X120500500Y-65624500D01*
X120520185Y-65557461D01*
X120572989Y-65511706D01*
X120624500Y-65500500D01*
X173375500Y-65500500D01*
X173442539Y-65520185D01*
G37*
%TD.AperFunction*%
%TD*%
M02*
