%TF.GenerationSoftware,KiCad,Pcbnew,8.0.6-8.0.6-0~ubuntu20.04.1*%
%TF.CreationDate,2024-11-17T18:25:06+01:00*%
%TF.ProjectId,reaktor51_game,7265616b-746f-4723-9531-5f67616d652e,1*%
%TF.SameCoordinates,Original*%
%TF.FileFunction,Soldermask,Top*%
%TF.FilePolarity,Negative*%
%FSLAX46Y46*%
G04 Gerber Fmt 4.6, Leading zero omitted, Abs format (unit mm)*
G04 Created by KiCad (PCBNEW 8.0.6-8.0.6-0~ubuntu20.04.1) date 2024-11-17 18:25:06*
%MOMM*%
%LPD*%
G01*
G04 APERTURE LIST*
%ADD10C,0.220000*%
%ADD11C,0.000000*%
%ADD12C,1.600000*%
%ADD13O,1.600000X1.600000*%
%ADD14R,1.600000X1.600000*%
%ADD15C,1.400000*%
%ADD16R,3.000000X3.000000*%
%ADD17C,3.000000*%
%ADD18C,1.000000*%
%ADD19C,2.500000*%
%ADD20C,2.100000*%
%ADD21R,2.000000X2.000000*%
%ADD22C,2.000000*%
G04 APERTURE END LIST*
D10*
X168659769Y-100785714D02*
X168088341Y-101185714D01*
X168659769Y-101471428D02*
X167459769Y-101471428D01*
X167459769Y-101471428D02*
X167459769Y-101014285D01*
X167459769Y-101014285D02*
X167516912Y-100900000D01*
X167516912Y-100900000D02*
X167574055Y-100842857D01*
X167574055Y-100842857D02*
X167688341Y-100785714D01*
X167688341Y-100785714D02*
X167859769Y-100785714D01*
X167859769Y-100785714D02*
X167974055Y-100842857D01*
X167974055Y-100842857D02*
X168031198Y-100900000D01*
X168031198Y-100900000D02*
X168088341Y-101014285D01*
X168088341Y-101014285D02*
X168088341Y-101471428D01*
X168031198Y-100271428D02*
X168031198Y-99871428D01*
X168659769Y-99700000D02*
X168659769Y-100271428D01*
X168659769Y-100271428D02*
X167459769Y-100271428D01*
X167459769Y-100271428D02*
X167459769Y-99700000D01*
X168316912Y-99242857D02*
X168316912Y-98671429D01*
X168659769Y-99357143D02*
X167459769Y-98957143D01*
X167459769Y-98957143D02*
X168659769Y-98557143D01*
X168545484Y-97471429D02*
X168602627Y-97528572D01*
X168602627Y-97528572D02*
X168659769Y-97700000D01*
X168659769Y-97700000D02*
X168659769Y-97814286D01*
X168659769Y-97814286D02*
X168602627Y-97985715D01*
X168602627Y-97985715D02*
X168488341Y-98100000D01*
X168488341Y-98100000D02*
X168374055Y-98157143D01*
X168374055Y-98157143D02*
X168145484Y-98214286D01*
X168145484Y-98214286D02*
X167974055Y-98214286D01*
X167974055Y-98214286D02*
X167745484Y-98157143D01*
X167745484Y-98157143D02*
X167631198Y-98100000D01*
X167631198Y-98100000D02*
X167516912Y-97985715D01*
X167516912Y-97985715D02*
X167459769Y-97814286D01*
X167459769Y-97814286D02*
X167459769Y-97700000D01*
X167459769Y-97700000D02*
X167516912Y-97528572D01*
X167516912Y-97528572D02*
X167574055Y-97471429D01*
X167459769Y-97128572D02*
X167459769Y-96442858D01*
X168659769Y-96785715D02*
X167459769Y-96785715D01*
X168659769Y-96042857D02*
X167459769Y-96042857D01*
X167459769Y-95242857D02*
X167459769Y-95014285D01*
X167459769Y-95014285D02*
X167516912Y-94900000D01*
X167516912Y-94900000D02*
X167631198Y-94785714D01*
X167631198Y-94785714D02*
X167859769Y-94728571D01*
X167859769Y-94728571D02*
X168259769Y-94728571D01*
X168259769Y-94728571D02*
X168488341Y-94785714D01*
X168488341Y-94785714D02*
X168602627Y-94900000D01*
X168602627Y-94900000D02*
X168659769Y-95014285D01*
X168659769Y-95014285D02*
X168659769Y-95242857D01*
X168659769Y-95242857D02*
X168602627Y-95357143D01*
X168602627Y-95357143D02*
X168488341Y-95471428D01*
X168488341Y-95471428D02*
X168259769Y-95528571D01*
X168259769Y-95528571D02*
X167859769Y-95528571D01*
X167859769Y-95528571D02*
X167631198Y-95471428D01*
X167631198Y-95471428D02*
X167516912Y-95357143D01*
X167516912Y-95357143D02*
X167459769Y-95242857D01*
X168659769Y-94214285D02*
X167459769Y-94214285D01*
X167459769Y-94214285D02*
X168659769Y-93528571D01*
X168659769Y-93528571D02*
X167459769Y-93528571D01*
X169448845Y-98928571D02*
X169391702Y-99042857D01*
X169391702Y-99042857D02*
X169391702Y-99214285D01*
X169391702Y-99214285D02*
X169448845Y-99385714D01*
X169448845Y-99385714D02*
X169563131Y-99499999D01*
X169563131Y-99499999D02*
X169677417Y-99557142D01*
X169677417Y-99557142D02*
X169905988Y-99614285D01*
X169905988Y-99614285D02*
X170077417Y-99614285D01*
X170077417Y-99614285D02*
X170305988Y-99557142D01*
X170305988Y-99557142D02*
X170420274Y-99499999D01*
X170420274Y-99499999D02*
X170534560Y-99385714D01*
X170534560Y-99385714D02*
X170591702Y-99214285D01*
X170591702Y-99214285D02*
X170591702Y-99099999D01*
X170591702Y-99099999D02*
X170534560Y-98928571D01*
X170534560Y-98928571D02*
X170477417Y-98871428D01*
X170477417Y-98871428D02*
X170077417Y-98871428D01*
X170077417Y-98871428D02*
X170077417Y-99099999D01*
X170248845Y-98414285D02*
X170248845Y-97842857D01*
X170591702Y-98528571D02*
X169391702Y-98128571D01*
X169391702Y-98128571D02*
X170591702Y-97728571D01*
X170591702Y-97328571D02*
X169391702Y-97328571D01*
X169391702Y-97328571D02*
X170248845Y-96928571D01*
X170248845Y-96928571D02*
X169391702Y-96528571D01*
X169391702Y-96528571D02*
X170591702Y-96528571D01*
X169963131Y-95957142D02*
X169963131Y-95557142D01*
X170591702Y-95385714D02*
X170591702Y-95957142D01*
X170591702Y-95957142D02*
X169391702Y-95957142D01*
X169391702Y-95957142D02*
X169391702Y-95385714D01*
D11*
%TO.C,G\u002A\u002A\u002A*%
G36*
X161823540Y-96593737D02*
G01*
X161856649Y-96607357D01*
X161909384Y-96635053D01*
X161973751Y-96672438D01*
X162025260Y-96704458D01*
X162078677Y-96737523D01*
X162141552Y-96774181D01*
X162216225Y-96815638D01*
X162305042Y-96863100D01*
X162410345Y-96917773D01*
X162534476Y-96980860D01*
X162679779Y-97053569D01*
X162848598Y-97137103D01*
X163043274Y-97232669D01*
X163216089Y-97317074D01*
X163330895Y-97373154D01*
X163437630Y-97425491D01*
X163532179Y-97472052D01*
X163610427Y-97510803D01*
X163668258Y-97539711D01*
X163701556Y-97556742D01*
X163706148Y-97559232D01*
X163740374Y-97577407D01*
X163798938Y-97607268D01*
X163876257Y-97646066D01*
X163966745Y-97691051D01*
X164064815Y-97739473D01*
X164164885Y-97788584D01*
X164261367Y-97835632D01*
X164348677Y-97877870D01*
X164421230Y-97912546D01*
X164471607Y-97936075D01*
X164589874Y-97993264D01*
X164691795Y-98048910D01*
X164773567Y-98100617D01*
X164831388Y-98145994D01*
X164860625Y-98180967D01*
X164884650Y-98252890D01*
X164877028Y-98315021D01*
X164837682Y-98367928D01*
X164834500Y-98370662D01*
X164794882Y-98398170D01*
X164754221Y-98410431D01*
X164704452Y-98407531D01*
X164637511Y-98389556D01*
X164590433Y-98373269D01*
X164538130Y-98354400D01*
X164462048Y-98326992D01*
X164369679Y-98293740D01*
X164268510Y-98257340D01*
X164179594Y-98225365D01*
X164073111Y-98186910D01*
X163965425Y-98147717D01*
X163865112Y-98110929D01*
X163780747Y-98079688D01*
X163731066Y-98061015D01*
X163643086Y-98027952D01*
X163545268Y-97991792D01*
X163456104Y-97959359D01*
X163440353Y-97953712D01*
X163368429Y-97927871D01*
X163277057Y-97894839D01*
X163177982Y-97858871D01*
X163083192Y-97824310D01*
X162913233Y-97762562D01*
X162764553Y-97709331D01*
X162638783Y-97665175D01*
X162537558Y-97630652D01*
X162462511Y-97606317D01*
X162415277Y-97592730D01*
X162397557Y-97590365D01*
X162397795Y-97608386D01*
X162403090Y-97653868D01*
X162412696Y-97721559D01*
X162425870Y-97806207D01*
X162441776Y-97902035D01*
X162458360Y-98001537D01*
X162472740Y-98092346D01*
X162484005Y-98168344D01*
X162491246Y-98223411D01*
X162493570Y-98250426D01*
X162481465Y-98296902D01*
X162451289Y-98343814D01*
X162411933Y-98380664D01*
X162372288Y-98396956D01*
X162369373Y-98397057D01*
X162329528Y-98390042D01*
X162260684Y-98369274D01*
X162163895Y-98335164D01*
X162040214Y-98288125D01*
X161890695Y-98228571D01*
X161716392Y-98156913D01*
X161518359Y-98073565D01*
X161297649Y-97978939D01*
X161256906Y-97961309D01*
X161185669Y-97931490D01*
X161112660Y-97902591D01*
X161057560Y-97882253D01*
X160996736Y-97859814D01*
X160920050Y-97829479D01*
X160833538Y-97793867D01*
X160743238Y-97755595D01*
X160655184Y-97717281D01*
X160575413Y-97681541D01*
X160509962Y-97650994D01*
X160464867Y-97628255D01*
X160448184Y-97618023D01*
X160430952Y-97589695D01*
X160412527Y-97536076D01*
X160394379Y-97464989D01*
X160377980Y-97384261D01*
X160364800Y-97301715D01*
X160356310Y-97225178D01*
X160353981Y-97162475D01*
X160356718Y-97131461D01*
X160378995Y-97070950D01*
X160416968Y-97021133D01*
X160462812Y-96990565D01*
X160490661Y-96985023D01*
X160518468Y-96992287D01*
X160570253Y-97012476D01*
X160640515Y-97043192D01*
X160723755Y-97082031D01*
X160811238Y-97124968D01*
X160965014Y-97201744D01*
X161095440Y-97265818D01*
X161201313Y-97316620D01*
X161281426Y-97353583D01*
X161334577Y-97376137D01*
X161359490Y-97383715D01*
X161380445Y-97389650D01*
X161424967Y-97405693D01*
X161485941Y-97429198D01*
X161538260Y-97450164D01*
X161607341Y-97477586D01*
X161665763Y-97499503D01*
X161706237Y-97513256D01*
X161720375Y-97516612D01*
X161729618Y-97505239D01*
X161732187Y-97468817D01*
X161728251Y-97403892D01*
X161726765Y-97387868D01*
X161710589Y-97219569D01*
X161697470Y-97081167D01*
X161687208Y-96969496D01*
X161679601Y-96881390D01*
X161674448Y-96813681D01*
X161671548Y-96763203D01*
X161670700Y-96726789D01*
X161671702Y-96701273D01*
X161674355Y-96683488D01*
X161678456Y-96670267D01*
X161680839Y-96664700D01*
X161719235Y-96615824D01*
X161773772Y-96591788D01*
X161823540Y-96593737D01*
G37*
G36*
X157328804Y-93785776D02*
G01*
X157378750Y-93808056D01*
X157405369Y-93829247D01*
X157450640Y-93868907D01*
X157509384Y-93922354D01*
X157576423Y-93984904D01*
X157618242Y-94024633D01*
X157701078Y-94104613D01*
X157760709Y-94166727D01*
X157797961Y-94216053D01*
X157813662Y-94257668D01*
X157808638Y-94296648D01*
X157783716Y-94338070D01*
X157739721Y-94387012D01*
X157685920Y-94440299D01*
X157557474Y-94565867D01*
X157637721Y-94641665D01*
X157688442Y-94691358D01*
X157749480Y-94753730D01*
X157809024Y-94816677D01*
X157818718Y-94827185D01*
X157919468Y-94936907D01*
X157958603Y-94879794D01*
X158000166Y-94833308D01*
X158067603Y-94775202D01*
X158156805Y-94708169D01*
X158263665Y-94634900D01*
X158384072Y-94558090D01*
X158513920Y-94480431D01*
X158649098Y-94404617D01*
X158785498Y-94333340D01*
X158813865Y-94319224D01*
X159080809Y-94198244D01*
X159338844Y-94104262D01*
X159595643Y-94035487D01*
X159858882Y-93990128D01*
X160136234Y-93966393D01*
X160345683Y-93961686D01*
X160640605Y-93973560D01*
X160922838Y-94009781D01*
X161195635Y-94071526D01*
X161462249Y-94159974D01*
X161725934Y-94276304D01*
X161989943Y-94421693D01*
X162257529Y-94597320D01*
X162410399Y-94709506D01*
X162653682Y-94915279D01*
X162875807Y-95146260D01*
X163076131Y-95401523D01*
X163254011Y-95680142D01*
X163408805Y-95981191D01*
X163539870Y-96303745D01*
X163563051Y-96370373D01*
X163605352Y-96502614D01*
X163644321Y-96638324D01*
X163678500Y-96771250D01*
X163706431Y-96895137D01*
X163726657Y-97003734D01*
X163737721Y-97090785D01*
X163739372Y-97126881D01*
X163739372Y-97197722D01*
X163369751Y-97010538D01*
X163000131Y-96823354D01*
X162941501Y-96650853D01*
X162825552Y-96360996D01*
X162678935Y-96082365D01*
X162502895Y-95816944D01*
X162298678Y-95566714D01*
X162186135Y-95447657D01*
X161965703Y-95248369D01*
X161727106Y-95076733D01*
X161470076Y-94932606D01*
X161194342Y-94815840D01*
X160899636Y-94726291D01*
X160810644Y-94705405D01*
X160744763Y-94691931D01*
X160683003Y-94682098D01*
X160618153Y-94675378D01*
X160543004Y-94671243D01*
X160450344Y-94669163D01*
X160332965Y-94668611D01*
X160308960Y-94668632D01*
X160161172Y-94670093D01*
X160037847Y-94674921D01*
X159930283Y-94684507D01*
X159829777Y-94700244D01*
X159727627Y-94723522D01*
X159615130Y-94755735D01*
X159483584Y-94798275D01*
X159470046Y-94802814D01*
X159214252Y-94899802D01*
X158971526Y-95015575D01*
X158731142Y-95155428D01*
X158653313Y-95205898D01*
X158412826Y-95380203D01*
X158202714Y-95564541D01*
X158020978Y-95761483D01*
X157865617Y-95973603D01*
X157734630Y-96203471D01*
X157626018Y-96453659D01*
X157579751Y-96586331D01*
X157537122Y-96727060D01*
X157535712Y-96732708D01*
X157504606Y-96857308D01*
X157481105Y-96985120D01*
X157465525Y-97118540D01*
X157456768Y-97265612D01*
X157453738Y-97434380D01*
X157453884Y-97509774D01*
X157454953Y-97630360D01*
X157456840Y-97724474D01*
X157460151Y-97798868D01*
X157465490Y-97860292D01*
X157473460Y-97915498D01*
X157484667Y-97971238D01*
X157499714Y-98034263D01*
X157501454Y-98041233D01*
X157554991Y-98235163D01*
X157614855Y-98410170D01*
X157686287Y-98580538D01*
X157741662Y-98696076D01*
X157806118Y-98822777D01*
X157863524Y-98928971D01*
X157918262Y-99020564D01*
X157974712Y-99103457D01*
X158037256Y-99183555D01*
X158110276Y-99266763D01*
X158198154Y-99358983D01*
X158305271Y-99466119D01*
X158334497Y-99494873D01*
X158545723Y-99688336D01*
X158756006Y-99851697D01*
X158970106Y-99987584D01*
X159192786Y-100098625D01*
X159428808Y-100187449D01*
X159682934Y-100256684D01*
X159735840Y-100268303D01*
X159814202Y-100284386D01*
X159880937Y-100296378D01*
X159943317Y-100304873D01*
X160008617Y-100310465D01*
X160084109Y-100313747D01*
X160177065Y-100315312D01*
X160294759Y-100315756D01*
X160317266Y-100315762D01*
X160461653Y-100314939D01*
X160580071Y-100311822D01*
X160679751Y-100305442D01*
X160767922Y-100294830D01*
X160851814Y-100279017D01*
X160938657Y-100257031D01*
X161035680Y-100227904D01*
X161081197Y-100213311D01*
X161282615Y-100137747D01*
X161487160Y-100042190D01*
X161686537Y-99931393D01*
X161872446Y-99810111D01*
X162036592Y-99683101D01*
X162091517Y-99634340D01*
X162159048Y-99566851D01*
X162239539Y-99478607D01*
X162327392Y-99376409D01*
X162417010Y-99267061D01*
X162502794Y-99157365D01*
X162579147Y-99054125D01*
X162631140Y-98978529D01*
X162685509Y-98889323D01*
X162744411Y-98781959D01*
X162803852Y-98664766D01*
X162859837Y-98546075D01*
X162908373Y-98434215D01*
X162945466Y-98337516D01*
X162959712Y-98293231D01*
X162981321Y-98227547D01*
X163001464Y-98182849D01*
X163017611Y-98164639D01*
X163018871Y-98164487D01*
X163044032Y-98170288D01*
X163090708Y-98185641D01*
X163149681Y-98207470D01*
X163161667Y-98212155D01*
X163232266Y-98238647D01*
X163320307Y-98269750D01*
X163411431Y-98300450D01*
X163453119Y-98313911D01*
X163523507Y-98337157D01*
X163581369Y-98358013D01*
X163619786Y-98373877D01*
X163631826Y-98381145D01*
X163631999Y-98405648D01*
X163621291Y-98454912D01*
X163601721Y-98523080D01*
X163575305Y-98604295D01*
X163544060Y-98692700D01*
X163510003Y-98782437D01*
X163475150Y-98867648D01*
X163441519Y-98942476D01*
X163431466Y-98963029D01*
X163296060Y-99218076D01*
X163159353Y-99444580D01*
X163018092Y-99647165D01*
X162869023Y-99830457D01*
X162708891Y-99999077D01*
X162688325Y-100018979D01*
X162482112Y-100205377D01*
X162275289Y-100368094D01*
X162060864Y-100511557D01*
X161831845Y-100640191D01*
X161581239Y-100758421D01*
X161405363Y-100831040D01*
X161249320Y-100888219D01*
X161103587Y-100931624D01*
X160954751Y-100964611D01*
X160789399Y-100990539D01*
X160746472Y-100995998D01*
X160450229Y-101018454D01*
X160149265Y-101014822D01*
X159989971Y-100999443D01*
X159849706Y-100985901D01*
X159557680Y-100932491D01*
X159345824Y-100873811D01*
X159279314Y-100855389D01*
X159071354Y-100777519D01*
X158912432Y-100706193D01*
X158762804Y-100632321D01*
X159696371Y-100632321D01*
X159699176Y-100676918D01*
X159717109Y-100705439D01*
X159750157Y-100728182D01*
X159816684Y-100753421D01*
X159910599Y-100767672D01*
X159924585Y-100768664D01*
X159989971Y-100771357D01*
X160032845Y-100768142D01*
X160063670Y-100757190D01*
X160088849Y-100739926D01*
X160123552Y-100707509D01*
X160132685Y-100679237D01*
X160119665Y-100643020D01*
X160117428Y-100638779D01*
X160091109Y-100609186D01*
X160050740Y-100581201D01*
X160048428Y-100579983D01*
X160006425Y-100565850D01*
X159946122Y-100554504D01*
X159877546Y-100546749D01*
X159810728Y-100543387D01*
X159755695Y-100545220D01*
X159722478Y-100553052D01*
X159721290Y-100553804D01*
X159705793Y-100579583D01*
X159696915Y-100623006D01*
X159696371Y-100632321D01*
X158762804Y-100632321D01*
X158749503Y-100625754D01*
X158634751Y-100564407D01*
X158587643Y-100539223D01*
X158446777Y-100458164D01*
X159073922Y-100458164D01*
X159084330Y-100497150D01*
X159116953Y-100536461D01*
X159173079Y-100573302D01*
X159243108Y-100602381D01*
X159300215Y-100616115D01*
X159345824Y-100620140D01*
X159373440Y-100610445D01*
X159393655Y-100587484D01*
X159416152Y-100535578D01*
X159407497Y-100485352D01*
X159366946Y-100434373D01*
X159339995Y-100411977D01*
X159290819Y-100378542D01*
X159244913Y-100353768D01*
X159225530Y-100346589D01*
X159164696Y-100344576D01*
X159115198Y-100366714D01*
X159082965Y-100406683D01*
X159073922Y-100458164D01*
X158446777Y-100458164D01*
X158431929Y-100449620D01*
X158287436Y-100359967D01*
X158159241Y-100273285D01*
X158138110Y-100257323D01*
X158052422Y-100192595D01*
X157978058Y-100126907D01*
X157946164Y-100095494D01*
X158413285Y-100095494D01*
X158418270Y-100142332D01*
X158455504Y-100191742D01*
X158493146Y-100222918D01*
X158565718Y-100263066D01*
X158634751Y-100276783D01*
X158694732Y-100263944D01*
X158737199Y-100228548D01*
X158767054Y-100171345D01*
X158764953Y-100120972D01*
X158734731Y-100078574D01*
X158678798Y-100038634D01*
X158613448Y-100010206D01*
X158551511Y-99998058D01*
X158523518Y-100000051D01*
X158478622Y-100019722D01*
X158440146Y-100049909D01*
X158413285Y-100095494D01*
X157946164Y-100095494D01*
X157916808Y-100066580D01*
X157735910Y-100246126D01*
X157555011Y-100425672D01*
X157594706Y-100452582D01*
X157644309Y-100493137D01*
X157697322Y-100547219D01*
X157745628Y-100605365D01*
X157781113Y-100658111D01*
X157793112Y-100683940D01*
X157802048Y-100733785D01*
X157788731Y-100779718D01*
X157785743Y-100785665D01*
X157761271Y-100819724D01*
X157717099Y-100869271D01*
X157659183Y-100928686D01*
X157593476Y-100992343D01*
X157525933Y-101054620D01*
X157462509Y-101109895D01*
X157409158Y-101152544D01*
X157371834Y-101176943D01*
X157370967Y-101177361D01*
X157339248Y-101192075D01*
X157311542Y-101202021D01*
X157306013Y-101202696D01*
X157285029Y-101205259D01*
X157256888Y-101199845D01*
X157224298Y-101183838D01*
X157184438Y-101155297D01*
X157136034Y-101113610D01*
X157134488Y-101112279D01*
X157071626Y-101052843D01*
X156999697Y-100981645D01*
X157280101Y-100981645D01*
X157287994Y-101005663D01*
X157291364Y-101009323D01*
X157306013Y-101013335D01*
X157329948Y-101000828D01*
X157367070Y-100968907D01*
X157421281Y-100914677D01*
X157427133Y-100908601D01*
X157487696Y-100842462D01*
X157524717Y-100793119D01*
X157540289Y-100756233D01*
X157536503Y-100727462D01*
X157523100Y-100709470D01*
X157500350Y-100692062D01*
X157492776Y-100689536D01*
X157485111Y-100695435D01*
X157476685Y-100701920D01*
X157447002Y-100734351D01*
X157409311Y-100779744D01*
X157369197Y-100831014D01*
X157332246Y-100881079D01*
X157304044Y-100922852D01*
X157292277Y-100943846D01*
X157280101Y-100981645D01*
X156999697Y-100981645D01*
X156993031Y-100975047D01*
X156971790Y-100953598D01*
X156895883Y-100876949D01*
X156838807Y-100818998D01*
X157113378Y-100818998D01*
X157120744Y-100836961D01*
X157136034Y-100845052D01*
X157161170Y-100837587D01*
X157200970Y-100801220D01*
X157243451Y-100751309D01*
X157293810Y-100684476D01*
X157320718Y-100639043D01*
X157324839Y-100613558D01*
X157309709Y-100606475D01*
X157293720Y-100612412D01*
X157268826Y-100632626D01*
X157231232Y-100670723D01*
X157177145Y-100730309D01*
X157165108Y-100743885D01*
X157127644Y-100789790D01*
X157113378Y-100818998D01*
X156838807Y-100818998D01*
X156814452Y-100794269D01*
X156768450Y-100747497D01*
X156686356Y-100664029D01*
X156646152Y-100622948D01*
X156906898Y-100622948D01*
X156920552Y-100640840D01*
X156926047Y-100645890D01*
X156955272Y-100666953D01*
X156971790Y-100672924D01*
X156990758Y-100661455D01*
X157024860Y-100631502D01*
X157067535Y-100589744D01*
X157112224Y-100542863D01*
X157152366Y-100497538D01*
X157181402Y-100460449D01*
X157183560Y-100457275D01*
X157203923Y-100416607D01*
X157197779Y-100388061D01*
X157171638Y-100366785D01*
X157153008Y-100361292D01*
X157131239Y-100371010D01*
X157100398Y-100400023D01*
X157064795Y-100440353D01*
X157018329Y-100493441D01*
X156973316Y-100542632D01*
X156941499Y-100575288D01*
X156913078Y-100604761D01*
X156906898Y-100622948D01*
X156646152Y-100622948D01*
X156579654Y-100555000D01*
X156543131Y-100517268D01*
X156492346Y-100464803D01*
X156422433Y-100391055D01*
X156420579Y-100389025D01*
X156722797Y-100389025D01*
X156722986Y-100406133D01*
X156728276Y-100414517D01*
X156754491Y-100435971D01*
X156768450Y-100440256D01*
X156788120Y-100429522D01*
X156825303Y-100400817D01*
X156873612Y-100359248D01*
X156900925Y-100334323D01*
X156965283Y-100269155D01*
X157001022Y-100219776D01*
X157008400Y-100185539D01*
X156987676Y-100165799D01*
X156969745Y-100161543D01*
X156939574Y-100171027D01*
X156892220Y-100206195D01*
X156826733Y-100267760D01*
X156821762Y-100272757D01*
X156768858Y-100327383D01*
X156736979Y-100364457D01*
X156722797Y-100389025D01*
X156420579Y-100389025D01*
X156367917Y-100331376D01*
X156326797Y-100283384D01*
X156297076Y-100244700D01*
X156276753Y-100212941D01*
X156263829Y-100185726D01*
X156261685Y-100178588D01*
X156479856Y-100178588D01*
X156493261Y-100194388D01*
X156522105Y-100211133D01*
X156543131Y-100218412D01*
X156563155Y-100216422D01*
X156588136Y-100201558D01*
X156624030Y-100170219D01*
X156676798Y-100118801D01*
X156679921Y-100115703D01*
X156729296Y-100064856D01*
X156768149Y-100021326D01*
X156791295Y-99991116D01*
X156795487Y-99981845D01*
X156783925Y-99956080D01*
X156770569Y-99941988D01*
X156744316Y-99929821D01*
X156716579Y-99943118D01*
X156684595Y-99969846D01*
X156641705Y-100009211D01*
X156594119Y-100055035D01*
X156548051Y-100101137D01*
X156509712Y-100141340D01*
X156485314Y-100169463D01*
X156479856Y-100178588D01*
X156261685Y-100178588D01*
X156256306Y-100160675D01*
X156252184Y-100135406D01*
X156250877Y-100123032D01*
X156242840Y-100039391D01*
X156431950Y-99850650D01*
X156507825Y-99777140D01*
X156573949Y-99717420D01*
X156626439Y-99674794D01*
X156661411Y-99652565D01*
X156667065Y-99650557D01*
X156713799Y-99647333D01*
X156763595Y-99662499D01*
X156821348Y-99698639D01*
X156891953Y-99758341D01*
X156918876Y-99783624D01*
X157027956Y-99887978D01*
X157140448Y-99777933D01*
X157202275Y-99716659D01*
X157266440Y-99651789D01*
X157321357Y-99595066D01*
X157333017Y-99582755D01*
X157413095Y-99497622D01*
X157354781Y-99421226D01*
X157354741Y-99421166D01*
X157650593Y-99421166D01*
X157659089Y-99463500D01*
X157660440Y-99468542D01*
X157674425Y-99503727D01*
X157700262Y-99543088D01*
X157741938Y-99591532D01*
X157803442Y-99653966D01*
X157839136Y-99688396D01*
X157936911Y-99777387D01*
X158017664Y-99840664D01*
X158083896Y-99879397D01*
X158138110Y-99894753D01*
X158182807Y-99887903D01*
X158216173Y-99864514D01*
X158238070Y-99821839D01*
X158229034Y-99769776D01*
X158189577Y-99709666D01*
X158137229Y-99657368D01*
X158088516Y-99613671D01*
X158046501Y-99574476D01*
X158021359Y-99549389D01*
X157951873Y-99473778D01*
X157900345Y-99419401D01*
X157862537Y-99382770D01*
X157834207Y-99360400D01*
X157811117Y-99348804D01*
X157789026Y-99344497D01*
X157771512Y-99343950D01*
X157720769Y-99352174D01*
X157678854Y-99372059D01*
X157677657Y-99373022D01*
X157655976Y-99395480D01*
X157650593Y-99421166D01*
X157354741Y-99421166D01*
X157319710Y-99368813D01*
X157299401Y-99334068D01*
X157275140Y-99292561D01*
X157224479Y-99199250D01*
X157171134Y-99095657D01*
X157118512Y-98988560D01*
X157090845Y-98929323D01*
X157310464Y-98929323D01*
X157321442Y-98951341D01*
X157349664Y-98986768D01*
X157374959Y-99013661D01*
X157432907Y-99060556D01*
X157485111Y-99076795D01*
X157536562Y-99063166D01*
X157565713Y-99043726D01*
X157601875Y-99000056D01*
X157606408Y-98948978D01*
X157590927Y-98906789D01*
X157546747Y-98848541D01*
X157491794Y-98818526D01*
X157432026Y-98817922D01*
X157373401Y-98847908D01*
X157359023Y-98860920D01*
X157328440Y-98895961D01*
X157311600Y-98923924D01*
X157310464Y-98929323D01*
X157090845Y-98929323D01*
X157070021Y-98884736D01*
X157029068Y-98790964D01*
X156999059Y-98714021D01*
X156998590Y-98712688D01*
X156970923Y-98627939D01*
X156943769Y-98534842D01*
X156923307Y-98455103D01*
X157161699Y-98455103D01*
X157176142Y-98509871D01*
X157197075Y-98541343D01*
X157246621Y-98574689D01*
X157299401Y-98576024D01*
X157351026Y-98545675D01*
X157367130Y-98528680D01*
X157397950Y-98488546D01*
X157407806Y-98458456D01*
X157398606Y-98424354D01*
X157385047Y-98396725D01*
X157343371Y-98343397D01*
X157292021Y-98321060D01*
X157235150Y-98330496D01*
X157190026Y-98360066D01*
X157166158Y-98400816D01*
X157161699Y-98455103D01*
X156923307Y-98455103D01*
X156922478Y-98451872D01*
X156920408Y-98442740D01*
X156906241Y-98382671D01*
X156894020Y-98337563D01*
X156885892Y-98315152D01*
X156884679Y-98313996D01*
X156870504Y-98325334D01*
X156842691Y-98354090D01*
X156826292Y-98372356D01*
X156751892Y-98442129D01*
X156652972Y-98513231D01*
X156537749Y-98581304D01*
X156414437Y-98641992D01*
X156291251Y-98690937D01*
X156176406Y-98723781D01*
X156156023Y-98727875D01*
X155971301Y-98746000D01*
X155903920Y-98742110D01*
X155780418Y-98734981D01*
X155590432Y-98696152D01*
X155408399Y-98630852D01*
X155273759Y-98560763D01*
X155125606Y-98453266D01*
X154990691Y-98320336D01*
X154873880Y-98168398D01*
X154780040Y-98003875D01*
X154714039Y-97833191D01*
X154708969Y-97815347D01*
X154693590Y-97735642D01*
X154683353Y-97634065D01*
X154678402Y-97521029D01*
X154678531Y-97490488D01*
X155067041Y-97490488D01*
X155080589Y-97657534D01*
X155124240Y-97814033D01*
X155196903Y-97957502D01*
X155297490Y-98085455D01*
X155424912Y-98195407D01*
X155488829Y-98237222D01*
X155616102Y-98296532D01*
X155756554Y-98332602D01*
X155903920Y-98345973D01*
X156051934Y-98337187D01*
X156194331Y-98306785D01*
X156324846Y-98255309D01*
X156437213Y-98183300D01*
X156472218Y-98152257D01*
X156515039Y-98106004D01*
X156557514Y-98052423D01*
X156594868Y-97998649D01*
X156622325Y-97951819D01*
X156635111Y-97919070D01*
X156634357Y-97909941D01*
X156614364Y-97904912D01*
X156562606Y-97901616D01*
X156480502Y-97900073D01*
X156369466Y-97900303D01*
X156230915Y-97902327D01*
X156178330Y-97903415D01*
X155948942Y-97908472D01*
X155732411Y-97913246D01*
X155683717Y-97872272D01*
X155636240Y-97818731D01*
X155603130Y-97747894D01*
X155583100Y-97655374D01*
X155577672Y-97577232D01*
X155820360Y-97577232D01*
X155822307Y-97594459D01*
X155831648Y-97607578D01*
X155863065Y-97624825D01*
X155922367Y-97632404D01*
X155948942Y-97632897D01*
X156024347Y-97630226D01*
X156070821Y-97621351D01*
X156092293Y-97604977D01*
X156094013Y-97585124D01*
X156085521Y-97571134D01*
X156062581Y-97562991D01*
X156018600Y-97559398D01*
X155960883Y-97558944D01*
X155885897Y-97560886D01*
X155840306Y-97566512D01*
X155820360Y-97577232D01*
X155577672Y-97577232D01*
X155574862Y-97536783D01*
X155574493Y-97500000D01*
X155579719Y-97374204D01*
X155596293Y-97275539D01*
X155625563Y-97199453D01*
X155668876Y-97141393D01*
X155684940Y-97126699D01*
X155734858Y-97084696D01*
X156190418Y-97084696D01*
X156309556Y-97084339D01*
X156417065Y-97083331D01*
X156508696Y-97081767D01*
X156580204Y-97079743D01*
X156627340Y-97077354D01*
X156645859Y-97074697D01*
X156645978Y-97074463D01*
X156635287Y-97050688D01*
X156606916Y-97009938D01*
X156566419Y-96958985D01*
X156519351Y-96904603D01*
X156471264Y-96853567D01*
X156440775Y-96824190D01*
X156347319Y-96753573D01*
X156241948Y-96703599D01*
X156118510Y-96672048D01*
X155978069Y-96657069D01*
X155895212Y-96653955D01*
X155831754Y-96656089D01*
X155774075Y-96665033D01*
X155708555Y-96682352D01*
X155678849Y-96691429D01*
X155532217Y-96752162D01*
X155399151Y-96836739D01*
X155283629Y-96940979D01*
X155189632Y-97060704D01*
X155121140Y-97191735D01*
X155084685Y-97315381D01*
X155067041Y-97490488D01*
X154678531Y-97490488D01*
X154678882Y-97406947D01*
X154684938Y-97302232D01*
X154696716Y-97217296D01*
X154700417Y-97200981D01*
X154762085Y-97022202D01*
X154853016Y-96853387D01*
X154969880Y-96698070D01*
X155109345Y-96559781D01*
X155268080Y-96442053D01*
X155442752Y-96348417D01*
X155541269Y-96309552D01*
X155597093Y-96291091D01*
X155645363Y-96278340D01*
X155694456Y-96270279D01*
X155752750Y-96265885D01*
X155828625Y-96264136D01*
X155915042Y-96263970D01*
X156013581Y-96264743D01*
X156087355Y-96267241D01*
X156144821Y-96272511D01*
X156194432Y-96281596D01*
X156244643Y-96295542D01*
X156288816Y-96310177D01*
X156420415Y-96362170D01*
X156538129Y-96424718D01*
X156651116Y-96503613D01*
X156768533Y-96604645D01*
X156797377Y-96631861D01*
X156874021Y-96705214D01*
X156911121Y-96550253D01*
X156949631Y-96412683D01*
X157001153Y-96263129D01*
X157062482Y-96108660D01*
X157130414Y-95956347D01*
X157201746Y-95813261D01*
X157273275Y-95686473D01*
X157341796Y-95583054D01*
X157360301Y-95558878D01*
X157435055Y-95465010D01*
X157331684Y-95360937D01*
X157241587Y-95270228D01*
X157178633Y-95206846D01*
X157048119Y-95075446D01*
X156981126Y-95138410D01*
X156911574Y-95203780D01*
X156844090Y-95266814D01*
X156795505Y-95310034D01*
X156760580Y-95336458D01*
X156754088Y-95339554D01*
X156734075Y-95349100D01*
X156710753Y-95350979D01*
X156685373Y-95345110D01*
X156673043Y-95341127D01*
X156642665Y-95322582D01*
X156595983Y-95284027D01*
X156538184Y-95230795D01*
X156474453Y-95168216D01*
X156409976Y-95101620D01*
X156349939Y-95036337D01*
X156299529Y-94977698D01*
X156263931Y-94931033D01*
X156249594Y-94905883D01*
X156237554Y-94849378D01*
X156246002Y-94800539D01*
X156479856Y-94800539D01*
X156490322Y-94822161D01*
X156518620Y-94862042D01*
X156560103Y-94913977D01*
X156597657Y-94957770D01*
X156660365Y-95025594D01*
X156707188Y-95068441D01*
X156740997Y-95088760D01*
X156754088Y-95091236D01*
X156791104Y-95080642D01*
X156808545Y-95046005D01*
X156810788Y-95026198D01*
X156800536Y-95004361D01*
X156771996Y-94965765D01*
X156730366Y-94917150D01*
X156708273Y-94893301D01*
X156646471Y-94828940D01*
X156602361Y-94785866D01*
X156571231Y-94760828D01*
X156548372Y-94750578D01*
X156529073Y-94751866D01*
X156513370Y-94758838D01*
X156486775Y-94782417D01*
X156479856Y-94800539D01*
X156246002Y-94800539D01*
X156247151Y-94793895D01*
X156280630Y-94734265D01*
X156340232Y-94665317D01*
X156364450Y-94641160D01*
X156406085Y-94599900D01*
X156411362Y-94594579D01*
X156712426Y-94594579D01*
X156723602Y-94616535D01*
X156753165Y-94654625D01*
X156795167Y-94702635D01*
X156843660Y-94754351D01*
X156892696Y-94803560D01*
X156936328Y-94844048D01*
X156968607Y-94869602D01*
X156981126Y-94875278D01*
X156997631Y-94861639D01*
X157009913Y-94837901D01*
X157014665Y-94811736D01*
X157007130Y-94782948D01*
X156984274Y-94746985D01*
X156943061Y-94699295D01*
X156880457Y-94635326D01*
X156864085Y-94619179D01*
X156813746Y-94571237D01*
X156780311Y-94544291D01*
X156758164Y-94534911D01*
X156741689Y-94539667D01*
X156738223Y-94542305D01*
X156716421Y-94574818D01*
X156712426Y-94594579D01*
X156411362Y-94594579D01*
X156466431Y-94539049D01*
X156541194Y-94462990D01*
X156620236Y-94382087D01*
X156914114Y-94382087D01*
X156927640Y-94403632D01*
X156958841Y-94436923D01*
X157011047Y-94487157D01*
X157014582Y-94490503D01*
X157078804Y-94550467D01*
X157124332Y-94590276D01*
X157155997Y-94613235D01*
X157178633Y-94622649D01*
X157197071Y-94621823D01*
X157203494Y-94619701D01*
X157222000Y-94606711D01*
X157223404Y-94585522D01*
X157205827Y-94552379D01*
X157167394Y-94503524D01*
X157117334Y-94447285D01*
X157058862Y-94385856D01*
X157015782Y-94348117D01*
X156983030Y-94331575D01*
X156955546Y-94333738D01*
X156928267Y-94352113D01*
X156926774Y-94353453D01*
X156914935Y-94367093D01*
X156914114Y-94382087D01*
X156620236Y-94382087D01*
X156626081Y-94376104D01*
X156716799Y-94282773D01*
X156809054Y-94187380D01*
X156811182Y-94185174D01*
X156815878Y-94180335D01*
X157107050Y-94180335D01*
X157133504Y-94223161D01*
X157155515Y-94248906D01*
X157201053Y-94300340D01*
X157245104Y-94352667D01*
X157263131Y-94375228D01*
X157301425Y-94414348D01*
X157331684Y-94422074D01*
X157333583Y-94421433D01*
X157357297Y-94400318D01*
X157353432Y-94365090D01*
X157321619Y-94314887D01*
X157261489Y-94248849D01*
X157258159Y-94245538D01*
X157209538Y-94199691D01*
X157167941Y-94164676D01*
X157140101Y-94146006D01*
X157134548Y-94144343D01*
X157107302Y-94153582D01*
X157107050Y-94180335D01*
X156815878Y-94180335D01*
X156898834Y-94094862D01*
X156978496Y-94013841D01*
X157264048Y-94013841D01*
X157278891Y-94042255D01*
X157316331Y-94087412D01*
X157356148Y-94130053D01*
X157416166Y-94188727D01*
X157468040Y-94232115D01*
X157508859Y-94259044D01*
X157535712Y-94268344D01*
X157545688Y-94258842D01*
X157535877Y-94229366D01*
X157513854Y-94193551D01*
X157472101Y-94139904D01*
X157422689Y-94086877D01*
X157372540Y-94040806D01*
X157328576Y-94008023D01*
X157297719Y-93994863D01*
X157296700Y-93994833D01*
X157270439Y-93999068D01*
X157264048Y-94013841D01*
X156978496Y-94013841D01*
X156981052Y-94011241D01*
X157054458Y-93937662D01*
X157115671Y-93877476D01*
X157161312Y-93834036D01*
X157188004Y-93810693D01*
X157190505Y-93808904D01*
X157257912Y-93782632D01*
X157328804Y-93785776D01*
G37*
G36*
X161891835Y-98692990D02*
G01*
X161933228Y-98712787D01*
X161984845Y-98747929D01*
X162050611Y-98800541D01*
X162134450Y-98872750D01*
X162188281Y-98920340D01*
X162237870Y-98980380D01*
X162254430Y-99042835D01*
X162237892Y-99107363D01*
X162229044Y-99123033D01*
X162179459Y-99178105D01*
X162115525Y-99215412D01*
X162055354Y-99227665D01*
X162026943Y-99216974D01*
X161981060Y-99188361D01*
X161924103Y-99147014D01*
X161862469Y-99098123D01*
X161802555Y-99046879D01*
X161750758Y-98998469D01*
X161713475Y-98958084D01*
X161700860Y-98940093D01*
X161683416Y-98877389D01*
X161693575Y-98811750D01*
X161727935Y-98752192D01*
X161783096Y-98707729D01*
X161789754Y-98704399D01*
X161824022Y-98690922D01*
X161856741Y-98686411D01*
X161891835Y-98692990D01*
G37*
G36*
X162092160Y-95754680D02*
G01*
X162149884Y-95785612D01*
X162194456Y-95824743D01*
X162234688Y-95881989D01*
X162241779Y-95940589D01*
X162215753Y-96001264D01*
X162200870Y-96020718D01*
X162164345Y-96056911D01*
X162111107Y-96100868D01*
X162048106Y-96147833D01*
X161982292Y-96193047D01*
X161920613Y-96231755D01*
X161870018Y-96259199D01*
X161837458Y-96270620D01*
X161835707Y-96270700D01*
X161793847Y-96257943D01*
X161746039Y-96225720D01*
X161703350Y-96183101D01*
X161677535Y-96141036D01*
X161670211Y-96086517D01*
X161689515Y-96027257D01*
X161736846Y-95960527D01*
X161805904Y-95890599D01*
X161893957Y-95816285D01*
X161968289Y-95769323D01*
X162032992Y-95749020D01*
X162092160Y-95754680D01*
G37*
G36*
X160063899Y-94981741D02*
G01*
X160112610Y-94998479D01*
X160163664Y-95028755D01*
X160220368Y-95075029D01*
X160286025Y-95139760D01*
X160363939Y-95225410D01*
X160457416Y-95334438D01*
X160490300Y-95373643D01*
X160644545Y-95563395D01*
X160777962Y-95739628D01*
X160895485Y-95909802D01*
X161002048Y-96081378D01*
X161102585Y-96261816D01*
X161185739Y-96425181D01*
X161226089Y-96520707D01*
X161262017Y-96630352D01*
X161290533Y-96742677D01*
X161308647Y-96846242D01*
X161313636Y-96914421D01*
X161312101Y-96958744D01*
X161302950Y-96979015D01*
X161280270Y-96984360D01*
X161268313Y-96984398D01*
X161233389Y-96978011D01*
X161177258Y-96961376D01*
X161109213Y-96937411D01*
X161069925Y-96922103D01*
X160917222Y-96860432D01*
X160792516Y-96617154D01*
X160668061Y-96388003D01*
X160537905Y-96177041D01*
X160392865Y-95969412D01*
X160388406Y-95963375D01*
X160281569Y-95820516D01*
X160192700Y-95705166D01*
X160121568Y-95617037D01*
X160067939Y-95555844D01*
X160031581Y-95521298D01*
X160029111Y-95519460D01*
X159981833Y-95485395D01*
X159807681Y-95657936D01*
X159565866Y-95919007D01*
X159354739Y-96192695D01*
X159174182Y-96479171D01*
X159024077Y-96778608D01*
X158993732Y-96849611D01*
X158951593Y-96970347D01*
X158914336Y-97114133D01*
X158884248Y-97270895D01*
X158864963Y-97416939D01*
X158863664Y-97498861D01*
X158872541Y-97603360D01*
X158890016Y-97721939D01*
X158914511Y-97846102D01*
X158944446Y-97967350D01*
X158978242Y-98077186D01*
X158996926Y-98127236D01*
X159070869Y-98291149D01*
X159163963Y-98466563D01*
X159271908Y-98647223D01*
X159390405Y-98826873D01*
X159515154Y-98999255D01*
X159641857Y-99158112D01*
X159766214Y-99297188D01*
X159870314Y-99398262D01*
X159974508Y-99491075D01*
X160014390Y-99459704D01*
X160058159Y-99419830D01*
X160116222Y-99359132D01*
X160183361Y-99283672D01*
X160254358Y-99199518D01*
X160323994Y-99112735D01*
X160387051Y-99029387D01*
X160399813Y-99011707D01*
X160463297Y-98918691D01*
X160532410Y-98810390D01*
X160602854Y-98694188D01*
X160670336Y-98577472D01*
X160730558Y-98467627D01*
X160779226Y-98372040D01*
X160805624Y-98313996D01*
X160837543Y-98239504D01*
X160861868Y-98191668D01*
X160883507Y-98166362D01*
X160907370Y-98159459D01*
X160938364Y-98166833D01*
X160967023Y-98178319D01*
X161019850Y-98199994D01*
X161088933Y-98227684D01*
X161159519Y-98255477D01*
X161161013Y-98256059D01*
X161221506Y-98280178D01*
X161256803Y-98297569D01*
X161272723Y-98313422D01*
X161275085Y-98332921D01*
X161271197Y-98354288D01*
X161258061Y-98392848D01*
X161231246Y-98454818D01*
X161193554Y-98534763D01*
X161147789Y-98627245D01*
X161096752Y-98726829D01*
X161043248Y-98828078D01*
X160990079Y-98925556D01*
X160940049Y-99013825D01*
X160895960Y-99087450D01*
X160881235Y-99110628D01*
X160787931Y-99248849D01*
X160689318Y-99385133D01*
X160588479Y-99515899D01*
X160488498Y-99637563D01*
X160392460Y-99746544D01*
X160303448Y-99839259D01*
X160224545Y-99912125D01*
X160158836Y-99961560D01*
X160138932Y-99972968D01*
X160085461Y-99994902D01*
X160034780Y-100007361D01*
X160020806Y-100008437D01*
X159956400Y-99994756D01*
X159876951Y-99955473D01*
X159784916Y-99893228D01*
X159682751Y-99810661D01*
X159572913Y-99710412D01*
X159457860Y-99595121D01*
X159340048Y-99467427D01*
X159221934Y-99329971D01*
X159105974Y-99185393D01*
X158994627Y-99036332D01*
X158890347Y-98885429D01*
X158795593Y-98735323D01*
X158730951Y-98622462D01*
X158669942Y-98498801D01*
X158608251Y-98352464D01*
X158549778Y-98193683D01*
X158498424Y-98032688D01*
X158477237Y-97956835D01*
X158461243Y-97893614D01*
X158449617Y-97837984D01*
X158441654Y-97782515D01*
X158436653Y-97719774D01*
X158433913Y-97642330D01*
X158432730Y-97542752D01*
X158432506Y-97483388D01*
X158433021Y-97359059D01*
X158435537Y-97261024D01*
X158440525Y-97182386D01*
X158448458Y-97116251D01*
X158459808Y-97055722D01*
X158462649Y-97043166D01*
X158544369Y-96758080D01*
X158655735Y-96480135D01*
X158797430Y-96208185D01*
X158970137Y-95941084D01*
X159174539Y-95677687D01*
X159411319Y-95416848D01*
X159464723Y-95362787D01*
X159574348Y-95254505D01*
X159664683Y-95168284D01*
X159738882Y-95101684D01*
X159800094Y-95052264D01*
X159851472Y-95017584D01*
X159896167Y-94995203D01*
X159937331Y-94982682D01*
X159960294Y-94979035D01*
X160014229Y-94976079D01*
X160063899Y-94981741D01*
G37*
G36*
X160125325Y-96477101D02*
G01*
X160186001Y-96482919D01*
X160236293Y-96493492D01*
X160287618Y-96511597D01*
X160351390Y-96540007D01*
X160387541Y-96557060D01*
X160474091Y-96601753D01*
X160546218Y-96646093D01*
X160599265Y-96686719D01*
X160628577Y-96720271D01*
X160632897Y-96734176D01*
X160617462Y-96738420D01*
X160575860Y-96741772D01*
X160515143Y-96743802D01*
X160467782Y-96744209D01*
X160302666Y-96744147D01*
X160243517Y-96801395D01*
X160204030Y-96848473D01*
X160185150Y-96890549D01*
X160184369Y-96898692D01*
X160179257Y-96927114D01*
X160160003Y-96929256D01*
X160155502Y-96927664D01*
X160088801Y-96912044D01*
X160004232Y-96906025D01*
X159915771Y-96909727D01*
X159837392Y-96923268D01*
X159831611Y-96924885D01*
X159740085Y-96965833D01*
X159650529Y-97031278D01*
X159571835Y-97113224D01*
X159512892Y-97203671D01*
X159506251Y-97217593D01*
X159475495Y-97311824D01*
X159458055Y-97421869D01*
X159454732Y-97534839D01*
X159466329Y-97637844D01*
X159477461Y-97680053D01*
X159528475Y-97786900D01*
X159603504Y-97881744D01*
X159695093Y-97955911D01*
X159732409Y-97976731D01*
X159786686Y-98000906D01*
X159835687Y-98015011D01*
X159892249Y-98021568D01*
X159968411Y-98023102D01*
X160044641Y-98021388D01*
X160101716Y-98014511D01*
X160153630Y-97999515D01*
X160214377Y-97973447D01*
X160223149Y-97969329D01*
X160281652Y-97942532D01*
X160318316Y-97929181D01*
X160340996Y-97927816D01*
X160357545Y-97936976D01*
X160364083Y-97943136D01*
X160405148Y-97972529D01*
X160467002Y-98003828D01*
X160537935Y-98032018D01*
X160606239Y-98052085D01*
X160628744Y-98056485D01*
X160671761Y-98065978D01*
X160696773Y-98076603D01*
X160699346Y-98080394D01*
X160690349Y-98100238D01*
X160667499Y-98136326D01*
X160652398Y-98157841D01*
X160575367Y-98240047D01*
X160472287Y-98314048D01*
X160349974Y-98376488D01*
X160215246Y-98424009D01*
X160074923Y-98453256D01*
X160045101Y-98456791D01*
X159934976Y-98457707D01*
X159810555Y-98442018D01*
X159684683Y-98412280D01*
X159570207Y-98371048D01*
X159538293Y-98355953D01*
X159432146Y-98292975D01*
X159327485Y-98214711D01*
X159233320Y-98128851D01*
X159158662Y-98043087D01*
X159139452Y-98015515D01*
X159072672Y-97894427D01*
X159028135Y-97768900D01*
X159003554Y-97630415D01*
X158996599Y-97483388D01*
X158997679Y-97392733D01*
X159002006Y-97323899D01*
X159011212Y-97265522D01*
X159026929Y-97206238D01*
X159043746Y-97154999D01*
X159112096Y-96997041D01*
X159204126Y-96856677D01*
X159324380Y-96727051D01*
X159332589Y-96719469D01*
X159463309Y-96616351D01*
X159600819Y-96542114D01*
X159749792Y-96495137D01*
X159914902Y-96473800D01*
X160042849Y-96473264D01*
X160125325Y-96477101D01*
G37*
G36*
X158502342Y-98728220D02*
G01*
X158565747Y-98769607D01*
X158613221Y-98829648D01*
X158637647Y-98901080D01*
X158639437Y-98926350D01*
X158634368Y-98955786D01*
X158616140Y-98987608D01*
X158580226Y-99027974D01*
X158528625Y-99077079D01*
X158460468Y-99136223D01*
X158407589Y-99172692D01*
X158363741Y-99189120D01*
X158322680Y-99188142D01*
X158290183Y-99177664D01*
X158241721Y-99148005D01*
X158195195Y-99104121D01*
X158159012Y-99055705D01*
X158141573Y-99012451D01*
X158141072Y-99005671D01*
X158152680Y-98961757D01*
X158183294Y-98905358D01*
X158226600Y-98845497D01*
X158276283Y-98791201D01*
X158312563Y-98760545D01*
X158369458Y-98728162D01*
X158422282Y-98713131D01*
X158430125Y-98712750D01*
X158502342Y-98728220D01*
G37*
G36*
X158422970Y-95814748D02*
G01*
X158492487Y-95871577D01*
X158566056Y-95952810D01*
X158614903Y-96020654D01*
X158636714Y-96076139D01*
X158632144Y-96125260D01*
X158601850Y-96174014D01*
X158591550Y-96185552D01*
X158520375Y-96242171D01*
X158442440Y-96268875D01*
X158415888Y-96270700D01*
X158378411Y-96258144D01*
X158329258Y-96224882D01*
X158275669Y-96177526D01*
X158224881Y-96122686D01*
X158184132Y-96066974D01*
X158174475Y-96050194D01*
X158135724Y-95977149D01*
X158167470Y-95913191D01*
X158199007Y-95863642D01*
X158236620Y-95822434D01*
X158244263Y-95816322D01*
X158301226Y-95788125D01*
X158360005Y-95787265D01*
X158422970Y-95814748D01*
G37*
G36*
X158010868Y-97334334D02*
G01*
X158064143Y-97336742D01*
X158099588Y-97342668D01*
X158124897Y-97353676D01*
X158147767Y-97371330D01*
X158156830Y-97379562D01*
X158202723Y-97437788D01*
X158216087Y-97499226D01*
X158200640Y-97560164D01*
X158176741Y-97604020D01*
X158146489Y-97634092D01*
X158103609Y-97652821D01*
X158041823Y-97662645D01*
X157954856Y-97666006D01*
X157928063Y-97666122D01*
X157755670Y-97666122D01*
X157699189Y-97609640D01*
X157655629Y-97551804D01*
X157643686Y-97493365D01*
X157662292Y-97427755D01*
X157667798Y-97416607D01*
X157689410Y-97382352D01*
X157716732Y-97358941D01*
X157756070Y-97344399D01*
X157813725Y-97336755D01*
X157896002Y-97334033D01*
X157932066Y-97333878D01*
X158010868Y-97334334D01*
G37*
%TD*%
D12*
%TO.C,R5*%
X137000000Y-80920000D03*
D13*
X137000000Y-91080000D03*
%TD*%
D14*
%TO.C,U1*%
X137700000Y-101300000D03*
D13*
X140240000Y-101300000D03*
X142780000Y-101300000D03*
X145320000Y-101300000D03*
X145320000Y-93680000D03*
X142780000Y-93680000D03*
X140240000Y-93680000D03*
X137700000Y-93680000D03*
%TD*%
D12*
%TO.C,R6*%
X137000000Y-103920000D03*
D13*
X137000000Y-114080000D03*
%TD*%
D12*
%TO.C,R1*%
X155000000Y-80080000D03*
D13*
X155000000Y-69920000D03*
%TD*%
D12*
%TO.C,R2*%
X137000000Y-78580000D03*
D13*
X137000000Y-68420000D03*
%TD*%
D12*
%TO.C,R3*%
X137000000Y-126580000D03*
D13*
X137000000Y-116420000D03*
%TD*%
D12*
%TO.C,R4*%
X155000000Y-125080000D03*
D13*
X155000000Y-114920000D03*
%TD*%
D15*
%TO.C,C1*%
X141500000Y-105750000D03*
X141500000Y-108250000D03*
%TD*%
%TO.C,C2*%
X141500000Y-86750000D03*
X141500000Y-89250000D03*
%TD*%
D16*
%TO.C,BT1*%
X152500000Y-97500000D03*
D17*
X132010000Y-97500000D03*
%TD*%
D18*
%TO.C,SW4*%
X159500000Y-120000000D03*
X168500000Y-120000000D03*
D19*
X161500000Y-126250000D03*
X161500000Y-113750000D03*
X166500000Y-126250000D03*
X166500000Y-113750000D03*
D20*
X157250000Y-120000000D03*
X170750000Y-120000000D03*
%TD*%
D18*
%TO.C,SW3*%
X141500000Y-120000000D03*
X150500000Y-120000000D03*
D19*
X143500000Y-126250000D03*
X143500000Y-113750000D03*
X148500000Y-126250000D03*
X148500000Y-113750000D03*
D20*
X139250000Y-120000000D03*
X152750000Y-120000000D03*
%TD*%
D18*
%TO.C,SW2*%
X141500000Y-75000000D03*
X150500000Y-75000000D03*
D19*
X143500000Y-81250000D03*
X143500000Y-68750000D03*
X148500000Y-81250000D03*
X148500000Y-68750000D03*
D20*
X139250000Y-75000000D03*
X152750000Y-75000000D03*
%TD*%
D18*
%TO.C,SW1*%
X159500000Y-75000000D03*
X168500000Y-75000000D03*
D19*
X161500000Y-81250000D03*
X161500000Y-68750000D03*
X166500000Y-81250000D03*
X166500000Y-68750000D03*
D20*
X157250000Y-75000000D03*
X170750000Y-75000000D03*
%TD*%
D21*
%TO.C,LS1*%
X165000000Y-93700000D03*
D22*
X165000000Y-101300000D03*
%TD*%
M02*
