M48
; DRILL file {KiCad 8.0.6-8.0.6-0~ubuntu20.04.1} date 2024-11-17T18:25:12+0100
; FORMAT={-:-/ absolute / inch / decimal}
; #@! TF.CreationDate,2024-11-17T18:25:12+01:00
; #@! TF.GenerationSoftware,Kicad,Pcbnew,8.0.6-8.0.6-0~ubuntu20.04.1
; #@! TF.FileFunction,Plated,1,2,PTH
FMAT,2
INCH
; #@! TA.AperFunction,Plated,PTH,ViaDrill
T1C0.0118
; #@! TA.AperFunction,Plated,PTH,ComponentDrill
T2C0.0276
; #@! TA.AperFunction,Plated,PTH,ComponentDrill
T3C0.0315
; #@! TA.AperFunction,Plated,PTH,ComponentDrill
T4C0.0394
; #@! TA.AperFunction,Plated,PTH,ComponentDrill
T5C0.0433
; #@! TA.AperFunction,Plated,PTH,ComponentDrill
T6C0.0591
%
G90
G05
T1
X5.2165Y-2.7559
X5.2165Y-4.9213
X5.5512Y-4.4094
X5.6004Y-4.6161
X5.6496Y-4.0748
X5.6693Y-3.9173
X5.9252Y-3.0512
X6.2008Y-3.6417
X6.2008Y-4.0354
X6.3976Y-3.6417
X6.3976Y-4.0354
X6.752Y-3.6417
X6.752Y-4.0354
T2
X5.5709Y-3.4154
X5.5709Y-3.5138
X5.5709Y-4.1634
X5.5709Y-4.2618
T3
X5.3937Y-2.6937
X5.3937Y-3.0937
X5.3937Y-3.1858
X5.3937Y-3.5858
X5.3937Y-4.0913
X5.3937Y-4.4913
X5.3937Y-4.5835
X5.3937Y-4.9835
X5.4213Y-3.6882
X5.4213Y-3.9882
X5.5213Y-3.6882
X5.5213Y-3.9882
X5.6213Y-3.6882
X5.6213Y-3.9882
X5.7213Y-3.6882
X5.7213Y-3.9882
X6.1024Y-2.7528
X6.1024Y-3.1528
X6.1024Y-4.5244
X6.1024Y-4.9244
T4
X6.4961Y-3.689
X6.4961Y-3.9882
T5
X5.4823Y-2.9528
X5.4823Y-4.7244
X6.0138Y-2.9528
X6.0138Y-4.7244
X6.1909Y-2.9528
X6.1909Y-4.7244
X6.7224Y-2.9528
X6.7224Y-4.7244
T6
X5.1972Y-3.8386
X5.6496Y-2.7067
X5.6496Y-3.1988
X5.6496Y-4.4783
X5.6496Y-4.9705
X5.8465Y-2.7067
X5.8465Y-3.1988
X5.8465Y-4.4783
X5.8465Y-4.9705
X6.0039Y-3.8386
X6.3583Y-2.7067
X6.3583Y-3.1988
X6.3583Y-4.4783
X6.3583Y-4.9705
X6.5551Y-2.7067
X6.5551Y-3.1988
X6.5551Y-4.4783
X6.5551Y-4.9705
M30
